<?xml version="1.0" standalone="no"?><!DOCTYPE svg PUBLIC "-//W3C//DTD SVG 1.1//EN" "http://www.w3.org/Graphics/SVG/1.1/DTD/svg11.dtd"><svg t="1675757486096" class="icon" viewBox="0 0 1024 1024" version="1.1" xmlns="http://www.w3.org/2000/svg" p-id="40942" id="mx_n_1675757486097" data-spm-anchor-id="a313x.7781069.0.i76" xmlns:xlink="http://www.w3.org/1999/xlink" width="200" height="200"><path d="M973.587692 220.553846L929.476923 204.8l23.630769-67.741538 61.44-28.356924z" fill="#d81e06" p-id="40943" data-spm-anchor-id="a313x.7781069.0.i75" class=""></path><path d="M929.476923 204.8L638.030769 1011.396923h50.412308L973.587692 220.553846z" fill="#965353" p-id="40944"></path><path d="M929.476923 204.8L638.030769 1011.396923h50.412308L973.587692 220.553846z" fill="#2c2c2c" p-id="40945" data-spm-anchor-id="a313x.7781069.0.i73" class=""></path><path d="M653.784615 1011.396923l289.87077-801.870769-14.178462-4.726154-291.446154 806.596923h50.412308z" fill="#FFFFFF" p-id="40946"></path><path d="M472.615385 995.643077v15.753846h165.415384l58.289231-163.84zM921.6 1011.396923H688.443077l3.150769-7.876923L740.430769 866.461538l22.055385 7.876924c23.630769 11.027692 45.686154 20.48 63.015384 26.781538 64.590769 23.630769 96.098462 47.261538 96.098462 110.276923zM472.615385 995.643077v15.753846H23.630769c0-31.507692 7.876923-53.563077 23.630769-69.316923 15.753846-17.329231 39.384615-28.356923 70.892308-40.96 28.356923-11.027692 86.646154-39.384615 121.304616-59.864615l20.48 12.603077 212.676923 141.784615z" fill="#d81e06" p-id="40947" data-spm-anchor-id="a313x.7781069.0.i78" class=""></path><path d="M680.566154 825.501538l22.055384 7.876924-6.301538 15.753846-33.083077 20.48-192.196923 126.030769-211.101538-141.784615-20.48-12.603077c29.932308-18.904615 51.987692-36.233846 51.987692-50.412308v-63.015385c56.713846 66.166154 127.606154 110.276923 181.169231 110.276923 53.563077 0 124.455385-44.110769 181.16923-110.276923v63.015385c0 9.452308 9.452308 22.055385 26.781539 34.658461z" fill="#D7E9FF" p-id="40948"></path><path d="M680.566154 825.501538c-15.753846-12.603077-26.781538-23.630769-26.781539-33.083076v-63.015385c-9.452308 12.603077-20.48 23.630769-31.507692 33.083077v29.932308c0 9.452308 42.535385 56.713846 42.535385 56.713846l-33.083077 20.48L456.861538 986.190769l15.753847 11.027693 192.196923-126.03077 33.083077-20.48 6.301538-15.753846-23.630769-9.452308z" fill="#94C1FF" p-id="40949"></path><path d="M293.021538 853.858462l-20.48-12.603077c29.932308-18.904615 51.987692-36.233846 51.987693-50.412308v-29.932308c-11.027692-11.027692-22.055385-22.055385-31.507693-33.083077v63.015385c0 14.178462-22.055385 33.083077-51.987692 50.412308l20.48 12.603077 211.101539 141.784615 15.753846-11.027692-195.347693-130.756923z" fill="#FFFFFF" p-id="40950"></path><path d="M291.446154 727.827692v63.015385c0 14.178462-22.055385 33.083077-51.987692 50.412308l-11.027693-18.904616c-110.276923-173.292308-78.769231-315.076923-78.769231-315.076923v-31.507692c11.027692 6.301538 40.96 22.055385 61.44 33.083077l-11.027692 20.48c9.452308 75.618462 45.686154 144.935385 91.372308 198.498461zM653.784615 727.827692v63.015385c0 14.178462 22.055385 33.083077 51.987693 50.412308l94.523077-285.144616c0-31.507692-4.726154-80.344615-4.726154-80.344615l-14.178462 7.876923c-11.027692 6.301538-26.781538 14.178462-47.261538 25.206154l11.027692 20.48c-9.452308 75.618462-45.686154 144.935385-91.372308 198.498461z" fill="#d81e06" p-id="40951" data-spm-anchor-id="a313x.7781069.0.i81" class="selected"></path><path d="M472.615385 617.550769c44.110769 0 190.621538-81.92 256.787692-105.550769 3.150769-1.575385 15.753846 18.904615 15.753846 18.904615l-26.781538 107.126154-64.59077 91.372308c-56.713846 66.166154-127.606154 110.276923-181.16923 110.276923-53.563077 0-124.455385-44.110769-181.169231-110.276923-45.686154-53.563077-81.92-124.455385-91.372308-198.498462l11.027692-20.48c78.769231 40.96 212.676923 107.126154 261.513847 107.126154z" fill="#E6E9ED" p-id="40952"></path><path d="M472.615385 617.550769c44.110769 0 190.621538-81.92 256.787692-105.550769 3.150769-1.575385 15.753846 18.904615 15.753846 18.904615l-26.781538 107.126154-64.59077 91.372308c-56.713846 66.166154-127.606154 110.276923-181.16923 110.276923-53.563077 0-124.455385-44.110769-181.169231-110.276923-45.686154-53.563077-81.92-124.455385-91.372308-198.498462l11.027692-20.48c78.769231 40.96 212.676923 107.126154 261.513847 107.126154z" fill="#D7E9FF" p-id="40953"></path><path d="M946.806154 83.495385l-58.289231 80.344615C472.615385 14.178462 184.32 108.701538 173.292308 111.852308c9.452308-7.876923 207.950769-182.744615 773.513846-28.356923z" fill="#2c2c2c" p-id="40954" data-spm-anchor-id="a313x.7781069.0.i74" class=""></path><path d="M472.615385 144.935385c259.938462 0 322.953846 330.830769 322.953846 330.830769s-252.061538 141.784615-322.953846 141.784615c-48.836923 0-182.744615-67.741538-261.513847-108.701538-20.48-11.027692-36.233846-18.904615-47.261538-25.206154-9.452308-4.726154-14.178462-7.876923-14.178462-7.876923s63.015385-330.830769 322.953847-330.830769z" fill="#d81e06" p-id="40955" data-spm-anchor-id="a313x.7781069.0.i77" class="selected"></path><path d="M472.615385 144.935385h-15.753847c247.335385 12.603077 307.2 330.830769 307.2 330.830769s-220.553846 124.455385-307.2 140.209231c6.301538 1.575385 11.027692 1.575385 15.753847 1.575384 70.892308 0 322.953846-141.784615 322.953846-141.784615s-63.015385-330.830769-322.953846-330.830769z" fill="#d81e06" p-id="40956" data-spm-anchor-id="a313x.7781069.0.i79" class=""></path><path d="M241.033846 508.849231c-20.48-11.027692-36.233846-18.904615-47.261538-25.206154-9.452308-4.726154-14.178462-7.876923-14.178462-7.876923s59.864615-316.652308 307.2-330.830769h-15.753846c-259.938462 0-322.953846 330.830769-322.953846 330.830769s4.726154 3.150769 14.178461 7.876923c11.027692 6.301538 26.781538 14.178462 47.261539 25.206154 78.769231 42.535385 214.252308 108.701538 261.513846 108.701538 4.726154 0 9.452308 0 15.753846-1.575384-55.138462-9.452308-173.292308-69.316923-245.76-107.126154z" fill="#d81e06" p-id="40957" data-spm-anchor-id="a313x.7781069.0.i80" class="selected"></path><path d="M322.953846 727.827692c-37.809231-44.110769-67.741538-97.673846-83.495384-155.963077-11.027692-4.726154-20.48-11.027692-28.356924-15.753846-3.150769-1.575385-4.726154-3.150769-6.301538-3.150769 12.603077 66.166154 47.261538 127.606154 88.221538 174.867692 56.713846 66.166154 127.606154 110.276923 181.169231 110.276923 4.726154 0 11.027692 0 15.753846-1.575384-53.563077-6.301538-116.578462-47.261538-166.990769-108.701539z" fill="#FFFFFF" p-id="40958"></path><path d="M710.498462 521.452308c9.452308-4.726154 17.329231-9.452308 25.206153-12.603077-9.452308 4.726154-17.329231 9.452308-25.206153 12.603077zM622.276923 727.827692c37.809231-44.110769 67.741538-97.673846 83.495385-155.963077 11.027692-4.726154 20.48-11.027692 28.356923-15.753846 3.150769-1.575385 4.726154-3.150769 6.301538-3.150769-12.603077 66.166154-47.261538 127.606154-88.221538 174.867692-56.713846 66.166154-127.606154 110.276923-181.169231 110.276923-4.726154 0-11.027692 0-15.753846-1.575384 53.563077-6.301538 116.578462-47.261538 166.990769-108.701539z" fill="#94C1FF" p-id="40959"></path><path d="M203.224615 552.96c1.575385 1.575385 4.726154 3.150769 6.301539 3.150769 78.769231 42.535385 214.252308 108.701538 261.513846 108.701539 50.412308 0 189.046154-69.316923 267.815385-111.852308l6.301538-23.630769s-12.603077-20.48-15.753846-18.904616c-78.769231 42.535385-209.526154 107.126154-256.787692 107.126154-48.836923 0-182.744615-67.741538-261.513847-108.701538l-11.027692 20.48c0 7.876923 1.575385 15.753846 3.150769 23.630769z" fill="#94C1FF" p-id="40960"></path></svg>