<?xml version="1.0" standalone="no"?><!DOCTYPE svg PUBLIC "-//W3C//DTD SVG 1.1//EN" "http://www.w3.org/Graphics/SVG/1.1/DTD/svg11.dtd"><svg t="1675835196159" class="icon" viewBox="0 0 1024 1024" version="1.1" xmlns="http://www.w3.org/2000/svg" p-id="20262" xmlns:xlink="http://www.w3.org/1999/xlink" width="200" height="200"><path d="M694.744615 612.824615c0 11.027692 18.904615 26.781538 47.261539 40.96v162.264616s15.753846 110.276923-228.430769 110.276923-228.430769-110.276923-228.43077-110.276923V655.36c28.356923-15.753846 47.261538-29.932308 47.261539-40.96v-63.015385c56.713846 66.166154 127.606154 110.276923 181.169231 110.276923 53.563077 0 124.455385-44.110769 181.16923-110.276923v61.44zM513.575385 14.178462c-152.812308 0-275.692308 118.153846-275.692308 299.323076v34.658462s12.603077 100.824615 94.523077 77.193846c81.92-22.055385 132.332308-59.864615 163.84-29.932308 11.027692 11.027692 17.329231 22.055385 17.329231 33.083077 0-11.027692 4.726154-23.630769 17.32923-33.083077 31.507692-29.932308 81.92 7.876923 163.84 29.932308s94.523077-77.193846 94.523077-77.193846v-34.658462c0-179.593846-124.455385-299.323077-275.692307-299.323076z" fill="#D7E9FF" p-id="20263"></path><path d="M269.390769 348.16v-34.658462c0-173.292308 115.003077-289.870769 259.938462-299.323076h-15.753846c-152.812308 0-275.692308 118.153846-275.692308 299.323076v34.658462s12.603077 94.523077 88.221538 78.769231c-48.836923-11.027692-56.713846-78.769231-56.713846-78.769231z" fill="#FFFFFF" p-id="20264"></path><path d="M757.76 348.16v-34.658462c0-173.292308-115.003077-289.870769-259.938462-299.323076h15.753847c152.812308 0 275.692308 118.153846 275.692307 299.323076v34.658462s-12.603077 94.523077-88.221538 78.769231c47.261538-11.027692 56.713846-78.769231 56.713846-78.769231z" fill="#94C1FF" p-id="20265"></path><path d="M608.098462 504.123077c-59.864615-15.753846-94.523077-44.110769-94.523077-74.043077 0 29.932308-34.658462 58.289231-94.523077 74.043077-28.356923 7.876923-105.550769-17.329231-138.633846-29.932308l28.356923 44.110769c7.876923 11.027692 15.753846 22.055385 23.630769 31.507693 56.713846 66.166154 127.606154 110.276923 181.169231 110.276923 53.563077 0 124.455385-44.110769 181.16923-110.276923 7.876923-9.452308 15.753846-20.48 23.63077-31.507693l28.356923-44.110769c-33.083077 12.603077-111.852308 36.233846-138.633846 29.932308z" fill="#D7E9FF" p-id="20266"></path><path d="M694.744615 565.563077v-15.753846c-56.713846 66.166154-127.606154 110.276923-181.16923 110.276923-53.563077 0-124.455385-44.110769-181.169231-110.276923v15.753846c56.713846 66.166154 127.606154 110.276923 181.169231 110.276923 53.563077 0 124.455385-42.535385 181.16923-110.276923z" p-id="20267"></path><path d="M363.913846 549.809231c-7.876923-9.452308-15.753846-20.48-23.630769-31.507693l-20.48-31.507692c-15.753846-4.726154-29.932308-9.452308-39.384615-12.603077l28.356923 44.110769c7.876923 11.027692 15.753846 22.055385 23.630769 31.507693 56.713846 66.166154 127.606154 110.276923 181.169231 110.276923 4.726154 0 11.027692 0 15.753846-1.575385-51.987692-6.301538-115.003077-47.261538-165.415385-108.701538z" fill="#FFFFFF" p-id="20268"></path><path d="M663.236923 549.809231c7.876923-9.452308 15.753846-20.48 23.630769-31.507693l20.48-31.507692c15.753846-4.726154 29.932308-9.452308 39.384616-12.603077l-28.356923 44.110769c-7.876923 11.027692-15.753846 22.055385-23.63077 31.507693-56.713846 66.166154-127.606154 110.276923-181.16923 110.276923-4.726154 0-11.027692 0-15.753847-1.575385 50.412308-6.301538 113.427692-47.261538 165.415385-108.701538z" fill="#94C1FF" p-id="20269"></path><path d="M994.067692 833.378462v173.292307h-173.292307V693.169231c29.932308 12.603077 59.864615 23.630769 78.76923 31.507692 63.015385 22.055385 94.523077 45.686154 94.523077 108.701539z" fill="#D7E9FF" p-id="20270"></path><path d="M285.144615 655.36v162.264615s-15.753846 110.276923 228.43077 110.276923 228.430769-110.276923 228.430769-110.276923V655.36c23.630769 12.603077 51.987692 25.206154 78.769231 37.809231v315.076923h-614.4V693.169231c26.781538-12.603077 55.138462-25.206154 78.76923-37.809231z" fill="#94C1FF" p-id="20271"></path><path d="M513.575385 927.901538c244.184615 0 228.430769-110.276923 228.430769-110.276923v-7.876923c-1.575385 25.206154-25.206154 102.4-228.430769 102.4s-226.855385-75.618462-228.43077-102.4v7.876923s-15.753846 110.276923 228.43077 110.276923z" p-id="20272"></path><path d="M206.375385 693.169231v315.076923h-173.292308V834.953846c0-63.015385 31.507692-86.646154 94.523077-110.276923 18.904615-7.876923 48.836923-18.904615 78.769231-31.507692z" fill="#D7E9FF" p-id="20273"></path><path d="M159.113846 754.609231c12.603077-4.726154 28.356923-11.027692 47.261539-18.904616V693.169231c-29.932308 12.603077-59.864615 23.630769-78.769231 31.507692-63.015385 23.630769-94.523077 47.261538-94.523077 110.276923v173.292308h31.507692v-141.784616c0-64.590769 31.507692-88.221538 94.523077-111.852307z" fill="#FFFFFF" p-id="20274"></path><path d="M237.883077 724.676923c15.753846-6.301538 31.507692-14.178462 47.261538-20.48v-47.261538c-23.630769 12.603077-51.987692 25.206154-78.76923 37.80923v44.11077c9.452308-6.301538 20.48-9.452308 31.507692-14.178462z" fill="#D7E9FF" p-id="20275"></path><path d="M496.246154 395.421538c11.027692 11.027692 17.329231 22.055385 17.329231 33.083077 0 29.932308-34.658462 58.289231-94.523077 74.043077-28.356923 7.876923-64.590769 3.150769-97.673846-7.876923-66.166154-23.630769-121.304615-81.92-72.467693-152.812307 0 0 1.575385 107.126154 85.070769 85.070769 80.344615-23.630769 130.756923-61.44 162.264616-31.507693zM778.24 341.858462c53.563077 78.769231-17.329231 140.209231-92.947692 159.113846-28.356923 7.876923-55.138462 7.876923-77.193846 3.150769-59.864615-15.753846-94.523077-44.110769-94.523077-74.043077 0-11.027692 4.726154-23.630769 17.32923-33.083077 31.507692-29.932308 81.92 7.876923 163.84 29.932308s83.495385-85.070769 83.495385-85.070769z" fill="#94C1FF" p-id="20276"></path><path d="M289.870769 458.436923c-17.329231-17.329231-28.356923-37.809231-28.356923-61.44-12.603077-25.206154-12.603077-53.563077-12.603077-53.563077-31.507692 47.261538-20.48 86.646154 11.027693 116.578462 36.233846 34.658462 97.673846 53.563077 144.935384 48.836923-42.535385-6.301538-86.646154-23.630769-115.003077-50.412308z" fill="#D7E9FF" p-id="20277"></path><path d="M778.24 341.858462s0 28.356923-12.603077 53.563076c0 23.630769-11.027692 45.686154-28.356923 61.44-28.356923 26.781538-72.467692 44.110769-113.427692 48.836924 45.686154 4.726154 108.701538-14.178462 144.935384-48.836924 29.932308-28.356923 40.96-67.741538 9.452308-115.003076z" fill="#5C9EFF" p-id="20278"></path><path d="M332.406154 565.563077v47.261538c0 11.027692-18.904615 26.781538-47.261539 40.96v47.261539c11.027692-4.726154 22.055385-11.027692 31.507693-15.753846 28.356923-15.753846 47.261538-29.932308 47.261538-40.96V598.646154c-11.027692-9.452308-22.055385-20.48-31.507692-33.083077z" fill="#FFFFFF" p-id="20279"></path><path d="M868.036923 754.609231c-12.603077-4.726154-28.356923-11.027692-47.261538-18.904616V693.169231c29.932308 12.603077 59.864615 23.630769 78.76923 31.507692 63.015385 23.630769 94.523077 47.261538 94.523077 110.276923v173.292308h-31.507692v-141.784616c0-64.590769-31.507692-88.221538-94.523077-111.852307z" fill="#94C1FF" p-id="20280"></path><path d="M789.267692 724.676923c-15.753846-6.301538-31.507692-14.178462-47.261538-20.48v-47.261538c23.630769 12.603077 51.987692 25.206154 78.769231 37.80923v44.11077c-11.027692-6.301538-22.055385-9.452308-31.507693-14.178462z" fill="#5C9EFF" p-id="20281"></path><path d="M694.744615 565.563077v47.261538c0 11.027692 18.904615 26.781538 47.261539 40.96v47.261539c-11.027692-4.726154-22.055385-11.027692-31.507692-15.753846-28.356923-15.753846-47.261538-29.932308-47.261539-40.96V598.646154c11.027692-9.452308 20.48-20.48 31.507692-33.083077z" fill="#94C1FF" p-id="20282"></path><path d="M994.067692 1014.547692h-960.984615c-4.726154 0-7.876923-3.150769-7.876923-7.876923v-173.292307c0-67.741538 34.658462-92.947692 99.249231-118.153847 18.904615-6.301538 47.261538-17.329231 78.76923-31.507692 31.507692-12.603077 58.289231-25.206154 78.769231-36.233846 42.535385-23.630769 42.535385-33.083077 42.535385-34.658462 0-4.726154 3.150769-7.876923 7.876923-7.876923s7.876923 3.150769 7.876923 7.876923c0 9.452308-4.726154 23.630769-51.987692 48.836923-20.48 11.027692-47.261538 23.630769-78.769231 37.809231-31.507692 12.603077-59.864615 23.630769-78.769231 31.507693-59.864615 22.055385-89.796923 44.110769-89.796923 102.4v165.415384h945.230769V833.378462c0-59.864615-28.356923-80.344615-89.796923-102.4-18.904615-6.301538-48.836923-18.904615-78.769231-31.507693-31.507692-14.178462-58.289231-26.781538-78.76923-37.809231-45.686154-25.206154-51.987692-39.384615-51.987693-48.836923 0-4.726154 3.150769-7.876923 7.876923-7.876923s7.876923 3.150769 7.876923 7.876923c0 1.575385 1.575385 11.027692 42.535385 34.658462 20.48 11.027692 47.261538 23.630769 78.769231 36.233846 29.932308 12.603077 59.864615 23.630769 78.769231 31.507692 64.590769 23.630769 99.249231 50.412308 99.24923 118.153847v173.292307c0 4.726154-4.726154 7.876923-7.876923 7.876923zM789.267692 321.378462c-4.726154 0-7.876923-3.150769-7.876923-7.876924 0-168.566154-111.852308-291.446154-267.815384-291.446153s-267.815385 122.88-267.815385 291.446153c0 4.726154-3.150769 7.876923-7.876923 7.876924s-7.876923-3.150769-7.876923-7.876924C230.006154 135.483077 349.735385 6.301538 513.575385 6.301538s283.569231 129.181538 283.56923 307.2c0 4.726154-4.726154 7.876923-7.876923 7.876924z" fill="#116FFF" p-id="20283"></path><path d="M513.575385 667.963077c-55.138462 0-129.181538-44.110769-187.47077-113.427692-9.452308-11.027692-17.329231-22.055385-25.206153-31.507693-1.575385-3.150769-1.575385-7.876923 1.575384-11.027692 3.150769-3.150769 7.876923-1.575385 11.027692 1.575385 7.876923 11.027692 15.753846 20.48 23.63077 31.507692 55.138462 64.590769 124.455385 107.126154 174.867692 107.126154s119.729231-42.535385 174.867692-107.126154c12.603077-15.753846 25.206154-31.507692 34.658462-47.261539 1.575385-3.150769 7.876923-4.726154 11.027692-3.150769 3.150769 1.575385 4.726154 7.876923 3.150769 11.027693-9.452308 15.753846-22.055385 33.083077-36.233846 48.836923-56.713846 69.316923-130.756923 113.427692-185.895384 113.427692z" fill="#116FFF" p-id="20284"></path><path d="M332.406154 620.701538c-4.726154 0-7.876923-3.150769-7.876923-7.876923v-63.015384c0-4.726154 3.150769-7.876923 7.876923-7.876923s7.876923 3.150769 7.876923 7.876923v63.015384c0 4.726154-4.726154 7.876923-7.876923 7.876923zM694.744615 620.701538c-4.726154 0-7.876923-3.150769-7.876923-7.876923v-63.015384c0-4.726154 3.150769-7.876923 7.876923-7.876923s7.876923 3.150769 7.876923 7.876923v63.015384c0 4.726154-4.726154 7.876923-7.876923 7.876923zM387.544615 515.150769c-22.055385 0-45.686154-4.726154-69.316923-12.603077-47.261538-17.329231-81.92-47.261538-92.947692-80.344615-9.452308-26.781538-3.150769-55.138462 15.753846-83.495385 1.575385-3.150769 4.726154-4.726154 9.452308-3.150769 3.150769 1.575385 6.301538 4.726154 6.301538 7.876923 0 0 1.575385 51.987692 28.356923 70.892308 11.027692 9.452308 26.781538 11.027692 45.686154 4.726154 25.206154-6.301538 47.261538-15.753846 66.166154-22.055385 45.686154-17.329231 78.769231-29.932308 105.550769-6.301538 12.603077 12.603077 18.904615 25.206154 18.904616 39.384615 0 34.658462-39.384615 64.590769-100.824616 81.92-11.027692 1.575385-22.055385 3.150769-33.083077 3.150769z m-144.935384-148.086154c-6.301538 17.329231-7.876923 33.083077-3.150769 48.836923 9.452308 29.932308 40.96 55.138462 83.495384 70.892308 33.083077 12.603077 67.741538 15.753846 92.947692 7.876923 53.563077-14.178462 88.221538-39.384615 88.221539-66.166154 0-9.452308-4.726154-18.904615-14.178462-28.356923-17.329231-17.329231-42.535385-7.876923-88.221538 9.452308-20.48 7.876923-42.535385 15.753846-67.741539 23.630769-23.630769 6.301538-44.110769 3.150769-59.864615-7.876923-18.904615-14.178462-26.781538-39.384615-31.507692-58.289231z" fill="#116FFF" p-id="20285"></path><path d="M639.606154 515.150769c-12.603077 0-23.630769-1.575385-33.083077-3.150769-61.44-15.753846-100.824615-47.261538-100.824615-81.92 0-14.178462 6.301538-28.356923 18.904615-39.384615 25.206154-23.630769 58.289231-11.027692 105.550769 6.301538 18.904615 7.876923 40.96 15.753846 66.166154 22.055385 18.904615 4.726154 34.658462 3.150769 45.686154-4.726154 26.781538-20.48 28.356923-70.892308 28.356923-70.892308 0-3.150769 1.575385-6.301538 6.301538-7.876923 3.150769-1.575385 6.301538 0 9.452308 3.150769 20.48 29.932308 25.206154 59.864615 14.178462 88.221539-17.329231 44.110769-69.316923 72.467692-111.852308 83.495384-17.329231 3.150769-34.658462 4.726154-48.836923 4.726154z m-80.344616-122.88c-9.452308 0-17.329231 3.150769-23.630769 9.452308-9.452308 9.452308-14.178462 18.904615-14.178461 28.356923 0 26.781538 34.658462 51.987692 88.221538 66.166154 20.48 4.726154 47.261538 4.726154 74.043077-3.150769 39.384615-9.452308 86.646154-34.658462 100.824615-74.043077 6.301538-17.329231 6.301538-34.658462-1.575384-51.987693-3.150769 18.904615-12.603077 44.110769-31.507692 58.289231-15.753846 12.603077-36.233846 14.178462-59.864616 7.876923-25.206154-7.876923-48.836923-15.753846-67.741538-23.630769-28.356923-9.452308-48.836923-17.329231-64.59077-17.329231zM285.144615 825.501538c-4.726154 0-7.876923-3.150769-7.876923-7.876923V655.36c0-4.726154 3.150769-7.876923 7.876923-7.876923s7.876923 3.150769 7.876923 7.876923v162.264615c0 4.726154-4.726154 7.876923-7.876923 7.876923zM742.006154 825.501538c-4.726154 0-7.876923-3.150769-7.876923-7.876923V655.36c0-4.726154 3.150769-7.876923 7.876923-7.876923s7.876923 3.150769 7.876923 7.876923v162.264615c0 4.726154-4.726154 7.876923-7.876923 7.876923z" fill="#116FFF" p-id="20286"></path><path d="M513.575385 935.778462c-107.126154 0-179.593846-20.48-215.827693-61.44-25.206154-28.356923-20.48-56.713846-20.48-58.289231 0-4.726154 4.726154-7.876923 9.452308-6.301539 4.726154 0 7.876923 4.726154 6.301538 9.452308 0 1.575385-3.150769 22.055385 17.329231 45.686154 22.055385 25.206154 75.618462 55.138462 203.224616 55.138461 127.606154 0 181.169231-29.932308 203.224615-56.713846 20.48-23.630769 17.329231-44.110769 17.329231-45.686154 0-4.726154 3.150769-7.876923 6.301538-9.452307 4.726154 0 7.876923 3.150769 9.452308 6.301538 0 1.575385 3.150769 28.356923-20.48 58.289231-36.233846 42.535385-108.701538 63.015385-215.827692 63.015385zM820.775385 1014.547692c-4.726154 0-7.876923-3.150769-7.876923-7.876923V693.169231c0-4.726154 3.150769-7.876923 7.876923-7.876923s7.876923 3.150769 7.876923 7.876923v315.076923c0 3.150769-4.726154 6.301538-7.876923 6.301538zM206.375385 1014.547692c-4.726154 0-7.876923-3.150769-7.876923-7.876923V693.169231c0-4.726154 3.150769-7.876923 7.876923-7.876923s7.876923 3.150769 7.876923 7.876923v315.076923c0 3.150769-4.726154 6.301538-7.876923 6.301538z" fill="#116FFF" p-id="20287"></path></svg>