<?xml version="1.0" standalone="no"?><!DOCTYPE svg PUBLIC "-//W3C//DTD SVG 1.1//EN" "http://www.w3.org/Graphics/SVG/1.1/DTD/svg11.dtd"><svg t="1675756742662" class="icon" viewBox="0 0 1024 1024" version="1.1" xmlns="http://www.w3.org/2000/svg" p-id="15302" xmlns:xlink="http://www.w3.org/1999/xlink" width="200" height="200"><path d="M305.624615 724.676923l31.507693 31.507692s3.150769 23.630769 0 23.63077 0 105.550769 0 105.550769L270.966154 819.2l34.658461-34.658462V724.676923zM615.975385 724.676923l-31.507693 31.507692s-3.150769 23.630769 0 23.63077 0 105.550769 0 105.550769l66.166154-66.166154-34.658461-34.658462V724.676923z" fill="#D7E9FF" p-id="15303"></path><path d="M701.046154 513.575385c0 96.098462-53.563077 187.470769-116.578462 245.76-40.96 37.809231-86.646154 61.44-121.304615 61.44-36.233846 0-80.344615-23.630769-121.304615-61.44-63.015385-58.289231-116.578462-149.661538-116.578462-245.76V467.889231c61.44 7.876923 154.387692 11.027692 237.883077 11.027692 103.975385 0 170.141538-3.150769 237.883077-14.178461v48.836923z" fill="#D7E9FF" p-id="15304"></path><path d="M669.538462 469.464615v44.11077c0 96.098462-53.563077 187.470769-116.578462 245.76-34.658462 33.083077-74.043077 55.138462-105.550769 59.864615 4.726154 1.575385 11.027692 1.575385 15.753846 1.575385 36.233846 0 80.344615-23.630769 121.304615-61.44 63.015385-58.289231 116.578462-149.661538 116.578462-245.76v-48.836923c-11.027692 1.575385-22.055385 3.150769-31.507692 4.726153z" fill="#94C1FF" p-id="15305"></path><path d="M371.790769 759.335385c-63.015385-58.289231-116.578462-149.661538-116.578461-245.76v-42.535385c-11.027692-1.575385-22.055385-1.575385-31.507693-3.150769V513.575385c0 96.098462 53.563077 189.046154 116.578462 245.76 40.96 37.809231 86.646154 61.44 121.304615 61.44 4.726154 0 11.027692 0 15.753846-1.575385-31.507692-4.726154-69.316923-26.781538-105.550769-59.864615z" fill="#FFFFFF" p-id="15306"></path><path d="M926.326154 554.535385c-42.535385-20.48-111.852308-18.904615-132.332308 11.027692-28.356923 40.96-89.796923 266.24-133.907692 442.683077H693.169231l37.809231-146.510769c36.233846-133.907692 70.892308-252.061538 89.796923-278.843077 7.876923-12.603077 58.289231-17.329231 92.947692 0 26.781538 12.603077 22.055385 28.356923 20.48 33.083077-14.178462 48.836923-28.356923 61.44-36.233846 64.590769-3.150769 1.575385-7.876923 3.150769-15.753846-1.575385-15.753846-7.876923-12.603077-25.206154-12.603077-28.356923 1.575385-7.876923-3.150769-17.329231-11.027693-18.904615-7.876923-1.575385-17.329231 3.150769-18.904615 11.027692-4.726154 15.753846-3.150769 48.836923 29.932308 64.590769 14.178462 6.301538 28.356923 6.301538 42.535384 1.575385 22.055385-9.452308 39.384615-36.233846 53.563077-83.495385 7.876923-28.356923-6.301538-55.138462-39.384615-70.892307z" fill="#D7E9FF" p-id="15307"></path><path d="M660.086154 1008.246154h-70.892308v-133.907692l64.590769-55.138462 48.836923 28.356923z" fill="#94C1FF" p-id="15308"></path><path d="M589.193846 756.184615v252.061539h-252.061538V756.184615c0-69.316923 56.713846-126.030769 126.030769-126.030769s126.030769 56.713846 126.030769 126.030769z" fill="#FFFFFF" p-id="15309"></path><path d="M337.132308 866.461538v141.784616h-283.569231v-28.356923c0-55.138462 28.356923-77.193846 83.495385-97.673846 34.658462-12.603077 96.098462-39.384615 133.907692-63.015385l50.412308 47.261538h15.753846zM872.763077 979.889231V1008.246154H693.169231l37.809231-146.510769 23.630769 6.301538c12.603077 4.726154 25.206154 9.452308 34.658461 14.178462 55.138462 22.055385 83.495385 42.535385 83.495385 97.673846zM100.824615 433.230769c0-11.027692 26.781538-20.48 94.523077-28.356923l31.507693 1.575385v3.150769s78.769231 15.753846 236.307692 15.753846 236.307692-15.753846 236.307692-15.753846v-3.150769h31.507693c67.741538 7.876923 94.523077 17.329231 94.523076 28.356923 0 22.055385-152.812308 39.384615-362.338461 39.384615-209.526154-1.575385-362.338462-18.904615-362.338462-40.96z" fill="#94C1FF" p-id="15310"></path><path d="M570.289231 130.756923c66.166154 83.495385 127.606154 195.347692 129.181538 275.692308v3.150769s-78.769231 15.753846-236.307692 15.753846-236.307692-15.753846-236.307692-15.753846v-3.150769c3.150769-110.276923 157.538462-244.184615 173.292307-359.187693 9.452308-70.892308 92.947692-12.603077 170.141539 83.495385z" fill="#94C1FF" p-id="15311"></path><path d="M699.470769 406.449231c-1.575385-80.344615-63.015385-192.196923-129.181538-275.692308-61.44-77.193846-127.606154-129.181538-155.963077-110.276923 33.083077 12.603077 80.344615 55.138462 124.455384 110.276923 66.166154 83.495385 127.606154 195.347692 129.181539 275.692308v3.150769s-74.043077 14.178462-220.553846 15.753846h15.753846c157.538462 0 236.307692-15.753846 236.307692-15.753846v-3.150769z" fill="#5C9EFF" p-id="15312"></path><path d="M258.363077 409.6v-3.150769c3.150769-110.276923 157.538462-244.184615 173.292308-359.187693 1.575385-14.178462 6.301538-23.630769 14.178461-26.781538-23.630769-9.452308-40.96-1.575385-45.686154 26.781538-15.753846 116.578462-170.141538 250.486154-173.292307 359.187693v3.150769s78.769231 15.753846 236.307692 15.753846h15.753846c-148.086154 0-220.553846-15.753846-220.553846-15.753846z" fill="#D7E9FF" p-id="15313"></path><path d="M699.470769 118.153846c-4.726154 0-7.876923-3.150769-7.876923-7.876923s3.150769-7.876923 7.876923-7.876923 7.876923 3.150769 7.876923 7.876923-3.150769 7.876923-7.876923 7.876923zM163.84 322.953846c-4.726154 0-7.876923-3.150769-7.876923-7.876923s3.150769-7.876923 7.876923-7.876923 7.876923 3.150769 7.876923 7.876923-3.150769 7.876923-7.876923 7.876923zM872.763077 86.646154c-4.726154 0-7.876923-3.150769-7.876923-7.876923s3.150769-7.876923 7.876923-7.876923 7.876923 3.150769 7.876923 7.876923-3.150769 7.876923-7.876923 7.876923zM242.609231 55.138462c-4.726154 0-7.876923-3.150769-7.876923-7.876924s3.150769-7.876923 7.876923-7.876923 7.876923 3.150769 7.876923 7.876923-3.150769 7.876923-7.876923 7.876924zM69.316923 212.676923c-4.726154 0-7.876923-3.150769-7.876923-7.876923V141.784615c0-4.726154 3.150769-7.876923 7.876923-7.876923s7.876923 4.726154 7.876923 7.876923v63.015385c0 4.726154-4.726154 7.876923-7.876923 7.876923z" fill="#116FFF" p-id="15314"></path><path d="M85.070769 181.169231h-31.507692c-4.726154 0-7.876923-3.150769-7.876923-7.876923s3.150769-7.876923 7.876923-7.876923h31.507692c4.726154 0 7.876923 3.150769 7.876923 7.876923s-4.726154 7.876923-7.876923 7.876923zM809.747692 322.953846c-4.726154 0-7.876923-3.150769-7.876923-7.876923v-63.015385c0-4.726154 3.150769-7.876923 7.876923-7.876923s7.876923 3.150769 7.876923 7.876923v63.015385c0 4.726154-4.726154 7.876923-7.876923 7.876923z" fill="#116FFF" p-id="15315"></path><path d="M825.501538 291.446154h-31.507692c-4.726154 0-7.876923-3.150769-7.876923-7.876923s3.150769-7.876923 7.876923-7.876923h31.507692c4.726154 0 7.876923 3.150769 7.876924 7.876923s-4.726154 7.876923-7.876924 7.876923z" fill="#116FFF" p-id="15316"></path><path d="M634.88 1016.123077H53.563077c-4.726154 0-7.876923-3.150769-7.876923-7.876923v-28.356923c0-59.864615 31.507692-83.495385 89.796923-105.550769 29.932308-11.027692 92.947692-37.809231 132.332308-63.015385 29.932308-18.904615 29.932308-26.781538 29.932307-28.356923 0-4.726154 3.150769-7.876923 7.876923-7.876923s7.876923 3.150769 7.876923 7.876923c0 12.603077-12.603077 25.206154-37.80923 40.96-40.96 25.206154-103.975385 51.987692-135.483077 63.015384-53.563077 20.48-78.769231 39.384615-78.769231 91.372308v20.48h573.44c4.726154 0 7.876923 3.150769 7.876923 7.876923s-3.150769 9.452308-7.876923 9.452308zM872.763077 1016.123077h-155.963077c-4.726154 0-7.876923-3.150769-7.876923-7.876923s3.150769-7.876923 7.876923-7.876923h148.086154v-20.48c0-51.987692-25.206154-70.892308-78.769231-91.372308-9.452308-3.150769-22.055385-7.876923-34.658461-14.178461-4.726154-1.575385-6.301538-6.301538-4.726154-11.027693 1.575385-4.726154 6.301538-6.301538 11.027692-4.726154 12.603077 4.726154 25.206154 9.452308 34.658462 14.178462 58.289231 22.055385 89.796923 44.110769 89.796923 105.550769V1008.246154c-1.575385 4.726154-6.301538 7.876923-9.452308 7.876923zM680.566154 842.830769c-1.575385 0-3.150769 0-3.150769-1.575384-11.027692-6.301538-18.904615-11.027692-26.781539-15.753847-25.206154-15.753846-37.809231-29.932308-37.809231-40.96 0-4.726154 3.150769-7.876923 7.876923-7.876923s7.876923 3.150769 7.876924 7.876923c0 1.575385 1.575385 9.452308 29.932307 28.356924 7.876923 4.726154 15.753846 9.452308 25.206154 14.178461 3.150769 1.575385 4.726154 6.301538 3.150769 11.027692 0 3.150769-3.150769 4.726154-6.301538 4.726154zM321.378462 749.883077c-1.575385 0-4.726154-1.575385-6.301539-3.150769-61.44-64.590769-96.098462-148.086154-96.098461-228.43077 0-4.726154 3.150769-7.876923 7.876923-7.876923s7.876923 3.150769 7.876923 7.876923c0 75.618462 33.083077 155.963077 92.947692 217.403077 3.150769 3.150769 3.150769 7.876923 0 11.027693-3.150769 3.150769-4.726154 3.150769-6.301538 3.150769zM604.947692 749.883077c-1.575385 0-3.150769 0-4.726154-1.575385-3.150769-3.150769-3.150769-7.876923 0-11.027692C658.510769 675.84 693.169231 597.070769 693.169231 519.876923c0-4.726154 3.150769-7.876923 7.876923-7.876923s7.876923 3.150769 7.876923 7.876923c0 80.344615-34.658462 163.84-96.098462 228.430769-4.726154 1.575385-6.301538 1.575385-7.876923 1.575385zM463.163077 480.492308c-61.44 0-370.215385-1.575385-370.215385-47.261539 0-12.603077 12.603077-26.781538 100.824616-36.233846 4.726154 0 7.876923 3.150769 7.876923 6.301539 0 4.726154-3.150769 7.876923-6.301539 7.876923-70.892308 7.876923-85.070769 17.329231-86.646154 18.904615 14.178462 12.603077 132.332308 31.507692 354.461539 31.507692s340.283077-18.904615 354.461538-31.507692c-3.150769-3.150769-15.753846-12.603077-88.221538-18.904615-4.726154 0-7.876923-4.726154-6.301539-7.876923 0-4.726154 4.726154-7.876923 7.876924-6.301539 89.796923 9.452308 102.4 22.055385 102.4 36.233846 0 45.686154-308.775385 47.261538-370.215385 47.261539z" fill="#116FFF" p-id="15317"></path><path d="M699.470769 417.476923c-4.726154 0-7.876923-3.150769-7.876923-7.876923v-1.575385c-1.575385-85.070769-69.316923-200.073846-127.606154-270.966153-3.150769-3.150769-1.575385-7.876923 1.575385-11.027693 3.150769-3.150769 7.876923-1.575385 11.027692 1.575385 59.864615 74.043077 129.181538 192.196923 130.756923 280.418461v3.15077c0 3.150769-4.726154 6.301538-7.876923 6.301538z" fill="#116FFF" p-id="15318"></path><path d="M226.855385 415.901538c-4.726154 0-7.876923-1.575385-7.876923-6.301538v-4.726154c1.575385-58.289231 44.110769-122.88 86.646153-187.470769 39.384615-58.289231 78.769231-118.153846 86.646154-171.716923 3.150769-25.206154 15.753846-34.658462 25.206154-36.233846C456.861538-1.575385 524.603077 63.015385 575.015385 126.030769c3.150769 3.150769 1.575385 7.876923-1.575385 11.027693-3.150769 3.150769-7.876923 1.575385-11.027692-1.575385-58.289231-72.467692-116.578462-118.153846-141.784616-110.276923-7.876923 1.575385-12.603077 9.452308-14.178461 23.630769-7.876923 58.289231-48.836923 119.729231-88.221539 179.593846-40.96 61.44-83.495385 124.455385-85.070769 179.593846 1.575385 3.150769-3.150769 7.876923-6.301538 7.876923z" fill="#116FFF" p-id="15319"></path><path d="M463.163077 433.230769c-155.963077 0-234.732308-15.753846-237.883077-15.753846-4.726154-1.575385-6.301538-4.726154-6.301538-9.452308 1.575385-4.726154 4.726154-7.876923 9.452307-6.301538 0 0 80.344615 15.753846 234.732308 15.753846s234.732308-15.753846 234.732308-15.753846c4.726154-1.575385 7.876923 1.575385 9.452307 6.301538 1.575385 4.726154-1.575385 7.876923-6.301538 9.452308-3.150769 1.575385-81.92 15.753846-237.883077 15.753846zM494.670769 212.676923c-3.150769 0-6.301538-3.150769-7.876923-6.301538-1.575385-4.726154 1.575385-7.876923 6.301539-9.452308 17.329231-4.726154 66.166154-18.904615 74.043077-40.96 3.150769-6.301538 1.575385-12.603077-3.15077-20.48v-1.575385c-1.575385-3.150769-1.575385-7.876923 1.575385-9.452307 3.150769-3.150769 7.876923-3.150769 11.027692 0l1.575385 1.575384c9.452308 14.178462 7.876923 26.781538 4.726154 34.658462-14.178462 33.083077-78.769231 48.836923-85.07077 50.412307l-3.150769 1.575385zM589.193846 764.061538c-4.726154 0-7.876923-3.150769-7.876923-7.876923 0-64.590769-53.563077-118.153846-118.153846-118.153846s-118.153846 53.563077-118.153846 118.153846c0 4.726154-3.150769 7.876923-7.876923 7.876923s-7.876923-3.150769-7.876923-7.876923c0-74.043077 59.864615-133.907692 133.907692-133.907692s133.907692 59.864615 133.907692 133.907692c0 4.726154-4.726154 7.876923-7.876923 7.876923z" fill="#116FFF" p-id="15320"></path><path d="M557.686154 764.061538c-4.726154 0-7.876923-3.150769-7.876923-7.876923 0-47.261538-39.384615-86.646154-86.646154-86.646153S376.516923 708.923077 376.516923 756.184615c0 4.726154-3.150769 7.876923-7.876923 7.876923s-7.876923-3.150769-7.876923-7.876923c0-56.713846 45.686154-102.4 102.4-102.4s102.4 45.686154 102.4 102.4c0 4.726154-4.726154 7.876923-7.876923 7.876923zM337.132308 1016.123077c-4.726154 0-7.876923-3.150769-7.876923-7.876923V756.184615c0-4.726154 3.150769-7.876923 7.876923-7.876923s7.876923 3.150769 7.876923 7.876923v252.061539c0 4.726154-4.726154 7.876923-7.876923 7.876923zM589.193846 1016.123077c-4.726154 0-7.876923-3.150769-7.876923-7.876923V756.184615c0-4.726154 3.150769-7.876923 7.876923-7.876923s7.876923 3.150769 7.876923 7.876923v252.061539c0 4.726154-4.726154 7.876923-7.876923 7.876923zM305.624615 792.418462c-4.726154 0-7.876923-3.150769-7.876923-7.876924V724.676923c0-4.726154 3.150769-7.876923 7.876923-7.876923s7.876923 3.150769 7.876923 7.876923v59.864615c0 4.726154-4.726154 7.876923-7.876923 7.876924zM620.701538 792.418462c-4.726154 0-7.876923-3.150769-7.876923-7.876924V724.676923c0-4.726154 3.150769-7.876923 7.876923-7.876923s7.876923 3.150769 7.876924 7.876923v59.864615c0 4.726154-4.726154 7.876923-7.876924 7.876924zM415.901538 1000.369231c-4.726154 0-7.876923-3.150769-7.876923-7.876923v-110.276923c0-4.726154 3.150769-7.876923 7.876923-7.876923s7.876923 3.150769 7.876924 7.876923v110.276923c0 4.726154-4.726154 7.876923-7.876924 7.876923zM526.178462 1000.369231c-4.726154 0-7.876923-3.150769-7.876924-7.876923v-33.083077c0-4.726154 3.150769-7.876923 7.876924-7.876923s7.876923 3.150769 7.876923 7.876923V992.492308c0 4.726154-4.726154 7.876923-7.876923 7.876923z" fill="#116FFF" p-id="15321"></path><path d="M486.793846 732.553846h-47.261538c-4.726154 0-7.876923-3.150769-7.876923-7.876923s3.150769-7.876923 7.876923-7.876923h47.261538c4.726154 0 7.876923 3.150769 7.876923 7.876923s-4.726154 7.876923-7.876923 7.876923zM660.086154 1016.123077h-1.575385c-4.726154-1.575385-6.301538-4.726154-6.301538-9.452308 66.166154-261.513846 111.852308-411.175385 135.483077-445.833846 23.630769-34.658462 97.673846-34.658462 143.36-14.178461 34.658462 17.329231 50.412308 47.261538 40.96 80.344615-15.753846 48.836923-33.083077 77.193846-58.289231 88.221538-15.753846 6.301538-31.507692 6.301538-48.836923-1.575384-37.809231-17.329231-39.384615-55.138462-34.658462-72.467693 1.575385-6.301538 4.726154-11.027692 11.027693-14.178461 4.726154-3.150769 11.027692-4.726154 17.32923-3.150769 12.603077 3.150769 20.48 15.753846 17.329231 28.356923 0 1.575385-3.150769 14.178462 7.876923 18.904615 6.301538 3.150769 7.876923 1.575385 9.452308 1.575385 3.150769-1.575385 17.329231-9.452308 31.507692-59.864616 1.575385-4.726154 4.726154-14.178462-15.753846-23.630769-34.658462-15.753846-78.769231-9.452308-83.495385-3.150769-11.027692 15.753846-34.658462 75.618462-88.221538 275.692308-12.603077 47.261538-25.206154 97.673846-37.809231 146.510769-1.575385 4.726154-4.726154 6.301538-9.452307 6.301538-4.726154-1.575385-6.301538-4.726154-6.301539-9.452307l37.809231-146.51077c44.110769-163.84 74.043077-258.363077 91.372308-281.993846 11.027692-15.753846 66.166154-20.48 102.4-3.150769 15.753846 7.876923 31.507692 20.48 25.206153 42.535385-14.178462 48.836923-29.932308 64.590769-40.96 69.316923-6.301538 3.150769-14.178462 3.150769-22.055384-1.575385-18.904615-7.876923-18.904615-26.781538-17.329231-36.233846 1.575385-4.726154-1.575385-7.876923-6.301538-9.452308-1.575385 0-4.726154 0-6.301539 1.575385-1.575385 1.575385-3.150769 3.150769-3.150769 4.726154-3.150769 14.178462-3.150769 42.535385 25.206154 55.138461 12.603077 6.301538 23.630769 6.301538 36.233846 1.575385 18.904615-9.452308 36.233846-34.658462 48.836923-78.769231 7.876923-25.206154-4.726154-47.261538-33.083077-61.44-39.384615-18.904615-103.975385-18.904615-122.88 7.876923-15.753846 22.055385-50.412308 116.578462-133.907692 439.532308 1.575385 6.301538-1.575385 7.876923-4.726154 7.876923zM226.855385 527.753846c-4.726154 0-7.876923-3.150769-7.876923-7.876923v-31.507692c0-4.726154 3.150769-7.876923 7.876923-7.876923s7.876923 3.150769 7.876923 7.876923v31.507692c0 4.726154-4.726154 7.876923-7.876923 7.876923zM699.470769 527.753846c-4.726154 0-7.876923-3.150769-7.876923-7.876923v-31.507692c0-4.726154 3.150769-7.876923 7.876923-7.876923s7.876923 3.150769 7.876923 7.876923v31.507692c0 4.726154-4.726154 7.876923-7.876923 7.876923zM321.378462 874.338462c-1.575385 0-3.150769 0-4.726154-1.575385l-50.412308-47.261539c-3.150769-3.150769-3.150769-7.876923 0-11.027692 3.150769-3.150769 7.876923-3.150769 11.027692 0l50.412308 47.261539c3.150769 3.150769 3.150769 7.876923 0 11.027692-3.150769 1.575385-4.726154 1.575385-6.301538 1.575385zM604.947692 874.338462c-1.575385 0-4.726154-1.575385-6.301538-3.15077-3.150769-3.150769-3.150769-7.876923 0-11.027692l50.412308-47.261538c3.150769-3.150769 7.876923-3.150769 11.027692 0 3.150769 3.150769 3.150769 7.876923 0 11.027692l-50.412308 47.261538c-1.575385 3.150769-3.150769 3.150769-4.726154 3.15077z" fill="#116FFF" p-id="15322"></path></svg>