<?xml version="1.0" standalone="no"?><!DOCTYPE svg PUBLIC "-//W3C//DTD SVG 1.1//EN" "http://www.w3.org/Graphics/SVG/1.1/DTD/svg11.dtd"><svg t="1675835396343" class="icon" viewBox="0 0 1024 1024" version="1.1" xmlns="http://www.w3.org/2000/svg" p-id="21971" id="mx_n_1675835396347" xmlns:xlink="http://www.w3.org/1999/xlink" width="200" height="200"><path d="M882.215385 488.369231l31.507692 63.015384h-63.015385z" fill="#d81e06" p-id="21972" data-spm-anchor-id="a313x.7781069.0.i44" class=""></path><path d="M393.846154 225.28c-3.150769-1.575385-40.96-11.027692-88.221539-42.535385-23.630769-15.753846-48.836923-37.809231-72.467692-67.741538C212.676923 88.221538 190.621538 56.713846 173.292308 15.753846c0 0-23.630769 56.713846 11.027692 135.483077 12.603077 29.932308 33.083077 61.44 64.590769 94.523077 9.452308 9.452308 20.48 20.48 33.083077 31.507692 7.876923 6.301538 14.178462 12.603077 23.630769 18.904616 9.452308 7.876923 20.48 15.753846 31.507693 22.055384 1.575385 1.575385 4.726154 3.150769 6.301538 4.726154l1.575385 1.575385c7.876923 4.726154 17.329231 6.301538 26.781538 6.301538 29.932308 0 55.138462-25.206154 55.138462-55.138461-1.575385-22.055385-14.178462-40.96-33.083077-50.412308z" fill="#2c2c2c" p-id="21973" data-spm-anchor-id="a313x.7781069.0.i37" class=""></path><path d="M374.941538 324.529231s0-1.575385 0 0c-3.150769-1.575385-4.726154-3.150769-7.876923-4.726154-11.027692-7.876923-22.055385-15.753846-31.507692-22.055385l-23.630769-18.904615c-12.603077-11.027692-23.630769-20.48-33.083077-31.507692-31.507692-33.083077-51.987692-66.166154-64.590769-94.523077-15.753846-34.658462-18.904615-66.166154-17.329231-89.796923-7.876923-15.753846-15.753846-29.932308-23.630769-47.261539 0 0-23.630769 56.713846 11.027692 135.483077 12.603077 29.932308 33.083077 61.44 64.590769 94.523077 9.452308 9.452308 20.48 20.48 33.083077 31.507692 7.876923 6.301538 14.178462 12.603077 23.630769 18.904616 9.452308 7.876923 20.48 15.753846 31.507693 22.055384 1.575385 1.575385 4.726154 3.150769 6.301538 4.726154l1.575385 1.575385c7.876923 4.726154 17.329231 6.301538 26.781538 6.301538 4.726154 0 11.027692-1.575385 15.753846-3.150769-4.726154 0-9.452308-1.575385-12.603077-3.150769z" fill="#FFFFFF" p-id="21974"></path><path d="M850.707692 15.753846s23.630769 56.713846-11.027692 135.483077c-48.836923 6.301538-48.836923-36.233846-48.836923-36.233846C811.323077 88.221538 833.378462 56.713846 850.707692 15.753846z" fill="#2c2c2c" p-id="21975" data-spm-anchor-id="a313x.7781069.0.i40" class=""></path><path d="M790.843077 115.003077s1.575385 42.535385 48.836923 36.233846c-12.603077 29.932308-33.083077 61.44-64.590769 94.523077 0 0-67.741538-3.150769-56.713846-64.590769 22.055385-14.178462 47.261538-36.233846 72.467692-66.166154z" fill="#2c2c2c" p-id="21976" data-spm-anchor-id="a313x.7781069.0.i39" class=""></path><path d="M690.018462 200.073846c9.452308-4.726154 18.904615-11.027692 28.356923-17.329231-9.452308 61.44 56.713846 64.590769 56.713846 64.59077-12.603077 12.603077-26.781538 26.781538-44.110769 40.96-12.603077 11.027692-28.356923 22.055385-44.11077 31.507692-1.575385 1.575385-4.726154 3.150769-6.301538 4.726154l-1.575385 1.575384c-7.876923 4.726154-17.329231 6.301538-26.781538 6.301539-29.932308 0-55.138462-25.206154-55.138462-55.138462 0-22.055385 12.603077-40.96 31.507693-50.412307 4.726154-3.150769 28.356923-7.876923 61.44-26.781539z" fill="#2c2c2c" p-id="21977" data-spm-anchor-id="a313x.7781069.0.i38" class=""></path><path d="M850.707692 15.753846c-7.876923 17.329231-15.753846 31.507692-23.630769 47.261539 0 23.630769-3.150769 55.138462-17.329231 89.796923-12.603077 29.932308-33.083077 61.44-64.590769 94.523077-12.603077 12.603077-26.781538 26.781538-44.110769 40.96-12.603077 11.027692-28.356923 22.055385-44.110769 31.507692-1.575385 1.575385-4.726154 3.150769-6.301539 4.726154l-1.575384 1.575384c-3.150769 1.575385-6.301538 3.150769-11.027693 4.726154 4.726154 1.575385 9.452308 3.150769 15.753846 3.150769 9.452308 0 18.904615-1.575385 26.781539-6.301538 0 0 1.575385 0 1.575384-1.575385 1.575385-1.575385 4.726154-3.150769 6.301539-4.726153 15.753846-11.027692 31.507692-22.055385 44.110769-31.507693 17.329231-14.178462 31.507692-26.781538 44.110769-40.96 31.507692-33.083077 51.987692-66.166154 64.59077-94.523077C874.338462 72.467692 850.707692 15.753846 850.707692 15.753846z" fill="#94C1FF" p-id="21978"></path><path d="M762.486154 293.021538l-31.507692-4.726153c-12.603077 11.027692-28.356923 22.055385-44.11077 31.507692-1.575385 1.575385-4.726154 3.150769-6.301538 4.726154l-1.575385 1.575384c-7.876923 4.726154-17.329231 6.301538-26.781538 6.301539-29.932308 0-55.138462-25.206154-55.138462-55.138462 0-22.055385 12.603077-40.96 31.507693-50.412307 3.150769-1.575385 26.781538-7.876923 59.864615-25.206154l-11.027692-20.48C630.153846 144.935385 573.44 126.030769 512 126.030769 450.56 126.030769 393.846154 144.935385 346.584615 181.169231l-12.603077 20.48c33.083077 17.329231 56.713846 23.630769 59.864616 25.206154 18.904615 9.452308 31.507692 28.356923 31.507692 50.412307 0 29.932308-25.206154 55.138462-55.138461 55.138462-9.452308 0-18.904615-1.575385-26.781539-6.301539 0 0-1.575385 0-1.575384-1.575384-1.575385-1.575385-4.726154-3.150769-6.301539-4.726154-15.753846-11.027692-31.507692-22.055385-44.110769-31.507692l-31.507692 4.726153C245.76 330.830769 236.307692 376.516923 236.307692 425.353846c0 88.221538 40.96 173.292308 94.523077 236.307692 31.507692 37.809231 67.741538 67.741538 103.975385 86.646154L456.861538 740.430769h110.276924l22.055384 7.876923c34.658462-18.904615 70.892308-48.836923 103.975385-86.646154 53.563077-63.015385 94.523077-148.086154 94.523077-236.307692 0-48.836923-9.452308-94.523077-25.206154-132.332308z" fill="#d81e06" p-id="21979" data-spm-anchor-id="a313x.7781069.0.i34" class=""></path><path d="M365.489231 200.073846l12.603077-20.48c42.535385-31.507692 92.947692-50.412308 149.661538-53.563077h-15.753846C450.56 126.030769 393.846154 144.935385 346.584615 181.169231l-12.603077 20.48c33.083077 17.329231 22.055385 12.603077 31.507693-1.575385zM362.338462 661.661538c-53.563077-63.015385-94.523077-148.086154-94.523077-236.307692 0-48.836923 9.452308-94.523077 25.206153-132.332308h4.726154c-1.575385-1.575385-3.150769-3.150769-6.301538-4.726153l-31.507692 4.726153C245.76 330.830769 236.307692 376.516923 236.307692 425.353846c0 88.221538 40.96 173.292308 94.523077 236.307692 31.507692 37.809231 67.741538 67.741538 103.975385 86.646154l18.904615-6.301538c-31.507692-18.904615-63.015385-47.261538-91.372307-80.344616z" fill="#2c2c2c" p-id="21980" data-spm-anchor-id="a313x.7781069.0.i43" class=""></path><path d="M658.510769 200.073846l-12.603077-18.904615c-42.535385-31.507692-92.947692-50.412308-149.661538-53.563077h15.753846c61.44 0 118.153846 18.904615 165.415385 55.138461l12.603077 20.48c-31.507692 15.753846-22.055385 11.027692-31.507693-3.150769zM663.236923 661.661538c53.563077-63.015385 94.523077-148.086154 94.523077-236.307692 0-48.836923-9.452308-94.523077-25.206154-132.332308h-4.726154c1.575385-1.575385 3.150769-3.150769 6.301539-4.726153l31.507692 4.726153c15.753846 39.384615 25.206154 83.495385 25.206154 132.332308 0 88.221538-40.96 173.292308-94.523077 236.307692-31.507692 37.809231-67.741538 67.741538-103.975385 86.646154l-18.904615-6.301538c29.932308-18.904615 61.44-47.261538 89.796923-80.344616zM567.138462 740.430769l-55.138462 78.769231-55.138462-78.769231z" fill="#2c2c2c" p-id="21981" data-spm-anchor-id="a313x.7781069.0.i36" class=""></path><path d="M425.353846 743.581538l31.507692-3.150769 55.138462 78.769231 55.138462-78.769231 22.055384 7.876923c34.658462-18.904615 70.892308-48.836923 103.975385-86.646154v63.015385c0 31.507692 130.756923 88.221538 189.046154 110.276923 63.015385 23.630769 94.523077 47.261538 94.523077 110.276923v63.015385H47.261538v-63.015385c0-63.015385 31.507692-86.646154 94.523077-110.276923 59.864615-22.055385 189.046154-78.769231 189.046154-110.276923v-63.015385c29.932308 34.658462 61.44 63.015385 94.523077 81.92z" fill="#d81e06" p-id="21982" data-spm-anchor-id="a313x.7781069.0.i35" class=""></path><path d="M882.215385 834.953846c-59.864615-22.055385-189.046154-78.769231-189.046154-110.276923v-63.015385c-9.452308 12.603077-20.48 23.630769-31.507693 33.083077V724.676923c0 31.507692 130.756923 103.975385 189.046154 126.030769 63.015385 23.630769 94.523077 47.261538 94.523077 110.276923v47.261539h31.507693v-63.015385c0-63.015385-31.507692-86.646154-94.523077-110.276923z" fill="#2c2c2c" p-id="21983" data-spm-anchor-id="a313x.7781069.0.i49" class="selected"></path><path d="M173.292308 850.707692c59.864615-22.055385 189.046154-94.523077 189.046154-126.030769v-29.932308c-11.027692-11.027692-22.055385-20.48-31.507693-33.083077v63.015385c0 31.507692-130.756923 88.221538-189.046154 110.276923-63.015385 23.630769-94.523077 47.261538-94.523077 110.276923v63.015385h31.507693v-47.261539c0-63.015385 31.507692-86.646154 94.523077-110.276923z" fill="#2c2c2c" p-id="21984" data-spm-anchor-id="a313x.7781069.0.i50" class="selected"></path><path d="M976.738462 1016.123077H47.261538c-4.726154 0-7.876923-3.150769-7.876923-7.876923v-63.015385c0-67.741538 34.658462-92.947692 99.249231-118.153846 88.221538-33.083077 184.32-81.92 184.32-102.4 0-4.726154 3.150769-7.876923 7.876923-7.876923s7.876923 3.150769 7.876923 7.876923c0 44.110769-174.867692 110.276923-193.772307 118.153846-59.864615 22.055385-89.796923 44.110769-89.796923 102.4v55.138462h913.723076V945.230769c0-59.864615-28.356923-80.344615-89.796923-102.4-18.904615-7.876923-193.772308-74.043077-193.772307-118.153846 0-4.726154 3.150769-7.876923 7.876923-7.876923s7.876923 3.150769 7.876923 7.876923c0 20.48 94.523077 69.316923 184.32 102.4 64.590769 23.630769 99.249231 50.412308 99.249231 118.153846v63.015385c0 4.726154-3.150769 7.876923-7.876923 7.876923zM677.415385 189.046154c-1.575385 0-3.150769 0-4.726154-1.575385-45.686154-34.658462-100.824615-53.563077-159.113846-53.563077-6.301538 0-9.452308-3.150769-9.452308-7.876923s3.150769-7.876923 7.876923-7.876923c63.015385 0 121.304615 18.904615 170.141538 56.713846 3.150769 3.150769 4.726154 7.876923 1.575385 11.027693-3.150769 1.575385-4.726154 3.150769-6.301538 3.150769z" fill="#116FFF" p-id="21985"></path><path d="M589.193846 756.184615c-3.150769 0-4.726154-1.575385-6.301538-4.726153-1.575385-3.150769 0-7.876923 3.150769-11.027693 34.658462-18.904615 69.316923-48.836923 100.824615-85.070769 58.289231-69.316923 92.947692-154.387692 92.947693-231.581538 0-47.261538-7.876923-91.372308-25.206154-129.181539-1.575385-4.726154 0-7.876923 4.726154-11.027692 4.726154-1.575385 7.876923 0 11.027692 4.726154 17.329231 40.96 26.781538 86.646154 26.781538 135.483077 0 110.276923-59.864615 198.498462-96.098461 241.033846-33.083077 37.809231-69.316923 69.316923-105.550769 88.221538-3.150769 3.150769-4.726154 3.150769-6.301539 3.150769zM330.830769 732.553846c-4.726154 0-7.876923-3.150769-7.876923-7.876923v-63.015385c0-4.726154 3.150769-7.876923 7.876923-7.876923s7.876923 3.150769 7.876923 7.876923v63.015385c0 4.726154-3.150769 7.876923-7.876923 7.876923z" fill="#116FFF" p-id="21986"></path><path d="M693.169231 732.553846c-4.726154 0-7.876923-3.150769-7.876923-7.876923v-63.015385c0-4.726154 3.150769-7.876923 7.876923-7.876923s7.876923 3.150769 7.876923 7.876923v63.015385c0 4.726154-3.150769 7.876923-7.876923 7.876923zM682.141538 330.830769c-3.150769 0-4.726154-1.575385-6.301538-3.150769-3.150769-3.150769-1.575385-7.876923 1.575385-11.027692l6.301538-4.726154c15.753846-11.027692 29.932308-20.48 44.110769-31.507692 15.753846-12.603077 29.932308-25.206154 44.11077-39.384616 28.356923-29.932308 50.412308-61.44 63.015384-92.947692 31.507692-74.043077 11.027692-129.181538 11.027692-130.756923-1.575385-4.726154 0-7.876923 4.726154-9.452308 4.726154-1.575385 7.876923 0 9.452308 4.726154 1.575385 3.150769 23.630769 61.44-11.027692 141.784615-14.178462 33.083077-36.233846 66.166154-66.166154 97.673846-14.178462 14.178462-28.356923 28.356923-44.110769 40.96-12.603077 11.027692-28.356923 22.055385-44.11077 33.083077l-6.301538 3.15077c-4.726154 1.575385-6.301538 1.575385-6.301539 1.575384z" fill="#116FFF" p-id="21987"></path><path d="M630.153846 234.732308c-3.150769 0-4.726154-1.575385-6.301538-3.15077-1.575385-3.150769-1.575385-9.452308 3.150769-11.027692 1.575385-1.575385 3.150769-1.575385 7.876923-3.150769 9.452308-3.150769 28.356923-9.452308 51.987692-22.055385 9.452308-4.726154 18.904615-11.027692 28.356923-17.32923C740.430769 157.538462 764.061538 135.483077 784.541538 110.276923c23.630769-28.356923 42.535385-61.44 58.289231-97.673846 1.575385-4.726154 6.301538-6.301538 11.027693-4.726154 4.726154 1.575385 6.301538 6.301538 4.726153 11.027692-17.329231 37.809231-37.809231 72.467692-61.44 100.824616-22.055385 26.781538-47.261538 50.412308-74.043077 69.316923-9.452308 6.301538-20.48 12.603077-29.932307 17.329231-25.206154 14.178462-45.686154 20.48-55.138462 23.630769-1.575385 0-3.150769 1.575385-4.726154 1.575384 0 1.575385-1.575385 3.150769-3.150769 3.15077z" fill="#116FFF" p-id="21988"></path><path d="M653.784615 338.707692c-34.658462 0-63.015385-28.356923-63.015384-63.015384 0-23.630769 14.178462-47.261538 36.233846-56.713846 3.150769-1.575385 7.876923 0 11.027692 3.150769 1.575385 3.150769 0 7.876923-3.150769 11.027692-15.753846 7.876923-26.781538 25.206154-26.781538 42.535385 0 26.781538 20.48 47.261538 47.261538 47.261538 7.876923 0 15.753846-1.575385 22.055385-6.301538 3.150769-1.575385 4.726154-3.150769 6.301538-4.726154 3.150769-3.150769 7.876923-1.575385 11.027692 1.575384 3.150769 3.150769 1.575385 7.876923-1.575384 11.027693-1.575385 1.575385-4.726154 3.150769-6.301539 4.726154h-1.575384c-11.027692 6.301538-20.48 9.452308-31.507693 9.452307z" fill="#116FFF" p-id="21989"></path><path d="M653.784615 370.215385c-51.987692 0-94.523077-42.535385-94.523077-94.523077 0-45.686154 33.083077-85.070769 77.193847-92.947693 4.726154-1.575385 7.876923 1.575385 9.452307 6.301539 0 4.726154-1.575385 7.876923-6.301538 9.452308-37.809231 6.301538-64.590769 39.384615-64.590769 77.193846 0 44.110769 34.658462 78.769231 78.76923 78.76923 28.356923 0 53.563077-15.753846 67.741539-39.384615 1.575385-3.150769 6.301538-4.726154 11.027692-3.150769 3.150769 1.575385 4.726154 6.301538 3.150769 11.027692-17.329231 29.932308-48.836923 47.261538-81.92 47.261539zM831.803077 160.689231c-14.178462 0-25.206154-3.150769-33.083077-11.027693-15.753846-12.603077-15.753846-33.083077-15.753846-33.083076 0-4.726154 3.150769-7.876923 7.876923-7.876924s7.876923 3.150769 7.876923 7.876924c0 0 0 14.178462 11.027692 22.055384 6.301538 6.301538 17.329231 7.876923 29.932308 6.301539 4.726154 0 7.876923 3.150769 9.452308 6.301538 0 4.726154-3.150769 7.876923-6.301539 9.452308h-11.027692zM775.089231 255.212308c-1.575385 0-36.233846-1.575385-53.563077-25.206154-11.027692-12.603077-14.178462-28.356923-11.027692-48.836923 0-4.726154 4.726154-7.876923 9.452307-6.301539 4.726154 0 7.876923 4.726154 6.301539 9.452308-3.150769 14.178462 0 26.781538 7.876923 36.233846 14.178462 17.329231 42.535385 18.904615 42.535384 18.904616 4.726154 0 7.876923 4.726154 7.876923 7.876923-1.575385 4.726154-4.726154 7.876923-9.452307 7.876923zM348.16 189.046154c-3.150769 0-4.726154-1.575385-6.301538-3.150769-3.150769-3.150769-1.575385-7.876923 1.575384-11.027693 48.836923-36.233846 107.126154-56.713846 170.141539-56.713846 3.150769 0 6.301538 3.150769 6.301538 7.876923s-3.150769 7.876923-7.876923 7.876923c-59.864615 0-115.003077 18.904615-159.113846 53.563077-1.575385 0-3.150769 1.575385-4.726154 1.575385zM434.806154 756.184615c-1.575385 0-3.150769 0-3.150769-1.575384-3.150769-1.575385-6.301538-3.150769-7.876923-4.726154-34.658462-20.48-67.741538-50.412308-97.673847-83.495385v-1.575384c-36.233846-42.535385-96.098462-130.756923-96.098461-241.033846 0-48.836923 9.452308-94.523077 26.781538-135.483077 1.575385-4.726154 6.301538-6.301538 11.027693-4.726154 4.726154 1.575385 6.301538 6.301538 4.726153 11.027692-20.48 39.384615-28.356923 83.495385-28.356923 130.756923 0 77.193846 33.083077 162.264615 92.947693 231.581539v1.575384c28.356923 33.083077 59.864615 59.864615 91.372307 78.769231 3.150769 1.575385 6.301538 3.150769 7.876923 4.726154 3.150769 1.575385 4.726154 6.301538 3.15077 11.027692 0 1.575385-3.150769 3.150769-4.726154 3.150769zM341.858462 330.830769c-1.575385 0-3.150769 0-4.726154-1.575384l-6.301539-3.15077c-11.027692-6.301538-22.055385-14.178462-33.083077-23.630769L274.116923 283.569231c-11.027692-9.452308-22.055385-20.48-33.083077-31.507693-29.932308-31.507692-51.987692-64.590769-66.166154-97.673846-33.083077-80.344615-9.452308-138.633846-9.452307-141.784615 1.575385-4.726154 6.301538-6.301538 9.452307-4.726154 4.726154 1.575385 6.301538 6.301538 4.726154 9.452308 0 0-22.055385 55.138462 11.027692 130.756923 12.603077 31.507692 34.658462 63.015385 63.015385 92.947692 11.027692 11.027692 20.48 20.48 33.083077 29.932308 7.876923 6.301538 14.178462 12.603077 22.055385 18.904615 11.027692 7.876923 20.48 15.753846 31.507692 22.055385l6.301538 4.726154c3.150769 3.150769 4.726154 7.876923 1.575385 11.027692 0 3.150769-3.150769 3.150769-6.301538 3.150769z" fill="#116FFF" p-id="21990" data-spm-anchor-id="a313x.7781069.0.i42" class=""></path><path d="M393.846154 233.156923c-1.575385 0-3.150769 0-3.150769-1.575385 0 0-1.575385 0-3.15077-1.575384-12.603077-4.726154-45.686154-15.753846-85.070769-42.535385-26.781538-18.904615-51.987692-42.535385-74.043077-69.316923-23.630769-29.932308-44.110769-63.015385-61.44-100.824615-1.575385-4.726154 0-7.876923 4.726154-11.027693 4.726154-1.575385 7.876923 0 11.027692 4.726154 15.753846 36.233846 36.233846 69.316923 58.289231 97.673846 20.48 25.206154 44.110769 47.261538 70.892308 66.166154 37.809231 25.206154 69.316923 36.233846 80.344615 39.384616 3.150769 1.575385 6.301538 1.575385 6.301539 3.150769 3.150769 1.575385 4.726154 6.301538 3.150769 11.027692-3.150769 3.150769-4.726154 4.726154-7.876923 4.726154z" fill="#116FFF" p-id="21991"></path><path d="M370.215385 338.707692c-11.027692 0-20.48-3.150769-29.932308-7.876923l-1.575385-1.575384c-3.150769-1.575385-4.726154-3.150769-6.301538-4.726154-3.150769-3.150769-4.726154-7.876923-1.575385-11.027693 3.150769-3.150769 7.876923-4.726154 11.027693-1.575384 1.575385 1.575385 3.150769 3.150769 4.726153 3.150769l1.575385 1.575385c6.301538 3.150769 14.178462 4.726154 22.055385 4.726154 26.781538 0 47.261538-20.48 47.261538-47.261539 0-18.904615-11.027692-34.658462-26.781538-42.535385-3.150769-1.575385-6.301538-6.301538-3.15077-11.027692 1.575385-3.150769 6.301538-6.301538 11.027693-3.150769 22.055385 11.027692 36.233846 33.083077 36.233846 56.713846-1.575385 36.233846-29.932308 64.590769-64.590769 64.590769z" fill="#116FFF" p-id="21992"></path><path d="M370.215385 370.215385c-33.083077 0-64.590769-17.329231-81.92-47.261539-1.575385-3.150769-1.575385-7.876923 3.150769-11.027692 3.150769-1.575385 7.876923-1.575385 11.027692 3.150769 14.178462 23.630769 40.96 39.384615 67.741539 39.384615 44.110769 0 78.769231-34.658462 78.76923-78.76923 0-37.809231-26.781538-70.892308-64.590769-77.193846-4.726154 0-7.876923-4.726154-6.301538-9.452308 0-4.726154 4.726154-7.876923 9.452307-6.301539 45.686154 7.876923 77.193846 47.261538 77.193847 92.947693 0 51.987692-42.535385 94.523077-94.523077 94.523077zM192.196923 160.689231h-9.452308c-4.726154 0-7.876923-4.726154-6.301538-9.452308 0-4.726154 4.726154-7.876923 9.452308-6.301538 12.603077 1.575385 23.630769-1.575385 29.932307-6.301539 9.452308-7.876923 11.027692-22.055385 11.027693-22.055384 0-4.726154 3.150769-7.876923 7.876923-7.876924s7.876923 3.150769 7.876923 7.876924c0 1.575385 0 20.48-15.753846 33.083076-9.452308 6.301538-20.48 11.027692-34.658462 11.027693zM248.910769 255.212308c-4.726154 0-7.876923-3.150769-7.876923-7.876923s3.150769-7.876923 7.876923-7.876923c0 0 28.356923-1.575385 42.535385-18.904616 7.876923-9.452308 9.452308-20.48 7.876923-36.233846 0-4.726154 1.575385-7.876923 6.301538-9.452308 4.726154 0 7.876923 1.575385 9.452308 6.301539 3.150769 18.904615 0 36.233846-11.027692 48.836923-20.48 23.630769-53.563077 25.206154-55.138462 25.206154zM512 827.076923c-3.150769 0-4.726154-1.575385-6.301538-3.150769l-55.138462-78.769231c-3.150769-3.150769-1.575385-7.876923 1.575385-11.027692 3.150769-3.150769 7.876923-1.575385 11.027692 1.575384l55.138461 78.769231c3.150769 3.150769 1.575385 7.876923-1.575384 11.027692-1.575385 1.575385-3.150769 1.575385-4.726154 1.575385z" fill="#116FFF" p-id="21993"></path><path d="M512 827.076923c-1.575385 0-3.150769 0-4.726154-1.575385-3.150769-3.150769-4.726154-7.876923-1.575384-11.027692l55.138461-78.769231c3.150769-3.150769 7.876923-4.726154 11.027692-1.575384 3.150769 3.150769 4.726154 7.876923 1.575385 11.027692l-55.138462 78.769231c-1.575385 1.575385-3.150769 3.150769-6.301538 3.150769z" fill="#116FFF" p-id="21994"></path><path d="M567.138462 748.307692h-110.276924c-4.726154 0-7.876923-3.150769-7.876923-7.876923s3.150769-7.876923 7.876923-7.876923h110.276924c4.726154 0 7.876923 3.150769 7.876923 7.876923s-3.150769 7.876923-7.876923 7.876923zM913.723077 559.261538h-63.015385c-3.150769 0-4.726154-1.575385-6.301538-3.150769-1.575385-1.575385-1.575385-4.726154 0-7.876923l31.507692-63.015384c3.150769-4.726154 11.027692-4.726154 14.178462 0l31.507692 63.015384c1.575385 3.150769 1.575385 4.726154 0 7.876923-3.150769 1.575385-4.726154 3.150769-7.876923 3.150769z m-50.412308-15.753846h37.809231L882.215385 505.698462l-18.904616 37.80923z" fill="#116FFF" p-id="21995"></path><path d="M882.215385 606.523077c-4.726154 0-7.876923-3.150769-7.876923-7.876923v-47.261539c0-4.726154 3.150769-7.876923 7.876923-7.876923s7.876923 3.150769 7.876923 7.876923v47.261539c0 4.726154-3.150769 7.876923-7.876923 7.876923zM834.953846 795.569231c-4.726154 0-7.876923-3.150769-7.876923-7.876923 0-22.055385 17.329231-39.384615 39.384615-39.384616 4.726154 0 7.876923 3.150769 7.876924 7.876923s-3.150769 7.876923-7.876924 7.876923c-12.603077 0-23.630769 11.027692-23.630769 23.63077 0 4.726154-3.150769 7.876923-7.876923 7.876923zM913.723077 764.061538c-4.726154 0-7.876923-3.150769-7.876923-7.876923s3.150769-7.876923 7.876923-7.876923c12.603077 0 23.630769-11.027692 23.630769-23.630769s-11.027692-23.630769-23.630769-23.630769c-4.726154 0-7.876923-3.150769-7.876923-7.876923s3.150769-7.876923 7.876923-7.876923c22.055385 0 39.384615 17.329231 39.384615 39.384615s-17.329231 39.384615-39.384615 39.384615z" fill="#2c2c2c" p-id="21996" data-spm-anchor-id="a313x.7781069.0.i48" class="selected"></path><path d="M913.723077 764.061538h-47.261539c-4.726154 0-7.876923-3.150769-7.876923-7.876923s3.150769-7.876923 7.876923-7.876923h47.261539c4.726154 0 7.876923 3.150769 7.876923 7.876923s-3.150769 7.876923-7.876923 7.876923zM819.2 701.046154c-22.055385 0-39.384615-17.329231-39.384615-39.384616s17.329231-39.384615 39.384615-39.384615c4.726154 0 7.876923 3.150769 7.876923 7.876923s-3.150769 7.876923-7.876923 7.876923c-12.603077 0-23.630769 11.027692-23.630769 23.630769s11.027692 23.630769 23.630769 23.63077c4.726154 0 7.876923 3.150769 7.876923 7.876923s-3.150769 7.876923-7.876923 7.876923z" fill="#2c2c2c" p-id="21997" data-spm-anchor-id="a313x.7781069.0.i46" class="selected"></path><path d="M913.723077 701.046154h-94.523077c-4.726154 0-7.876923-3.150769-7.876923-7.876923s3.150769-7.876923 7.876923-7.876923h94.523077c4.726154 0 7.876923 3.150769 7.876923 7.876923s-3.150769 7.876923-7.876923 7.876923zM850.707692 638.030769c-4.726154 0-7.876923-3.150769-7.876923-7.876923s3.150769-7.876923 7.876923-7.876923c12.603077 0 23.630769-11.027692 23.63077-23.630769 0-4.726154 3.150769-7.876923 7.876923-7.876923s7.876923 3.150769 7.876923 7.876923c0 22.055385-17.329231 39.384615-39.384616 39.384615z" fill="#2c2c2c" p-id="21998" data-spm-anchor-id="a313x.7781069.0.i47" class="selected"></path><path d="M850.707692 638.030769h-31.507692c-4.726154 0-7.876923-3.150769-7.876923-7.876923s3.150769-7.876923 7.876923-7.876923h31.507692c4.726154 0 7.876923 3.150769 7.876923 7.876923s-3.150769 7.876923-7.876923 7.876923z" fill="#2c2c2c" p-id="21999" data-spm-anchor-id="a313x.7781069.0.i45" class="selected"></path></svg>