<?xml version="1.0" standalone="no"?><!DOCTYPE svg PUBLIC "-//W3C//DTD SVG 1.1//EN" "http://www.w3.org/Graphics/SVG/1.1/DTD/svg11.dtd"><svg t="1675835625074" class="icon" viewBox="0 0 1024 1024" version="1.1" xmlns="http://www.w3.org/2000/svg" p-id="23736" id="mx_n_1675835625075" xmlns:xlink="http://www.w3.org/1999/xlink" width="200" height="200"><path d="M513.575385 953.107692m-23.63077 0a23.630769 23.630769 0 1 0 47.261539 0 23.630769 23.630769 0 1 0-47.261539 0Z" fill="#94C1FF" p-id="23737"></path><path d="M505.698462 953.107692c0-11.027692 6.301538-18.904615 15.753846-22.055384-3.150769-1.575385-6.301538-1.575385-7.876923-1.575385-12.603077 0-23.630769 11.027692-23.63077 23.630769s11.027692 23.630769 23.63077 23.63077c3.150769 0 4.726154 0 7.876923-1.575385-9.452308-3.150769-15.753846-12.603077-15.753846-22.055385z" fill="#D7E9FF" p-id="23738"></path><path d="M978.313846 960.984615v47.261539H513.575385v-31.507692c12.603077 0 23.630769-11.027692 23.630769-23.63077s-11.027692-23.630769-23.630769-23.630769v-31.507692l70.892307-63.015385 94.523077 15.753846v-63.015384l33.083077-12.603077 45.686154 18.904615c40.96 22.055385 94.523077 44.110769 126.030769 56.713846 63.015385 23.630769 94.523077 47.261538 94.523077 110.276923zM48.836923 960.984615v47.261539h464.738462v-31.507692c-12.603077 0-23.630769-11.027692-23.63077-23.63077s11.027692-23.630769 23.63077-23.630769v-31.507692l-70.892308-63.015385-94.523077 15.753846v-63.015384l-33.083077-14.178462-45.686154 18.904616c-40.96 22.055385-94.523077 44.110769-126.030769 56.713846-63.015385 25.206154-94.523077 48.836923-94.523077 111.852307z" fill="#d81e06" p-id="23739" data-spm-anchor-id="a313x.7781069.0.i63" class=""></path><path d="M80.344615 992.492308c0-63.015385 31.507692-86.646154 94.523077-110.276923 31.507692-12.603077 85.070769-34.658462 126.03077-56.713847l45.686153-18.904615h1.575385V787.692308l-33.083077-14.178462-45.686154 18.904616c-40.96 22.055385-94.523077 44.110769-126.030769 56.713846-63.015385 23.630769-94.523077 47.261538-94.523077 110.276923v47.261538h31.507692V992.492308z" fill="#2c2c2c" p-id="23740" data-spm-anchor-id="a313x.7781069.0.i68" class="selected"></path><path d="M946.806154 992.492308c0-63.015385-31.507692-86.646154-94.523077-110.276923-31.507692-12.603077-85.070769-34.658462-126.030769-56.713847l-45.686154-18.904615h-1.575385V787.692308l33.083077-12.603077 45.686154 18.904615c40.96 22.055385 94.523077 44.110769 126.030769 56.713846 63.015385 23.630769 94.523077 47.261538 94.523077 110.276923v47.261539h-31.507692v-15.753846z" fill="#2c2c2c" p-id="23741" data-spm-anchor-id="a313x.7781069.0.i69" class="selected"></path><path d="M757.76 756.184615l-78.769231 31.507693v63.015384l-94.523077-15.753846-70.892307 63.015385-70.892308-63.015385-94.523077 15.753846v-63.015384l-66.166154-26.781539-12.603077-4.726154 63.015385-31.507692 26.781538-20.48c51.987692 50.412308 110.276923 83.495385 154.387693 83.495385 40.96 0 105.550769-37.809231 154.387692-83.495385l26.781538 20.48 63.015385 31.507692z" fill="#d81e06" p-id="23742" data-spm-anchor-id="a313x.7781069.0.i66" class=""></path><path d="M367.064615 847.556923v-72.467692L315.076923 751.458462l48.836923-26.781539 9.452308-6.301538c-4.726154-4.726154-9.452308-7.876923-14.178462-12.603077L332.406154 724.676923l-63.015385 31.507692 12.603077 4.726154 66.166154 26.781539v63.015384l18.904615-3.150769zM237.883077 441.107692c0 28.356923 4.726154 56.713846 12.603077 85.07077l-12.603077 3.150769c-6.301538-3.150769-26.781538-6.301538-31.507692-9.452308-9.452308-7.876923-15.753846-17.329231-15.753847-29.932308 0-36.233846-94.523077-127.606154-94.523076-127.606153s44.110769 3.150769 100.824615 18.904615c12.603077 3.150769 26.781538 7.876923 40.96 12.603077v47.261538zM931.052308 362.338462s-94.523077 91.372308-94.523077 127.606153c0 17.329231-29.932308 31.507692-47.261539 39.384616l-12.603077-3.150769c7.876923-26.781538 12.603077-55.138462 12.603077-85.07077v-47.261538l14.178462-4.726154c67.741538-23.630769 127.606154-26.781538 127.606154-26.781538zM915.298462 220.553846c17.329231 3.150769 31.507692 18.904615 31.507692 39.384616 0 22.055385-17.329231 39.384615-39.384616 39.384615s-39.384615-17.329231-39.384615-39.384615c0-9.452308 3.150769-17.329231 7.876923-23.63077 7.876923-9.452308 18.904615-15.753846 31.507692-15.753846 1.575385-1.575385 4.726154 0 7.876924 0z" fill="#2c2c2c" p-id="23743" data-spm-anchor-id="a313x.7781069.0.i70" class="selected"></path><path d="M883.790769 258.363077c0-9.452308 3.150769-17.329231 7.876923-23.630769 6.301538-7.876923 14.178462-12.603077 23.63077-14.178462h-7.876924c-12.603077 0-23.630769 6.301538-31.507692 15.753846-4.726154 6.301538-7.876923 15.753846-7.876923 23.63077 0 22.055385 17.329231 39.384615 39.384615 39.384615h7.876924c-18.904615-4.726154-31.507692-20.48-31.507693-40.96z" fill="#FFFFFF" p-id="23744"></path><path d="M931.052308 258.363077c0 9.452308-3.150769 17.329231-7.876923 23.630769-6.301538 7.876923-14.178462 12.603077-23.63077 14.178462h7.876923c12.603077 0 23.630769-6.301538 31.507693-15.753846 4.726154-6.301538 7.876923-15.753846 7.876923-23.63077 0-22.055385-17.329231-39.384615-39.384616-39.384615h-7.876923c17.329231 6.301538 31.507692 22.055385 31.507693 40.96z" fill="#94C1FF" p-id="23745"></path><path d="M789.267692 266.24v31.507692h-551.384615c15.753846-341.858462 578.166154-384.393846 677.415385-78.76923h-7.876924c-12.603077 0-23.630769 6.301538-31.507692 15.753846-39.384615-15.753846-67.741538-9.452308-86.646154 1.575384v29.932308z" fill="#d81e06" p-id="23746" data-spm-anchor-id="a313x.7781069.0.i65" class=""></path><path d="M863.310769 129.181538C693.169231-70.892308 252.061538-3.150769 237.883077 299.323077h34.658461C311.926154 39.384615 683.716923-25.206154 863.310769 129.181538z" fill="#2c2c2c" p-id="23747" data-spm-anchor-id="a313x.7781069.0.i67" class="selected"></path><path d="M789.267692 299.323077v63.015385h-551.384615v-47.261539-15.753846h551.384615z" fill="#d81e06" p-id="23748" data-spm-anchor-id="a313x.7781069.0.i64" class=""></path><path d="M789.267692 393.846154v47.261538c0 28.356923-4.726154 56.713846-12.603077 85.07077-22.055385 74.043077-67.741538 141.784615-119.72923 190.621538-48.836923 44.110769-102.4 72.467692-143.36 72.467692-44.110769 0-102.4-31.507692-154.387693-83.495384-47.261538-47.261538-89.796923-110.276923-108.701538-179.593846-7.876923-26.781538-12.603077-55.138462-12.603077-85.07077v-78.76923h551.384615v31.507692z" fill="#D7E9FF" p-id="23749"></path><path d="M694.744615 724.676923l-26.781538-20.48c-4.726154 4.726154-9.452308 9.452308-14.178462 12.603077-47.261538 42.535385-99.249231 69.316923-140.20923 69.316923-44.110769 0-102.4-31.507692-154.387693-83.495385l-9.452307 6.301539 9.452307 9.452308c51.987692 50.412308 110.276923 83.495385 154.387693 83.495384 40.96 0 94.523077-26.781538 143.36-72.467692l6.301538-6.301539 48.836923 28.356924-51.987692 23.630769v69.316923l18.904615 3.150769v-63.015385l66.166154-26.781538 12.603077-4.726154-63.015385-28.356923z" fill="#5C9EFF" p-id="23750"></path><path d="M389.12 704.196923c-47.261538-47.261538-89.796923-110.276923-108.701538-179.593846-7.876923-26.781538-12.603077-55.138462-12.603077-85.070769v-78.769231h-31.507693v78.769231c0 28.356923 4.726154 56.713846 12.603077 85.070769 20.48 69.316923 61.44 132.332308 108.701539 179.593846 51.987692 50.412308 110.276923 83.495385 154.387692 83.495385 4.726154 0 11.027692 0 15.753846-1.575385-40.96-6.301538-91.372308-36.233846-138.633846-81.92z" fill="#FFFFFF" p-id="23751"></path><path d="M636.455385 704.196923c47.261538-47.261538 89.796923-110.276923 108.701538-179.593846 7.876923-26.781538 12.603077-55.138462 12.603077-85.070769v-78.769231h31.507692v78.769231c0 28.356923-4.726154 56.713846-12.603077 85.070769-20.48 69.316923-61.44 132.332308-108.701538 179.593846-51.987692 50.412308-110.276923 83.495385-154.387692 83.495385-4.726154 0-11.027692 0-15.753847-1.575385 40.96-6.301538 92.947692-36.233846 138.633847-81.92z" fill="#94C1FF" p-id="23752"></path><path d="M513.575385 795.569231c-45.686154 0-105.550769-31.507692-160.689231-85.070769-51.987692-51.987692-91.372308-116.578462-110.276923-182.744616-7.876923-28.356923-12.603077-58.289231-12.603077-86.646154 0-4.726154 3.150769-7.876923 7.876923-7.876923s7.876923 3.150769 7.876923 7.876923c0 26.781538 4.726154 55.138462 12.603077 81.92 17.329231 63.015385 55.138462 126.030769 107.126154 176.443077 50.412308 50.412308 107.126154 80.344615 149.661538 80.344616 39.384615 0 89.796923-26.781538 138.633846-69.316923 55.138462-50.412308 97.673846-118.153846 118.153847-185.895385 7.876923-28.356923 12.603077-55.138462 12.603076-81.92 0-4.726154 3.150769-7.876923 7.876924-7.876923s7.876923 3.150769 7.876923 7.876923c0 28.356923-4.726154 58.289231-12.603077 86.646154-20.48 70.892308-64.590769 140.209231-122.88 193.772307-53.563077 44.110769-108.701538 72.467692-151.236923 72.467693z" fill="#116FFF" p-id="23753"></path><path d="M978.313846 1016.123077h-929.476923c-4.726154 0-7.876923-3.150769-7.876923-7.876923v-47.261539c0-67.741538 34.658462-92.947692 99.249231-118.153846 33.083077-12.603077 85.070769-34.658462 124.455384-56.713846 3.150769-1.575385 7.876923 0 11.027693 3.150769 1.575385 3.150769 0 7.876923-3.15077 11.027693-40.96 22.055385-92.947692 44.110769-127.606153 56.713846-59.864615 22.055385-89.796923 44.110769-89.796923 102.4v39.384615h913.723076V960.984615c0-59.864615-28.356923-80.344615-89.796923-102.4-34.658462-12.603077-86.646154-34.658462-127.606153-56.713846-3.150769-1.575385-4.726154-6.301538-3.15077-11.027692 1.575385-3.150769 6.301538-4.726154 11.027693-3.150769 40.96 22.055385 92.947692 44.110769 124.455384 56.713846 64.590769 23.630769 99.249231 50.412308 99.249231 118.153846v47.261538c3.150769 1.575385-1.575385 6.301538-4.726154 6.301539zM237.883077 370.215385c-4.726154 0-7.876923-3.150769-7.876923-7.876923v-47.261539-14.178461C237.883077 115.003077 396.996923 29.932308 529.329231 12.603077c151.236923-20.48 338.707692 36.233846 393.846154 207.950769v3.150769c0 4.726154-3.150769 7.876923-7.876923 7.876923-3.150769 0-6.301538-3.150769-7.876924-6.301538C855.433846 59.864615 675.84 7.876923 530.904615 26.781538c-126.030769 17.329231-277.267692 97.673846-285.144615 272.541539v63.015385c0 3.150769-3.150769 7.876923-7.876923 7.876923zM789.267692 370.215385c-4.726154 0-7.876923-3.150769-7.876923-7.876923v-94.523077c0-4.726154 3.150769-7.876923 7.876923-7.876923s7.876923 3.150769 7.876923 7.876923v94.523077c0 3.150769-4.726154 7.876923-7.876923 7.876923z" fill="#116FFF" p-id="23754"></path><path d="M907.421538 305.624615c-26.781538 0-47.261538-20.48-47.261538-47.261538 0-11.027692 3.150769-20.48 9.452308-28.356923l1.575384-1.575385c11.027692-12.603077 29.932308-18.904615 45.686154-15.753846 22.055385 4.726154 37.809231 23.630769 37.809231 45.686154 0 26.781538-22.055385 47.261538-47.261539 47.261538z m-26.781538-64.590769c-3.150769 4.726154-6.301538 11.027692-6.301538 18.904616 0 17.329231 14.178462 31.507692 31.507692 31.507692s31.507692-14.178462 31.507692-31.507692c0-14.178462-11.027692-28.356923-25.206154-31.507693-9.452308-1.575385-22.055385 1.575385-31.507692 12.603077 1.575385-1.575385 1.575385 0 0 0z" fill="#116FFF" p-id="23755"></path><path d="M757.76 274.116923c-1.575385 0-3.150769 0-3.150769-1.575385-3.150769-1.575385-4.726154-6.301538-3.150769-11.027692 0 0 39.384615-69.316923 127.606153-36.233846 3.150769 1.575385 4.726154 4.726154 4.726154 7.876923 0 4.726154-6.301538 9.452308-11.027692 7.876923-75.618462-29.932308-107.126154 26.781538-108.701539 28.356923-1.575385 3.150769-3.150769 4.726154-6.301538 4.726154zM789.267692 370.215385h-551.384615c-4.726154 0-7.876923-3.150769-7.876923-7.876923s3.150769-7.876923 7.876923-7.876924h551.384615c4.726154 0 7.876923 3.150769 7.876923 7.876924s-4.726154 7.876923-7.876923 7.876923zM789.267692 307.2h-551.384615c-4.726154 0-7.876923-3.150769-7.876923-7.876923s3.150769-7.876923 7.876923-7.876923h551.384615c4.726154 0 7.876923 3.150769 7.876923 7.876923s-4.726154 7.876923-7.876923 7.876923zM789.267692 537.206154c-3.150769 0-6.301538-1.575385-7.876923-4.726154-1.575385-4.726154 0-7.876923 4.726154-11.027692 36.233846-15.753846 42.535385-26.781538 42.535385-31.507693 0-29.932308 53.563077-88.221538 80.344615-118.153846-23.630769 3.150769-61.44 9.452308-103.975385 23.630769l-14.178461 4.726154c-4.726154 1.575385-7.876923-1.575385-9.452308-4.726154-1.575385-4.726154 1.575385-7.876923 4.726154-9.452307l14.178462-4.726154c69.316923-22.055385 127.606154-26.781538 129.181538-26.781539 3.150769 0 6.301538 1.575385 7.876923 4.726154s0 6.301538-1.575384 9.452308c-36.233846 34.658462-91.372308 99.249231-91.372308 122.88 0 22.055385-29.932308 36.233846-51.987692 45.686154h-3.15077z" fill="#116FFF" p-id="23756"></path><path d="M789.267692 448.984615c-4.726154 0-7.876923-3.150769-7.876923-7.876923v-47.261538c0-4.726154 3.150769-7.876923 7.876923-7.876923s7.876923 3.150769 7.876923 7.876923v47.261538c0 3.150769-4.726154 7.876923-7.876923 7.876923z" fill="#116FFF" p-id="23757"></path><path d="M789.267692 448.984615c-1.575385 0-3.150769 0-4.726154-1.575384-3.150769-3.150769-4.726154-7.876923-1.575384-11.027693 29.932308-39.384615 69.316923-34.658462 70.892308-34.658461 4.726154 0 7.876923 4.726154 6.301538 9.452308 0 4.726154-4.726154 7.876923-9.452308 6.301538-1.575385 0-31.507692-3.150769-56.713846 28.356923 0 1.575385-3.150769 3.150769-4.726154 3.150769zM237.883077 537.206154h-3.150769c-1.575385 0-6.301538-1.575385-11.027693-3.150769-11.027692-3.150769-18.904615-4.726154-22.055384-7.876923-12.603077-9.452308-18.904615-22.055385-18.904616-36.233847 0-23.630769-56.713846-88.221538-91.372307-122.88-3.150769-1.575385-3.150769-6.301538-1.575385-9.452307 1.575385-3.150769 4.726154-4.726154 7.876923-4.726154 1.575385 0 45.686154 3.150769 102.4 18.904615 12.603077 3.150769 26.781538 7.876923 40.96 12.603077 4.726154 1.575385 6.301538 6.301538 4.726154 9.452308s-6.301538 6.301538-9.452308 4.726154c-14.178462-4.726154-26.781538-9.452308-40.96-12.603077-31.507692-9.452308-59.864615-14.178462-77.193846-15.753846 28.356923 28.356923 80.344615 88.221538 80.344616 118.153846 0 11.027692 6.301538 18.904615 12.603076 23.630769 1.575385 1.575385 11.027692 3.150769 15.753847 4.726154 6.301538 1.575385 11.027692 3.150769 14.178461 3.150769 4.726154 1.575385 6.301538 6.301538 4.726154 11.027692-3.150769 4.726154-4.726154 6.301538-7.876923 6.301539z" fill="#116FFF" p-id="23758"></path><path d="M237.883077 448.984615c-3.150769 0-4.726154-1.575385-6.301539-3.150769-23.630769-31.507692-55.138462-28.356923-56.713846-28.356923-4.726154 0-7.876923-3.150769-9.452307-6.301538 0-4.726154 3.150769-7.876923 6.301538-9.452308 1.575385 0 40.96-4.726154 70.892308 34.658461 3.150769 3.150769 1.575385 7.876923-1.575385 11.027693 0 0-1.575385 1.575385-3.150769 1.575384z" fill="#116FFF" p-id="23759"></path><path d="M237.883077 448.984615c-4.726154 0-7.876923-3.150769-7.876923-7.876923v-47.261538c0-4.726154 3.150769-7.876923 7.876923-7.876923s7.876923 3.150769 7.876923 7.876923v47.261538c0 3.150769-4.726154 7.876923-7.876923 7.876923zM513.575385 905.846154c-1.575385 0-4.726154-1.575385-6.301539-3.150769-3.150769-3.150769-3.150769-7.876923 0-11.027693l70.892308-63.015384c1.575385-1.575385 4.726154-1.575385 6.301538-1.575385l85.07077 14.178462V787.692308c0-3.150769 1.575385-6.301538 4.726153-7.876923l63.015385-25.206154-47.261538-23.630769c-3.150769-1.575385-4.726154-6.301538-3.15077-11.027693 1.575385-3.150769 6.301538-4.726154 11.027693-3.150769l63.015384 31.507692c3.150769 1.575385 4.726154 4.726154 4.726154 7.876923s-1.575385 6.301538-4.726154 6.301539l-74.043077 29.932308V850.707692c0 1.575385-1.575385 4.726154-3.150769 6.301539-1.575385 1.575385-4.726154 1.575385-6.301538 1.575384l-91.372308-15.753846-67.741539 59.864616c-1.575385 1.575385-3.150769 3.150769-4.726153 3.150769z" fill="#116FFF" p-id="23760"></path><path d="M513.575385 905.846154c-1.575385 0-3.150769 0-4.726154-1.575385L441.107692 844.406154l-91.372307 15.753846c-1.575385 0-4.726154 0-6.301539-1.575385s-3.150769-3.150769-3.150769-6.301538v-58.289231l-74.043077-29.932308c-3.150769-1.575385-4.726154-3.150769-4.726154-6.301538s1.575385-6.301538 4.726154-7.876923l63.015385-31.507692c3.150769-1.575385 7.876923 0 11.027692 3.150769 1.575385 3.150769 0 7.876923-3.150769 11.027692l-47.261539 23.630769 63.015385 25.206154c3.150769 1.575385 4.726154 4.726154 4.726154 7.876923v53.563077l85.070769-14.178461c1.575385 0 4.726154 0 6.301538 1.575384l70.892308 63.015385c3.150769 3.150769 3.150769 7.876923 0 11.027692-3.150769 0-4.726154 1.575385-6.301538 1.575385zM513.575385 984.615385c-17.329231 0-31.507692-14.178462-31.507693-31.507693s14.178462-31.507692 31.507693-31.507692 31.507692 14.178462 31.507692 31.507692-14.178462 31.507692-31.507692 31.507693z m0-47.261539c-9.452308 0-15.753846 6.301538-15.753847 15.753846s6.301538 15.753846 15.753847 15.753846 15.753846-6.301538 15.753846-15.753846-7.876923-15.753846-15.753846-15.753846z" fill="#116FFF" p-id="23761"></path><path d="M757.76 266.24l31.507692-29.932308v63.015385h-31.507692z" fill="#2287FF" p-id="23762"></path></svg>