<?xml version="1.0" standalone="no"?><!DOCTYPE svg PUBLIC "-//W3C//DTD SVG 1.1//EN" "http://www.w3.org/Graphics/SVG/1.1/DTD/svg11.dtd"><svg t="1675835048113" class="icon" viewBox="0 0 1024 1024" version="1.1" xmlns="http://www.w3.org/2000/svg" p-id="14868" xmlns:xlink="http://www.w3.org/1999/xlink" width="200" height="200"><path d="M506 506.8m-399.7 0a399.7 399.7 0 1 0 799.4 0 399.7 399.7 0 1 0-799.4 0Z" fill="#1452F1" p-id="14869"></path><path d="M506 262.8v120.1l49.8 70.2 83.2 25.2-52.3 68.7 1.5 85.9L506 605v190.5c149.8-59.2 249.8-165 249.8-286.1V302.2c-85.9-5-169.4-18.4-249.8-39.4z" fill="#14D4FF" p-id="14870"></path><path d="M505.8 604.8l-82.3 28 1.5-85.9-52.3-68.7L456 453l49.9-70.4 0.1 0.2v-120c-80.4 21-163.9 34.4-249.8 39.4v207.1c0 121 100.1 226.8 249.8 285.9V604.8h-0.2z" fill="#008EFF" p-id="14871"></path></svg>