<?xml version="1.0" standalone="no"?><!DOCTYPE svg PUBLIC "-//W3C//DTD SVG 1.1//EN" "http://www.w3.org/Graphics/SVG/1.1/DTD/svg11.dtd"><svg t="1675739785649" class="icon" viewBox="0 0 1024 1024" version="1.1" xmlns="http://www.w3.org/2000/svg" p-id="3011" xmlns:xlink="http://www.w3.org/1999/xlink" width="200" height="200"><path d="M256 358.4a17.066667 17.066667 0 0 0 17.066667-17.066667v-17.066666c0-19.217067 6.7072-187.733333 238.933333-187.733334 169.2672 0 204.8 102.075733 204.8 187.733334v68.266666a17.066667 17.066667 0 0 0 17.066667 17.066667 17.066667 17.066667 0 0 1 17.066666 17.066667v68.266666a17.066667 17.066667 0 0 1-17.066666 17.066667 17.066667 17.066667 0 0 0-17.066667 17.0496c0 0.443733-0.221867 41.147733-12.253867 71.0144-16.401067 4.027733-62.941867 13.175467-144.554666 14.148267A51.114667 51.114667 0 0 0 512 580.266667c-28.228267 0-51.2 22.971733-51.2 51.2s22.971733 51.2 51.2 51.2a51.0976 51.0976 0 0 0 48.093867-34.2528c110.865067-1.262933 159.982933-17.134933 162.0992-17.834667a16.9984 16.9984 0 0 0 9.864533-8.5504c12.987733-25.9584 17.0496-59.733333 18.312533-78.626133A51.285333 51.285333 0 0 0 785.066667 494.933333v-68.266666a51.3024 51.3024 0 0 0-34.133334-48.2816V324.266667c0-141.0048-87.0912-221.866667-238.933333-221.866667-106.922667 0-184.763733 32.512-231.406933 96.631467C240.9472 253.5424 238.933333 312.917333 238.933333 324.266667v17.066666a17.066667 17.066667 0 0 0 17.066667 17.066667z m256 290.133333a17.066667 17.066667 0 1 1 0-34.133333 17.066667 17.066667 0 0 1 0 34.133333z m-273.066667-153.6v-68.266666c0-28.228267 22.971733-51.2 51.2-51.2a17.066667 17.066667 0 0 1 17.066667 17.066666c0.136533 4.846933 1.416533 10.3936 5.8368 13.824 3.9424-20.701867 0.4608-50.722133-2.4576-75.758933C308.855467 315.613867 307.2 301.448533 307.2 290.133333a17.083733 17.083733 0 0 1 24.695467-15.274666c64 32 262.075733 32 326.075733 0A17.0496 17.0496 0 0 1 682.666667 290.133333v102.4a17.066667 17.066667 0 1 1-34.133334 0v-77.585066c-77.7728 23.7568-226.4064 23.927467-305.322666 0.5632l1.28 11.1616c4.317867 37.154133 9.216 79.274667-4.9664 107.6224A17.032533 17.032533 0 0 1 324.266667 443.733333c-25.156267 0-39.560533-13.7216-46.353067-28.962133A16.964267 16.964267 0 0 0 273.066667 426.666667v68.266666a17.066667 17.066667 0 0 0 17.066666 17.066667 17.066667 17.066667 0 0 1 17.066667 17.0496c0 0.477867 0.256 47.684267 15.2576 77.7216A17.032533 17.032533 0 0 1 307.217067 631.466667a17.066667 17.066667 0 0 1-15.291734-9.437867c-12.970667-25.9584-17.032533-59.733333-18.295466-78.626133A51.285333 51.285333 0 0 1 238.933333 494.933333z m221.866667-17.066666h-17.066667a17.066667 17.066667 0 1 1-34.133333 0h-17.066667a17.066667 17.066667 0 1 1 0-34.133334h68.266667a17.066667 17.066667 0 1 1 0 34.133334z m85.333333-17.066667a17.066667 17.066667 0 0 1 17.066667-17.066667h68.266667a17.066667 17.066667 0 1 1 0 34.133334h-17.066667a17.066667 17.066667 0 1 1-34.133333 0h-17.066667a17.066667 17.066667 0 0 1-17.066667-17.066667z m409.6-17.066667C955.733333 199.048533 756.6848 0 512 0 327.7312 0 169.386667 112.913067 102.4 273.186133V99.242667A51.114667 51.114667 0 0 0 136.533333 51.2c0-28.228267-22.971733-51.2-51.2-51.2S34.133333 22.971733 34.133333 51.2c0 22.2208 14.318933 40.977067 34.133334 48.042667V443.733333a441.685333 441.685333 0 0 0 102.4 283.1872v134.7072a17.066667 17.066667 0 0 0 6.6048 13.482667C273.902933 950.186667 389.649067 989.866667 512 989.866667c122.350933 0 238.097067-39.68 334.728533-114.756267a17.066667 17.066667 0 0 0 6.6048-13.482667v-134.7072A441.685333 441.685333 0 0 0 955.733333 443.733333zM85.333333 34.133333a17.066667 17.066667 0 1 1 0 34.133334 17.066667 17.066667 0 0 1 0-34.133334z m426.666667 0c225.8432 0 409.6 183.7568 409.6 409.6 0 99.669333-35.84 191.112533-95.232 262.212267a16.810667 16.810667 0 0 0-5.341867 6.178133C745.8816 798.532267 635.255467 853.333333 512 853.333333 286.1568 853.333333 102.4 669.576533 102.4 443.733333S286.1568 34.133333 512 34.133333z m0 921.6c-111.940267 0-217.975467-35.4304-307.2-102.536533v-89.719467C284.603733 840.157867 392.8576 887.466667 512 887.466667s227.396267-47.3088 307.2-123.989334v89.719467C729.975467 920.302933 623.940267 955.733333 512 955.733333z m0-204.8c-174.353067 0-311.688533-101.495467-317.44-105.813333a17.066667 17.066667 0 0 1 20.48-27.323733C216.354133 618.8032 349.320533 716.8 512 716.8c163.089067 0 295.6288-97.9968 296.96-98.986667a17.066667 17.066667 0 1 1 20.48 27.306667c-5.751467 4.317867-143.086933 105.813333-317.44 105.813333zM134.724267 862.754133a17.1008 17.1008 0 0 1-7.611734 22.903467C126.190933 886.1184 34.133333 933.3248 34.133333 1006.933333a17.066667 17.066667 0 1 1-34.133333 0c0-94.788267 107.264-149.521067 111.837867-151.790933a17.1008 17.1008 0 0 1 22.8864 7.611733zM1024 1006.933333a17.066667 17.066667 0 1 1-34.133333 0c0-73.608533-92.0576-120.814933-92.9792-121.275733a17.1008 17.1008 0 0 1-7.611734-22.903467 17.083733 17.083733 0 0 1 22.8864-7.611733C916.736 857.412267 1024 912.145067 1024 1006.933333z" fill="#231F1F" p-id="3012"></path></svg>