<?xml version="1.0" standalone="no"?><!DOCTYPE svg PUBLIC "-//W3C//DTD SVG 1.1//EN" "http://www.w3.org/Graphics/SVG/1.1/DTD/svg11.dtd"><svg t="1675739693050" class="icon" viewBox="0 0 1024 1024" version="1.1" xmlns="http://www.w3.org/2000/svg" p-id="1663" xmlns:xlink="http://www.w3.org/1999/xlink" width="200" height="200"><path d="M243.942655 510.387254c9.861072 24.106739 37.584674 90.609263 65.035306 145.544647C333.033517 704.060075 391.381037 784.791205 511.91473 784.791205c120.516632 0 178.864152-80.73113 202.919708-128.859304 27.467692-54.935384 55.191295-121.437909 65.052367-145.544647A51.284399 51.284399 0 0 0 819.00694 460.638316v-68.242714c0-17.11186-9.434555-41.167417-34.20666-48.776479C781.763479 99.804968 702.038929 0 511.91473 0 321.79053 0 242.06598 99.804968 239.029179 343.619123 214.257074 351.228186 204.822519 375.283742 204.822519 392.395602v68.242714c0 24.055556 16.685343 44.306582 39.120136 49.748938zM238.943876 392.600331c0.204728-7.882033 3.309772-17.265407 17.060678-17.265407a17.060678 17.060678 0 0 0 17.060679-17.060678C273.065233 121.96679 337.793446 34.121357 511.91473 34.121357s238.849497 87.845433 238.849497 324.152889a17.060678 17.060678 0 0 0 17.060678 17.060678c13.750907 0 16.85595 9.383373 17.060679 17.060678v68.242714a17.060678 17.060678 0 0 1-17.060679 17.060678c-6.994878 0-13.239086 4.248109-15.866431 10.731167-0.307092 0.835973-34.20666 85.422817-67.645589 152.249494C659.233687 690.85511 608.955868 750.669848 511.91473 750.669848c-97.07526 0-147.318958-59.814738-172.415216-109.990193-33.404808-66.792556-67.321437-151.39646-67.64559-152.249494a17.0948 17.0948 0 0 0-15.86643-10.731167 17.060678 17.060678 0 0 1-17.060679-17.060678v-68.037985z m229.414942 197.801505S483.082183 597.123743 511.91473 597.123743c28.832546 0 43.607094-6.738968 43.743579-6.807211a17.11186 17.11186 0 0 1 22.690702 7.933216 16.992436 16.992436 0 0 1-7.626123 22.673641c-2.115524 1.040701-21.735304 10.32171-58.808158 10.321711s-56.692634-9.281009-58.808159-10.321711a17.060678 17.060678 0 0 1 15.252247-30.521553z m543.706759 432.351711a17.043618 17.043618 0 0 1-21.564698-10.782349l-18.186683-54.491807c-14.433334-43.709458-34.240781-103.455954-250.587244-103.745985-8.888613 6.107723-32.858867 24.209103-57.153272 55.856661a16.992436 16.992436 0 0 1-5.459417 7.489638 302.588192 302.588192 0 0 0-45.483769 94.174945 17.163042 17.163042 0 0 1-21.086998 11.737746 17.060678 17.060678 0 0 1-11.737747-21.086998 344.284489 344.284489 0 0 1 16.582979-45.620254 729.309879 729.309879 0 0 0-73.412099 62.356779 17.009496 17.009496 0 0 1-24.123799 0 17.043618 17.043618 0 0 1 0-24.123799c2.780891-2.780891 67.15083-66.690192 134.915845-102.381131 4.367534-5.868873 8.700946-11.277108 13.034358-16.36119C630.742355 866.477733 614.2788 853.170404 614.2788 835.97324v-17.060678a17.060678 17.060678 0 1 1 34.121357 0v15.456974c2.76383 3.855713 12.897873 10.287589 24.038495 15.542278 19.346809-18.050198 34.036053-27.058236 35.486211-27.91127 3.633924-2.132585 7.916155-2.388495 12.078961-2.388494 242.68815 0 267.955014 76.46596 284.725661 127.153235l18.118441 54.423564a17.026557 17.026557 0 0 1-10.782349 21.564698z m-511.086742-88.357253C404.483638 853.972256 308.159048 853.033918 307.169529 853.033918 86.063137 853.033918 66.955177 910.835497 51.600567 957.257603l-18.254926 54.713595a17.043618 17.043618 0 1 1-32.347046-10.782349l18.186683-54.645352C36.996626 892.682935 61.410457 818.912562 307.186589 818.912562c2.183767 0 28.986093 0.307092 68.242714 11.140623V818.912562a17.060678 17.060678 0 1 1 34.121357 0v22.366549a401.488944 401.488944 0 0 1 113.282904 66.877859c7.250788 6.03948 8.223247 16.804768 2.200827 24.055557-6.056541 7.233728-16.787708 8.189126-24.055556 2.183767z m259.254068-61.435503a17.060678 17.060678 0 0 1 4.725808 23.663161C734.044762 942.960754 733.703549 1005.948779 733.703549 1006.580024a17.060678 17.060678 0 1 1-34.121357 0c0-3.002679 0.409456-74.043344 36.98755-128.893425a17.043618 17.043618 0 0 1 23.663161-4.725808zM563.130886 397.735595a17.060678 17.060678 0 0 1 15.951734-18.10138l68.242714-4.26517a17.180103 17.180103 0 0 1 18.084319 15.968795 17.060678 17.060678 0 0 1-15.951734 18.084319L631.339478 410.565225v3.156225a17.060678 17.060678 0 1 1-34.121356 0v-1.02364l-16.002917 0.989519-1.074822 0.034121a17.060678 17.060678 0 0 1-17.009497-15.985855z m-204.72814-6.397755a17.197164 17.197164 0 0 1 18.084319-15.968795l68.242713 4.26517A17.060678 17.060678 0 0 1 443.672016 413.72145l-1.091883-0.034121L426.611338 412.69781v1.02364a17.060678 17.060678 0 1 1-34.121357 0v-3.156225l-18.11844-1.143066a17.060678 17.060678 0 0 1-15.968795-18.084319z" fill="#231F1F" p-id="1664"></path></svg>