<?xml version="1.0" standalone="no"?><!DOCTYPE svg PUBLIC "-//W3C//DTD SVG 1.1//EN" "http://www.w3.org/Graphics/SVG/1.1/DTD/svg11.dtd"><svg t="1675739792953" class="icon" viewBox="0 0 1024 1024" version="1.1" xmlns="http://www.w3.org/2000/svg" p-id="3161" xmlns:xlink="http://www.w3.org/1999/xlink" width="200" height="200"><path d="M273.067981 461.00363V494.931977c0 9.403682 7.679958 17.066573 17.066573 17.066572a17.066573 17.066573 0 0 1 16.895907 14.64312c0.170666 1.160527 16.947107 116.257494 48.520266 163.617233 2.269854 3.396248 4.642108 7.21916 7.167961 11.349271 20.548154 33.228617 51.575183 83.455541 149.298379 83.455541 97.723196 0 128.750225-50.226924 149.281312-83.455541 2.542919-4.130111 4.915173-7.953023 7.16796-11.349271 31.641426-47.428006 48.349601-162.456706 48.520267-163.617233A17.066573 17.066573 0 0 1 733.865446 511.998549c9.386615 0 17.066573-7.662891 17.066573-17.066572v-34.133146c-0.204799-7.679958-3.327982-17.066573-17.066573-17.066573a17.066573 17.066573 0 0 1 0-34.133145c37.54646 0 51.199718 30.617432 51.199719 51.199718v34.133146c0 23.039873-15.291649 42.581099-36.266467 48.981063-5.47837 32.733687-22.425477 121.019068-51.933581 165.289758-2.065055 3.08905-4.215443 6.587697-6.536498 10.342343C668.824737 754.378016 628.769491 819.19686 512 819.19686c-116.735358 0-156.790604-64.818843-178.311553-99.651719-2.321054-3.754646-4.471442-7.253293-6.536497-10.342343-29.525171-44.27069-46.455211-132.556071-51.933581-165.289758A51.285051 51.285051 0 0 1 238.934835 494.931977v-34.133146c0-20.582287 13.636192-51.199718 51.199719-51.199718a17.066573 17.066573 0 0 1 0 34.133145c-13.738591 0-16.861774 9.386615-17.066573 17.271372z m238.932019 167.576678c-18.261233-9.932745-33.96248-11.519937-46.762409-4.676241-20.889485 11.161539-21.503882 38.604588-21.503882 41.488839-0.034133 2.013856-0.767996 4.898106-0.119466 4.966372 0 0.017067-2.645319 0.375465-9.301282-2.952517a17.066573 17.066573 0 1 0-15.257516 30.515032c20.394554 10.222877 33.945413 6.62183 41.72777 1.809057 16.622842-10.274077 17.100706-31.726759 17.100706-33.996613 0.085333-5.000506 2.047989-10.95674 3.464514-11.741802 0-0.0512 5.512503-1.723724 21.196684 8.738085a17.066573 17.066573 0 0 0 18.943895 0c15.68418-10.461809 21.128417-8.789285 21.196684-8.738085 1.416526 0.785062 3.379181 6.741296 3.464514 11.60527 0 2.406387 0.477864 23.859069 17.100706 34.133145 4.095977 2.542919 9.847413 4.744507 17.356705 4.744507 6.690097 0 14.779652-1.74079 24.371066-6.553564a17.03244 17.03244 0 0 0 7.628758-22.886274 17.015373 17.015373 0 0 0-22.886274-7.628758c-5.119972 2.542919-7.81649 2.918384-8.260222 3.310915A15.13805 15.13805 0 0 1 580.266291 665.597705c0-3.08905-0.580263-30.532099-21.469748-41.693638-12.79993-6.860762-28.501177-5.273571-46.779476 4.676241zM460.800282 477.865404h-68.266292a17.066573 17.066573 0 0 0 0 34.133145h17.066573a17.066573 17.066573 0 0 0 34.133146 0h17.066573a17.066573 17.066573 0 0 0 0-34.133145z m119.466009 34.133145a17.066573 17.066573 0 0 0 34.133146 0h17.066573a17.066573 17.066573 0 0 0 0-34.133145h-68.266292a17.066573 17.066573 0 0 0 0 34.133145h17.066573zM366.899998 117.436453a17.03244 17.03244 0 0 0 22.869208-7.645825A135.918186 135.918186 0 0 1 512.034133 34.134511a135.764587 135.764587 0 0 1 122.537993 76.236381 17.066573 17.066573 0 0 0 30.617431-15.103917A169.727067 169.727067 0 0 0 512 0.001365a169.829466 169.829466 0 0 0-152.77996 94.548814 17.049506 17.049506 0 0 0 7.645825 22.886274zM273.067981 288.767777V375.465967a17.066573 17.066573 0 0 0 5.000506 12.066067C334.285777 443.732258 424.619147 443.732258 512 443.732258c87.380853 0 177.731289 0 233.931513-56.200224A17.066573 17.066573 0 0 0 750.932019 375.465967v-31.999824a17.066573 17.066573 0 0 0-34.133145 0v24.644131C670.019398 409.599113 593.185687 409.599113 512 409.599113s-158.002331 0-204.798874-41.488839v-89.63364a17.049506 17.049506 0 0 0-9.727946-15.394049A102.911434 102.911434 0 0 1 238.934835 170.667093c0-56.473289 45.909081-102.399437 102.399437-102.399436a17.066573 17.066573 0 0 0 0-34.133146c-75.280653 0-136.532582 61.25193-136.532582 136.532582 0 48.639732 26.453188 93.86615 68.266291 118.100684zM682.665728 68.267657c56.473289 0 102.399437 45.926147 102.399437 102.399436 0 39.218984-22.971607 75.485451-57.309552 91.886428C726.612153 262.997252 610.132794 307.199676 512 307.199676c-94.924278 0-143.546944-30.890497-144.21254-31.300095a17.066573 17.066573 0 0 0-18.87563 28.432911C351.232884 305.83435 405.675251 341.332821 512.034133 341.332821c104.362093 0 222.974774-45.004552 229.204073-47.445072A137.146979 137.146979 0 0 0 819.19831 170.667093c0-75.280653-61.268996-136.532582-136.532582-136.532582a17.066573 17.066573 0 0 0 0 34.133146zM1023.143855 1001.536124l-19.063361-57.309552c-18.107634-56.029559-40.720843-90.486969-266.17027-90.896567l-64.682311-32.324089a17.066573 17.066573 0 0 0-16.38391 0.614397C656.024808 822.115244 574.668455 870.396578 512 870.396578c-62.651389 0-144.007741-48.281334-144.826937-48.776265a17.117773 17.117773 0 0 0-16.400976-0.614397l-64.682311 32.341156C60.725682 853.739603 38.061273 888.21408 19.970706 944.226572L0.890278 1001.536124a17.066573 17.066573 0 1 0 32.392355 10.786074l19.148695-57.599684c12.1514-37.563527 21.725747-67.242297 237.549626-67.242296H290.134554c2.645319 0 5.273571-0.614397 7.628758-1.791991l60.108469-30.071301C381.67965 868.775254 451.857397 904.529724 512 904.529724c60.176736 0 130.354483-35.75447 154.145286-48.912798 44.065891 22.032945 59.937804 29.832369 67.737227 31.334228V887.463151c215.977479 0 225.568893 29.67877 237.720293 67.259363l19.148694 57.599684a17.100706 17.100706 0 0 0 21.589215 10.80314 17.066573 17.066573 0 0 0 10.80314-21.589214zM529.066573 682.664277h-34.133146a17.066573 17.066573 0 0 0 0 34.133146h34.133146a17.066573 17.066573 0 0 0 0-34.133146z m-101.88744 307.198311h-0.170666a16.998307 16.998307 0 0 0-16.964173 17.066573c0 9.420748 7.731157 17.066573 17.151906 17.066572a17.066573 17.066573 0 1 0 0-34.133145z m0-68.266291h-0.170666a16.998307 16.998307 0 0 0-16.964173 17.066572c0 9.420748 7.731157 17.066573 17.151906 17.066573a17.066573 17.066573 0 1 0 0-34.133145z m170.665728 68.266291h-0.170666a16.998307 16.998307 0 0 0-16.964173 17.066573c0 9.420748 7.731157 17.066573 17.151906 17.066572a17.066573 17.066573 0 0 0 0-34.133145z m0-68.266291h-0.170666a16.998307 16.998307 0 0 0-16.964173 17.066572c0 9.420748 7.731157 17.066573 17.151906 17.066573a17.066573 17.066573 0 0 0 0-34.133145z" fill="#231F1F" p-id="3162"></path></svg>