<?xml version="1.0" standalone="no"?><!DOCTYPE svg PUBLIC "-//W3C//DTD SVG 1.1//EN" "http://www.w3.org/Graphics/SVG/1.1/DTD/svg11.dtd"><svg t="1675739773372" class="icon" viewBox="0 0 1024 1024" version="1.1" xmlns="http://www.w3.org/2000/svg" p-id="2861" xmlns:xlink="http://www.w3.org/1999/xlink" width="200" height="200"><path d="M597.318898 887.44522c-119.856303 0-169.109513-51.113431-201.671926-84.938747C377.79567 783.989587 362.367776 767.98144 341.325085 767.98144c-53.417376 0-85.331271 25.51405-85.331272 68.265017 0 73.982212 112.603145 172.608095 125.436969 183.61583a17.015055 17.015055 0 0 0 24.063419-1.843156 17.066254 17.066254 0 0 0-1.860222-24.063418c-31.57257-27.101212-113.490591-108.234184-113.490591-157.709256 0-8.447796 0-34.132508 51.198763-34.132508 6.502243 0 17.765971 11.70745 29.712349 24.080485C405.425936 861.879971 462.956279 921.577729 597.353031 921.577729a17.066254 17.066254 0 1 0 0-34.132509z m85.331271-119.46378c-16.895592 0-34.729827 8.669657-55.345862 18.704615C597.540759 801.158239 560.489921 819.180203 511.987627 819.180203a17.066254 17.066254 0 1 0 0 34.132509c56.318639 0 99.035473-20.769631 130.21552-35.924466 16.827327-8.208868 31.367775-15.274298 40.447022-15.274297 51.198763 0 51.198763 23.909822 51.198763 34.132508 0 49.475071-81.935087 130.608044-113.507657 157.709256a17.066254 17.066254 0 1 0 22.203197 25.906574c12.833823-11.007734 125.436969-109.633617 125.436968-183.61583 0-20.530704-8.311266-68.265017-85.331271-68.265017z m102.397526-358.391338a17.066254 17.066254 0 1 0-34.132509 0v34.132508c0 9.420572-7.662748 17.066254-17.066254 17.066254a17.066254 17.066254 0 0 0-16.468935 12.57783c-0.392524 1.484764-40.617685 148.766538-67.070379 201.65486l-3.208456 6.60464C631.314877 714.103276 613.480641 750.915186 511.987627 750.915186c-101.458881 0-119.310183-36.81191-135.096469-69.288992l-3.225522-6.60464c-26.452694-52.888322-66.643723-200.170096-67.070379-201.65486A17.066254 17.066254 0 0 0 290.126322 460.788864c-9.38644 0-17.066254-7.645682-17.066254-17.066254v-34.132508a17.066254 17.066254 0 1 0-34.132509 0v34.132508c0 23.568497 16.008146 43.46775 37.716422 49.406806 9.983759 35.753803 42.580304 149.346791 66.47306 197.149369l3.071926 6.246249C363.30642 731.783915 389.144729 785.047695 511.987627 785.047695c122.87703 0 148.715339-53.263779 165.79866-88.522661l3.071926-6.246249c23.892756-47.802578 56.489302-161.395566 66.47306-197.149369A51.284094 51.284094 0 0 0 785.047695 443.72261v-34.132508z m-273.060068-34.132509c270.210003 0 375.457593-23.926888 375.457593-85.331271 0-72.139057-121.3752-83.334519-165.064811-85.024079C673.895181 15.803351 615.1702 0 597.318898 0c-38.023614 0-60.27801 16.281207-75.006187 27.050013-3.822841 2.815932-9.045115 6.655839-9.625368 7.15076-1.894354-0.494921-7.048363-4.28363-10.802939-7.048363C487.241558 16.332405 465.08956 0 426.656356 0c-19.250735 0-85.962723 18.192627-136.13751 252.4099a17.100387 17.100387 0 0 0 13.874864 20.41124C308.626142 273.520857 409.351174 290.126322 511.987627 290.126322c103.421501 0 139.431297-9.24991 140.898995-9.625367a17.066254 17.066254 0 0 0-8.669657-33.023202c-0.341325 0.085331-34.644496 8.516061-132.246404 8.51606-74.869657 0-150.575561-9.403506-184.110751-14.147924C352.110957 138.782779 394.896057 34.132508 426.656356 34.132508c27.220676 0 41.965919 10.88827 54.970405 20.479506 9.52297 7.01423 18.516886 13.653003 30.377932 13.653003 11.809848 0 20.872029-6.638773 30.497397-13.67007C555.608973 45.003712 570.439548 34.132508 597.318898 34.132508c33.620521 0 79.528745 117.006239 102.772983 225.445219a17.015055 17.015055 0 0 0 20.240578 13.106883 17.066254 17.066254 0 0 0 13.141015-20.27471c-0.95571-4.368961-1.877288-8.498995-2.832998-12.697293 50.243052 3.19139 122.672235 17.066254 122.672236 50.413715 0 15.393761-33.279196 51.198763-341.325085 51.198763-308.080021 0-341.325085-35.805001-341.325085-51.198763 0-27.647332 59.390565-46.573808 88.147203-51.43769a17.066254 17.066254 0 0 0-5.631863-33.654654C241.24857 207.013664 136.530034 226.315597 136.530034 290.126322c0 61.404383 105.264656 85.331271 375.457593 85.331271zM221.861305 819.180203c-110.469864 0-185.732045 76.67868-203.907606 131.137098l-17.066254 51.198762A17.049188 17.049188 0 0 0 17.066254 1023.975254c7.167827 0 13.823666-4.522557 16.212942-11.673318l17.066254-51.198763C64.851766 917.65249 129.362207 853.312712 221.861305 853.312712a17.066254 17.066254 0 1 0 0-34.132509z m801.260636 182.33586l-17.066254-51.198762C987.845994 895.858883 912.566746 819.180203 802.113949 819.180203a17.066254 17.066254 0 1 0 0 34.132509c92.499098 0 157.043671 64.339778 171.532921 107.790461l17.066254 51.198763a17.08332 17.08332 0 0 0 32.391751-10.785873zM443.72261 614.385152c1.450632 0 33.688786-0.187729 68.265017-15.291363 34.576231 15.103635 66.831452 15.291364 68.265017 15.291363a17.066254 17.066254 0 0 0 0.034132-34.132508c-0.290126 0-30.821655-0.341325-60.670533-15.274298a17.134519 17.134519 0 0 0-15.240165 0 154.5008 154.5008 0 0 1-60.670534 15.274298A17.066254 17.066254 0 0 0 443.72261 614.385152z m51.198763 51.198763h27.084145l46.19835 46.19835a17.015055 17.015055 0 0 0 24.131684 0 17.049188 17.049188 0 0 0 0-24.131683l-51.198763-51.181697a17.066254 17.066254 0 0 0-12.065842-5.017478h-34.132508a17.066254 17.066254 0 1 0 0 34.132508z m119.463779-221.861305h17.066255a17.066254 17.066254 0 1 0 0-34.132508h-68.265017a17.066254 17.066254 0 1 0 0 34.132508h17.066254a17.066254 17.066254 0 1 0 34.132508 0z m-187.728796 17.066254a17.066254 17.066254 0 0 1-17.066254-17.066254h-17.066255a17.066254 17.066254 0 1 1 0-34.132508h68.265017a17.066254 17.066254 0 1 1 0 34.132508h-17.066254a17.066254 17.066254 0 0 1-17.066254 17.066254z" fill="#000000" p-id="2862"></path></svg>