<?xml version="1.0" standalone="no"?><!DOCTYPE svg PUBLIC "-//W3C//DTD SVG 1.1//EN" "http://www.w3.org/Graphics/SVG/1.1/DTD/svg11.dtd"><svg t="1675739643181" class="icon" viewBox="0 0 1024 1024" version="1.1" xmlns="http://www.w3.org/2000/svg" p-id="1212" xmlns:xlink="http://www.w3.org/1999/xlink" width="200" height="200"><path d="M730.938595 603.951019C730.052612 605.740024 637.518463 783.754531 511.248793 783.754531c-126.252632 0-218.803819-178.014507-219.706841-179.803512C273.089644 567.012327 238.638521 461.631419 238.638521 391.877265v-68.152567a17.038142 17.038142 0 0 1 17.038142-17.038142c1.363051 0 135.402114-0.425954 250.886641-33.428835a17.021104 17.021104 0 1 1 9.370978 32.764347C419.276902 333.640896 313.401888 339.297559 272.714805 340.456153V391.877265c0 63.535231 32.576927 163.344667 49.308383 196.824617C339.027254 622.710013 420.963678 749.678247 511.248793 749.678247c83.53801 0 159.920001-108.686308 184.352696-151.877998C595.843168 461.938105 545.325077 323.929155 545.325077 187.419562a17.038142 17.038142 0 1 1 34.076284 0c0 131.892257 50.449938 266.033549 149.935649 398.675484a17.038142 17.038142 0 0 1 1.601585 17.855973zM1021.541145 1001.604214l-17.038142-51.114426c-9.302826-27.908477-44.605856-56.362174-99.417559-80.14742a17.038142 17.038142 0 1 0-13.562361 31.264991c52.426363 22.74592 76.228647 46.360784 80.641526 59.650535l17.038142 51.114426a17.072218 17.072218 0 0 0 21.55325 10.785144 17.038142 17.038142 0 0 0 10.785144-21.55325zM630.515786 783.754531a17.038142 17.038142 0 0 0-17.038141 17.038142v34.076284c0 0.102229 0.068153 0.204458 0.068152 0.323725 0 0.102229-0.068153 0.204458-0.068152 0.323724-0.068153 10.376228-3.492819 101.581402-102.228852 101.581403s-102.160699-91.818547-102.228852-102.228852v-34.076284a17.038142 17.038142 0 1 0-34.076284 0v17.344828c-231.667616 3.271323-337.27002 71.662425-356.932036 130.597359l-17.038142 51.114426a17.05518 17.05518 0 0 0 32.338393 10.785144l17.038142-51.114426c12.131157-36.393471 95.924739-104.511963 325.71816-107.527714C382.270058 900.77249 415.44332 971.174093 511.248793 971.174093c107.817362 0 136.305136-88.717605 136.305135-135.606572 0-0.136305-0.068153-0.238534-0.068152-0.357801 0-0.119267 0.068153-0.221496 0.068152-0.340763v-34.076284a17.038142 17.038142 0 0 0-17.038142-17.038142z m-119.266993-119.266994c39.988519 0 60.911358-19.781283 63.160392-22.030317a16.918875 16.918875 0 0 0 0.085191-23.802285 17.157409 17.157409 0 0 0-23.989704-0.494106c-0.511144 0.494106-13.374941 12.250424-39.255879 12.250424-25.506099 0-38.335819-11.415555-39.238841-12.216348a17.021104 17.021104 0 0 0-23.921552 24.262315C450.337435 644.706254 471.260273 664.487537 511.248793 664.487537z m0.511144-119.266994h-0.170382a16.952951 16.952951 0 0 0-16.952951 17.038142c0 9.405054 7.70124 17.038142 17.123333 17.038142a17.038142 17.038142 0 1 0 0-34.076284zM426.058083 477.067975a17.038142 17.038142 0 0 0 17.038142-17.038142v-11.211097c1.090441 1.039327 1.840119 1.908272 1.92531 2.027539a17.038142 17.038142 0 1 0 30.225664-15.743243C470.18687 425.374253 454.119903 408.915407 426.058083 408.915407s-44.128788 16.458845-49.189116 26.187625a16.765532 16.765532 0 0 0 6.900447 22.439233c8.007927 4.566222 18.281926 1.601585 23.086683-6.23596 0.170381-0.27261 0.988212-1.260823 2.163844-2.402378V460.029833a17.038142 17.038142 0 0 0 17.038142 17.038142z m85.19071-477.067975C280.518274 0 153.447811 127.053425 153.447811 357.800982v153.343277c0 131.841143-49.734336 282.747966-50.245481 284.247323a17.038142 17.038142 0 0 0 32.338394 10.785144C137.653454 799.804461 187.524095 648.625027 187.524095 511.144259v-153.343277C187.524095 90.234 363.579216 34.059246 511.248793 34.059246c200.573007 0 323.724698 188.561117 323.724697 323.741736v34.076283c0 68.782979-42.152363 148.078492-82.924637 224.750131C715.842802 684.745888 681.630212 749.09895 681.630212 800.792673c0 108.038858 70.163069 179.428673 73.144744 182.427386a17.072218 17.072218 0 0 0 24.091933 0C781.848564 980.221346 852.011632 908.831531 852.011632 800.792673c0-106.232815-35.064496-144.364177-39.068459-148.36814a16.935913 16.935913 0 0 0-23.785247-0.085191 17.157409 17.157409 0 0 0-0.511144 23.972666c0.289648 0.323725 29.305604 32.45766 29.305604 124.480665 0 67.760691-32.849538 120.101863-51.16554 144.040452C748.436767 920.996765 715.706496 868.86005 715.706496 800.792673c0-43.208728 32.270241-103.89859 66.448754-168.166461C824.852834 552.274334 869.049774 469.162277 869.049774 391.877265v-34.076283c0-169.239864-146.936936-357.800982-357.800981-357.800982z" fill="#231F1F" p-id="1213"></path></svg>