<?xml version="1.0" standalone="no"?><!DOCTYPE svg PUBLIC "-//W3C//DTD SVG 1.1//EN" "http://www.w3.org/Graphics/SVG/1.1/DTD/svg11.dtd"><svg t="1675739762170" class="icon" viewBox="0 0 1024 1024" version="1.1" xmlns="http://www.w3.org/2000/svg" p-id="2711" xmlns:xlink="http://www.w3.org/1999/xlink" width="200" height="200"><path d="M529.574862 324.367108a17.062973 17.062973 0 0 0-17.062973-17.062973h-0.17063a16.977658 16.977658 0 0 0-16.960594 17.062973 17.114161 17.114161 0 0 0 34.21126 0M294.378848 131.828526c30.320902 23.376272 125.071589 90.194873 217.638215 90.194873 95.074883 0 192.043756-70.128817 219.73696-91.798793C699.249061 79.138067 638.982642 28.597542 529.062973 39.244837v131.555518a17.062973 17.062973 0 1 1-34.125946 0V38.135744c-50.967099-9.111627-95.996283-1.72336-133.876082 22.523123-29.109431 18.649829-50.762343 44.995059-66.716223 71.152596m-72.073996 86.765215c1.057904-5.153018 26.942434-126.658445 120.174516-186.515353 48.424716-31.071673 105.688052-39.586096 170.288466-25.37264 130.53174-17.523673 202.366854 41.121764 239.717701 93.641593 40.1833 56.478439 49.073109 116.744858 49.448494 119.270179a17.062973 17.062973 0 0 1-33.801748 4.828821c-0.443637-3.105461-4.828821-30.713351-19.878363-63.781392-33.57993 25.765089-123.723614 87.737805-219.156819 94.631246v17.916121a17.062973 17.062973 0 1 1-34.125946 0v-17.916121c-93.522152-6.756937-181.823035-66.306711-216.972758-92.959074-16.090383 34.467205-22.147738 62.586983-22.267179 63.132998a17.062973 17.062973 0 0 1-33.443427-6.876378m481.227015 416.33653c-0.511889 2.201123-1.109093 4.265743-1.996368 6.040292-18.59864 37.19728-4.555814 128.92782-1.569793 146.912194a17.062973 17.062973 0 0 0 33.665244-5.579592c-6.227985-37.487351-12.182962-104.869029-1.569793-126.095367 11.02268-22.011235 6.227985-50.813532 1.569793-78.660304-3.753854-22.471935-7.610086-45.728766-1.569793-57.843477 11.159184-22.267179 6.006166-47.981079 1.467415-70.674832-3.78798-18.991088-7.371204-36.90721-1.467415-48.748912 19.997804-39.978545 1.706297-95.97922 0.9214-98.333911A17.04591 17.04591 0 0 0 716.75567 290.241163c-0.511889 0-48.970731-0.187693-96.985935-16.175698a17.062973 17.062973 0 0 0-10.800862 32.351396c37.930988 12.6266 75.418339 16.380454 94.631246 17.489547 3.736791 16.653461 6.808126 43.237572-2.115809 61.085441-11.142121 22.284242-5.989103 47.998142-1.467416 70.691895 3.805043 18.991088 7.388267 36.90721 1.467416 48.748913-10.254846 20.509693-6.791063 46.906111-2.508257 72.910082C661.93234 647.761626 566.226127 750.941421 512 750.941421c-54.226127 0-149.915277-103.196858-186.976053-173.598682 4.265743-26.00397 7.74659-52.400389-2.52532-72.910082-5.903788-11.841703-2.320564-29.757824 1.467416-48.748913 4.538751-22.693753 9.691768-48.407653-1.467416-70.691895-8.872746-17.711365-5.801411-44.380792-2.081683-61.085441 19.22997-1.109093 56.700258-4.862947 94.59712-17.489547a17.028847 17.028847 0 0 0 10.783799-21.567598 17.028847 17.028847 0 0 0-21.58466-10.783798c-47.776323 15.90269-96.508173 16.175698-96.985936 16.175698-7.337078 0-13.855134 4.70938-16.175698 11.671073-0.784897 2.35469-19.076403 58.355366 0.9214 98.333911 5.920851 11.841703 2.337627 29.757824-1.467415 48.748912-4.521688 22.693753-9.674705 48.407653 1.467415 70.691895 6.057355 12.097648 2.18406 35.354479-1.569793 57.826414-4.641129 27.846771-9.435824 56.649069 1.569793 78.660304 10.613169 21.226338 4.675254 88.608016-1.569793 126.095367a17.062973 17.062973 0 0 0 33.665245 5.596655c3.003083-18.001436 17.028847-109.731976-1.569794-146.929257a26.703552 26.703552 0 0 1-1.996368-6.040292c47.264434 68.064197 127.682223 150.154158 191.497741 150.154158 63.798454 0 144.216244-82.089961 191.480678-150.154158M733.818643 870.382229a17.062973 17.062973 0 1 0 0-34.125945c-35.695739 0-102.377835-9.998902-102.377835-34.125945a17.062973 17.062973 0 1 0-34.125945 0c0 66.3579 122.512143 68.25189 136.50378 68.25189m-341.259451-68.25189c0 22.21599-59.481522 34.091819-102.394898 34.125945a17.062973 17.062973 0 0 0 0 34.125945c13.974575 0 136.50378-1.89399 136.50378-68.25189a17.062973 17.062973 0 1 0-34.125945 0m34.125945-409.511341c-28.085653 0-44.193099 16.516957-49.243738 26.259915a16.789965 16.789965 0 0 0 6.893441 22.454872 17.370106 17.370106 0 0 0 23.120327-6.245048 20.134308 20.134308 0 0 1 2.184061-2.388817v11.125059a17.062973 17.062973 0 1 0 34.125945 0v-11.210373c1.09203 1.023778 1.842801 1.911053 1.928116 2.030493a17.04591 17.04591 0 1 0 30.25265-15.766186c-5.05064-9.742957-21.158086-26.242852-49.243739-26.242852m170.629726 68.25189a17.062973 17.062973 0 0 0 17.062972-17.062972v-11.210373c1.09203 1.023778 1.842801 1.911053 1.928116 2.030493a17.04591 17.04591 0 1 0 30.25265-15.766186c-5.05064-9.742957-21.158086-26.242852-49.243738-26.242852-28.102716 0-44.193099 16.499894-49.260802 26.242852a16.789965 16.789965 0 0 0 6.893441 22.454872 17.370106 17.370106 0 0 0 23.120328-6.245048 20.134308 20.134308 0 0 1 2.18406-2.388817v11.125059a17.062973 17.062973 0 0 0 17.062973 17.062972m424.765638 538.387972c-2.900705-5.801411-70.418888-136.896229-206.752038-145.137644-3.78798-16.636398-7.012882-43.391139 1.996368-61.426701 11.159184-22.284242 6.006166-47.998142 1.467415-70.691895-3.78798-18.991088-7.371204-36.90721-1.467415-48.748913 11.346877-22.710816 5.767285-45.012122 1.279722-62.962368-4.316932-17.353043-6.705748-28.546353-1.279722-39.415467 17.318917-34.637834 6.347426-116.454788 2.337627-142.134561 14.059889-37.555603 16.209824-135.206994 16.53402-155.307176a17.062973 17.062973 0 0 0-29.126494-12.319466l-51.188918 51.188917a17.04591 17.04591 0 1 0 24.127044 24.127043l20.61207-20.61207c-2.149935 42.145542-6.620433 88.898087-13.821007 103.299235-10.254846 20.526756-19.05934 24.28061-20.475567 24.74131a17.062973 17.062973 0 0 0 1.620982 34.074757c2.593572 0 11.466318-0.938463 22.335431-8.958061 3.241965 34.108882 3.975673 71.766862-3.480846 86.645775-11.346877 22.693753-5.767285 45.012122-1.279723 62.945305 4.333995 17.370106 6.722811 28.563416 1.279723 39.415467-11.142121 22.301305-5.989103 48.015205-1.467416 70.708958 3.805043 18.991088 7.388267 36.90721 1.467416 48.748912-14.571779 29.177683-8.804494 66.767412-4.299869 85.946193-32.180766 22.471935-145.717785 97.344258-269.10014 126.010052-125.754108-28.665794-239.666512-103.572243-271.915531-126.027115 4.521688-19.161718 10.288972-56.751447-4.299869-85.92913-5.903788-11.841703-2.320564-29.757824 1.467416-48.748912 4.538751-22.693753 9.691768-48.407653-1.467416-70.691895-5.426025-10.869114-3.037209-22.062423 1.279723-39.43253 4.487562-17.933184 10.067154-40.234489-1.279723-62.962368-7.439456-14.878912-6.722811-52.553955-3.480846-86.628712 10.886176 8.019597 19.741859 8.958061 22.352494 8.958061a17.062973 17.062973 0 0 0 1.586856-34.057694c-1.399164-0.477763-10.186595-4.231617-20.475567-24.758373-7.183511-14.384086-11.636947-61.153694-13.786881-103.299235l20.61207 20.61207a17.04591 17.04591 0 1 0 24.127044-24.127043l-51.188918-51.188917a17.062973 17.062973 0 0 0-29.126494 12.319466c0.290071 20.100182 2.457068 117.73451 16.516957 155.324239-4.009799 25.662711-14.964227 107.479664 2.337628 142.117498 5.443088 10.869114 3.054272 22.062423-1.279723 39.415467-4.487562 17.950247-10.067154 40.251552 1.279723 62.962368 5.920851 11.841703 2.337627 29.757824-1.467416 48.748913-4.521688 22.693753-9.674705 48.407653 1.467416 70.691895 8.975124 17.899058 5.733159 44.739114 1.962241 61.426701C72.287198 862.396758 4.803141 993.491576 1.919499 999.275923a17.04591 17.04591 0 0 0 30.508595 15.271361c0.63133-1.245597 63.576636-123.399417 184.041222-126.999705 26.021033 18.735144 150.904929 104.664274 293.312498 136.026017a17.50661 17.50661 0 0 0 7.388267-0.017063c139.796934-31.361744 264.390759-117.27381 290.377666-136.008954 120.464586 3.583224 183.409892 125.754108 184.041222 126.999705a17.062973 17.062973 0 0 0 30.508595-15.271361m-549.376527-379.992398c0.887275 0.80196 13.752756 12.234151 39.296026 12.234151 25.901592 0 38.784137-11.773451 39.313089-12.28534a17.182413 17.182413 0 0 1 24.041728 0.511889 16.943532 16.943532 0 0 1-0.102378 23.836973c-2.252312 2.269375-23.222706 22.062423-63.252439 22.062423-40.046797 0-61.000127-19.793048-63.252439-22.062423a17.04591 17.04591 0 0 1 23.956413-24.297673" fill="#000000" p-id="2712"></path></svg>