<?xml version="1.0" standalone="no"?><!DOCTYPE svg PUBLIC "-//W3C//DTD SVG 1.1//EN" "http://www.w3.org/Graphics/SVG/1.1/DTD/svg11.dtd"><svg t="1675739673570" class="icon" viewBox="0 0 1024 1024" version="1.1" xmlns="http://www.w3.org/2000/svg" p-id="1513" xmlns:xlink="http://www.w3.org/1999/xlink" width="200" height="200"><path d="M1010.524932 1022.912441a17.057069 17.057069 0 0 1-20.673168-12.400489l-17.057069-68.228277c-18.984518-56.800041-132.3458-87.792735-327.6663-88.713817l-31.385007 156.157469a17.057069 17.057069 0 0 1-33.448913-6.720486l34.114139-169.854295a17.057069 17.057069 0 0 1 16.681813-13.696826l5.287692-0.017057c222.987066 0 343.734059 37.082068 369.132035 113.31011l17.432325 69.473443a17.057069 17.057069 0 0 1-12.417547 20.690225zM392.342629 818.739323C159.701262 818.739323 44.241961 853.910999 17.598819 933.993939l-17.05707 68.228277a17.057069 17.057069 0 1 0 33.090715 8.289736l16.681813-66.983111c19.888543-59.648571 127.262793-89.327872 328.058613-90.641266l31.350893 156.822695a17.040012 17.040012 0 1 0 33.448913-6.686371l-34.114139-170.570693A17.022955 17.022955 0 0 0 392.342629 818.739323z m170.570693 51.171207a51.120036 51.120036 0 0 1-34.114139 48.032707V1006.367084a17.057069 17.057069 0 1 1-34.114138 0v-88.440904A51.085922 51.085922 0 0 1 460.570906 869.91053c0-28.212392 22.958815-51.171208 51.171208-51.171207s51.171208 22.958815 51.171208 51.171207z m-34.114139 0a17.074126 17.074126 0 0 0-34.114138 0 17.074126 17.074126 0 0 0 34.114138 0zM204.714868 460.540869v-68.228277c0-28.212392 22.958815-51.171208 51.171208-51.171208a17.057069 17.057069 0 0 1 17.057069 17.05707c0.136457 5.287691 1.671593 11.394122 7.112798 14.669079C293.957454 338.83868 307.057283 283.556719 307.057283 255.856038a17.057069 17.057069 0 0 1 17.05707-17.057069c106.470226 0 267.574245-18.592205 292.409337-59.955598A17.057069 17.057069 0 0 1 648.198668 187.627761c0 60.46731 62.599444 123.766094 63.230555 124.397206a17.040012 17.040012 0 1 1-24.118695 24.118696c-2.541503-2.524446-52.911029-53.508026-68.603533-114.094736-69.20053 43.188499-224.743944 49.755471-278.507826 50.710667-3.445528 33.687712-15.607218 81.669247-29.031132 114.111793l32.544888 24.408666A51.051808 51.051808 0 0 1 392.342629 375.255523h68.228277c28.212392 0 51.171208 22.958815 51.171208 51.171208 0-28.212392 22.958815-51.171208 51.171208-51.171208h68.228277c22.924701 0 42.130961 15.231963 48.629704 36.02453l43.495526-32.613116a17.057069 17.057069 0 1 1 20.468483 27.29131l-62.360645 46.753427C676.854544 485.938845 648.539809 511.712077 614.084529 511.712077h-34.114138c-37.627895 0-68.228277-30.600382-68.228277-68.228277 0 37.627895-30.600382 68.228277-68.228277 68.228277h-34.114138c-34.45528 0-62.752958-25.773232-67.290138-59.000403l-58.335177-43.768439c-21.270165-2.115077-33.909454-14.617908-40.084113-28.51942A16.954727 16.954727 0 0 0 238.829006 392.312592v68.228277c0 9.398445 7.641567 17.057069 17.05707 17.057069a17.057069 17.057069 0 0 1 15.965416 11.070038c0.511712 1.347508 50.881237 135.211388 83.511411 184.148119l2.79736 4.230154C378.594632 708.056 406.602339 750.511046 511.742114 750.511046s133.147482-42.455045 153.581851-73.464797l2.79736-4.230154c32.630173-48.936732 82.999699-182.800611 83.494353-184.148119 2.507389-6.652257 8.869676-11.070038 15.982474-11.070038 9.415502 0 17.057069-7.658624 17.05707-17.057069v-68.228277c0-9.398445-7.641567-17.057069-17.05707-17.057069a17.057069 17.057069 0 0 1-17.057069-17.057069v-102.342416c0-6.942227-2.285647-170.570692-153.513623-170.570692a17.057069 17.057069 0 0 1-15.266077-24.681579c3.343186-6.669314 1.893335-9.006133 1.364566-9.876043C579.305165 44.553065 559.979506 34.114138 511.742114 34.114138 242.700961 34.114138 238.863121 279.548307 238.829006 289.987234a17.057069 17.057069 0 0 1-17.057069 17.022955h-0.034114A17.022955 17.022955 0 0 1 204.714868 289.970177c0-2.899702 3.513756-289.970177 307.027246-289.970177 36.553299 0 83.63081 5.680004 100.397909 32.783687 2.96793 4.793036 5.628833 11.274723 5.884689 19.325659 131.168862 12.008177 166.647566 136.405383 166.647567 203.746692v88.202105c19.837372 7.04457 34.114138 26.012031 34.114138 48.254449v68.228277a51.27355 51.27355 0 0 1-38.856004 49.670186c-12.451661 32.374317-53.559197 136.763581-83.409068 181.538387l-2.712074 4.07664C671.907994 729.036196 635.252352 784.625184 511.742114 784.625184c-123.493181 0-160.16588-55.588989-182.067157-88.799102l-2.695017-4.07664c-29.849871-44.774807-70.957408-149.16407-83.409068-181.538387A51.27355 51.27355 0 0 1 204.714868 460.540869z m341.141384-17.057069c0 18.813947 15.317248 34.114138 34.114139 34.114138h34.114138c18.79689 0 34.114138-15.300191 34.114139-34.114138v-17.057069c0-9.398445-7.641567-17.057069-17.057069-17.05707h-68.228277c-9.415502 0-17.057069 7.658624-17.05707 17.05707v17.057069z m-170.570692 0c0 18.813947 15.317248 34.114138 34.114139 34.114138h34.114138c18.79689 0 34.114138-15.300191 34.114139-34.114138v-17.057069c0-9.398445-7.641567-17.057069-17.05707-17.05707h-68.228277c-9.415502 0-17.057069 7.658624-17.057069 17.05707v17.057069z m119.399485 204.68483a17.057069 17.057069 0 1 0 0 34.114139h34.114138a17.057069 17.057069 0 1 0 0-34.114139h-34.114138z m102.342415-34.062967c0-9.398445-7.607453-17.057069-17.005898-17.10824-0.324084 0-30.822124-0.341141-60.654938-15.24902a17.022955 17.022955 0 0 0-15.24902 0A154.537047 154.537047 0 0 1 443.513837 596.997423a17.057069 17.057069 0 1 0 0 34.114138c1.449851 0 33.687712-0.187628 68.228277-15.283134 34.540565 15.095506 66.778426 15.283134 68.228277 15.283134a17.057069 17.057069 0 0 0 17.057069-17.005898z" fill="#231F1F" p-id="1514"></path></svg>