<?xml version="1.0" standalone="no"?><!DOCTYPE svg PUBLIC "-//W3C//DTD SVG 1.1//EN" "http://www.w3.org/Graphics/SVG/1.1/DTD/svg11.dtd"><svg t="1675739836875" class="icon" viewBox="0 0 1024 1024" version="1.1" xmlns="http://www.w3.org/2000/svg" p-id="3311" xmlns:xlink="http://www.w3.org/1999/xlink" width="200" height="200"><path d="M784.437502 441.027538A51.284256 51.284256 0 0 0 819.25277 392.52509v-34.132616c0-24.046428-13.379986-42.307378-34.132616-48.707244V187.729391c0-112.296308-75.433083-187.729391-187.729391-187.729391H153.666748a17.083375 17.083375 0 0 0-10.922437 30.173233C143.71709 30.97535 238.998289 111.494192 238.998289 187.729391v68.265233a17.066308 17.066308 0 0 0 17.066308 17.066308c8.191828 0 193.293008-0.904514 331.069315-76.610657C610.224627 256.404216 669.000992 273.060932 699.788613 273.060932a17.066308 17.066308 0 0 0 0-34.132616c-2.918339 0-71.507832-0.819183-85.672868-71.61023a17.015109 17.015109 0 0 0-25.770125-11.127233C480.059894 223.875832 324.415162 236.197707 273.130906 238.433393V187.729391c0-60.687792-45.020921-119.430025-77.139714-153.596774h401.399571c93.301507 0 153.596774 60.295267 153.596774 153.596774v136.530466a17.066308 17.066308 0 0 0 17.066309 17.066308c11.332029 0 17.066308 5.73428 17.066308 17.066309v34.132616c0 9.403536-7.679839 17.066308-17.066308 17.066309a17.066308 17.066308 0 0 0-17.066309 17.066308c0 0.631453-0.409591 63.65733-31.879863 126.922134-21.981405 19.421459-68.452962 33.79129-96.885433 40.669013C608.210802 553.067852 576.160275 511.989248 512.059222 511.989248s-96.134515 41.078604-110.16302 82.259606c-28.074077-6.792391-73.726452-20.872095-96.032117-39.918095C273.728227 491.168352 273.130906 427.28916 273.130906 426.640641A17.083375 17.083375 0 0 0 256.064597 409.591399c-9.403536 0-17.066308-7.662772-17.066308-17.066309v-34.132616c0-10.529912 6.536396-17.066308 17.066308-17.066309a17.066308 17.066308 0 0 0 0-34.132616c-29.183387 0-51.198925 22.015538-51.198924 51.198925v34.132616c0 22.493394 14.591694 41.658858 34.815269 48.502448 1.843161 23.875765 8.755016 73.999513 34.064351 125.317902 0.255995 1.348238 0.494923 2.662344 1.075177 3.925251C289.139103 700.247695 328.920667 819.182797 512.059222 819.182797c131.239911 0 216.946911-42.119649 238.057934-251.181925 25.633595-51.881577 32.511317-102.841574 34.337412-126.973334zM512.059222 785.050181c-120.727065 0-177.097081-51.284256-198.754227-185.664368 28.159409 14.2845 61.080317 23.432041 80.80897 28.125276A160.525696 160.525696 0 0 0 392.595064 648.519714a17.066308 17.066308 0 0 0 17.032175 17.049242H409.661372c9.38647 0 17.032176-7.611573 17.066308-17.015109 0-4.181246 1.43357-102.431982 85.331542-102.431982s85.314475 98.250737 85.331541 102.397849a17.066308 17.066308 0 0 0 34.132616 0c0-6.348667-0.511989-13.482384-1.501835-21.008625 19.967581-4.7615 53.451678-14.096771 81.850015-28.688464C691.647984 738.646888 639.578677 785.050181 512.059222 785.050181z m34.132616-187.729391a17.066308 17.066308 0 0 1-17.066308 17.066308h-34.132617a17.066308 17.066308 0 0 1 0-34.132617h34.132617a17.066308 17.066308 0 0 1 17.066308 17.066309z m100.162163 230.463427a17.066308 17.066308 0 0 1-6.348666 23.278444l-119.464158 68.265233a16.588452 16.588452 0 0 1-8.447823 2.252753H512.059222a17.168706 17.168706 0 0 1-8.447823-2.252753l-119.464158-68.265233a17.066308 17.066308 0 1 1 16.929778-29.627111L512.059222 884.853951l110.999269-63.418401a17.049242 17.049242 0 0 1 23.278444 6.348667zM341.396139 836.249105a17.066308 17.066308 0 0 1-17.066308 17.066309h-17.066309v153.596774a17.066308 17.066308 0 0 1-34.132616 0v-153.596774h-34.132617v153.596774a17.066308 17.066308 0 0 1-34.132616 0v-153.204249c-124.242724 3.891118-137.827506 50.123747-149.603259 91.25355-1.587167 5.580683-3.157267 10.990703-4.863898 16.144728l-17.066308 51.198925a17.100441 17.100441 0 0 1-21.58888 10.802973 17.066308 17.066308 0 0 1-10.802973-21.58888l17.066308-51.198925c1.587167-4.710301 2.986604-9.676597 4.43724-14.762357C36.55774 886.441118 55.808536 819.182797 221.966114 819.182797h102.397849a17.066308 17.066308 0 0 1 17.066308 17.066308z m188.24138 170.663083a17.066308 17.066308 0 0 1-17.066308 17.066308 17.134574 17.134574 0 0 1-17.15164-17.066308c0-9.420602 7.560375-17.066308 16.980977-17.066308h0.170663a17.066308 17.066308 0 0 1 17.066308 17.066308z m0-51.198925a17.066308 17.066308 0 0 1-17.066308 17.066309 17.134574 17.134574 0 0 1-17.15164-17.066309c0-9.420602 7.560375-17.066308 16.980977-17.066308h0.170663a17.066308 17.066308 0 0 1 17.066308 17.066308z m-170.048696-552.078006C364.947644 435.975911 392.919323 460.790323 426.72768 460.790323c31.709201 0 58.196111-21.844875 65.841818-51.198924h38.979448c7.62864 29.35405 34.132617 51.198925 65.841817 51.198924 33.825423 0 61.780036-24.814412 67.138857-57.155066l59.953941-29.968437a17.083375 17.083375 0 0 0-15.25728-30.548692l-48.502448 24.251224A68.299366 68.299366 0 0 0 597.390763 324.259857c-31.709201 0-58.213178 21.844875-65.841817 51.198925h-38.979448c-7.62864-29.35405-34.132617-51.198925-65.841818-51.198925a68.299366 68.299366 0 0 0-63.33307 43.109495l-48.502448-24.251224a17.083375 17.083375 0 0 0-15.25728 30.548692l59.953941 29.968437zM597.390763 358.392474c18.824138 0 34.132617 15.308479 34.132616 34.132616s-15.308479 34.132617-34.132616 34.132617-34.132617-15.308479-34.132617-34.132617 15.308479-34.132617 34.132617-34.132616z m-170.663083 0c18.824138 0 34.132617 15.308479 34.132617 34.132616s-15.308479 34.132617-34.132617 34.132617-34.132617-15.308479-34.132616-34.132617 15.308479-34.132617 34.132616-34.132616z m585.647435 664.715641a17.100441 17.100441 0 0 1-21.58888-10.802973l-17.066308-51.198925c-1.706631-5.154025-3.276731-10.564045-4.863898-16.144728-11.775753-41.129803-25.360534-87.362432-149.603259-91.25355V1006.912188a17.066308 17.066308 0 0 1-34.132616 0v-153.596774h-34.132617v153.596774a17.066308 17.066308 0 0 1-34.132616 0v-153.596774h-17.066308a17.066308 17.066308 0 0 1 0-34.132617h102.397849c166.157577 0 185.408373 67.258321 199.471011 116.375156 1.467703 5.08576 2.86714 10.052056 4.43724 14.762357l17.066309 51.198925a17.066308 17.066308 0 0 1-10.785907 21.58888z" fill="#231F1F" p-id="3312"></path></svg>