<?xml version="1.0" standalone="no"?><!DOCTYPE svg PUBLIC "-//W3C//DTD SVG 1.1//EN" "http://www.w3.org/Graphics/SVG/1.1/DTD/svg11.dtd"><svg t="1675739729813" class="icon" viewBox="0 0 1024 1024" version="1.1" xmlns="http://www.w3.org/2000/svg" p-id="2113" xmlns:xlink="http://www.w3.org/1999/xlink" width="200" height="200"><path d="M733.865933 614.399386v-136.533197a17.06665 17.06665 0 1 0-34.133299 0v136.533197c0 26.675173-29.95197 57.258609-52.377548 75.673524-9.284257-17.749316-23.27891-33.535966-44.612222-40.652759l-32.546101-10.85439 8.294392-16.537583a17.083716 17.083716 0 0 0-30.549303-15.257585l-17.06665 34.133299-0.051199 0.187734c-0.034133 0.068267-0.1024 0.1024-0.119467 0.170666-0.392533 0.750933-4.369062 7.270393-18.705048 7.270393-14.199452 0-18.363715-6.72426-18.500248-6.82666-0.0512-0.136533-0.170666-0.238933-0.256-0.375466-0.0512-0.136533-0.0512-0.290133-0.1024-0.426667l-17.066649-34.133299a17.083716 17.083716 0 0 0-30.549303 15.257585l8.277325 16.537583-32.511968 10.85439c-21.333312 7.116793-35.327965 22.903444-44.629288 40.652759C354.235379 671.657995 324.266342 641.074559 324.266342 614.399386v-136.533197a17.06665 17.06665 0 1 0-34.133299 0v136.533197c0 48.281552 51.148749 92.125775 74.035126 109.346024A205.209395 205.209395 0 0 0 358.399642 767.999232a17.06665 17.06665 0 1 0 34.133299 0c0-0.733866 1.092266-73.386593 39.543427-86.220714l39.98716-13.311986c8.226125 7.492259 21.282112 14.199452 39.93596 14.199452 18.807448 0 31.846368-6.67306 40.03836-14.182386l39.918893 13.29492c32.238901 10.751989 39.441027 65.911401 39.526361 86.254847A17.06665 17.06665 0 1 0 665.599334 767.999232c0-1.774932-0.170666-21.299179-5.768527-44.253822C682.717184 706.52516 733.865933 662.680937 733.865933 614.399386zM273.066394 324.266342c0 6.98026 4.266662 13.24372 10.717856 15.854918C287.402379 341.554858 373.776693 375.466291 511.999488 375.466291c48.776485 0 125.303341-4.590929 157.064376-11.144522a17.06665 17.06665 0 0 0-6.929059-33.433567c-26.402107 5.461328-97.962569 10.44479-150.11825 10.44479-104.243096 0-178.414755-20.582379-204.902195-29.201037-1.484799-107.042026-22.135445-210.244056-30.82237-249.070685C309.623157 54.050079 396.40707 34.133299 511.999488 34.133299c115.643618 0 202.410464 19.91678 235.741631 28.927971a1400.762333 1400.762333 0 0 0-23.944509 144.605722C694.988105 215.108052 595.899137 238.933094 511.999488 238.933094c-82.022318 0-148.787051-16.40105-149.469717-16.571716a17.06665 17.06665 0 1 0-8.277325 33.126367c2.90133 0.716799 71.304462 17.578649 157.747042 17.578649 79.274587 0 168.464898-19.50718 208.315525-29.303438A999.747267 999.747267 0 0 0 716.884616 324.266342a17.06665 17.06665 0 1 0 34.1333 0c0-132.727334 33.245833-267.587999 33.570099-268.936264a17.032516 17.032516 0 0 0-11.161588-20.309313C769.091498 33.587166 666.5892 0 511.999488 0c-154.589712 0-257.109076 33.587166-261.392805 35.020765a17.032516 17.032516 0 0 0-11.144522 20.309313C239.76936 56.678343 273.066394 191.368342 273.066394 324.266342z m221.866444 375.466292a17.06665 17.06665 0 1 0 0 34.133299h34.1333a17.06665 17.06665 0 1 0 0-34.133299h-34.1333z m252.859481 114.141752c68.949264-39.219161 77.090056-129.723604 54.783945-200.789132 16.435184-102.672964-0.580266-155.460111-1.314132-157.678776a17.11785 17.11785 0 0 0-21.469845-10.786123 17.11785 17.11785 0 0 0-10.922656 21.503979c0.136533 0.477866 15.359985 49.527417-0.631466 145.476121-0.4608 2.730664-0.238933 5.546661 0.631466 8.191992 20.07038 60.194073 15.291718 138.069195-42.581291 166.860633a16.998383 16.998383 0 0 0-8.618658 9.898657c-15.377051 46.35302-45.346088 76.373257-91.596708 91.801508a17.237316 17.237316 0 0 0-6.655993 4.113063C586.171147 925.712141 556.048511 938.665728 511.999488 938.665728c-44.066089 0-74.171659-12.953587-107.417493-46.19942a17.237316 17.237316 0 0 0-6.655993-4.113063c-46.25062-15.428251-76.20259-45.380221-91.596708-91.613775a17.169049 17.169049 0 0 0-8.567458-9.88159c-62.156738-31.061302-62.771137-106.683627-42.632491-167.065433 0.853332-2.645331 1.092266-5.461328 0.631466-8.191992-15.871984-95.317238-0.955732-144.349722-0.631466-145.476121a17.049583 17.049583 0 0 0-10.803189-21.503979 17.032516 17.032516 0 0 0-21.589312 10.786123c-0.733866 2.218664-17.749316 55.005812-1.314132 157.661709-22.613311 71.355662-19.302381 159.402507 54.801012 201.010999 19.046381 51.507148 55.022878 86.886313 107.076159 105.335361 34.065033 33.126367 68.403132 49.407951 111.615889 52.684748V1006.932326a17.06665 17.06665 0 1 0 34.133299 0v-34.833031c43.229823-3.276797 77.550856-19.55838 111.615888-52.684748 52.104481-18.466115 88.098045-53.930613 107.110293-105.540161zM511.999488 443.73289c220.501113 0 443.73289-41.028226 443.73289-119.466548 0-64.187669-85.896447-87.091113-150.52785-98.730568a17.049583 17.049583 0 0 0-19.797313 13.75572 17.100783 17.100783 0 0 0 13.755719 19.848514c55.859144 10.052257 122.453211 29.525304 122.453211 65.126334 0 29.781304-140.680393 85.333248-409.59959 85.333248-268.936264 0-409.59959-55.551944-409.599591-85.333248 0-35.566898 66.594067-55.057012 122.470278-65.109268 9.301324-1.689598 15.445318-10.564256 13.789853-19.848513a17.032516 17.032516 0 0 0-19.831447-13.75572C154.231312 237.192296 68.266598 260.112807 68.266598 324.266342c0 78.438322 223.231777 119.466547 443.73289 119.466548z m51.199949 68.266598h17.066649a17.06665 17.06665 0 1 0 34.1333 0h17.066649a17.06665 17.06665 0 1 0 0-34.133299h-68.266598a17.06665 17.06665 0 1 0 0 34.133299z m-153.599847 0a17.06665 17.06665 0 1 0 34.1333 0h17.066649a17.06665 17.06665 0 1 0 0-34.133299h-68.266598a17.06665 17.06665 0 1 0 0 34.133299h17.066649z m-163.15717 431.291302a921.803878 921.803878 0 0 0 25.770641-67.481532 17.11785 17.11785 0 0 0-16.213317-22.459711c-171.280895 0-218.060582 37.102896-238.045629 96.989769l-17.066649 51.199949A17.049583 17.049583 0 0 0 17.06665 1023.998976c7.167993 0 13.823986-4.522662 16.213317-11.673588l17.066649-51.199949c11.810122-35.379165 35.942364-69.956197 181.418486-73.369527-6.41706 17.493316-15.837851 41.745025-25.173309 60.347673A17.083716 17.083716 0 0 0 221.900578 972.799027c19.575447 0 65.672468 27.955172 92.159908 47.786619a17.06665 17.06665 0 1 0 20.479979-27.306639c-9.77919-7.321593-52.138615-38.161029-88.063911-49.988217z m765.900034 79.82072a17.083716 17.083716 0 0 1-21.589311-10.786122l-17.06665-51.199949c-11.827188-35.396231-35.942364-69.99033-181.469685-73.386593 6.451194 17.493316 15.871984 41.745025 25.207441 60.364739A17.083716 17.083716 0 0 1 802.132531 972.799027c-43.383423 0-89.890043 45.755688-90.350843 46.216487a17.06665 17.06665 0 0 1-24.115176-24.149309c1.945598-1.945598 41.864491-41.386625 89.258578-53.009014-13.431453-31.078369-24.541842-64.341269-25.139175-66.065a17.11785 17.11785 0 0 1 16.213317-22.459711c171.263829 0 218.077649 37.119963 238.062695 97.006836l17.06665 51.199949a17.049583 17.049583 0 0 1-10.820256 21.572245z" fill="#000000" p-id="2114"></path></svg>