<?xml version="1.0" standalone="no"?><!DOCTYPE svg PUBLIC "-//W3C//DTD SVG 1.1//EN" "http://www.w3.org/Graphics/SVG/1.1/DTD/svg11.dtd"><svg t="1675739697523" class="icon" viewBox="0 0 1024 1024" version="1.1" xmlns="http://www.w3.org/2000/svg" p-id="1813" xmlns:xlink="http://www.w3.org/1999/xlink" width="200" height="200"><path d="M289.852029 258.738863C303.962886 173.971343 405.65661 102.376232 511.906076 102.376232c106.21534 0 207.909064 71.612174 222.036983 156.362631 8.95792 53.713396 31.105312 97.991116 50.625047 137.064711C803.064078 432.778457 819.034771 464.719841 819.034771 494.818453c0 57.706069-8.531353 168.784281-65.827917 264.215991a17.062705 17.062705 0 0 0 29.262539 17.574587C843.980446 674.096297 853.160181 556.056502 853.160181 494.818453c0-38.152209-18.47891-75.127091-38.049833-114.268937-18.47891-36.906632-39.380724-78.761448-47.502571-127.407221C750.613322 151.175569 635.900755 68.250821 511.906076 68.250821c-124.028805 0-238.741372 82.94181-255.718764 184.891474-8.104785 48.645773-29.006599 90.500589-47.485509 127.407221C189.13088 419.691362 170.65197 456.666244 170.65197 494.818453c0 61.238049 9.179735 179.277844 70.673725 281.790578a17.062705 17.062705 0 1 0 29.26254-17.574587C213.325796 663.602734 204.777381 552.524522 204.777381 494.818453c0-30.098612 15.953629-62.039996 34.466664-99.014879 19.519735-39.073595 41.667126-83.351315 50.607984-137.064711z m733.047944 740.811475l-17.062705-51.188116c-10.015808-30.064487-44.704288-90.893031-162.47108-116.981907C865.667144 779.526753 921.411002 635.841712 921.411002 494.818453c0-60.163099-13.75254-87.190424-29.672044-118.466363-12.660527-24.91155-27.027325-53.150327-38.988282-107.051413C815.826982 103.195242 685.229036 0 511.906076 0 338.566053 0 207.968107 103.195242 171.044412 269.300677c-10.749504 48.458083-24.826236 76.577421-37.230823 101.403658-16.857953 33.715906-31.395378 62.841944-31.395377 124.114118 0 141.023259 55.709733 284.7083 78.010688 336.561862-117.732666 26.088876-152.455272 86.917421-162.471079 116.981907l-17.062706 51.188116a17.062705 17.062705 0 0 0 32.367952 10.800692l17.062705-51.188116C58.618247 934.28549 101.65039 853.135264 307.153612 853.135264a17.062705 17.062705 0 1 0 0-34.125411c-34.671417 0-65.247785 2.201089-92.206859 6.057261C196.706721 783.365862 136.52656 635.193329 136.52656 494.818453c0-53.218578 11.653828-76.543296 27.829272-108.86006 13.274785-26.583695 28.341153-56.682307 40.012044-109.252502C237.606026 127.065966 355.458131 34.125411 511.906076 34.125411c156.465007 0 274.282987 92.940556 307.521137 242.58048 12.916468 58.115574 29.006599 89.715704 41.906004 115.10501C876.399586 421.414695 887.285592 442.82839 887.285592 494.818453c0 140.374876-60.197224 288.547409-78.437257 330.248661C781.889261 821.210942 751.312893 819.009853 716.658539 819.009853a17.062705 17.062705 0 1 0 0 34.125411c205.503222 0 248.518302 81.150226 256.810777 106.02765l17.062705 51.188116a17.062705 17.062705 0 0 0 32.367952-10.800692zM631.345013 820.44312l-76.099666 32.572705L631.345013 885.639717v-65.196597z m-162.778209 32.675081L392.467139 820.511371v65.145409l76.099665-32.538579zM665.470423 818.890414v68.250821c0 32.675081-21.123629 35.217424-27.590394 35.217424a40.609239 40.609239 0 0 1-13.257722-2.474092l-57.108875-24.484982 12.404587 74.376332a17.062705 17.062705 0 1 1-33.664718 5.596567l-15.970692-95.926529-18.257094-7.814719-18.22297 7.814719-16.158382 129.369432a17.062705 17.062705 0 0 1-33.86947-4.231551l13.701353-109.576693-58.303264 24.996863a15.475874 15.475874 0 0 1-1.876898 0.682508 38.169272 38.169272 0 0 1-10.681253 1.655082C381.905324 922.341596 358.341728 920.652389 358.341728 887.260674v-68.250821c0-32.658018 21.106566-35.217424 27.590395-35.217423 3.446666 0 7.115148 0.580132 11.210197 1.740395 0.682508 0.204752 1.365016 0.44363 2.047525 0.733697l112.579729 48.25333 112.852733-48.372769c0.597195-0.255941 1.228515-0.477756 1.876897-0.682508 3.702607-1.092013 7.336963-1.672145 10.681254-1.672145 4.726369 0 28.289965 1.706271 28.289965 35.097984zM511.906076 750.759032c136.706395 0 238.877874-189.174213 238.877873-358.316811a17.062705 17.062705 0 1 0-34.12541 0c0 166.651442-99.509697 324.1914-204.752463 324.191401-102.68336 0-199.889592-149.947054-204.581837-312.008629 47.656136-16.311946 201.476424-70.929666 264.437807-117.493789 29.399041 71.475672 103.911875 87.207487 107.409729 87.907058a17.062705 17.062705 0 0 0 6.705644-33.459965c-0.750759-0.136502-74.325144-15.663563-88.999071-88.982008a17.113893 17.113893 0 0 0-13.411286-13.411286 16.994454 16.994454 0 0 0-17.506336 7.285775c-22.488646 33.732968-184.447844 97.513361-281.278697 129.795999A17.011517 17.011517 0 0 0 273.028202 392.442221c0 187.519131 113.859432 358.316811 238.877874 358.316811z m102.376231-291.823448v-11.210198c1.092013 1.040825 1.842772 1.911023 1.928086 2.030462a17.045643 17.045643 0 1 0 30.252176-15.765939c-5.050561-9.742805-21.157755-26.242441-49.242967-26.242441-28.102276 0-44.192407 16.499636-49.26003 26.242441a16.823827 16.823827 0 0 0 6.893333 22.471583 17.369834 17.369834 0 0 0 23.119965-6.244951c0.170627-0.273003 0.989637-1.26264 2.184027-2.405841v11.124884a17.062705 17.062705 0 1 0 34.12541 0z m-187.689758 17.062705a17.062705 17.062705 0 0 0 17.062705-17.062705v-11.210198c1.092013 1.040825 1.842772 1.911023 1.928086 2.030462a17.045643 17.045643 0 1 0 30.252177-15.765939c-5.050561-9.742805-21.157755-26.242441-49.242968-26.242441-28.102276 0-44.192407 16.499636-49.26003 26.242441a16.806765 16.806765 0 0 0 6.893333 22.471583 17.386897 17.386897 0 0 0 23.119966-6.244951c0.170627-0.273003 0.989637-1.26264 2.184026-2.405841v11.124884a17.062705 17.062705 0 0 0 17.062705 17.062705zM529.480662 546.006569a17.062705 17.062705 0 0 0-17.062705-17.062705h-0.170627a16.977392 16.977392 0 0 0-16.977392 17.062705 17.113893 17.113893 0 0 0 34.210724 0z m-101.096529 75.87785a17.062705 17.062705 0 1 1 30.542243-15.254058C459.352943 607.432308 472.661853 631.320095 511.906076 631.320095c39.244222 0 52.553132-23.887787 53.099138-24.91155 4.436303-8.207161 14.673927-11.483201 22.949339-7.166336a16.943266 16.943266 0 0 1 7.456402 22.64221C594.523695 623.676003 572.939372 665.445506 511.906076 665.445506s-82.634682-41.769503-83.521943-43.561087z" fill="#000000" p-id="1814"></path></svg>