<?xml version="1.0" standalone="no"?><!DOCTYPE svg PUBLIC "-//W3C//DTD SVG 1.1//EN" "http://www.w3.org/Graphics/SVG/1.1/DTD/svg11.dtd"><svg t="1675739706497" class="icon" viewBox="0 0 1024 1024" version="1.1" xmlns="http://www.w3.org/2000/svg" p-id="1963" xmlns:xlink="http://www.w3.org/1999/xlink" width="200" height="200"><path d="M273.26211 426.098181v34.087854c0 9.391204 7.635679 17.043927 17.043928 17.043927a17.043927 17.043927 0 0 1 16.907575 14.930481c4.60186 36.831927 22.310501 140.987366 48.404754 180.137266l2.795204 4.226894C378.832196 707.510463 406.818324 749.932798 511.877091 749.932798s133.044896-42.422335 153.463521-73.408195l2.795204-4.226894c26.12834-39.201033 43.785849-143.322384 48.404754-180.137266A17.043927 17.043927 0 0 1 733.448145 477.229962c9.408248 0 17.043927-7.652723 17.043928-17.043927v-34.087854a17.043927 17.043927 0 1 1 34.087854 0v51.131781a16.788268 16.788268 0 0 1-12.442067 16.106512c-6.186946 7.226625-14.231679 12.782945-23.520619 15.680413-5.215442 35.826335-22.174149 137.288834-52.12033 182.199582l-2.69294 4.073498C671.919568 728.474494 635.275125 784.020652 511.877091 784.020652s-160.042477-55.546159-181.926879-88.730685l-2.69294-4.073498c-29.94618-44.910748-46.904888-146.373247-52.154418-182.199582A51.234045 51.234045 0 0 1 239.174256 460.186035v-34.087854a17.043927 17.043927 0 1 1 34.087854 0z m187.4832 17.043927h-68.175709a17.043927 17.043927 0 1 0 0 34.087854h17.043927a17.043927 17.043927 0 1 0 34.087855 0h17.043927a17.043927 17.043927 0 1 0 0-34.087854z m119.30749 34.087854a17.043927 17.043927 0 1 0 34.087855 0h17.043927a17.043927 17.043927 0 1 0 0-34.087854h-68.175709a17.043927 17.043927 0 1 0 0 34.087854h17.043927z m442.255824 522.975863l-17.043927-51.131781c-17.691596-53.108877-56.756278-107.069951-197.436853-124.471801-1.073767-0.426098-2.062315-1.056723-3.25539-1.26125a17.026883 17.026883 0 0 0-6.101726 0.136351c-27.866821-3.016775-59.534438-4.670036-95.616432-4.670036h-0.051132c-1.141943-0.255659-2.215711-0.698801-3.425829-0.698801-0.47723 0-47.620733-0.255659-77.618045-15.254315a17.043927 17.043927 0 0 0-15.237271 30.50863c22.753643 11.351256 51.438572 15.850852 70.885694 17.640464C663.908922 892.215502 620.855962 988.547779 511.877091 988.547779c-109.609496 0-152.117051-95.616432-165.513577-137.544493 19.464165-1.789612 48.13205-6.289209 70.86865-17.640464a17.043927 17.043927 0 0 0-15.237271-30.50863c-29.997312 14.998656-77.140815 15.254315-77.618045 15.254315-230.467984 0-283.218939 62.943223-305.887362 130.965537l-17.043927 51.131781a17.043927 17.043927 0 1 0 32.315286 10.771762l17.043927-51.131781c11.67509-34.974139 30.287059-90.383946 190.772678-104.342923 4.499597 28.616754 14.640733 98.582075 14.640733 150.088823a17.043927 17.043927 0 1 0 34.087855 0c0-52.631647-9.680951-121.114147-14.555514-152.338621 11.28308-0.494274 23.04339-0.852196 35.536588-0.988548C323.984838 895.044794 373.463358 1022.635634 511.877091 1022.635634c138.396689 0 187.87521-127.079521 200.58998-169.706384 25.634067 0.238615 48.558149 1.380558 69.26652 3.221302C776.739721 888.176092 767.536 954.255398 767.536 1005.591706a17.043927 17.043927 0 1 0 34.087854 0c0-49.154686 9.254852-114.893113 14.027152-145.504006 130.300824 19.106242 147.924244 71.635626 157.298405 99.758106l17.043927 51.131781a17.026883 17.026883 0 1 0 32.315286-10.771762zM171.850743 294.041833C171.492821 292.627187 170.998547 291.263672 170.998547 289.746763a16.873488 16.873488 0 0 1 15.49293-16.720093c0.306791-0.051132 0.511318-0.221571 0.835152-0.255659C224.397171 154.827035 322.945158 65.908867 443.701383 41.297436v-12.79999a17.043927 17.043927 0 0 1 9.919565-15.475886C454.762891 12.476155 482.220658 0 511.877091 0c29.656433 0 57.097156 12.476155 58.256144 13.02156a17.043927 17.043927 0 0 1 9.919565 15.475886v12.79999c120.73918 24.594387 219.270124 113.495511 256.340666 231.422444 1.227163 0.051132 2.317974 0.528362 3.442873 0.818108 0.920372 0.221571 1.874832 0.272703 2.709985 0.647669 1.227163 0.528362 2.181623 1.380558 3.238346 2.164579 0.681757 0.511318 1.482822 0.86924 2.079359 1.482822 0.971504 1.005592 1.653261 2.283886 2.369106 3.511049 0.340879 0.630625 0.903328 1.158987 1.193075 1.840744 0.852196 2.028227 1.329426 4.243938 1.329426 6.561912v68.175709a17.043927 17.043927 0 0 1-17.043927 17.043927H188.894671a17.043927 17.043927 0 0 1-17.043928-17.043927v-63.880639zM511.877091 340.878545c37.598903 0 68.175709-30.576805 68.175709-68.175709s-30.576805-68.175709-68.175709-68.175709-68.175709 30.576805-68.175708 68.175709 30.576805 68.175709 68.175708 68.175709z m-288.587775-68.175709H273.26211a17.043927 17.043927 0 1 1 0 34.087854h-67.323512v34.087855h229.922578A101.752246 101.752246 0 0 1 409.613528 272.702836c0-56.398355 45.848164-102.263563 102.263563-102.263564 56.398355 0 102.263563 45.865208 102.263564 102.263564a101.752246 101.752246 0 0 1-26.247648 68.175709H818.667782v-34.087855h-68.175709a17.043927 17.043927 0 1 1 0-34.087854h49.972794A306.620251 306.620251 0 0 0 580.0528 76.237486V119.307491a17.043927 17.043927 0 1 1-34.087854 0V40.223668c-8.436744-2.795204-21.219689-6.135814-34.087855-6.135814-12.851121 0-25.634067 3.34061-34.087854 6.135814V119.307491a17.043927 17.043927 0 1 1-34.087854 0V76.237486A306.620251 306.620251 0 0 0 223.289316 272.702836zM494.833164 647.669235a17.043927 17.043927 0 1 0 0 34.087854h34.087855a17.043927 17.043927 0 1 0 0-34.087854h-34.087855z m9.425292-66.386097A154.247541 154.247541 0 0 1 443.701383 596.537453a17.043927 17.043927 0 1 0 0 34.087854c1.448734 0 33.661756-0.187483 68.175708-15.288402 34.513953 15.10092 66.726975 15.288403 68.175709 15.288402a17.043927 17.043927 0 0 0 0.051132-34.087854c-0.340879 0-30.798376-0.340879-60.608205-15.254315a17.112103 17.112103 0 0 0-15.237271 0z" fill="#231F1F" p-id="1964"></path></svg>