<?xml version="1.0" standalone="no"?><!DOCTYPE svg PUBLIC "-//W3C//DTD SVG 1.1//EN" "http://www.w3.org/Graphics/SVG/1.1/DTD/svg11.dtd"><svg t="1675739841858" class="icon" viewBox="0 0 1024 1024" version="1.1" xmlns="http://www.w3.org/2000/svg" p-id="3461" xmlns:xlink="http://www.w3.org/1999/xlink" width="200" height="200"><path d="M273.064801 392.525745a17.066337 17.066337 0 1 0-34.132674 0c0 73.248717 53.741894 213.926531 70.057313 246.557366C329.759171 680.622575 420.654481 785.051489 511.993515 785.051489c91.339034 0 182.234343-104.428914 202.987009-145.968378C731.295942 606.452275 785.054902 465.774462 785.054902 392.525745a17.066337 17.066337 0 1 0-34.132673 0c0 38.672319-17.714858 101.664168-35.600378 153.375168-33.330556-0.955715-130.233215-5.990284-196.996725-32.699102a17.254066 17.254066 0 0 0-12.663222 0c-66.865907 26.760016-164.007496 31.760453-196.996725 32.699102C290.779658 494.189912 273.064801 431.198064 273.064801 392.525745z m238.928714 154.825806c65.108075 24.302463 150.0131 30.651141 191.057639 32.306576-7.423856 19.438558-14.130927 35.224919-18.602307 44.167679C669.140343 654.45988 588.143509 750.918816 511.993515 750.918816c-76.149994 0-157.146828-96.458935-172.472399-127.09301-4.454314-8.94276-11.161384-24.712056-18.602307-44.150613 40.890943-1.655435 125.8813-7.987046 191.074706-32.323642z m500.316727 475.758269a17.066337 17.066337 0 0 1-21.57185-10.802991c-1.262909-3.583931-32.101779-87.550307-176.090462-121.717114l-30.105018 120.471271A17.066337 17.066337 0 0 1 767.988566 1023.980203H255.998464a17.066337 17.066337 0 0 1-16.554347-12.919217l-30.105017-120.471271c-143.988683 34.166806-174.827553 118.150249-176.124595 121.836578a17.04927 17.04927 0 0 1-32.323642-10.905389c1.518904-4.573778 39.286707-112.211164 217.629926-147.862741a17.066337 17.066337 0 0 1 19.899348 12.57789L269.310207 989.84753H754.676823l30.890069-123.611477c2.218624-8.823296 11.024854-14.335723 19.916415-12.57789 178.343219 35.651577 216.111022 143.288963 217.629926 147.862741a17.066337 17.066337 0 0 1-10.785925 21.588916zM853.320249 443.724755c0 146.412103 33.688949 213.312143 34.030276 213.977729 3.345002 6.690004 30.890069 64.15236 8.311306 100.708453-7.509188 12.151232-23.585677 26.640552-57.58182 26.640552H699.723219a17.066337 17.066337 0 1 1 0-34.132673h138.356792c14.659983 0 24.234198-3.515665 28.534915-10.427532 9.966741-16.059423-2.218624-52.274189-9.676613-67.292566C855.573006 670.604635 819.187576 599.745205 819.187576 443.724755v-51.19901a17.066337 17.066337 0 1 1 34.132673 0v51.19901zM128.325199 758.410937c-22.59583-36.556093 4.949238-94.018449 8.174775-100.452458C136.448775 657.958479 170.666781 574.538226 170.666781 443.724755v-51.19901a17.066337 17.066337 0 1 1 34.132673 0v51.19901c0 138.390924-35.788108 224.883119-37.289946 228.484116-7.91878 16.008224-20.104145 52.22299-10.137404 68.282413 4.266584 6.911866 13.874932 10.427532 28.534915 10.427532H324.263811a17.066337 17.066337 0 1 1 0 34.132673h-138.356792c-33.996143 0-50.089698-14.48932-57.58182-26.640552zM580.241795 460.791091v-11.127251a21.930243 21.930243 0 0 0-2.167424 2.389287c-4.795641 7.867581-15.120774 10.768858-23.10782 6.246279a16.793275 16.793275 0 0 1-6.911867-22.459299C553.123386 426.095229 569.216942 409.592081 597.325198 409.592081c28.09119 0 44.201812 16.503148 49.270515 26.248026a17.066337 17.066337 0 0 1-30.275682 15.769295 22.356901 22.356901 0 0 0-1.928496-2.04796V460.791091a17.066337 17.066337 0 1 1-34.132673 0z m-170.663367 0v-11.127251a21.930243 21.930243 0 0 0-2.167425 2.389287c-4.812707 7.867581-15.137841 10.768858-23.107819 6.246279a16.793275 16.793275 0 0 1-6.911867-22.459299C382.460019 426.095229 398.553575 409.592081 426.661831 409.592081s44.201812 16.503148 49.270514 26.248026a17.066337 17.066337 0 0 1-30.275681 15.769295 25.53124 25.53124 0 0 0-1.928496-2.04796V460.791091a17.066337 17.066337 0 1 1-34.132673 0z m-221.862377-119.464357h648.520795a17.066337 17.066337 0 0 0 17.066337-17.066336V153.59703c0-93.301663-53.588297-153.59703-136.530694-153.59703H324.263811c-87.550307 0-153.59703 66.029657-153.59703 153.59703v170.663368a17.066337 17.066337 0 0 0 17.066336 17.066336z m17.066337-187.729704c0-69.221062 50.260362-119.464357 119.464357-119.464357h392.525744c75.51854 0 102.39802 61.711874 102.39802 119.464357v153.597031H204.799454V153.59703z m81.218696 683.165459l68.265347-17.066336a17.032204 17.032204 0 0 1 18.312179 7.065463C373.227131 827.717331 436.901633 921.582183 511.993515 921.582183c75.057749 0 138.749318-93.864852 139.414905-94.820567a17.015138 17.015138 0 0 1 18.312179-7.065463l68.265347 17.066336a17.066337 17.066337 0 1 1-8.260107 33.108693l-57.052764-14.267457C652.091073 882.790399 589.645347 955.714856 511.993515 955.714856c-77.651832 0-140.114624-72.924457-160.67956-100.111131l-57.052764 14.267457a17.066337 17.066337 0 1 1-8.260107-33.108693zM580.258862 170.663367a17.066337 17.066337 0 0 1-17.066337 17.066337h-34.132673v34.132673a17.066337 17.066337 0 1 1-34.132674 0v-34.132673h-34.132673a17.066337 17.066337 0 1 1 0-34.132674h34.132673V119.464357a17.066337 17.066337 0 1 1 34.132674 0v34.132673h34.132673a17.066337 17.066337 0 0 1 17.066337 17.066337z" fill="#231F1F" p-id="3462"></path></svg>