<?xml version="1.0" standalone="no"?><!DOCTYPE svg PUBLIC "-//W3C//DTD SVG 1.1//EN" "http://www.w3.org/Graphics/SVG/1.1/DTD/svg11.dtd"><svg t="1675739735623" class="icon" viewBox="0 0 1024 1024" version="1.1" xmlns="http://www.w3.org/2000/svg" p-id="2263" xmlns:xlink="http://www.w3.org/1999/xlink" width="200" height="200"><path d="M307.18098 835.953323a17.060272 17.060272 0 0 1-17.060272 17.060272c-76.225295 0-226.219206 36.884308-239.355615 89.429946l-17.060272 68.241087a17.060272 17.060272 0 1 1-33.096928-8.257171l17.060272-68.241088C37.918708 853.184198 220.770702 818.893052 290.120708 818.893052a17.060272 17.060272 0 0 1 17.060272 17.060271z m204.723263 85.30136c1.023616 0 2.047233-0.102362 3.070849-0.290025C700.59085 887.236501 732.169413 773.171523 733.619536 704.58923c26.545783-42.190052 42.411836-101.508618 48.29763-126.518977A51.283177 51.283177 0 0 0 818.989137 528.868429v-68.241087c0-28.21769-22.963126-51.180816-51.180816-51.180816a17.060272 17.060272 0 1 0 0 34.120544c9.40021 0 17.060272 7.643002 17.060272 17.060272v68.241087c0 9.41727-7.660062 17.060272-17.060272 17.060272-8.13775 0-15.132461 5.749312-16.719066 13.716459-0.153542 0.750652-14.467111 71.004852-41.951209 119.353662l-38.30031-12.761083a17.026151 17.026151 0 1 0-10.782092 32.346275l39.136264 13.051108c-3.821501 67.302773-41.183496 147.639593-187.287665 175.208993-146.087108-27.569399-183.466164-107.90622-187.287665-175.208993l39.136263-13.051108a17.043212 17.043212 0 1 0-10.782092-32.346275l-38.30031 12.761083c-27.432917-48.280569-41.797666-118.60301-41.951209-119.353662A17.060272 17.060272 0 0 0 256.000164 545.928701c-9.38315 0-17.060272-7.643002-17.060272-17.060272v-68.241087c0-9.41727 7.677122-17.060272 17.060272-17.060272a17.060272 17.060272 0 1 0 0-34.120544c-28.21769 0-51.180816 22.963126-51.180816 51.180816v68.241087c0 23.321392 15.69545 43.043066 37.054911 49.201824 5.885794 25.010359 21.751847 84.328924 48.29763 126.518977 1.450123 68.582293 33.062807 182.647271 218.678565 216.375428a16.684946 16.684946 0 0 0 3.070849 0.290025z m153.542447-460.627341a17.060272 17.060272 0 0 0-17.060272-17.060272h-68.241088a17.060272 17.060272 0 1 0 0 34.120543h17.060272a17.060272 17.060272 0 1 0 34.120544 0h17.060272a17.060272 17.060272 0 0 0 17.060272-17.060271z m357.753902 541.800115l-17.060272-68.241088c-10.150862-40.671688-62.611198-70.91955-108.332727-85.693746a17.094392 17.094392 0 0 0-10.492067 32.499818c45.073238 14.518291 80.31976 39.801614 85.727866 61.4511l17.060272 68.241087a17.060272 17.060272 0 1 0 33.096928-8.257171zM35.427908 313.414255a17.060272 17.060272 0 0 1 9.502572-22.178353c0.853014-0.324145 85.130757-34.257026 168.1631-84.07302 24.617972-14.791256 39.921036-40.108699 57.663719-69.435307C307.795149 76.378837 353.926125 0 511.904243 0c166.695917 0 217.808491 85.761987 255.136366 148.390245 14.961858 25.129781 27.893545 46.813386 45.124419 59.745072 65.170239 48.877679 164.768106 82.435234 165.757602 82.77644a16.992031 16.992031 0 0 1 10.457947 22.502498l-34.120544 85.30136a17.060272 17.060272 0 0 1-21.820088 9.639053c-1.177159-0.426507-106.848483-38.760938-324.298709-48.058786l-113.280205 75.355221V460.627342c0 48.638835-36.679585 85.30136-85.30136 85.301359-22.792523 0-42.463017-7.881846-57.288393-20.950014l-41.45646 27.654701a17.060272 17.060272 0 0 1-18.919842-28.405353l40.12576-26.750506A90.044115 90.044115 0 0 1 324.241252 460.627342v-34.120544c0-18.80042 15.303064-34.120544 34.120543-34.120544h102.361632a33.949941 33.949941 0 0 1 23.406693 9.41727l64.829033-43.145428C536.81224 358.487494 524.665326 358.26571 511.904243 358.26571c-282.688706 0-419.170881 49.59421-420.535703 50.088958a17.060272 17.060272 0 0 1-21.820088-9.639053l-34.120544-85.30136zM460.740487 426.506798h-102.361631v34.120544c0 30.606128 20.557628 51.180816 51.180815 51.180815 29.633692 0 51.180816-21.530063 51.180816-51.180815v-34.120544zM73.335833 316.348622l21.939509 54.848774C139.205542 357.890384 274.135233 324.145166 511.904243 324.145166c237.76901 0 372.6987 33.745218 416.61184 47.05223l21.598304-53.99576c-32.585119-12.163974-104.903612-41.627063-158.421685-81.769884-22.621921-16.95791-37.856743-42.514198-53.9787-69.571789C700.932055 104.101779 659.236751 34.120544 511.904243 34.120544c-138.700011 0-175.942584 61.638762-211.956819 121.247352-19.243987 31.851528-37.413176 61.911727-69.264704 81.036292-64.709611 38.812119-128.549149 67.609858-157.329827 79.944434z m338.646397-68.718775a17.026151 17.026151 0 0 0 23.389633 5.834613L511.904243 207.555268l76.515319 45.909192a17.009091 17.009091 0 0 0 23.406693-5.834613 17.060272 17.060272 0 0 0-5.834613-23.406693L545.086471 187.662991l60.905171-36.560163a17.060272 17.060272 0 1 0-17.57208-29.241306L511.904243 167.770714l-76.51532-45.909192a17.043212 17.043212 0 1 0-17.57208 29.241306L478.739074 187.662991l-60.905171 36.560163a17.060272 17.060272 0 0 0-5.851673 23.406693zM648.386418 631.230061c0-28.21769-22.963126-51.180816-51.180816-51.180816a17.060272 17.060272 0 1 0 0 34.120544 17.077332 17.077332 0 0 1 0 34.120544c-0.443567 0-44.459069-0.324145-73.239747-29.121885a17.043212 17.043212 0 0 0-24.123225 0C471.351976 647.676163 426.995269 648.290333 426.602883 648.290333a17.077332 17.077332 0 0 1 0-34.120544 17.060272 17.060272 0 1 0 0-34.120544c-28.21769 0-51.180816 22.963126-51.180816 51.180816s22.963126 51.180816 51.180816 51.180815c2.149594 0 47.956424-0.358266 85.30136-28.627136C549.266238 682.052611 595.056008 682.410876 597.205602 682.410876c28.21769 0 51.180816-22.963126 51.180816-51.180815z m-153.542447 68.241087a17.060272 17.060272 0 1 0 0 34.120544h34.120543a17.060272 17.060272 0 1 0 0-34.120544h-34.120543z m344.975758 133.274844c-38.215009-8.666618-77.880141-13.852941-106.114891-13.85294a17.026151 17.026151 0 0 0-15.268944 9.43433l-85.301359 170.602719a17.060272 17.060272 0 0 0 30.537886 15.251883l80.439183-160.912485c19.363409 0.835953 43.571934 3.906802 67.934002 8.547197l-59.881554 137.949358a17.060272 17.060272 0 1 0 31.288539 13.579977l68.241087-157.159225a17.111453 17.111453 0 0 0-11.873949-23.440814zM511.921303 955.375227a17.060272 17.060272 0 0 0-17.060272 17.060272v34.120544a17.060272 17.060272 0 1 0 34.120544 0v-34.120544a17.060272 17.060272 0 0 0-17.060272-17.060272z m-67.72928 17.060272h-0.170602a16.974971 16.974971 0 0 0-16.992031 17.060272 17.111453 17.111453 0 0 0 34.205845 0 17.060272 17.060272 0 0 0-17.060272-17.060272z" fill="#231F1F" p-id="2264"></path></svg>