<?xml version="1.0" standalone="no"?><!DOCTYPE svg PUBLIC "-//W3C//DTD SVG 1.1//EN" "http://www.w3.org/Graphics/SVG/1.1/DTD/svg11.dtd"><svg t="1675739753371" class="icon" viewBox="0 0 1024 1024" version="1.1" xmlns="http://www.w3.org/2000/svg" p-id="2561" xmlns:xlink="http://www.w3.org/1999/xlink" width="200" height="200"><path d="M119.560037 151.590842a17.024016 17.024016 0 0 1 14.124133-14.755284c71.200643-11.87246 119.696912-0.170581 145.045296 9.637844 2.473429-16.61462 3.667498-46.312828-5.424486-91.823924a17.024016 17.024016 0 0 1 26.184232-17.535759c36.879681 24.56371 73.179386 57.212974 91.943331 74.868141 15.147621-18.388666 41.690074-55.200115 52.624337-98.937165a17.058132 17.058132 0 0 1 30.738754-5.322138c19.241573 28.879417 33.195125 62.415705 42.014179 87.474101 21.834409-28.845301 62.654519-66.629063 131.432906-77.785082a17.058132 17.058132 0 0 1 16.375807 27.071256c-25.228977 33.60452-32.171637 67.072575-33.297473 90.442215 28.145918-22.687315 76.096326-54.858952 132.985196-66.236726a17.058132 17.058132 0 0 1 18.610422 24.359012c-15.949353 31.898707-24.034908 59.908159-28.12886 79.934406C784.724833 157.220026 831.327649 136.579686 869.998434 136.579686a17.041074 17.041074 0 0 1 13.322401 27.702406c-63.763297 79.71265-64.479739 159.152371-64.479738 159.937045a17.058132 17.058132 0 1 1-34.116264 0c0-3.241045 0.597035-70.995945 47.933351-147.228737-44.112329 13.015355-89.333437 41.792423-89.896356 42.167703A17.041074 17.041074 0 0 1 716.475247 204.812214c0-1.876395 0.27293-39.438401 20.827979-92.915645-62.211007 23.506106-107.636812 70.074806-108.148556 70.620666a17.058132 17.058132 0 1 1-28.845301-7.676159c-0.665267-2.575778-12.827715-53.59665 14.397063-112.993066-64.309157 25.928361-86.825891 80.412034-87.098821 81.077301a17.314004 17.314004 0 0 1-16.9899 10.678391 17.092248 17.092248 0 0 1-15.403493-12.87889 470.292697 470.292697 0 0 0-30.738754-82.390777c-22.687315 52.521988-58.236462 88.48053-60.044624 90.30575a17.041074 17.041074 0 0 1-24.137257 0c-0.392337-0.375279-30.704637-30.585231-67.260214-59.396415 5.93623 59.191718-6.106811 85.751229-7.76145 89.077565a17.058132 17.058132 0 0 1-24.734291 6.567381c-0.27293-0.187639-30.261126-18.934526-89.179914-18.934527h-0.341162c87.593507 66.782586 114.374774 182.999639 115.654134 188.662939A17.058132 17.058132 0 0 1 290.021949 375.393533c-13.748854 0-16.870492 9.381973-17.058132 17.279887V460.684192c0 9.381973 7.642043 17.058132 17.058132 17.058132a17.058132 17.058132 0 0 1 16.887551 14.635877c0.170581 1.159953 16.904609 116.199995 48.462153 163.536311 2.268732 3.394568 4.622754 7.21559 7.181473 11.343658C383.091117 700.487411 414.102801 750.672435 511.777664 750.672435c97.691921 0 128.686547-50.202082 149.20748-83.414265 2.55872-4.128068 4.912742-7.949089 7.181474-11.343658 31.608718-47.421607 48.30863-162.393416 48.47921-163.536311A17.058132 17.058132 0 0 1 733.533379 477.742324c9.416089 0 17.058132-7.676159 17.058132-17.058132v-68.232527c-0.204698-7.676159-3.309278-17.058132-17.058132-17.058132a17.058132 17.058132 0 0 1-17.058132-17.058132c0-0.392337-0.614093-44.726422-29.118231-73.23056C675.296917 273.044741 613.751177 273.044741 511.777664 273.044741c-114.255368 0-164.747438 16.034644-165.242124 16.205226a17.058132 17.058132 0 0 1-10.729565-32.410451c2.183441-0.716442 55.183057-17.911039 175.971689-17.911039 129.266524 0 177.643386 0 199.69955 22.056165 26.968907 26.951848 35.344449 62.535112 37.954344 82.390777C775.018756 350.608067 784.707775 375.103545 784.707775 392.451665v68.232527c0 23.028478-15.284086 42.560039-36.248531 48.956839-5.458602 32.717497-22.414385 120.942155-51.907895 165.208008-2.046976 3.070464-4.213359 6.584439-6.533265 10.337227C668.541896 720.001914 628.489403 784.788699 511.777664 784.788699c-116.677622 0-156.730116-64.786785-178.24042-99.619491-2.319906-3.752789-4.469231-7.232648-6.533265-10.320169-29.49351-44.248794-46.432235-132.490511-51.907895-165.208008A51.276745 51.276745 0 0 1 238.847553 460.684192v-68.232527c0-16.051702 8.30731-38.210215 29.783499-47.182793-12.486553-39.643099-51.566733-138.546147-138.853194-175.954631a17.058132 17.058132 0 0 1-10.217821-17.740457zM494.719532 648.323643a17.058132 17.058132 0 0 0 0 34.116264h34.116264a17.058132 17.058132 0 1 0 0-34.116264h-34.116264z m119.406924-34.116263a17.058132 17.058132 0 0 0-17.058132-17.058132c-0.409395 0-42.3724-0.477628-71.098294-43.566469-6.311509-9.484321-22.056165-9.484321-28.384732 0-28.180034 42.270051-69.136609 43.549411-71.200642 43.583527A17.058132 17.058132 0 0 0 426.487005 631.265511c2.166383 0 47.933351-0.528802 85.290659-40.734819C549.134973 630.753768 594.884883 631.265511 597.068324 631.265511a17.058132 17.058132 0 0 0 17.058132-17.058131z m408.883422 388.208966l-17.433411-69.477772c-14.141191-42.440632-78.791511-113.334228-352.693936-113.334228h-4.690986a17.041074 17.041074 0 0 0-16.665795 13.714738l-34.116264 169.881936a17.041074 17.041074 0 1 0 33.433939 6.720904l31.386963-156.167198c207.273361 1.364651 296.657972 46.978095 310.628582 88.702286l17.058132 68.232528a17.058132 17.058132 0 0 0 33.092776-8.273194zM375.312609 818.904963C94.655164 818.904963 37.732178 873.71274 17.603583 934.183818l-17.058132 68.232528a17.058132 17.058132 0 0 0 33.092776 8.290252l16.716969-66.987284c14.669993-44.027038 63.405076-89.009332 310.986803-90.646913l31.386962 156.832465a17.024016 17.024016 0 0 0 20.043305 13.373575 17.024016 17.024016 0 0 0 13.373576-20.060363l-34.099206-170.581319a17.058132 17.058132 0 0 0-16.716969-13.714738z m136.976799 34.116263h-0.170581a16.989899 16.989899 0 0 0-16.972842 17.058132c0 9.416089 7.727334 17.058132 17.143423 17.058132a17.058132 17.058132 0 1 0 0-34.116264z m0 68.232528h-0.170581a16.989899 16.989899 0 0 0-16.972842 17.058132c0 9.416089 7.727334 17.058132 17.143423 17.058132a17.058132 17.058132 0 1 0 0-34.116264z m0 68.232528h-0.170581a16.989899 16.989899 0 0 0-16.972842 17.058132c0 9.416089 7.727334 17.058132 17.143423 17.058132a17.058132 17.058132 0 1 0 0-34.116264zM597.068324 511.858588c-36.504402 0-66.151436-28.879417-67.891365-64.957366l-0.034117-0.085291C527.812308 445.945966 523.308961 443.62606 511.777664 443.62606c-11.531297 0-16.034644 2.302848-17.365178 3.189871v0.085291C492.604324 482.996229 462.991407 511.858588 426.487005 511.858588c-34.269787 0-62.432763-25.484849-67.243156-58.44116l-44.572899-29.715266a17.058132 17.058132 0 0 1 18.934526-28.384731l30.721696 20.469758A68.21547 68.21547 0 0 1 426.487005 375.427649c26.542453 0 49.349176 15.386435 60.6246 37.562007 6.499148-2.09815 14.550587-3.445743 24.666059-3.445743s18.16691 1.347592 24.666059 3.445743C547.719148 390.797026 570.508812 375.393533 597.068324 375.393533c27.702406 0 51.481442 16.648737 62.176891 40.410714l30.704637-20.486816a17.058132 17.058132 0 1 1 18.934526 28.384731l-44.572898 29.715266C659.535203 486.390797 631.355169 511.858588 597.068324 511.858588z m-136.465056-68.232528c0-18.81512-15.301144-34.116264-34.116263-34.116263s-34.116264 15.301144-34.116264 34.116263 15.301144 34.116264 34.116264 34.116264 34.116264-15.301144 34.116263-34.116264z m170.58132 0c0-18.81512-15.301144-34.116264-34.116264-34.116263-18.798061 0-34.116264 15.301144-34.116264 34.116263s15.318202 34.116264 34.116264 34.116264c18.81512 0 34.116264-15.301144 34.116264-34.116264z" fill="#231F1F" p-id="2562"></path></svg>