<?xml version="1.0" standalone="no"?><!DOCTYPE svg PUBLIC "-//W3C//DTD SVG 1.1//EN" "http://www.w3.org/Graphics/SVG/1.1/DTD/svg11.dtd"><svg t="1675738218538" class="icon" viewBox="0 0 1024 1024" version="1.1" xmlns="http://www.w3.org/2000/svg" p-id="65709" xmlns:xlink="http://www.w3.org/1999/xlink" width="200" height="200"><path d="M320.5632 187.323733a16.9984 16.9984 0 0 0 20.360533-12.936533C349.047467 138.001067 382.225067 34.133333 426.666667 34.133333c27.204267 0 41.984 10.888533 54.971733 20.48 9.557333 7.031467 18.517333 13.653333 30.378667 13.653334 11.810133 0 20.872533-6.621867 30.481066-13.653334C555.605333 45.0048 570.453333 34.133333 597.333333 34.133333c44.458667 0 77.653333 103.867733 85.742934 140.253867a17.066667 17.066667 0 0 0 33.314133-7.406933C712.6016 149.879467 677.000533 0 597.333333 0c-38.0416 0-60.279467 16.298667-74.990933 27.050667-3.822933 2.816-9.079467 6.656-9.659733 7.150933-1.877333-0.512-6.997333-4.283733-10.786134-7.048533C487.253333 16.3328 465.1008 0 426.666667 0c-79.650133 0-115.268267 149.879467-119.057067 166.980267a17.0496 17.0496 0 0 0 12.970667 20.343466zM221.866667 409.6c57.9072 0 271.803733-77.533867 296.004266-86.357333C582.0416 299.793067 758.2208 238.933333 802.133333 238.933333c41.250133 0 85.333333 17.92 85.333334 68.266667s-44.0832 68.266667-85.333334 68.266667c-14.165333 0-58.914133-7.082667-199.3216-54.562134a17.066667 17.066667 0 1 0-10.939733 32.341334C702.481067 390.621867 773.2224 409.6 802.133333 409.6c71.458133 0 119.466667-41.147733 119.466667-102.4 0-61.2352-48.008533-102.4-119.466667-102.4-57.890133 0-271.786667 77.533867-295.9872 86.357333C441.975467 314.641067 265.796267 375.466667 221.866667 375.466667c-41.250133 0-85.333333-17.92-85.333334-68.266667s44.0832-68.266667 85.333334-68.266667c14.199467 0 58.965333 7.099733 199.406933 54.613334a17.083733 17.083733 0 0 0 10.939733-32.341334C321.5872 223.7952 250.811733 204.8 221.866667 204.8c-71.458133 0-119.466667 41.1648-119.466667 102.4 0 61.252267 48.008533 102.4 119.466667 102.4z m-33.792 451.1744c-29.422933 5.632-52.992 14.199467-71.7824 24.558933l12.987733 32.068267 70.656-23.552-11.8784-33.0752zM290.133333 836.266667a17.066667 17.066667 0 0 1-17.066666 17.066666c-18.261333 0-35.0208 0.887467-50.551467 2.423467l15.428267 43.042133a17.066667 17.066667 0 0 1-10.666667 21.930667l-102.4 34.133333a17.066667 17.066667 0 0 1-21.213867-9.796266L87.552 905.216a128.3072 128.3072 0 0 0-37.205333 55.9104l-17.066667 51.2a17.066667 17.066667 0 0 1-32.375467-10.8032l17.066667-51.2C34.304 901.358933 89.156267 819.2 273.066667 819.2a17.066667 17.066667 0 0 1 17.066666 17.066667z m607.9488 39.150933c-17.1008-7.594667-38.314667-13.7216-64.682666-17.578667l-10.496 36.352 59.0848 22.493867 16.093866-41.2672z m114.261334 147.712a17.066667 17.066667 0 0 1-21.589334-10.786133l-17.066666-51.2c-5.973333-17.885867-15.36-45.6192-45.687467-68.488534l-20.360533 52.224a17.083733 17.083733 0 0 1-21.981867 9.728l-89.6-34.133333a17.066667 17.066667 0 0 1-10.308267-20.667733l13.175467-45.568A519.389867 519.389867 0 0 0 768 853.333333a17.066667 17.066667 0 1 1 0-34.133333c172.219733 0 217.685333 70.0928 238.08 131.140267l17.066667 51.2a17.066667 17.066667 0 0 1-10.8032 21.589333zM707.3792 821.026133l-68.266667-34.1504a17.186133 17.186133 0 0 0-18.756266 2.321067L512 882.0736l-108.356267-92.8768a17.066667 17.066667 0 0 0-18.7392-2.321067l-68.266666 34.133334a17.066667 17.066667 0 0 0-3.4816 28.245333l119.466666 102.382933a17.066667 17.066667 0 0 0 22.2208-25.941333l-99.959466-85.640533 35.157333-17.578667L494.933333 912.384V1006.933333a17.066667 17.066667 0 1 0 34.133334 0v-94.549333l104.9088-89.9072 35.157333 17.578667-99.976533 85.6576a17.066667 17.066667 0 0 0 22.2208 25.924266l119.466666-102.4a17.1008 17.1008 0 0 0-3.464533-28.228266zM520.157867 168.157867a17.1008 17.1008 0 0 1-6.3488-6.912L512 157.6448l-1.792 3.584c-1.143467 2.269867-2.730667 4.215467-4.642133 5.7344a17.066667 17.066667 0 0 1 1.911466 11.298133 17.152 17.152 0 0 1 10.666667 0.068267 17.1008 17.1008 0 0 1 1.9968-10.171733z m53.794133-1.28l-18.8416 15.240533 7.543467 22.084267a17.066667 17.066667 0 0 1-23.159467 21.0944l-26.845867-12.117334-27.409066 12.151467a17.066667 17.066667 0 0 1-22.971734-21.3504l8.021334-22.391467-19.524267-14.1824A17.066667 17.066667 0 0 1 460.8 136.516267h23.586133l12.356267-24.6784c5.802667-11.5712 24.746667-11.5712 30.549333 0L539.5968 136.533333H563.2a17.066667 17.066667 0 0 1 10.752 30.344534zM597.333333 665.6a17.066667 17.066667 0 0 0 17.066667-17.066667v-51.2a17.066667 17.066667 0 0 0-17.066667-17.066666c-0.443733 0-44.458667-0.341333-73.2672-29.1328a17.066667 17.066667 0 0 0-24.132266 0C471.432533 579.6352 427.0592 580.266667 426.666667 580.266667a17.066667 17.066667 0 0 0-17.066667 17.066666v51.2a17.066667 17.066667 0 1 0 34.133333 0v-35.584c17.2032-2.474667 44.458667-9.147733 68.266667-27.170133 23.825067 18.0224 51.080533 24.695467 68.266667 27.170133V648.533333a17.066667 17.066667 0 0 0 17.066666 17.066667z m-102.4-34.133333a17.066667 17.066667 0 0 0 0 34.133333h34.133334a17.066667 17.066667 0 1 0 0-34.133333h-34.133334z m136.533334-187.733334a17.066667 17.066667 0 1 0 0-34.133333h-68.266667a17.066667 17.066667 0 0 0 0 34.133333h17.066667a17.066667 17.066667 0 1 0 34.133333 0h17.066667z m-204.8 17.066667a17.066667 17.066667 0 0 0 17.066666-17.066667h17.066667a17.066667 17.066667 0 1 0 0-34.133333h-68.266667a17.066667 17.066667 0 0 0 0 34.133333h17.066667a17.066667 17.066667 0 0 0 17.066667 17.066667z m322.6112 31.778133c-5.0176 38.843733-22.016 153.992533-52.394667 199.560534l-2.7136 4.078933C672.256 729.463467 635.5968 785.066667 512 785.066667c-123.562667 0-160.256-55.6032-182.1696-88.849067l-2.696533-4.096c-30.378667-45.568-47.377067-160.699733-52.394667-199.543467A51.3024 51.3024 0 0 1 238.933333 443.733333a17.066667 17.066667 0 0 1 34.133334 0c0 9.4208 7.68 17.066667 17.066666 17.066667a17.066667 17.066667 0 0 1 16.964267 15.189333c4.625067 41.591467 22.357333 158.088533 48.4352 197.2224l2.798933 4.232534C378.811733 708.437333 406.801067 750.933333 512 750.933333c105.216 0 133.2224-42.496 153.668267-73.489066l2.798933-4.232534c26.112-39.133867 43.810133-155.648 48.469333-197.2224A17.066667 17.066667 0 0 1 733.866667 460.8a17.066667 17.066667 0 0 0 17.066666-17.066667 17.066667 17.066667 0 0 1 34.133334 0c0 22.869333-15.069867 42.2912-35.7888 48.8448z" fill="#000000" p-id="65710"></path></svg>