<svg viewBox="0 0 1024 1024" height="1024" width="1024" id="svg833" version="1.1" xmlns:xlink="http://www.w3.org/1999/xlink" xmlns="http://www.w3.org/2000/svg">
  <metadata id="metadata839">
    
      
        image/svg+xml
        
        
      
    
  </metadata>
  <defs id="defs837">
    <linearGradient id="linearGradient862">
      <stop id="stop858" offset="0" style="stop-color:#fdfbef;stop-opacity:1"></stop>
      <stop id="stop860" offset="1" style="stop-color:#ded7c7;stop-opacity:1"></stop>
    </linearGradient>
    <radialGradient gradientTransform="translate(-4.4144922e-5,-5.695625e-5)" r="512" fy="512" fx="512" cy="512" cx="512" gradientUnits="userSpaceOnUse" id="radialGradient928" xlink:href="#linearGradient862"></radialGradient>
  </defs>
  
  <g style="display:inline" id="layer1">
    <circle r="512" cy="512" cx="512" id="path856" style="opacity:1;fill:url(#radialGradient928);fill-opacity:1;fill-rule:evenodd;stroke:none;stroke-width:1.51937;stroke-miterlimit:4;stroke-dasharray:none"></circle>
  </g>
  <g style="display:inline" id="g841">
    <path id="path1653" d="" style="opacity:1;fill:#e7ba59;fill-opacity:1;fill-rule:evenodd;stroke:none;stroke-width:0.392762;stroke-miterlimit:4;stroke-dasharray:none"></path>
    <path id="path1819" d="" style="opacity:1;fill:#e7ba59;fill-opacity:1;fill-rule:evenodd;stroke:none;stroke-width:0.785525;stroke-miterlimit:4;stroke-dasharray:none"></path>
    <path id="path1877" d="" style="opacity:1;fill:#e7ba59;fill-opacity:1;fill-rule:evenodd;stroke:none;stroke-width:0.55545;stroke-miterlimit:4;stroke-dasharray:none"></path>
    <path id="path2063" d="" style="opacity:1;fill:#e7ba59;fill-opacity:1;fill-rule:evenodd;stroke:none;stroke-width:0.55545;stroke-miterlimit:4;stroke-dasharray:none"></path>
    <path id="path2089" d="" style="opacity:1;fill:#e7ba59;fill-opacity:1;fill-rule:evenodd;stroke:none;stroke-width:0.277725;stroke-miterlimit:4;stroke-dasharray:none"></path>
    <path id="path2282" d="M 1.2029027,230.50639 1.0274038,0.55718956 203.1926,0.75746959 C 407.52443,0.95989622 462.51284,1.6720356 441.72132,3.8465877 435.98451,4.4465914 417.88831,7.9435997 401.50754,11.617717 311.49135,31.807861 228.72931,75.061662 163.87976,135.80878 86.263086,208.51536 35.019018,297.68416 11.879238,400.30194 8.2273978,416.49673 4.370775,436.65643 3.3089651,445.1013 1.6480583,458.31094 1.3538882,428.3368 1.2029027,230.50639 Z" style="opacity:1;fill:#000000;fill-opacity:0;fill-rule:evenodd;stroke:none;stroke-width:2.2218;stroke-miterlimit:4;stroke-dasharray:none"></path>
    <path id="path2284" d="M 1.2029027,230.50639 1.0274038,0.55718956 203.1926,0.75746959 C 407.52443,0.95989622 462.51284,1.6720356 441.72132,3.8465877 435.98451,4.4465914 417.88831,7.9435997 401.50754,11.617717 311.49135,31.807861 228.72931,75.061662 163.87976,135.80878 86.263086,208.51536 35.019018,297.68416 11.879238,400.30194 8.2273978,416.49673 4.370775,436.65643 3.3089651,445.1013 1.6480583,458.31094 1.3538882,428.3368 1.2029027,230.50639 Z" style="opacity:1;fill:#000000;fill-opacity:0;fill-rule:evenodd;stroke:none;stroke-width:2.2218;stroke-miterlimit:4;stroke-dasharray:none"></path>
    <path id="path2286" d="M 1.2029027,230.50639 1.0274038,0.55718956 203.1926,0.75746959 C 407.52443,0.95989622 462.51284,1.6720356 441.72132,3.8465877 435.98451,4.4465914 417.88831,7.9435997 401.50754,11.617717 311.49135,31.807861 228.72931,75.061662 163.87976,135.80878 86.263086,208.51536 35.019018,297.68416 11.879238,400.30194 8.2273978,416.49673 4.370775,436.65643 3.3089651,445.1013 1.6480583,458.31094 1.3538882,428.3368 1.2029027,230.50639 Z" style="opacity:1;fill:#000000;fill-opacity:0;fill-rule:evenodd;stroke:none;stroke-width:2.2218;stroke-miterlimit:4;stroke-dasharray:none"></path>
    <path id="path2288" d="M 1021.0892,453.52091 C 1019.6107,429.34068 1007.8399,377.65122 996.02651,343.4619 957.18614,231.05385 880.31581,136.28572 776.4619,72.775798 731.85923,45.499872 679.95263,24.846627 623.97392,12.101985 606.68207,8.1651603 587.92791,4.4520202 582.298,3.8505627 561.74238,1.6545533 615.79243,0.95261954 820.28998,0.75982375 L 1023.1863,0.56853743 V 235.27027 c 0,129.08595 -0.2469,234.70172 -0.5456,234.70172 -0.2987,-1e-5 -0.9957,-7.40299 -1.5489,-16.45108 z" style="opacity:1;fill:#000000;fill-opacity:0;fill-rule:evenodd;stroke:none;stroke-width:2.2218;stroke-miterlimit:4;stroke-dasharray:none"></path>
    <path id="path2290" d="m 580.8244,1020.4487 c 8.04275,-1.0697 27.78406,-4.9192 43.86958,-8.5546 173.57717,-39.22936 313.04426,-163.83302 371.32504,-331.75181 10.18718,-29.35131 21.76418,-77.22931 24.87608,-102.87723 1.661,-13.69022 1.9533,16.14062 2.1044,214.78204 l 0.1755,230.6804 -228.4869,-0.167 c -196.97909,-0.144 -226.47038,-0.4352 -213.8637,-2.1118 z" style="opacity:1;fill:#000000;fill-opacity:0;fill-rule:evenodd;stroke:none;stroke-width:2.2218;stroke-miterlimit:4;stroke-dasharray:none"></path>
    <path id="path2292" d="M 1.1966605,792.76692 C 1.3504794,596.92164 1.6583286,565.09493 3.2723657,578.17206 4.3146709,586.61695 8.1911198,607.01173 11.886697,623.49379 43.016,762.32876 127.91708,879.5779 250.34172,952.80226 c 29.39694,17.58284 58.20542,30.93364 92.85659,43.0328 28.46333,9.93854 74.03572,21.13604 100.16838,24.61214 12.60664,1.6769 -16.88465,1.9674 -213.86375,2.107 l -228.4868841,0.1619 z" style="opacity:1;fill:#000000;fill-opacity:0;fill-rule:evenodd;stroke:none;stroke-width:2.2218;stroke-miterlimit:4;stroke-dasharray:none"></path>
    <path id="path2294" d="m 449.118,837.15605 c -3.95642,-4.64452 -4.36842,-5.9588 -3.48483,-11.11651 2.28018,-13.30993 2.61694,-16.8166 1.61501,-16.81661 -2.07327,-3e-5 -6.07271,8.57533 -6.07276,13.02082 -7e-5,5.87191 -2.54591,5.6517 -7.80198,-0.67488 l -4.14614,-4.99059 2.43967,-7.34488 c 2.45582,-7.39352 3.1767,-7.69916 8.14906,-3.45514 3.03204,2.58791 5.40704,-0.003 25.30912,-27.60166 l 15.53353,-21.54127 10e-4,-20.13456 c 0.002,-22.09704 -4.61078,-51.57439 -8.06979,-51.57443 -0.99539,-10e-6 -4.02883,0.91791 -6.74096,2.03983 l -4.93113,2.03985 -22.86914,-14.78389 -22.86914,-14.78388 -5.28546,-11.75013 c -2.90701,-6.46256 -5.28305,-13.43064 -5.2801,-15.48463 0.007,-5.31493 -8.03737,-12.52361 -16.26748,-14.57643 -10.55753,-2.63332 -17.11319,-10.58431 -24.69073,-29.94595 -3.86553,-9.87696 -9.04077,-19.84109 -13.4083,-25.81564 l -7.11292,-9.73009 -12.02994,0.69715 c -6.61647,0.38344 -17.23347,1.61949 -23.59333,2.74679 -8.69369,1.54098 -13.09118,1.66491 -17.71964,0.4994 -5.89565,-1.48461 -6.26741,-1.91735 -8.78182,-10.22221 -1.97942,-6.53785 -3.19665,-8.5127 -4.94617,-8.02479 -1.27634,0.35594 -5.28181,1.07229 -8.90105,1.59189 -10.23911,1.47 -10.58209,1.6714 -17.40305,10.21924 l -6.43124,8.05945 -31.94344,-3.5e-4 -31.94343,-3.6e-4 -8.95712,18.64443 -8.95712,18.64443 -2.02632,21.56589 -2.02633,21.5659 7.39606,16.45438 c 6.54231,14.55502 8.69126,17.76259 18.61654,27.78746 6.17127,6.23319 12.01964,11.33308 12.99638,11.33309 3.81559,5e-5 3.28126,-3.24728 -2.39057,-14.52829 l -5.89684,-11.72858 2.9e-4,-26.0934 2.9e-4,-26.09341 7.69318,-11.05238 c 6.39896,-9.19304 13.73781,-16.37695 26.97944,-26.4099 0.97357,-0.73765 8.10741,-1.88408 15.85299,-2.54762 12.41513,-1.06356 15.78249,-0.79487 28.43476,2.26887 8.36277,2.02503 21.27462,6.74737 30.94103,11.31627 14.71377,6.95457 18.49584,9.58659 33.45543,23.28246 15.69536,14.36949 17.45422,16.54431 25.3355,31.32704 7.28533,13.66494 8.88157,18.13485 11.41906,31.97648 2.5832,14.09108 2.8264,19.49861 1.95677,43.50934 -0.54618,15.08013 -0.49495,27.41843 0.1139,27.41843 0.6088,10e-6 2.18031,-0.97139 3.49226,-2.15866 2.14492,-1.94108 3.33357,-1.20193 11.79259,7.33315 8.16612,8.23955 9.16762,9.8266 7.591,12.02942 -0.99893,1.39568 -2.18568,3.52465 -2.63723,4.73106 -0.45154,1.2064 -2.08395,4.99013 -3.62757,8.40828 -2.71594,6.01411 -3.02548,6.2148 -9.58505,6.21473 -5.52032,-6e-5 -6.47478,-0.366 -5.14226,-1.97156 1.24837,-1.50416 0.94419,-2.5978 -1.2832,-4.61361 -2.85915,-2.58751 -2.91949,-2.54676 -2.91954,1.97148 l -5e-5,4.61359 -8.08029,-9e-5 -8.08029,-9e-5 2.43421,-4.7525 c 1.33882,-2.61388 5.30404,-9.82947 8.81163,-16.03465 3.50758,-6.20518 6.37742,-12.01786 6.37743,-12.91707 5e-5,-4.23184 -4.09136,0.84737 -13.06217,16.21583 l -9.78142,16.75717 -7.5885,0.44192 c -7.06432,0.41139 -9.77706,-1.11037 -6.06689,-3.40332 1.57226,-0.97169 5.27625,-6.59127 12.2648,-18.60777 3.27347,-5.62861 3.59879,-6.94597 1.71527,-6.94599 -1.32021,-1e-5 -6.5305,6.31724 -12.06066,14.62303 l -9.73632,14.62305 -7.17487,-8e-5 c -5.33008,-6e-5 -6.90243,-0.47006 -6.11533,-1.82796 0.58273,-1.00534 7.2021,-10.82102 14.7097,-21.81261 7.50761,-10.99159 13.65018,-20.36862 13.65019,-20.83785 0,-0.46923 -0.82254,-0.83285 -1.82789,-0.80808 -1.00534,0.0249 -9.06647,10.19271 -17.91362,22.59541 l -16.08573,22.55035 -7.67716,0.0703 c -4.22244,0.0386 -7.65973,-0.42333 -7.63843,-1.02653 0.0213,-0.60321 11.57902,-15.90256 25.68385,-33.99856 14.10481,-18.09601 26.34188,-34.21791 27.19349,-35.82645 3.62117,-6.83973 -12.45026,10.84216 -34.69286,38.16931 -13.15939,16.16753 -25.43966,30.31987 -27.28952,31.4496 -2.20225,1.34496 -5.72573,1.79815 -10.20622,1.31274 l -6.84285,-0.7414 21.93279,-24.85913 c 12.06304,-13.67252 28.24926,-32.42654 35.96938,-41.6756 7.72012,-9.24907 14.4742,-17.33158 15.00906,-17.96114 2.2024,-2.59233 5.84221,1.17313 9.53648,9.86566 3.26991,7.69407 9.76015,15.40744 12.96426,15.40747 0.37703,10e-6 1.49254,-3.60604 2.47892,-8.01343 1.56279,-6.98287 1.36838,-10.60307 -1.51167,-28.1496 -3.09205,-18.83821 -3.8442,-21.14925 -11.66855,-35.85288 -7.98313,-15.00202 -9.11072,-16.35705 -24.79668,-29.79857 -19.35222,-16.58318 -34.8214,-25.38978 -53.57093,-30.49793 -28.58986,-7.78908 -44.02556,-4.25981 -59.38035,13.57693 -8.04052,9.34019 -8.27594,9.86662 -10.09867,22.58221 -2.98364,20.81423 -0.53858,38.00647 7.764,54.59203 l 6.52995,13.04448 -3.66357,5.48364 c -3.43969,5.14854 -4.12223,5.48364 -11.16901,5.48356 l -7.50544,-8e-5 -14.9003,-14.98891 C 163.49325,676.921 161.33283,673.97766 155.35656,661.05699 l -6.64241,-14.36085 2.4e-4,-21.40683 c 2.1e-4,-18.78717 0.48067,-23.11411 3.92614,-35.35793 3.24098,-11.51712 5.77035,-16.72294 14.49797,-29.83882 l 10.57206,-15.88774 18.03902,-11.53016 c 25.63078,-16.38266 40.51763,-21.80244 76.63405,-27.89973 10.80151,-1.82355 19.63911,-3.78473 19.63912,-4.35816 1e-5,-0.57343 -3.45469,-3.13643 -7.6771,-5.69554 -7.93325,-4.80819 -10.20421,-7.40896 -32.76709,-37.52602 -13.06477,-17.43893 -13.58625,-18.44516 -20.84177,-40.21534 l -7.44172,-22.32889 4.1e-4,-36.97216 c 3.3e-4,-30.06826 0.56921,-40.71741 3.04649,-57.02887 2.93053,-19.29595 3.45205,-20.89867 13.74932,-42.25446 5.88679,-12.20877 11.45198,-25.69858 12.36709,-29.97734 1.28049,-5.98717 3.136,-9.29569 8.05345,-14.35993 3.93509,-4.05256 8.02863,-10.51251 10.6563,-16.81652 3.73235,-8.95426 5.46449,-11.15181 13.83129,-17.54764 6.50459,-4.97231 11.70927,-10.64862 16.26812,-17.74231 5.85315,-9.10766 8.05733,-11.18452 17.37589,-16.37226 5.86982,-3.26778 15.60083,-9.90732 21.62449,-14.75453 6.02364,-4.84721 12.93313,-9.24296 15.35442,-9.76835 2.42128,-0.52538 16.4257,-4.16682 31.12094,-8.0921 25.13018,-6.71258 28.14447,-7.19309 50.70245,-8.0825 l 23.98382,-0.94563 4.48494,3.77391 c 3.19566,2.68902 6.90643,4.03941 12.90835,4.69747 10.52026,1.15346 13.80491,2.49965 21.51526,8.81784 3.57617,2.93048 10.35859,6.33728 16.22237,8.14849 8.02176,2.47777 11.17117,4.35584 15.44314,9.20916 2.95149,3.35315 8.57364,7.5989 12.49365,9.43498 5.97642,2.7993 8.14944,5.03615 13.45751,13.85285 3.48162,5.78297 10.82358,14.79182 16.31548,20.01967 9.95312,9.47457 10.01152,9.57673 18.14469,31.74506 l 8.15944,22.2399 -2.6e-4,22.78 c -2.1e-4,19.13103 -0.60726,25.52373 -3.78969,39.90859 -4.38888,19.83803 -8.2797,27.6746 -22.82222,45.96683 -12.5397,15.77297 -30.30293,28.66477 -55.30754,40.13983 l -17.22531,7.90502 -8.1898,-4.01677 c -7.76867,-3.81022 -8.1898,-4.29796 -8.18974,-9.48494 4e-5,-4.16102 2.09747,-8.79727 8.77411,-19.39479 l 8.77405,-13.9266 3.1e-4,-27.55444 3e-4,-27.55442 -8.54844,-10.14206 c -8.14821,-9.66725 -9.2766,-10.43667 -24.10133,-16.43419 l -15.55289,-6.29212 -9.37605,2.81278 c -10.87886,3.26359 -30.16011,17.60552 -30.16017,22.43394 -1e-5,1.55585 -2.63225,7.62473 -5.84941,13.4864 -5.68325,10.35489 -5.84939,11.05819 -5.84954,24.76104 -1.4e-4,13.0607 0.43762,15.2023 5.92089,28.96604 5.42927,13.62816 7.00815,16.02093 19.00979,28.80887 8.05105,8.57851 13.08873,15.15017 13.08871,17.07423 -4e-5,3.78569 22.45009,19.70035 27.94812,19.81215 8.56686,0.17418 22.63141,9.92496 49.73474,34.48046 27.20119,24.64416 27.24472,24.69354 36.92301,41.88569 8.30681,14.75585 9.68972,18.2413 9.68965,24.42134 -5e-5,4.57075 1.87289,12.38325 5.11787,21.34797 3.98335,11.00451 5.11793,16.36966 5.11784,24.20082 -6e-5,5.53397 0.44073,10.06178 0.97955,10.06178 0.53881,10e-6 5.30966,-4.14868 10.6019,-9.2193 13.21358,-12.66029 57.75121,-40.21204 86.51432,-53.51927 30.37404,-14.0525 35.73642,-18.7344 46.16086,-40.30292 l 7.79859,-16.13559 0.0133,-15.2847 c 0.0133,-14.95423 -0.0797,-15.38106 -4.30295,-19.74131 l -4.31655,-4.45662 -20.21384,1.28348 -20.21383,1.28347 -13.07774,8.95238 c -10.10762,6.91917 -14.08465,10.66945 -17.51134,16.51298 -3.17019,5.4061 -6.19402,8.41664 -10.61113,10.56451 l -6.1775,3.00388 -7.0132,-4.35975 -7.01322,-4.35977 1.83968,-24.65855 c 1.75856,-23.57156 2.12924,-25.42171 8.40856,-41.9708 6.37533,-16.80209 6.92527,-17.67106 18.66324,-29.48934 13.35832,-13.44946 27.88827,-23.7708 33.46376,-23.77073 1.98952,2e-5 10.98426,-2.96107 19.98829,-6.5802 l 16.37098,-6.58024 25.62548,2.8e-4 25.62547,2.8e-4 21.55078,10.81836 c 20.07545,10.07777 22.3521,11.65446 33.25644,23.03184 10.70651,11.17099 12.66661,14.21062 22.9634,35.61068 11.20721,23.2922 11.27108,23.49273 14.23527,44.69047 l 2.97752,21.29328 -5.98992,27.67279 c -4.22052,19.49832 -7.39248,30.48687 -10.73797,37.19926 -2.61143,5.23958 -5.95032,12.81669 -7.41974,16.83805 -1.53038,4.1881 -7.05988,12.62139 -12.9438,19.74112 -16.06766,19.44241 -58.07288,62.87895 -60.80693,62.87891 -1.35501,-10e-6 -7.34938,4.16596 -13.32082,9.25772 -5.97144,5.09176 -16.68212,12.80187 -23.80153,17.13356 l -12.94436,7.87582 5.63266,2.37187 c 3.09798,1.30453 11.88407,3.88654 19.52465,5.7378 7.64058,1.85128 23.10453,6.24999 34.36432,9.77493 11.2598,3.52495 33.96219,9.02207 50.44977,12.21584 35.55281,6.88685 47.88305,6.87342 72.23741,-0.0786 13.09869,-3.73912 15.18997,-4.8374 21.98084,-11.54376 8.40145,-8.2969 12.85882,-9.29983 21.98645,-4.94704 4.931,2.3515 5.16769,2.81056 5.16761,10.02267 -7e-5,5.88319 -1.44084,10.64133 -6.50097,21.4694 -7.72868,16.53843 -11.80118,20.53551 -37.51146,36.8168 -17.62612,11.16191 -17.97246,11.30304 -40.62319,16.55336 l -22.8455,5.29548 -55.56799,-1.73739 c -30.5624,-0.95556 -69.38688,-1.72464 -86.27663,-1.70906 -36.90573,0.0341 -52.39245,2.88287 -67.05206,12.33445 -8.56253,5.52057 -9.15514,7.48363 -2.53636,8.40195 2.65375,0.36821 4.0987,2.0611 5.83307,6.83398 2.19935,6.05247 2.17207,6.44207 -0.59246,8.4635 -5.0814,3.71551 -8.617,1.98216 -10.07119,-4.93749 -0.71836,-3.41817 -1.83181,-6.21486 -2.47433,-6.21487 -2.73255,-3e-5 -2.88604,3.51108 -0.44971,10.28655 l 2.60268,7.23806 -4.1643,4.34651 c -2.29037,2.39059 -4.67134,4.03314 -5.29103,3.65013 -0.61971,-0.383 -2.23658,-4.03794 -3.59309,-8.12211 -1.73408,-5.22105 -2.92559,-6.96647 -4.01321,-5.87887 -1.08761,1.08758 -0.74668,4.1898 1.14833,10.44886 l 2.69521,8.90201 -4.48793,4.48783 c -5.38292,5.38272 -7.72299,4.43792 -7.72291,-3.1182 4e-5,-3.85164 -0.75202,-5.89512 -2.4027,-6.52857 -3.67033,-1.40848 -3.79819,-0.43917 -1.24297,9.42219 l 2.36743,9.13662 -4.76596,4.91712 c -2.62129,2.7044 -5.29493,4.91711 -5.94143,4.9171 -0.64651,-10e-6 -1.17542,-2.93805 -1.17538,-6.52899 5e-5,-5.03236 -0.67033,-6.88777 -2.92455,-8.09422 -3.5045,-1.8756 -3.58782,-1.20017 -1.34723,10.92105 1.56277,8.45437 1.53585,8.57515 -2.9003,13.0112 -4.37467,4.37457 -4.52769,4.41151 -6.64912,1.60556 -1.48105,-1.9589 -2.18617,-6.52603 -2.21781,-14.36469 l -0.0464,-11.49262 10.14088,-16.29127 c 9.74338,-15.65267 10.8468,-16.83536 28.14992,-30.17234 25.56924,-19.70836 33.44911,-23.42042 61.87869,-29.14988 l 23.39711,-4.71526 54.83682,3.50345 c 54.29091,3.46858 55.16434,3.47862 87.73895,1.00957 19.05054,-1.44397 36.59665,-3.54567 41.67782,-4.99224 6.19278,-1.76303 14.58555,-6.4711 28.51534,-15.99615 18.90999,-12.93048 20.00026,-13.95412 25.94007,-24.35492 4.59928,-8.05346 6.20419,-12.46198 6.21504,-17.07196 0.0204,-8.69863 -3.01138,-8.1778 -13.83813,2.37727 -9.72683,9.48272 -13.70539,10.95818 -47.56482,17.63962 -14.84519,2.92938 -15.57845,2.94444 -22.11215,0.45394 -6.26018,-2.38624 -9.43667,-2.44886 -43.13832,-0.85054 -36.18651,1.71617 -36.57937,1.70263 -73.66952,-2.53582 -37.08189,-4.2375 -37.5002,-4.25191 -75.30925,-2.59589 l -38.02024,1.66527 -8.55358,7.31946 c -7.58871,6.49381 -10.64031,7.9528 -27.05299,12.93425 -14.39137,4.36795 -20.94348,5.61645 -29.50565,5.62225 l -11.00622,0.007 -35.90281,36.19192 c -44.25419,44.61055 -48.61868,50.8305 -51.14123,72.88251 -2.0315,17.75947 -3.41775,19.57702 -9.49244,12.44583 z m -72.33537,-65.85799 c 1.9358,-3.61697 1.90627,-4.48306 -0.15288,-4.48308 -1.70148,-2e-5 -5.51438,4.23264 -5.59846,6.21478 -0.0974,2.29538 4.30556,0.96969 5.75134,-1.7317 z m 4.43848,-7.40766 c 0,-0.80428 -0.98705,-1.46233 -2.19346,-1.46234 -1.20641,-2e-5 -2.19348,0.65801 -2.19349,1.46229 -10e-6,0.80427 0.98704,1.46232 2.19346,1.46234 1.20641,10e-6 2.19348,-0.65802 2.19349,-1.46229 z m -29.24619,-12.31041 c 0,-0.33636 0.39944,-1.65244 0.88764,-2.92463 1.30304,-3.39552 -2.74603,-2.89382 -4.9352,0.61151 -1.59885,2.5601 -1.46043,2.92461 1.11054,2.92464 1.61536,2e-5 2.93702,-0.27518 2.93702,-0.61152 z m 8.51229,-14.17769 c 2.67103,-4.08384 4.54477,-7.73682 4.16386,-8.11774 -1.42269,-1.42273 -6.70874,3.18299 -9.64107,8.40026 -3.53087,6.28215 -3.68617,7.20449 -1.20711,7.16888 1.00534,-0.0146 4.01329,-3.36756 6.68432,-7.4514 z m -15.82366,-4.22095 c 1.20197,-2.24585 1.1121,-2.92462 -0.38722,-2.92463 -2.14936,-3e-5 -5.46205,2.83794 -5.46207,4.67935 -2e-5,2.37543 4.33482,1.07502 5.84929,-1.75472 z m 183.27024,-18.73042 c 5.76782,-4.67287 12.79009,-9.37889 15.60506,-10.45783 2.81497,-1.07894 14.3308,-8.57346 25.59072,-16.6545 15.46099,-11.09607 23.0016,-15.52217 30.80371,-18.08079 5.68213,-1.86339 18.44159,-7.65439 28.35437,-12.86887 l 18.02322,-9.48089 25.76561,2.9e-4 25.76562,2.9e-4 35.81289,-24.86307 c 22.19209,-15.40685 39.01087,-28.21328 44.2213,-33.6717 l 8.40841,-8.80862 2e-4,-17.42786 c 1.8e-4,-16.63347 0.22213,-17.91487 4.86909,-28.11166 3.78247,-8.29984 6.00182,-11.29388 9.94612,-13.41797 3.57263,-1.92394 6.42913,-5.3903 9.63935,-11.69738 l 4.56215,-8.9632 -2.0466,-13.16087 c -1.12563,-7.23848 -2.06071,-21.7528 -2.07796,-32.25405 l -0.0314,-19.09319 -10.11208,-4.89204 c -9.45562,-4.57446 -10.78821,-5.85068 -20.52691,-19.65843 -7.806,-11.06753 -14.09204,-17.87993 -25.09485,-27.19622 -13.66886,-11.57365 -15.60409,-12.7058 -28.09471,-16.436 -12.66045,-3.7809 -55.12143,-11.34893 -63.67454,-11.34902 -2.86983,-3e-5 -6.15528,2.27955 -12.11828,8.40818 -7.55038,7.76008 -8.69294,9.88228 -14.82205,27.53061 -5.80811,16.72407 -6.77289,21.26326 -7.69239,36.19224 -1.02445,16.63281 -0.97376,17.06985 1.97967,17.06989 2.18151,2e-5 4.79887,-2.88305 9.33838,-10.28642 5.91659,-9.64921 7.22506,-10.81548 21.12171,-18.82635 l 14.81438,-8.53992 18.08784,-1.61119 c 17.08166,-1.52154 18.64518,-1.43172 28.10681,1.61474 9.77072,3.14599 10.12399,3.43395 14.25745,11.62253 3.67664,7.28358 4.23847,10.02972 4.23836,20.71618 -1.3e-4,11.6905 -0.36672,13.10457 -7.17917,27.69325 -4.84375,10.37273 -10.77843,19.89481 -18.24405,29.27225 l -11.06502,13.89855 -21.60448,8.33714 c -11.88247,4.58541 -22.64917,9.51808 -23.92603,10.96146 -1.27685,1.44338 -9.68961,6.31945 -18.69502,10.83572 -9.60851,4.8187 -22.24349,12.7995 -30.58081,19.31616 -21.05151,16.45435 -49.81227,45.00303 -61.12389,60.67316 -5.4359,7.5304 -11.79821,15.99477 -14.13846,18.8097 -2.46845,2.96912 -7.57126,14.02087 -12.1532,26.32155 l -7.89821,21.2035 -0.027,17.91337 c -0.0178,11.85425 0.50662,17.91338 1.55037,17.91339 0.86751,10e-6 6.2964,-3.82324 12.0642,-8.49611 z m -23.87707,-46.20375 c 8e-5,-7.29286 13.36815,-33.68217 24.90361,-49.16109 l 11.46982,-15.39086 -1.5476,-11.66188 c -1.04353,-7.86338 -3.39481,-15.77341 -7.21872,-24.28478 -5.14161,-11.44429 -5.6711,-13.77523 -5.67098,-24.96455 l 1.4e-4,-12.34167 -13.52629,-12.07328 c -14.36457,-12.82151 -37.39877,-25.98881 -51.77866,-29.59881 -4.22072,-1.0596 -12.43641,-5.48345 -20.34656,-10.95587 -7.29705,-5.04826 -19.55748,-11.88778 -27.24543,-15.19893 -11.79517,-5.08012 -14.6947,-7.01818 -18.56689,-12.41023 -2.52383,-3.51447 -7.94142,-10.05832 -12.03907,-14.5419 l -7.45028,-8.15197 1.04283,-9.73674 c 0.57357,-5.3552 1.33821,-10.50647 1.69924,-11.44726 0.36102,-0.94079 -2.30091,-5.26793 -5.91542,-9.61587 -6.29568,-7.57317 -6.47655,-8.05112 -4.30462,-11.37471 1.93144,-2.95556 2.0257,-5.09325 0.63643,-14.43473 l -1.63077,-10.96536 12.44731,-13.55981 12.44729,-13.55983 1.7e-4,-14.81455 c 1.5e-4,-14.0202 0.2746,-15.35951 5.11838,-24.97771 2.81502,-5.58973 5.12017,-11.66017 5.12254,-13.48986 0.003,-2.34977 3.69672,-6.54744 12.5777,-14.29395 10.86453,-9.47666 14.25705,-11.53513 24.96139,-15.1457 l 12.38802,-4.17846 9.0333,3.22767 c 21.08935,7.53538 29.2994,12.52586 39.66991,24.11336 8.9069,9.95211 10.1824,12.17398 12.83339,22.35534 2.75356,10.57525 2.82712,12.62632 1.13968,31.77734 l -1.80384,20.4724 -8.60835,15.48208 c -4.7346,8.51513 -8.60836,15.91806 -8.60837,16.45096 -8e-5,7.66224 57.08998,-25.22706 65.23851,-37.58358 2.19338,-3.32607 7.49729,-10.39978 11.78648,-15.71934 7.09997,-8.80557 8.19806,-11.19972 12.25888,-26.72789 l 4.46037,-17.05597 -3.36764,-4.26532 c -2.07931,-2.63358 -4.78756,-4.29628 -7.07933,-4.34625 -5.13736,-0.11208 -12.66244,-9.50788 -21.14978,-26.40764 -3.78142,-7.52946 -10.26306,-17.59167 -14.40365,-22.36046 -8.3675,-9.63703 -14.34841,-12.88524 -43.70669,-23.73696 -13.00066,-4.80545 -20.76838,-8.83995 -31.99836,-16.61973 -13.32991,-9.23456 -16.22496,-10.59614 -28.62044,-13.46062 -13.33742,-3.08216 -14.83224,-3.12982 -45.50419,-1.45094 -26.10824,1.42907 -78.19464,6.97124 -90.21413,9.59907 -1.61276,0.3526 -7.04165,3.69474 -12.0642,7.42697 -7.06203,5.24776 -9.13192,7.63569 -9.13195,10.53513 -3e-5,2.37008 -3.76554,8.7588 -10.23641,17.36751 -7.43797,9.89533 -10.23637,14.83255 -10.23641,18.06007 -3e-5,2.61097 -4.57604,13.5783 -11.10193,26.60797 -10.37554,20.71593 -11.29219,23.32181 -14.01046,39.82969 -1.96887,11.95675 -3.14816,27.82114 -3.65014,49.1033 l -0.74156,31.43979 5.2777,19.74133 c 7.10083,26.56078 11.71075,37.36767 19.3588,45.38224 3.48011,3.64689 6.32747,7.47386 6.32746,8.50437 -6e-5,4.99998 17.41132,23.82258 31.43942,33.98765 8.04267,5.82789 18.95698,14.43321 24.25402,19.12293 8.90517,7.88418 10.16249,8.52679 16.68357,8.52686 4.53307,5e-5 16.24224,2.93049 32.776,8.20281 24.41866,7.78665 26.17984,8.60256 34.72195,16.08586 4.9492,4.33572 10.22075,7.88315 11.71457,7.88317 1.56922,10e-6 12.99772,10.34237 27.06642,24.49409 23.33408,23.47176 24.6693,25.13491 31.99142,39.84847 4.20258,8.44492 9.7936,22.66219 12.4245,31.59393 2.6309,8.93174 6.5058,19.63851 8.61089,23.79282 3.38952,6.68907 4.15752,7.37667 6.71221,6.00948 1.60751,-0.86029 2.88478,-3.05619 2.8848,-4.9596 z" style="opacity:1;fill:#000000;fill-opacity:0;fill-rule:evenodd;stroke:none;stroke-width:2.2218;stroke-miterlimit:4;stroke-dasharray:none"></path>
    <path id="path2418" d="m 512.02228,955.98381 -1.41851,-0.0167 -66.16013,-65.76513 -66.1601,-65.76513 -90.91537,1.47827 -90.91534,1.47829 V 735.2106 643.02722 L 132.22642,579.09631 68,515.16541 v -1.51855 -1.51855 l 64.22642,-63.82651 64.22641,-63.82651 v -92.53214 -92.5321 H 289.689 382.92515 L 447.51835,133.70552 512.11153,68 l 64.54649,65.70552 64.54645,65.70553 h 93.17137 93.17133 v 92.51636 92.51637 L 891.77358,448.30177 956,512.1598 v 1.5028 1.50281 l -64.22642,63.9309 -64.22641,63.93091 v 92.06149 92.06149 l -91.45283,-1.1971 -91.45283,-1.19711 -65.60036,65.62202 L 513.44079,956 l -1.41851,-0.0167 z m -5.17438,-38.92589 h 2.35965 v -13.81003 -13.81 l -5.21776,-2.78158 -5.21772,-2.78157 -1.76341,1.75651 -1.76338,1.75651 v 9.74831 9.74829 l 4.62148,5.08678 4.62149,5.08678 z m 16.32191,-4.17236 5.58491,-5.0346 v -13.90789 -13.90788 l -5.58491,5.0346 -5.5849,5.03459 v 13.90789 13.90788 z m -34.0362,-25.16031 0.86946,-13.28587 -5.75625,-5.73383 -5.75625,-5.73384 v 13.6116 13.61159 l 4.88679,5.40811 4.88679,5.4081 z m 53.96301,5.34702 5.20527,-4.69235 -0.19631,-7.21822 -0.19631,-7.21822 -1.99853,-5.04923 -1.99851,-5.04923 -4.61078,5.07501 -4.61079,5.07502 1.6003,11.88479 1.60033,11.88478 5.20524,-4.69235 z m -72.58769,-18.16781 1.84003,-6.52414 0.2784,-6.98023 0.27841,-6.98025 -5.35927,-3.33386 -5.35925,-3.33389 -1.8968,11.18328 -1.89678,11.18327 5.13767,5.65498 5.13769,5.65494 1.84001,-6.5241 z m 84.95766,3.21138 h 1.57981 l 5.32051,-2.83637 5.32052,-2.83635 -1.55704,-8.98535 -1.55708,-8.98533 -1.18763,-3.79023 -1.18763,-3.79026 -4.15561,3.43544 -4.15565,3.43544 v 12.17649 12.17652 z m -101.65835,-17.31912 2.25717,-3.5427 0.0427,-8.48381 0.0427,-8.48381 -3.35094,-3.3379 -3.35095,-3.33789 h -1.86859 -1.8686 l -1.67852,10.30332 -1.67854,10.3033 4.59814,5.06111 4.59813,5.0611 2.25717,-3.54272 z m 119.59459,0.62966 h 2.13974 l 3.21727,-3.8615 3.2173,-3.86146 -1.8724,-11.6636 -1.87237,-11.66363 -5.39622,5.37523 -5.39624,5.37521 1.91157,10.14989 1.91157,10.14986 z m -136.84334,-15.27141 2.11539,-1.30228 1.76704,-8.80083 1.76703,-8.80082 -3.14449,-3.77416 -3.14453,-3.77415 h -2.13975 -2.13977 l -1.87323,9.94636 -1.87326,9.94639 3.2751,3.93087 3.2751,3.9309 z m 155.55419,-2.14346 4.25283,-4.23626 -1.99236,-11.74668 -1.99233,-11.74668 -5.24314,5.22269 -5.24311,5.22271 2.98265,10.76023 2.98267,10.76022 z m -170.65773,-10.4009 h 0.92304 l 2.84018,-10.24616 2.84017,-10.24619 -3.05084,-3.6617 -3.05083,-3.66172 h -2.13975 -2.13977 l -1.87324,9.94636 -1.87326,9.94639 3.30063,3.9615 3.30062,3.96152 z m 184.75873,-3.64517 4.23358,-4.2171 -1.87896,-9.97673 -1.87898,-9.97677 h -2.32399 -2.324 l -3.3866,4.06472 -3.3866,4.06472 3.356,10.12911 3.35597,10.12914 z M 407.62495,819.70273 h 0.62119 l 3.26122,-9.84317 3.26125,-9.84317 -3.54343,-4.25295 -3.54343,-4.25292 -3.59098,6.44675 -3.59098,6.44678 -0.0989,4.31145 -0.0989,4.31144 3.35095,3.33789 3.35094,3.3379 h 0.62118 z m 211.7951,-1.74152 4.27806,-1.63526 v -3.4597 -3.45967 l -3.09677,-8.84884 -3.09678,-8.84881 -3.88435,3.2112 -3.88436,3.21116 v 3.65071 3.65068 l 2.70307,7.08189 2.70303,7.0819 z m -219.83554,-19.59855 3.60044,-10.35915 -4.03121,-4.01548 -4.03121,-4.01552 -4.51774,10.77033 -4.51772,10.77032 4.94848,3.60434 4.94851,3.60431 z m 235.13014,8.27806 5.73818,-1.49471 v -1.17719 -1.17719 l -5.74731,-11.2218 -5.74735,-11.22183 -3.86026,3.19128 -3.86028,3.19127 1.14739,3.27358 1.14739,3.27361 2.72203,7.42884 2.72202,7.42887 z m -367.15966,-3.01125 5.69029,-1.16818 32.69415,-39.2171 32.69415,-39.21712 -2.99169,-3.59071 -2.99167,-3.59074 -2.24482,1.38198 -2.2448,1.38197 -36.42727,41.50519 -36.42727,41.50522 3.27932,1.08884 3.27932,1.08885 z m 22.70214,0.0167 7.23826,-1.3783 15.50398,-21.18399 15.50395,-21.18399 9.42698,-12.34979 9.42696,-12.34976 -0.92863,-2.77506 -0.92863,-2.77504 -2.81359,-0.93423 -2.81359,-0.93419 -18.22263,23.01296 -18.22262,23.01299 -10.20435,13.42556 -10.20435,13.42553 v 2.18279 2.18281 z m 19.98095,2.08162 7.68645,-0.0682 20.49155,-30.87996 20.49155,-30.87998 -3.97336,-3.95788 -3.97335,-3.95788 -7.14175,10.56719 -7.14179,10.56715 -17.06289,24.3388 -17.06289,24.3388 7.68648,-0.0682 z m 21.29647,0.0681 h 6.95852 l 14.58863,-24.33879 14.58864,-24.3388 0.92654,-1.77101 0.92654,-1.77103 -3.82717,-3.16387 -3.82714,-3.16388 -16.63099,25.79671 -16.63095,25.79673 -2.01557,3.47697 -2.01553,3.47697 z m 21.99375,-0.0476 6.28302,-0.0476 10.52319,-19.77195 10.52316,-19.77197 -3.21442,-3.85808 -3.21444,-3.85805 -3.81818,3.15645 -3.81818,3.15648 v 2.10399 2.10398 l -9.77358,16.16745 -9.77359,16.16741 v 2.24982 2.24983 l 6.28302,-0.0476 z m 23.21079,-1.79415 3.47196,-1.32714 5.64442,-12.98863 5.64441,-12.98863 -2.92205,-3.50712 -2.92205,-3.50716 h -2.04921 -2.04922 l -7.23206,15.9225 -7.23209,15.92247 3.08697,1.90043 3.08695,1.9004 z m 359.06523,1.84063 h 8.64202 l -9.69626,-11.8217 -9.69629,-11.8217 -20.25235,-26.42499 -20.25232,-26.42498 h -2.96639 -2.96637 l -1.01567,3.03512 -1.01567,3.03512 21.28223,27.56223 21.28223,27.56223 4.00639,7.64933 4.00642,7.64934 z m 32.80366,-1.96034 1.09853,-0.69178 -17.891,-20.23116 -17.89102,-20.23116 -13.04033,-15.29868 -13.04034,-15.29867 -7.24301,-8.16988 -7.24301,-8.16986 -4.11669,4.10063 -4.11666,4.10066 16.0604,18.15919 16.06043,18.15919 17.32625,21.17821 17.32628,21.17823 7.8058,0.95341 7.80582,0.95342 z m -534.13127,-0.82124 h 8.57984 l 21.85798,-22.94801 21.85798,-22.94801 20.79099,-21.57372 20.79098,-21.57371 -3.5238,-4.22936 -3.52377,-4.22936 -24.93481,25.80307 -24.93479,25.80308 -22.77022,22.94801 -22.77019,22.94801 z m 416.44782,-0.0656 6.28302,0.0656 v -1.48325 -1.48327 l -7.31707,-14.51079 -7.31706,-14.51082 -0.9928,-1.09177 -0.99283,-1.09177 -4.01435,3.31864 -4.01434,3.31865 6.04119,13.70163 6.04122,13.70163 6.28302,0.0656 z m 19.29319,0.0656 h 6.7335 l -3.24148,-6.25855 -3.24148,-6.25854 -9.69531,-16.1094 -9.69531,-16.10936 -3.89709,3.22171 -3.89709,3.2217 10.10038,19.14621 10.10042,19.14623 z m 19.80115,-0.006 6.28302,0.006 v -1.61117 -1.61117 l -17.08549,-26.27175 -17.08551,-26.27171 -3.90161,3.22543 -3.90159,3.22543 7.38442,12.83576 7.38439,12.83578 7.31969,11.81672 7.31966,11.81672 6.28302,0.006 z m 22.38935,0.006 h 6.69871 l -0.93084,-2.32868 -0.93081,-2.32865 -22.2003,-31.08969 -22.20031,-31.08968 -3.71318,3.69871 -3.71318,3.6987 20.14562,29.71964 20.14562,29.71965 z m 76.636,0 h 8.49726 l -11.95089,-13.21249 -11.95091,-13.21249 -34.91491,-35.44636 -34.9149,-35.44633 -3.74767,3.09818 -3.74766,3.09817 8.74451,10.09554 8.74448,10.09557 33.37171,35.46511 33.37171,35.4651 z m -551.40271,-22.41742 18.84906,-17.73598 30.6,-29.96915 30.60003,-29.96916 -3.25091,-3.23826 L 311.1888,696.445 299.19817,707.04881 287.20755,717.6527 253,749.4538 218.79245,781.25493 v 8.53844 8.53844 z m 567.03106,8.35841 0.86122,-7.82496 -21.80462,-20.57296 -21.80464,-20.57296 -20.53548,-19.24888 -20.53547,-19.24887 -4.16763,-2.37441 -4.16759,-2.37444 -3.18005,3.16766 -3.18001,3.16763 48.82651,46.85358 48.82651,46.85358 z M 224.1426,766.21692 229.49271,762.48413 259.74637,735.78116 290,709.07815 l 9.1555,-7.58758 9.15548,-7.58756 -3.24215,-3.89137 -3.24218,-3.89134 -12.89446,10.3597 -12.89445,10.35968 -28.62265,23.53342 -28.62264,23.53342 v 8.0216 8.02159 z m 578.97061,0.47248 2.09434,0.16328 v -6.71873 -6.71874 l -17.45283,-14.98249 -17.45283,-14.98252 -23.09842,-18.92207 -23.09841,-18.92204 -3.84641,3.17979 -3.84641,3.17982 14.37878,13.3472 14.37879,13.34718 8.37736,7.05004 8.37736,7.05005 19.54717,16.883 19.54717,16.88298 2.09434,0.16328 z m -545.39148,-52.11363 38.92925,-29.77953 0.16503,-2.17347 0.16504,-2.1735 -3.85543,-1.4737 -3.85543,-1.47371 -35.23891,25.78872 -35.23883,25.7887 v 7.63801 7.63802 z m 546.7877,29.85428 0.69812,0.16996 -0.0223,-7.64934 -0.0223,-7.64934 -34.45879,-25.72959 -34.45878,-25.72958 h -3.05165 -3.05167 l -1.56124,2.51632 -1.56126,2.51633 22.75685,17.65011 22.75687,17.6501 15.63958,13.0424 15.6396,13.04237 0.69812,0.17023 z m -567.07412,-34.76487 19.05526,-13.46378 16.0981,-11.58624 16.0981,-11.58624 -4.211,-3.4812 -4.21099,-3.4812 -30.03805,19.51618 -30.03805,19.51621 -0.90431,9.01501 -0.90428,9.01504 z m 567.31028,5.61428 0.9343,-4.38321 -1.47704,-3.83407 -1.47701,-3.83407 -25.34154,-16.97324 -25.34154,-16.97327 -4.41643,-1.68814 -4.4164,-1.68811 -2.29663,3.70153 -2.29662,3.70153 18.63507,13.46172 18.63504,13.46172 13.96227,9.71541 13.96226,9.71541 z m -564.31163,-29.50672 18.84906,-11.48063 9.14076,-6.17507 9.14079,-6.17507 -4.14627,-3.42766 -4.14623,-3.42768 -23.84358,14.34612 -23.84358,14.3461 v 6.73726 6.73725 z m 564.31163,7.11221 0.9343,-4.24132 -1.37442,-3.56768 -1.37439,-3.56767 -23.12983,-13.05347 -23.1298,-13.05347 -3.65649,1.39766 -3.65647,1.39766 v 2.71771 2.71771 l 27.22642,16.7471 27.22641,16.74709 z m -308.10408,-13.34725 13.96226,-1.64706 38.39623,-0.025 38.39623,-0.0223 v -4.02057 -4.0206 l -7.67925,-3.62874 -7.67924,-3.62876 -4.68055,-9.73552 -4.68054,-9.73552 -3.14142,-26.42498 -3.14143,-26.42498 0.45486,-130.73412 0.45489,-130.73413 h -7.96298 -7.96299 l -8.88134,15.29868 -8.88131,15.29867 -12.78218,18.6996 -12.7822,18.69962 -25.27209,16.92673 -25.27211,16.92676 -3.06938,6.71031 -3.06938,6.71033 3.5449,4.25475 3.54494,4.25473 h 6.51521 6.51521 l 16.12212,-11.24958 16.12208,-11.24959 7.03964,0.81867 7.03963,0.81868 0.73981,82.83286 0.73977,82.83286 -4.01837,27.03943 -4.01834,27.03943 -9.49277,8.34473 -9.49275,8.34473 -1.69667,4.59581 -1.69663,4.59583 1.90194,1.94316 1.90194,1.94315 z m -259,-11.7831 18.84906,-10.35995 4.94775,-3.29309 4.94775,-3.29308 -4.14361,-3.42548 -4.14361,-3.42551 -19.6532,10.5738 -19.6532,10.5738 v 6.50475 6.50472 z m 566.86792,9.94795 0.69812,0.13963 v -6.69867 -6.69868 l -18.52762,-10.14441 -18.52765,-10.14438 -4.04419,1.54586 -4.04423,1.54586 0.93033,2.74469 0.93034,2.74472 20.94339,12.41276 20.9434,12.41276 0.69811,0.13964 z m -582.22641,-20.17878 3.49056,-1.4427 14.66038,-6.17972 14.66038,-6.17969 v -2.07013 -2.07013 l -3.7831,-3.12747 -3.78311,-3.12746 -14.30202,6.26383 -14.30202,6.26386 -0.0659,6.55615 -0.0659,6.55615 3.49056,-1.44269 z m 582.22641,0.71252 0.69812,0.13491 v -6.47846 -6.47849 l -13.85797,-6.46544 -13.85796,-6.46544 -4.52973,3.7447 -4.52972,3.7447 17.68958,9.06427 17.68957,9.06424 0.69811,0.1349 z m -581.90073,-19.45268 3.16488,-0.11654 9.28667,-4.93138 9.28666,-4.9314 -4.2918,-3.54799 -4.2918,-3.54801 -9.58887,3.15228 -9.58886,3.1523 1.42912,5.44369 1.42912,5.44369 3.16488,-0.11655 z m 580.17882,-0.0278 1.76866,0.14325 1.38358,-5.27023 1.38357,-5.27022 -6.77418,-3.07451 -6.77421,-3.0745 h -3.71536 -3.71536 l -3.20504,3.84678 -3.20503,3.84681 10.54237,4.35459 10.54235,4.35461 1.76865,0.14325 z m -588.32337,-13.88892 2.93208,-0.12545 8.03036,-3.41602 8.03037,-3.41606 -4.32813,-3.57802 -4.32811,-3.57806 -9.98528,1.86597 -9.98525,1.86591 v 1.9157 1.9157 l 3.35094,3.33789 3.35095,3.33789 z m 601.2151,-3.44946 3.49056,-2.66942 v -2.22526 -2.22529 l -10.10538,-3.32207 -10.10539,-3.32209 -2.4179,3.80175 -2.41787,3.80177 -0.0427,1.6838 -0.0427,1.6838 9.07547,2.73123 9.07547,2.73123 3.49057,-2.66945 z m -609.706,-11.92721 8.63052,-1.84154 2.22994,-1.31132 2.22995,-1.31134 -3.37301,-4.0484 -3.373,-4.04839 -8.63052,1.84158 -8.63053,1.84154 -2.22994,1.31132 -2.22994,1.31134 3.37301,4.04839 3.373,4.0484 z m 618.92109,1.34337 1.53585,0.25089 3.35094,-3.33789 3.35095,-3.33789 v -2.09923 -2.0992 l -10.01578,-1.87167 -10.01575,-1.87164 -4.35832,4.34135 -4.35834,4.34137 9.4873,2.71652 9.4873,2.71654 1.53585,0.2509 z m -634.65433,-15.67249 7.60905,-1.2173 3.98633,-1.2674 3.98634,-1.2674 -4.197,-4.18065 -4.19703,-4.18069 -11.75318,1.87209 -11.75315,1.87208 4.3548,4.79327 4.3548,4.79327 z m 647.34606,1.89002 3.05776,0.12545 4.7174,-5.19237 4.7174,-5.19237 -11.57781,-1.84416 -11.57785,-1.84415 -4.22769,3.49502 -4.22771,3.49502 8.03036,3.41606 8.03037,3.41603 3.05777,0.12545 z m -657.1331,-17.04264 11.65182,-2.60778 0.77359,-0.77058 0.77359,-0.77058 -6.75405,-3.60059 -6.75405,-3.60058 -10.26854,1.9189 -10.26855,1.91887 4.59719,5.06008 4.59718,5.06005 z m 669.79003,0.15605 7.33731,0.32266 3.20565,-3.84753 3.20565,-3.8475 -4.48834,-1.71565 -4.48833,-1.71562 h -7.80706 -7.80706 l -3.28266,3.93996 -3.28267,3.93996 5.0351,1.30053 5.03507,1.30053 z m -689.10906,-14.75468 8.09248,-1.6122 h 4.46016 4.46016 l -5.88457,-5.86165 -5.88456,-5.86164 -11.67343,1.96451 -11.6734,1.96455 5.00536,5.5093 5.00533,5.5093 z m 706.9038,0.63576 2.79245,0.35668 5.57131,-4.19373 5.5713,-4.19373 -4.17508,-2.62914 -4.17508,-2.62915 -8.64267,-0.0426 -8.64267,-0.0426 -4.87693,5.36795 -4.87691,5.36794 9.33093,1.14083 9.33089,1.14087 z M 148.3943,547.10818 h 15.30228 l -7.10007,-5.56316 -7.10006,-5.56315 h -13.2565 -13.2565 l 5.05429,5.56315 5.05425,5.56316 z m 159.29123,-0.48597 13.03145,-0.48595 -11.86792,-1.06478 -11.86793,-1.06476 v -4.12325 -4.12324 l 5.64165,-11.01549 5.64168,-11.01549 h 58.77292 58.77295 l -1.87519,6.25855 -1.87516,6.25855 -3.96229,6.25855 -3.9623,6.25854 -29.95447,0.57729 -29.9545,0.57729 26.5283,0.93361 26.5283,0.93358 5.96962,-1.48553 5.96965,-1.48553 4.50205,-11.20795 4.50208,-11.20794 v -2.72531 -2.72528 h -60.85224 -60.85224 l -7.14125,14.60328 -7.14123,14.60328 1.20732,3.47697 1.20732,3.47698 z m 569.26019,0.48597 h 13.96226 l 5.05428,-5.56316 5.05429,-5.56315 h -13.96227 -13.96226 l -5.05428,5.56315 -5.05429,5.56316 z m -539.47402,-3.57714 13.96226,0.0381 -6.24462,-1.20045 -6.24462,-1.20044 -7.71764,1.16247 -7.71765,1.16248 z m -31.54126,-2.86299 6.40918,-1.54314 20.9434,-1.95982 20.9434,-1.95981 4.18867,-0.78966 4.18868,-0.78969 25.55701,-0.21279 25.55703,-0.21279 2.67698,-7.64934 2.67702,-7.64934 h -53.84693 -53.84695 l -5.92832,12.1548 -5.92835,12.15479 6.40918,-1.54316 z M 128.84713,527.63714 h 15.30228 l -7.10007,-5.56316 -7.10006,-5.56315 h -13.2565 -13.2565 l 5.05429,5.56315 5.05425,5.56316 z m 767.64576,0 h 13.96226 l 5.05428,-5.56316 5.05429,-5.56315 h -13.96227 -13.96226 l -5.05428,5.56315 -5.05429,5.56316 z M 117.39855,508.1661 h 13.96226 l 5.05428,-5.56316 5.05426,-5.56315 h -13.96226 -13.96227 l -5.05425,5.56315 -5.05429,5.56316 z m 789.2029,0 h 13.96227 l -5.05429,-5.56316 -5.05428,-5.56315 h -13.96226 -13.96227 l 5.05429,5.56315 5.05428,5.56316 z m -760.38638,-17.05563 4.21509,0.36616 3.30965,-5.27898 3.30967,-5.27896 -6.12851,-1.63699 -6.12852,-1.63699 -4.85487,-0.0381 -4.85488,-0.0378 -5.74469,4.86776 -5.74469,4.86776 9.20334,1.72001 9.20334,1.72002 z m 741.36755,-1.97987 12.90104,-1.02207 -4.78782,-5.26989 -4.78786,-5.26989 h -12.13324 -12.13323 v 1.86716 1.86716 l 4.02004,4.4248 4.02005,4.42479 z m -731.96226,-17.125 h 12.2241 l 3.26996,-3.92473 3.26999,-3.92472 -2.22994,-1.36303 -2.22994,-1.363 -8.72636,-0.90462 -8.72636,-0.9046 -4.53779,3.75135 -4.53779,3.75137 v 2.44097 2.44101 z m 714.27064,-0.38036 13.53963,-0.61539 -5.70635,-6.05049 -5.70638,-6.05049 -7.57497,1.2108 -7.57501,1.21082 -3.80505,1.19811 -3.80508,1.1981 3.54678,4.25696 3.54678,4.25698 z m -683.62417,-18.94971 5.17251,-4.29988 -11.81791,-2.32798 -11.81791,-2.32802 -4.32205,4.30525 -4.32207,4.30524 3.98634,1.3566 3.98634,1.3566 6.98113,0.96605 6.98113,0.96601 z m 665.7448,2.84599 10.4412,-1.69055 -0.32172,-2.63338 -0.32172,-2.63337 -4.10923,-2.58195 -4.10923,-2.58194 -10.50153,1.96243 -10.50149,1.9624 4.49124,4.94348 4.49127,4.94344 z m -16.64679,-14.37093 10.33327,-2.39121 2.69274,-0.0662 2.6927,-0.0665 -4.54242,-4.52474 -4.54243,-4.52473 -13.05542,1.95013 -13.05538,1.95017 4.5718,5.03215 4.57183,5.03212 10.33331,-2.39118 z m -644.14071,0.062 7.33731,0.19554 3.32394,-3.98947 3.32391,-3.98951 -10.52015,-2.89342 -10.52014,-2.89345 -5.21008,4.69669 -5.21007,4.69669 5.06897,1.99072 5.06897,1.99075 7.33734,0.19554 z m 24.07776,-14.50264 3.49056,-2.67237 v -1.97428 -1.97431 L 208.36102,416.9 l -10.43146,-3.18903 -4.06271,4.04689 -4.06271,4.04689 1.78642,1.77946 1.78641,1.77946 9.21716,2.00932 9.21719,2.00936 z m 609.44671,-0.16912 11.03209,-2.93318 -4.2502,-4.67811 -4.25019,-4.67811 -11.13835,2.81621 -11.13836,2.81621 4.35647,4.79507 4.35645,4.79508 z m -602.9993,-10.37843 1.56062,0.21168 5.42051,-3.96458 5.42051,-3.96456 -6.98113,-2.58998 -6.98113,-2.59001 -4.18868,-1.4272 -4.18868,-1.4272 -5.08913,4.42291 -5.08911,4.4229 9.27779,3.34724 9.27781,3.34724 1.56062,0.21167 z m 577.92204,0.21168 h 1.91035 l 8.79407,-3.0537 8.79405,-3.05367 v -2.16888 -2.16888 l -3.49056,-2.88536 -3.49057,-2.88535 -9.07547,3.80127 -9.07547,3.80128 v 2.45226 2.45227 l 1.86164,1.85437 1.86162,1.85439 z m -1.57952,-15.79493 9.20278,-4.37139 -1.34596,-5.12698 -1.34597,-5.12694 -10.02582,4.17272 -10.02583,4.17276 -1.23949,1.23463 -1.23945,1.23466 3.40849,4.09097 3.40847,4.09098 z m -562.18844,1.67542 1.7524,0.21168 3.20216,-3.84333 3.20213,-3.84334 -11.29407,-4.50139 -11.2941,-4.50146 h -1.13497 -1.13496 l -1.00015,4.86776 -1.00014,4.86776 8.47464,3.26535 8.47462,3.26535 1.75244,0.21168 z m 11.21295,-11.03763 4.58803,0.12295 1.43336,-3.72072 1.43337,-3.72073 -15.15872,-7.40558 -15.15875,-7.40559 h -1.33434 -1.33437 v 5.4967 5.4967 l 10.47169,5.50667 10.4717,5.50668 4.58803,0.12295 z m 530.50983,0.0804 1.73936,0.0426 12.92101,-5.69331 12.92102,-5.69333 v -6.86382 -6.86382 l -17.45283,8.71443 -17.45283,8.71446 -1.31536,1.21235 -1.31536,1.21238 4.10781,2.58773 4.10781,2.58773 z m -514.28149,-12.71537 4.06162,-3.8771 -5.45785,-3.98322 -5.45787,-3.98319 -19.06475,-10.26382 -19.06477,-10.26383 0.91383,7.66322 0.9138,7.66324 19.54717,10.46088 19.54717,10.46089 z m 503.63146,1.55343 3.32576,-0.0782 16.75471,-8.96194 16.75472,-8.96191 0.89233,-6.25854 0.89233,-6.25855 h -1.34044 -1.3404 l -20.49532,11.48493 -20.49529,11.48494 -0.97775,0.8471 -0.97772,0.8471 1.84064,2.96664 1.84065,2.96663 z m -492.50083,-12.54697 4.02245,-3.93182 -1.22999,-0.94256 -1.23002,-0.9426 -22.33963,-14.0108 -22.33962,-14.01077 -6.28302,-3.291 -6.28302,-3.29097 v 6.94983 6.9498 l 25.83019,15.22632 25.83019,15.22635 z m 480.72805,1.49885 h 2.00752 l 23.99834,-14.06961 23.99834,-14.06963 v -6.95636 -6.95636 l -3.49057,1.94813 -3.49056,1.94813 -24.56625,15.23731 -24.56624,15.23732 -1.08615,-1.08193 -1.08615,-1.08192 29.14296,-19.28089 29.14296,-19.28086 v -8.11495 -8.11494 l -9.07547,6.74096 -9.07548,6.74095 -24.63507,17.56669 -24.63508,17.56669 7.70469,8.01063 7.70468,8.01064 z m -475.47558,-8.60803 0.89757,0.26341 4.00804,-3.99242 4.00804,-3.99243 -15.47636,-10.61085 -15.47634,-10.61097 -18.75003,-13.48091 -18.75001,-13.48089 -0.93452,6.15238 -0.93455,6.15237 2.64358,2.63329 2.64356,2.63327 27.61172,19.03525 27.61172,19.03522 0.89758,0.26341 z m 13.26845,-12.7166 3.98491,-1.52319 v -2.3867 -2.38673 L 283.23204,330.93786 269.48296,320.4097 245.83077,301.63406 222.17855,282.85841 h -1.69303 -1.69307 v 6.78416 6.78418 l 35.10943,26.42957 35.10945,26.42957 z m 440.32103,1.85359 h 3.50589 l 33.49411,-25.78335 33.49407,-25.78333 0.89529,-7.71643 0.89532,-7.71643 -30.21608,22.71364 -30.21604,22.71363 -7.67924,7.13419 -7.67925,7.13416 v 3.65196 3.65196 z m -429.61538,-13.45043 2.53208,-4.30332 -15.74932,-14.60233 -15.74932,-14.60234 -27.27333,-22.8642 -27.2733,-22.86423 -0.94533,6.41335 -0.9453,6.41334 9.32266,9.24674 9.32269,9.24674 32.1132,26.1098 32.11321,26.1098 z m 449.09698,-20.22203 31.4653,-25.52209 10.4717,-9.90931 10.4717,-9.90934 v -6.38942 -6.38942 h -1.63806 -1.63805 l -40.1102,34.81205 -40.11018,34.81202 -1.78223,2.87245 -1.78223,2.87245 1.59349,4.13637 1.59346,4.13635 z m -438.41571,12.41214 2.14516,-1.3206 v -3.54902 -3.54899 l -46.46253,-44.26904 -46.46251,-44.26905 -2.40542,-0.92719 -2.40539,-0.92721 v 6.97848 6.9785 l 32.81132,30.4618 32.81132,30.46183 13.91145,12.62555 13.91147,12.62555 z m 413.70487,-11.20338 14.28935,-13.06254 4.45304,-4.35725 4.45304,-4.35726 26.96205,-24.67843 26.96206,-24.67843 v -8.23689 -8.23692 l -2.3914,0.92721 -2.3914,0.92719 -46.94262,45.05159 -46.94261,45.05159 3.62958,4.35634 3.62957,4.35634 z m -404.07889,-1.32832 3.87503,-3.20345 -6.35476,-7.23185 -6.35476,-7.23185 -19.56845,-20.89376 -19.56844,-20.89374 -16.39969,-17.50471 -16.39968,-17.50472 -7.24268,0.84716 -7.24267,0.84719 45.69053,47.98659 45.69053,47.9866 z m 377.74034,3.19467 h 2.32553 l 46.8222,-47.9822 46.82223,-47.9822 -8.05603,-0.94073 -8.05601,-0.94073 -25.19993,26.05559 -25.1999,26.05556 -13.96227,15.36075 -13.96226,15.36074 -3.73097,4.6032 -3.73097,4.60318 1.80144,2.90343 1.80141,2.90341 z m -368.24913,-11.1263 h 2.24555 l 1.6834,-2.71321 1.6834,-2.71321 -17.08984,-20.2348 L 304.933,261.99656 287.99217,241.83013 271.05134,221.6637 h -8.33413 -8.33416 l 10.82734,11.89513 10.82735,11.89514 15.35849,17.95883 15.35849,17.95887 12.25004,13.26047 12.25004,13.26045 z m 360.1019,-0.60277 2.04703,-0.78802 23.4024,-26.42498 23.40241,-26.42499 13.56501,-15.99406 13.56501,-15.99407 h -8.51665 -8.51662 l -33.35395,39.63747 -33.35395,39.63747 2.85615,3.5696 2.85612,3.56963 z m -351.15611,-7.83479 2.18199,0.0929 1.60119,-4.15637 1.60117,-4.15638 -26.03764,-34.78579 -26.03764,-34.7857 h -7.92389 -7.92387 l 15.86368,20.16643 15.86367,20.16643 14.3147,18.68283 14.31467,18.68285 2.18197,0.0929 z m 339.99816,-3.23731 2.38529,-0.84223 27.5808,-33.54218 27.58081,-33.54217 2.056,-3.31372 2.056,-3.31372 h -6.95251 -6.95251 l -26.82589,34.86743 -26.8259,34.86743 1.75629,2.8307 1.75631,2.83067 z m -327.76258,-10.95415 3.66157,-3.02697 -2.05843,-3.45389 -2.05842,-3.45385 -18.06014,-26.8326 -18.06013,-26.83256 h -7.64833 -7.64831 l 15.65751,21.55722 15.65748,21.55722 8.44784,11.75623 8.44781,11.75619 z m 318.07992,3.15798 h 0.90797 l 22.48594,-32.11762 22.48598,-32.11762 v -1.26131 -1.2613 h -6.57771 -6.57768 l -19.82476,29.76799 -19.82477,29.76799 3.00853,3.61093 3.00854,3.61094 z m -311.19787,-11.25641 1.75241,0.13018 2.87876,-3.47697 2.87877,-3.47697 -14.29275,-24.3388 -14.29275,-24.3388 h -7.61815 -7.61812 l 17.2797,27.68568 17.2797,27.68567 1.75243,0.13018 z m 301.08908,0.0298 1.53585,-0.10014 16.0566,-26.03537 16.05661,-26.03536 v -1.87362 -1.87364 l -6.11472,0.88885 -6.11472,0.88886 -7.66995,12.51709 -7.66994,12.5171 -6.83241,11.59044 -6.83238,11.59047 3.02459,3.01281 3.02462,3.01284 1.53585,-0.10014 z M 373.1631,266.1299 l 2.18199,0.0389 1.77785,-4.61494 1.77784,-4.61497 -9.54472,-17.63395 -9.54474,-17.63395 -6.407,-0.003 -6.40701,-0.003 11.99191,22.21356 11.99191,22.21359 2.18197,0.0389 z m 276.3652,0.0362 3.49057,-0.003 12.058,-22.24989 12.05804,-22.24986 -6.47313,0.0111 -6.4731,0.0111 -9.07547,17.48455 -9.07547,17.48452 v 4.7578 4.75778 l 3.49056,-0.003 z m -261.16474,-11.94752 4.36151,-4.34451 -7.0319,-13.40985 -7.0319,-13.40981 -5.93441,-0.88886 -5.93441,-0.88885 v 1.66358 1.66355 l 8.60481,16.97964 8.6048,16.97963 z m 252.06604,0.82396 h 1.65224 l 7.56285,-15.36028 7.56286,-15.36032 v -1.32915 -1.32917 h -5.53786 -5.53788 l -6.87155,13.50756 -6.87156,13.50759 3.19432,3.18187 3.19434,3.1819 z m -241.2171,-13.50013 3.7931,-5.39434 -3.02124,-8.63301 -3.02127,-8.63302 -1.82118,0.0426 -1.82116,0.0426 -3.6435,2.30192 -3.64354,2.30189 4.69283,11.68285 4.69283,11.68287 3.79313,-5.39434 z m 229.71431,2.34554 1.75244,-0.0284 4.57512,-10.85477 4.57516,-10.8548 -5.36241,-1.39682 -5.3624,-1.39685 -3.71064,8.80294 -3.71061,8.80294 2.74546,3.47697 2.74548,3.47697 1.7524,-0.0284 z m -218.41306,-14.24193 3.7504,-3.10043 v -3.70089 -3.70088 l -3.23073,-7.0631 -3.23075,-7.06309 -3.75038,3.10043 -3.7504,3.10043 v 3.70089 3.70089 l 3.23073,7.06309 3.23075,7.06309 z m 209.39548,-2.92641 3.59098,-6.44678 0.0988,-4.52718 0.0989,-4.52716 -3.9301,-3.24899 -3.9301,-3.249 -3.30327,9.97001 -3.30325,9.96998 3.54342,4.25295 3.54343,4.25292 3.59098,-6.44675 z m -195.43554,-8.47049 4.1762,-4.15996 -3.21593,-11.89658 -3.21593,-11.89658 -4.45499,4.43764 -4.455,4.43765 3.4947,11.61889 3.49473,11.6189 z m 184.16182,-6.88162 3.08837,-10.56571 -1.29277,-3.47697 -1.29279,-3.47697 h -3.4214 -3.42139 l -2.92046,9.47867 -2.92046,9.47864 4.54628,4.56404 4.54628,4.56401 z m -170.20849,-7.87704 4.02909,-5.47025 -1.49181,-5.56315 -1.49181,-5.56315 -0.0383,-6.87668 -0.0383,-6.87667 -6.06809,6.04443 -6.06805,6.04445 3.56892,11.86562 3.56892,11.86562 4.02909,-5.47022 z m 154.00352,1.00173 0.9885,-3.6904 2.34837,-7.42116 2.3484,-7.42117 -5.15917,-4.65079 -5.15917,-4.6508 -2.92177,10.54062 -2.9218,10.54062 4.7441,5.22174 4.74407,5.22172 z m -144.2294,-10.64434 h 2.48464 l 3.08345,-6.74107 3.08343,-6.7411 -1.95165,-10.36273 -1.95167,-10.36274 -5.24012,5.28213 -5.24012,5.2821 1.6237,11.82171 1.6237,11.8217 z m 131.74873,-11.22113 2.34078,-11.7903 -5.43133,-5.41017 -5.43132,-5.41017 -1.8825,11.72671 -1.8825,11.72669 4.97305,5.47378 4.97308,5.47375 z m -17.18389,-8.14357 1.89809,-4.27871 0.19631,-8.60901 0.19631,-8.60903 -5.21108,-4.69759 -5.21111,-4.69761 -1.46177,12.91829 -1.46176,12.91831 4.5785,4.66701 4.57854,4.66704 1.89806,-4.2787 z m -95.11728,-0.95586 5.25696,-3.27025 -0.27841,-6.98025 -0.2784,-6.98023 -1.84004,-6.52414 -1.84,-6.5241 -4.95579,5.45476 -4.9558,5.45475 1.81719,11.31985 1.81719,11.31985 z m 16.78166,-17.55064 5.23002,-4.71469 v -10.23159 -10.23161 l -1.86773,-1.86046 -1.86774,-1.86043 -5.1134,4.60955 -5.1134,4.60952 0.0383,5.82746 0.0383,5.82743 1.71297,6.36975 1.71298,6.36973 5.23004,-4.71466 z m 61.48046,-0.19388 1.99853,-5.04923 0.19631,-8.48381 0.19631,-8.48381 -3.35094,-3.33789 -3.35095,-3.33789 h -1.86628 -1.86628 l -1.58834,11.79592 -1.58835,11.79588 4.61079,5.07505 4.61078,5.07501 1.9985,-5.04923 z m -42.0712,-17.006 5.36793,-4.57826 v -13.2897 -13.28971 h -1.87446 -1.87447 l -5.10667,4.60348 -5.10667,4.60346 v 9.07692 9.07693 l 1.6132,4.18755 1.61323,4.18758 z m 24.38833,-7.64038 0.86946,-13.28587 -5.75625,-5.73383 -5.75625,-5.73384 v 13.6116 13.61159 l 4.88679,5.40811 4.88679,5.40811 z" style="fill:#3a4853;fill-opacity:1;stroke-width:2.787"></path>
  </g>
</svg>
