<svg viewBox="0 0 1024 1024" height="1024" width="1024" id="svg833" version="1.1" xmlns:xlink="http://www.w3.org/1999/xlink" xmlns="http://www.w3.org/2000/svg">
  <metadata id="metadata839">
    
      
        image/svg+xml
        
        
      
    
  </metadata>
  <defs id="defs837">
    <linearGradient id="linearGradient862">
      <stop id="stop858" offset="0" style="stop-color:#fdfbef;stop-opacity:1"></stop>
      <stop id="stop860" offset="1" style="stop-color:#ded7c7;stop-opacity:1"></stop>
    </linearGradient>
    <radialGradient gradientTransform="translate(-4.4144922e-5,-5.695625e-5)" r="512" fy="512" fx="512" cy="512" cx="512" gradientUnits="userSpaceOnUse" id="radialGradient928" xlink:href="#linearGradient862"></radialGradient>
  </defs>
  
  <g style="display:inline" id="layer1">
    <circle r="512" cy="512" cx="512" id="path856" style="opacity:1;fill:url(#radialGradient928);fill-opacity:1;fill-rule:evenodd;stroke:none;stroke-width:1.51937;stroke-miterlimit:4;stroke-dasharray:none"></circle>
  </g>
  <g style="display:inline" id="g841">
    <path id="path1653" d="" style="opacity:1;fill:#e7ba59;fill-opacity:1;fill-rule:evenodd;stroke:none;stroke-width:0.392762;stroke-miterlimit:4;stroke-dasharray:none"></path>
    <path id="path1819" d="" style="opacity:1;fill:#e7ba59;fill-opacity:1;fill-rule:evenodd;stroke:none;stroke-width:0.785525;stroke-miterlimit:4;stroke-dasharray:none"></path>
    <path id="path1877" d="" style="opacity:1;fill:#e7ba59;fill-opacity:1;fill-rule:evenodd;stroke:none;stroke-width:0.55545;stroke-miterlimit:4;stroke-dasharray:none"></path>
    <path id="path2063" d="" style="opacity:1;fill:#e7ba59;fill-opacity:1;fill-rule:evenodd;stroke:none;stroke-width:0.55545;stroke-miterlimit:4;stroke-dasharray:none"></path>
    <path id="path2089" d="" style="opacity:1;fill:#e7ba59;fill-opacity:1;fill-rule:evenodd;stroke:none;stroke-width:0.277725;stroke-miterlimit:4;stroke-dasharray:none"></path>
    <path id="path2282" d="M 1.2029027,230.50639 1.0274038,0.55718956 203.1926,0.75746959 C 407.52443,0.95989622 462.51284,1.6720356 441.72132,3.8465877 435.98451,4.4465914 417.88831,7.9435997 401.50754,11.617717 311.49135,31.807861 228.72931,75.061662 163.87976,135.80878 86.263086,208.51536 35.019018,297.68416 11.879238,400.30194 8.2273978,416.49673 4.370775,436.65643 3.3089651,445.1013 1.6480583,458.31094 1.3538882,428.3368 1.2029027,230.50639 Z" style="opacity:1;fill:#000000;fill-opacity:0;fill-rule:evenodd;stroke:none;stroke-width:2.2218;stroke-miterlimit:4;stroke-dasharray:none"></path>
    <path id="path2284" d="M 1.2029027,230.50639 1.0274038,0.55718956 203.1926,0.75746959 C 407.52443,0.95989622 462.51284,1.6720356 441.72132,3.8465877 435.98451,4.4465914 417.88831,7.9435997 401.50754,11.617717 311.49135,31.807861 228.72931,75.061662 163.87976,135.80878 86.263086,208.51536 35.019018,297.68416 11.879238,400.30194 8.2273978,416.49673 4.370775,436.65643 3.3089651,445.1013 1.6480583,458.31094 1.3538882,428.3368 1.2029027,230.50639 Z" style="opacity:1;fill:#000000;fill-opacity:0;fill-rule:evenodd;stroke:none;stroke-width:2.2218;stroke-miterlimit:4;stroke-dasharray:none"></path>
    <path id="path2286" d="M 1.2029027,230.50639 1.0274038,0.55718956 203.1926,0.75746959 C 407.52443,0.95989622 462.51284,1.6720356 441.72132,3.8465877 435.98451,4.4465914 417.88831,7.9435997 401.50754,11.617717 311.49135,31.807861 228.72931,75.061662 163.87976,135.80878 86.263086,208.51536 35.019018,297.68416 11.879238,400.30194 8.2273978,416.49673 4.370775,436.65643 3.3089651,445.1013 1.6480583,458.31094 1.3538882,428.3368 1.2029027,230.50639 Z" style="opacity:1;fill:#000000;fill-opacity:0;fill-rule:evenodd;stroke:none;stroke-width:2.2218;stroke-miterlimit:4;stroke-dasharray:none"></path>
    <path id="path2288" d="M 1021.0892,453.52091 C 1019.6107,429.34068 1007.8399,377.65122 996.02651,343.4619 957.18614,231.05385 880.31581,136.28572 776.4619,72.775798 731.85923,45.499872 679.95263,24.846627 623.97392,12.101985 606.68207,8.1651603 587.92791,4.4520202 582.298,3.8505627 561.74238,1.6545533 615.79243,0.95261954 820.28998,0.75982375 L 1023.1863,0.56853743 V 235.27027 c 0,129.08595 -0.2469,234.70172 -0.5456,234.70172 -0.2987,-1e-5 -0.9957,-7.40299 -1.5489,-16.45108 z" style="opacity:1;fill:#000000;fill-opacity:0;fill-rule:evenodd;stroke:none;stroke-width:2.2218;stroke-miterlimit:4;stroke-dasharray:none"></path>
    <path id="path2290" d="m 580.8244,1020.4487 c 8.04275,-1.0697 27.78406,-4.9192 43.86958,-8.5546 173.57717,-39.22936 313.04426,-163.83302 371.32504,-331.75181 10.18718,-29.35131 21.76418,-77.22931 24.87608,-102.87723 1.661,-13.69022 1.9533,16.14062 2.1044,214.78204 l 0.1755,230.6804 -228.4869,-0.167 c -196.97909,-0.144 -226.47038,-0.4352 -213.8637,-2.1118 z" style="opacity:1;fill:#000000;fill-opacity:0;fill-rule:evenodd;stroke:none;stroke-width:2.2218;stroke-miterlimit:4;stroke-dasharray:none"></path>
    <path id="path2292" d="M 1.1966605,792.76692 C 1.3504794,596.92164 1.6583286,565.09493 3.2723657,578.17206 4.3146709,586.61695 8.1911198,607.01173 11.886697,623.49379 43.016,762.32876 127.91708,879.5779 250.34172,952.80226 c 29.39694,17.58284 58.20542,30.93364 92.85659,43.0328 28.46333,9.93854 74.03572,21.13604 100.16838,24.61214 12.60664,1.6769 -16.88465,1.9674 -213.86375,2.107 l -228.4868841,0.1619 z" style="opacity:1;fill:#000000;fill-opacity:0;fill-rule:evenodd;stroke:none;stroke-width:2.2218;stroke-miterlimit:4;stroke-dasharray:none"></path>
    <path id="path2294" d="m 449.118,837.15605 c -3.95642,-4.64452 -4.36842,-5.9588 -3.48483,-11.11651 2.28018,-13.30993 2.61694,-16.8166 1.61501,-16.81661 -2.07327,-3e-5 -6.07271,8.57533 -6.07276,13.02082 -7e-5,5.87191 -2.54591,5.6517 -7.80198,-0.67488 l -4.14614,-4.99059 2.43967,-7.34488 c 2.45582,-7.39352 3.1767,-7.69916 8.14906,-3.45514 3.03204,2.58791 5.40704,-0.003 25.30912,-27.60166 l 15.53353,-21.54127 10e-4,-20.13456 c 0.002,-22.09704 -4.61078,-51.57439 -8.06979,-51.57443 -0.99539,-10e-6 -4.02883,0.91791 -6.74096,2.03983 l -4.93113,2.03985 -22.86914,-14.78389 -22.86914,-14.78388 -5.28546,-11.75013 c -2.90701,-6.46256 -5.28305,-13.43064 -5.2801,-15.48463 0.007,-5.31493 -8.03737,-12.52361 -16.26748,-14.57643 -10.55753,-2.63332 -17.11319,-10.58431 -24.69073,-29.94595 -3.86553,-9.87696 -9.04077,-19.84109 -13.4083,-25.81564 l -7.11292,-9.73009 -12.02994,0.69715 c -6.61647,0.38344 -17.23347,1.61949 -23.59333,2.74679 -8.69369,1.54098 -13.09118,1.66491 -17.71964,0.4994 -5.89565,-1.48461 -6.26741,-1.91735 -8.78182,-10.22221 -1.97942,-6.53785 -3.19665,-8.5127 -4.94617,-8.02479 -1.27634,0.35594 -5.28181,1.07229 -8.90105,1.59189 -10.23911,1.47 -10.58209,1.6714 -17.40305,10.21924 l -6.43124,8.05945 -31.94344,-3.5e-4 -31.94343,-3.6e-4 -8.95712,18.64443 -8.95712,18.64443 -2.02632,21.56589 -2.02633,21.5659 7.39606,16.45438 c 6.54231,14.55502 8.69126,17.76259 18.61654,27.78746 6.17127,6.23319 12.01964,11.33308 12.99638,11.33309 3.81559,5e-5 3.28126,-3.24728 -2.39057,-14.52829 l -5.89684,-11.72858 2.9e-4,-26.0934 2.9e-4,-26.09341 7.69318,-11.05238 c 6.39896,-9.19304 13.73781,-16.37695 26.97944,-26.4099 0.97357,-0.73765 8.10741,-1.88408 15.85299,-2.54762 12.41513,-1.06356 15.78249,-0.79487 28.43476,2.26887 8.36277,2.02503 21.27462,6.74737 30.94103,11.31627 14.71377,6.95457 18.49584,9.58659 33.45543,23.28246 15.69536,14.36949 17.45422,16.54431 25.3355,31.32704 7.28533,13.66494 8.88157,18.13485 11.41906,31.97648 2.5832,14.09108 2.8264,19.49861 1.95677,43.50934 -0.54618,15.08013 -0.49495,27.41843 0.1139,27.41843 0.6088,10e-6 2.18031,-0.97139 3.49226,-2.15866 2.14492,-1.94108 3.33357,-1.20193 11.79259,7.33315 8.16612,8.23955 9.16762,9.8266 7.591,12.02942 -0.99893,1.39568 -2.18568,3.52465 -2.63723,4.73106 -0.45154,1.2064 -2.08395,4.99013 -3.62757,8.40828 -2.71594,6.01411 -3.02548,6.2148 -9.58505,6.21473 -5.52032,-6e-5 -6.47478,-0.366 -5.14226,-1.97156 1.24837,-1.50416 0.94419,-2.5978 -1.2832,-4.61361 -2.85915,-2.58751 -2.91949,-2.54676 -2.91954,1.97148 l -5e-5,4.61359 -8.08029,-9e-5 -8.08029,-9e-5 2.43421,-4.7525 c 1.33882,-2.61388 5.30404,-9.82947 8.81163,-16.03465 3.50758,-6.20518 6.37742,-12.01786 6.37743,-12.91707 5e-5,-4.23184 -4.09136,0.84737 -13.06217,16.21583 l -9.78142,16.75717 -7.5885,0.44192 c -7.06432,0.41139 -9.77706,-1.11037 -6.06689,-3.40332 1.57226,-0.97169 5.27625,-6.59127 12.2648,-18.60777 3.27347,-5.62861 3.59879,-6.94597 1.71527,-6.94599 -1.32021,-1e-5 -6.5305,6.31724 -12.06066,14.62303 l -9.73632,14.62305 -7.17487,-8e-5 c -5.33008,-6e-5 -6.90243,-0.47006 -6.11533,-1.82796 0.58273,-1.00534 7.2021,-10.82102 14.7097,-21.81261 7.50761,-10.99159 13.65018,-20.36862 13.65019,-20.83785 0,-0.46923 -0.82254,-0.83285 -1.82789,-0.80808 -1.00534,0.0249 -9.06647,10.19271 -17.91362,22.59541 l -16.08573,22.55035 -7.67716,0.0703 c -4.22244,0.0386 -7.65973,-0.42333 -7.63843,-1.02653 0.0213,-0.60321 11.57902,-15.90256 25.68385,-33.99856 14.10481,-18.09601 26.34188,-34.21791 27.19349,-35.82645 3.62117,-6.83973 -12.45026,10.84216 -34.69286,38.16931 -13.15939,16.16753 -25.43966,30.31987 -27.28952,31.4496 -2.20225,1.34496 -5.72573,1.79815 -10.20622,1.31274 l -6.84285,-0.7414 21.93279,-24.85913 c 12.06304,-13.67252 28.24926,-32.42654 35.96938,-41.6756 7.72012,-9.24907 14.4742,-17.33158 15.00906,-17.96114 2.2024,-2.59233 5.84221,1.17313 9.53648,9.86566 3.26991,7.69407 9.76015,15.40744 12.96426,15.40747 0.37703,10e-6 1.49254,-3.60604 2.47892,-8.01343 1.56279,-6.98287 1.36838,-10.60307 -1.51167,-28.1496 -3.09205,-18.83821 -3.8442,-21.14925 -11.66855,-35.85288 -7.98313,-15.00202 -9.11072,-16.35705 -24.79668,-29.79857 -19.35222,-16.58318 -34.8214,-25.38978 -53.57093,-30.49793 -28.58986,-7.78908 -44.02556,-4.25981 -59.38035,13.57693 -8.04052,9.34019 -8.27594,9.86662 -10.09867,22.58221 -2.98364,20.81423 -0.53858,38.00647 7.764,54.59203 l 6.52995,13.04448 -3.66357,5.48364 c -3.43969,5.14854 -4.12223,5.48364 -11.16901,5.48356 l -7.50544,-8e-5 -14.9003,-14.98891 C 163.49325,676.921 161.33283,673.97766 155.35656,661.05699 l -6.64241,-14.36085 2.4e-4,-21.40683 c 2.1e-4,-18.78717 0.48067,-23.11411 3.92614,-35.35793 3.24098,-11.51712 5.77035,-16.72294 14.49797,-29.83882 l 10.57206,-15.88774 18.03902,-11.53016 c 25.63078,-16.38266 40.51763,-21.80244 76.63405,-27.89973 10.80151,-1.82355 19.63911,-3.78473 19.63912,-4.35816 1e-5,-0.57343 -3.45469,-3.13643 -7.6771,-5.69554 -7.93325,-4.80819 -10.20421,-7.40896 -32.76709,-37.52602 -13.06477,-17.43893 -13.58625,-18.44516 -20.84177,-40.21534 l -7.44172,-22.32889 4.1e-4,-36.97216 c 3.3e-4,-30.06826 0.56921,-40.71741 3.04649,-57.02887 2.93053,-19.29595 3.45205,-20.89867 13.74932,-42.25446 5.88679,-12.20877 11.45198,-25.69858 12.36709,-29.97734 1.28049,-5.98717 3.136,-9.29569 8.05345,-14.35993 3.93509,-4.05256 8.02863,-10.51251 10.6563,-16.81652 3.73235,-8.95426 5.46449,-11.15181 13.83129,-17.54764 6.50459,-4.97231 11.70927,-10.64862 16.26812,-17.74231 5.85315,-9.10766 8.05733,-11.18452 17.37589,-16.37226 5.86982,-3.26778 15.60083,-9.90732 21.62449,-14.75453 6.02364,-4.84721 12.93313,-9.24296 15.35442,-9.76835 2.42128,-0.52538 16.4257,-4.16682 31.12094,-8.0921 25.13018,-6.71258 28.14447,-7.19309 50.70245,-8.0825 l 23.98382,-0.94563 4.48494,3.77391 c 3.19566,2.68902 6.90643,4.03941 12.90835,4.69747 10.52026,1.15346 13.80491,2.49965 21.51526,8.81784 3.57617,2.93048 10.35859,6.33728 16.22237,8.14849 8.02176,2.47777 11.17117,4.35584 15.44314,9.20916 2.95149,3.35315 8.57364,7.5989 12.49365,9.43498 5.97642,2.7993 8.14944,5.03615 13.45751,13.85285 3.48162,5.78297 10.82358,14.79182 16.31548,20.01967 9.95312,9.47457 10.01152,9.57673 18.14469,31.74506 l 8.15944,22.2399 -2.6e-4,22.78 c -2.1e-4,19.13103 -0.60726,25.52373 -3.78969,39.90859 -4.38888,19.83803 -8.2797,27.6746 -22.82222,45.96683 -12.5397,15.77297 -30.30293,28.66477 -55.30754,40.13983 l -17.22531,7.90502 -8.1898,-4.01677 c -7.76867,-3.81022 -8.1898,-4.29796 -8.18974,-9.48494 4e-5,-4.16102 2.09747,-8.79727 8.77411,-19.39479 l 8.77405,-13.9266 3.1e-4,-27.55444 3e-4,-27.55442 -8.54844,-10.14206 c -8.14821,-9.66725 -9.2766,-10.43667 -24.10133,-16.43419 l -15.55289,-6.29212 -9.37605,2.81278 c -10.87886,3.26359 -30.16011,17.60552 -30.16017,22.43394 -1e-5,1.55585 -2.63225,7.62473 -5.84941,13.4864 -5.68325,10.35489 -5.84939,11.05819 -5.84954,24.76104 -1.4e-4,13.0607 0.43762,15.2023 5.92089,28.96604 5.42927,13.62816 7.00815,16.02093 19.00979,28.80887 8.05105,8.57851 13.08873,15.15017 13.08871,17.07423 -4e-5,3.78569 22.45009,19.70035 27.94812,19.81215 8.56686,0.17418 22.63141,9.92496 49.73474,34.48046 27.20119,24.64416 27.24472,24.69354 36.92301,41.88569 8.30681,14.75585 9.68972,18.2413 9.68965,24.42134 -5e-5,4.57075 1.87289,12.38325 5.11787,21.34797 3.98335,11.00451 5.11793,16.36966 5.11784,24.20082 -6e-5,5.53397 0.44073,10.06178 0.97955,10.06178 0.53881,10e-6 5.30966,-4.14868 10.6019,-9.2193 13.21358,-12.66029 57.75121,-40.21204 86.51432,-53.51927 30.37404,-14.0525 35.73642,-18.7344 46.16086,-40.30292 l 7.79859,-16.13559 0.0133,-15.2847 c 0.0133,-14.95423 -0.0797,-15.38106 -4.30295,-19.74131 l -4.31655,-4.45662 -20.21384,1.28348 -20.21383,1.28347 -13.07774,8.95238 c -10.10762,6.91917 -14.08465,10.66945 -17.51134,16.51298 -3.17019,5.4061 -6.19402,8.41664 -10.61113,10.56451 l -6.1775,3.00388 -7.0132,-4.35975 -7.01322,-4.35977 1.83968,-24.65855 c 1.75856,-23.57156 2.12924,-25.42171 8.40856,-41.9708 6.37533,-16.80209 6.92527,-17.67106 18.66324,-29.48934 13.35832,-13.44946 27.88827,-23.7708 33.46376,-23.77073 1.98952,2e-5 10.98426,-2.96107 19.98829,-6.5802 l 16.37098,-6.58024 25.62548,2.8e-4 25.62547,2.8e-4 21.55078,10.81836 c 20.07545,10.07777 22.3521,11.65446 33.25644,23.03184 10.70651,11.17099 12.66661,14.21062 22.9634,35.61068 11.20721,23.2922 11.27108,23.49273 14.23527,44.69047 l 2.97752,21.29328 -5.98992,27.67279 c -4.22052,19.49832 -7.39248,30.48687 -10.73797,37.19926 -2.61143,5.23958 -5.95032,12.81669 -7.41974,16.83805 -1.53038,4.1881 -7.05988,12.62139 -12.9438,19.74112 -16.06766,19.44241 -58.07288,62.87895 -60.80693,62.87891 -1.35501,-10e-6 -7.34938,4.16596 -13.32082,9.25772 -5.97144,5.09176 -16.68212,12.80187 -23.80153,17.13356 l -12.94436,7.87582 5.63266,2.37187 c 3.09798,1.30453 11.88407,3.88654 19.52465,5.7378 7.64058,1.85128 23.10453,6.24999 34.36432,9.77493 11.2598,3.52495 33.96219,9.02207 50.44977,12.21584 35.55281,6.88685 47.88305,6.87342 72.23741,-0.0786 13.09869,-3.73912 15.18997,-4.8374 21.98084,-11.54376 8.40145,-8.2969 12.85882,-9.29983 21.98645,-4.94704 4.931,2.3515 5.16769,2.81056 5.16761,10.02267 -7e-5,5.88319 -1.44084,10.64133 -6.50097,21.4694 -7.72868,16.53843 -11.80118,20.53551 -37.51146,36.8168 -17.62612,11.16191 -17.97246,11.30304 -40.62319,16.55336 l -22.8455,5.29548 -55.56799,-1.73739 c -30.5624,-0.95556 -69.38688,-1.72464 -86.27663,-1.70906 -36.90573,0.0341 -52.39245,2.88287 -67.05206,12.33445 -8.56253,5.52057 -9.15514,7.48363 -2.53636,8.40195 2.65375,0.36821 4.0987,2.0611 5.83307,6.83398 2.19935,6.05247 2.17207,6.44207 -0.59246,8.4635 -5.0814,3.71551 -8.617,1.98216 -10.07119,-4.93749 -0.71836,-3.41817 -1.83181,-6.21486 -2.47433,-6.21487 -2.73255,-3e-5 -2.88604,3.51108 -0.44971,10.28655 l 2.60268,7.23806 -4.1643,4.34651 c -2.29037,2.39059 -4.67134,4.03314 -5.29103,3.65013 -0.61971,-0.383 -2.23658,-4.03794 -3.59309,-8.12211 -1.73408,-5.22105 -2.92559,-6.96647 -4.01321,-5.87887 -1.08761,1.08758 -0.74668,4.1898 1.14833,10.44886 l 2.69521,8.90201 -4.48793,4.48783 c -5.38292,5.38272 -7.72299,4.43792 -7.72291,-3.1182 4e-5,-3.85164 -0.75202,-5.89512 -2.4027,-6.52857 -3.67033,-1.40848 -3.79819,-0.43917 -1.24297,9.42219 l 2.36743,9.13662 -4.76596,4.91712 c -2.62129,2.7044 -5.29493,4.91711 -5.94143,4.9171 -0.64651,-10e-6 -1.17542,-2.93805 -1.17538,-6.52899 5e-5,-5.03236 -0.67033,-6.88777 -2.92455,-8.09422 -3.5045,-1.8756 -3.58782,-1.20017 -1.34723,10.92105 1.56277,8.45437 1.53585,8.57515 -2.9003,13.0112 -4.37467,4.37457 -4.52769,4.41151 -6.64912,1.60556 -1.48105,-1.9589 -2.18617,-6.52603 -2.21781,-14.36469 l -0.0464,-11.49262 10.14088,-16.29127 c 9.74338,-15.65267 10.8468,-16.83536 28.14992,-30.17234 25.56924,-19.70836 33.44911,-23.42042 61.87869,-29.14988 l 23.39711,-4.71526 54.83682,3.50345 c 54.29091,3.46858 55.16434,3.47862 87.73895,1.00957 19.05054,-1.44397 36.59665,-3.54567 41.67782,-4.99224 6.19278,-1.76303 14.58555,-6.4711 28.51534,-15.99615 18.90999,-12.93048 20.00026,-13.95412 25.94007,-24.35492 4.59928,-8.05346 6.20419,-12.46198 6.21504,-17.07196 0.0204,-8.69863 -3.01138,-8.1778 -13.83813,2.37727 -9.72683,9.48272 -13.70539,10.95818 -47.56482,17.63962 -14.84519,2.92938 -15.57845,2.94444 -22.11215,0.45394 -6.26018,-2.38624 -9.43667,-2.44886 -43.13832,-0.85054 -36.18651,1.71617 -36.57937,1.70263 -73.66952,-2.53582 -37.08189,-4.2375 -37.5002,-4.25191 -75.30925,-2.59589 l -38.02024,1.66527 -8.55358,7.31946 c -7.58871,6.49381 -10.64031,7.9528 -27.05299,12.93425 -14.39137,4.36795 -20.94348,5.61645 -29.50565,5.62225 l -11.00622,0.007 -35.90281,36.19192 c -44.25419,44.61055 -48.61868,50.8305 -51.14123,72.88251 -2.0315,17.75947 -3.41775,19.57702 -9.49244,12.44583 z m -72.33537,-65.85799 c 1.9358,-3.61697 1.90627,-4.48306 -0.15288,-4.48308 -1.70148,-2e-5 -5.51438,4.23264 -5.59846,6.21478 -0.0974,2.29538 4.30556,0.96969 5.75134,-1.7317 z m 4.43848,-7.40766 c 0,-0.80428 -0.98705,-1.46233 -2.19346,-1.46234 -1.20641,-2e-5 -2.19348,0.65801 -2.19349,1.46229 -10e-6,0.80427 0.98704,1.46232 2.19346,1.46234 1.20641,10e-6 2.19348,-0.65802 2.19349,-1.46229 z m -29.24619,-12.31041 c 0,-0.33636 0.39944,-1.65244 0.88764,-2.92463 1.30304,-3.39552 -2.74603,-2.89382 -4.9352,0.61151 -1.59885,2.5601 -1.46043,2.92461 1.11054,2.92464 1.61536,2e-5 2.93702,-0.27518 2.93702,-0.61152 z m 8.51229,-14.17769 c 2.67103,-4.08384 4.54477,-7.73682 4.16386,-8.11774 -1.42269,-1.42273 -6.70874,3.18299 -9.64107,8.40026 -3.53087,6.28215 -3.68617,7.20449 -1.20711,7.16888 1.00534,-0.0146 4.01329,-3.36756 6.68432,-7.4514 z m -15.82366,-4.22095 c 1.20197,-2.24585 1.1121,-2.92462 -0.38722,-2.92463 -2.14936,-3e-5 -5.46205,2.83794 -5.46207,4.67935 -2e-5,2.37543 4.33482,1.07502 5.84929,-1.75472 z m 183.27024,-18.73042 c 5.76782,-4.67287 12.79009,-9.37889 15.60506,-10.45783 2.81497,-1.07894 14.3308,-8.57346 25.59072,-16.6545 15.46099,-11.09607 23.0016,-15.52217 30.80371,-18.08079 5.68213,-1.86339 18.44159,-7.65439 28.35437,-12.86887 l 18.02322,-9.48089 25.76561,2.9e-4 25.76562,2.9e-4 35.81289,-24.86307 c 22.19209,-15.40685 39.01087,-28.21328 44.2213,-33.6717 l 8.40841,-8.80862 2e-4,-17.42786 c 1.8e-4,-16.63347 0.22213,-17.91487 4.86909,-28.11166 3.78247,-8.29984 6.00182,-11.29388 9.94612,-13.41797 3.57263,-1.92394 6.42913,-5.3903 9.63935,-11.69738 l 4.56215,-8.9632 -2.0466,-13.16087 c -1.12563,-7.23848 -2.06071,-21.7528 -2.07796,-32.25405 l -0.0314,-19.09319 -10.11208,-4.89204 c -9.45562,-4.57446 -10.78821,-5.85068 -20.52691,-19.65843 -7.806,-11.06753 -14.09204,-17.87993 -25.09485,-27.19622 -13.66886,-11.57365 -15.60409,-12.7058 -28.09471,-16.436 -12.66045,-3.7809 -55.12143,-11.34893 -63.67454,-11.34902 -2.86983,-3e-5 -6.15528,2.27955 -12.11828,8.40818 -7.55038,7.76008 -8.69294,9.88228 -14.82205,27.53061 -5.80811,16.72407 -6.77289,21.26326 -7.69239,36.19224 -1.02445,16.63281 -0.97376,17.06985 1.97967,17.06989 2.18151,2e-5 4.79887,-2.88305 9.33838,-10.28642 5.91659,-9.64921 7.22506,-10.81548 21.12171,-18.82635 l 14.81438,-8.53992 18.08784,-1.61119 c 17.08166,-1.52154 18.64518,-1.43172 28.10681,1.61474 9.77072,3.14599 10.12399,3.43395 14.25745,11.62253 3.67664,7.28358 4.23847,10.02972 4.23836,20.71618 -1.3e-4,11.6905 -0.36672,13.10457 -7.17917,27.69325 -4.84375,10.37273 -10.77843,19.89481 -18.24405,29.27225 l -11.06502,13.89855 -21.60448,8.33714 c -11.88247,4.58541 -22.64917,9.51808 -23.92603,10.96146 -1.27685,1.44338 -9.68961,6.31945 -18.69502,10.83572 -9.60851,4.8187 -22.24349,12.7995 -30.58081,19.31616 -21.05151,16.45435 -49.81227,45.00303 -61.12389,60.67316 -5.4359,7.5304 -11.79821,15.99477 -14.13846,18.8097 -2.46845,2.96912 -7.57126,14.02087 -12.1532,26.32155 l -7.89821,21.2035 -0.027,17.91337 c -0.0178,11.85425 0.50662,17.91338 1.55037,17.91339 0.86751,10e-6 6.2964,-3.82324 12.0642,-8.49611 z m -23.87707,-46.20375 c 8e-5,-7.29286 13.36815,-33.68217 24.90361,-49.16109 l 11.46982,-15.39086 -1.5476,-11.66188 c -1.04353,-7.86338 -3.39481,-15.77341 -7.21872,-24.28478 -5.14161,-11.44429 -5.6711,-13.77523 -5.67098,-24.96455 l 1.4e-4,-12.34167 -13.52629,-12.07328 c -14.36457,-12.82151 -37.39877,-25.98881 -51.77866,-29.59881 -4.22072,-1.0596 -12.43641,-5.48345 -20.34656,-10.95587 -7.29705,-5.04826 -19.55748,-11.88778 -27.24543,-15.19893 -11.79517,-5.08012 -14.6947,-7.01818 -18.56689,-12.41023 -2.52383,-3.51447 -7.94142,-10.05832 -12.03907,-14.5419 l -7.45028,-8.15197 1.04283,-9.73674 c 0.57357,-5.3552 1.33821,-10.50647 1.69924,-11.44726 0.36102,-0.94079 -2.30091,-5.26793 -5.91542,-9.61587 -6.29568,-7.57317 -6.47655,-8.05112 -4.30462,-11.37471 1.93144,-2.95556 2.0257,-5.09325 0.63643,-14.43473 l -1.63077,-10.96536 12.44731,-13.55981 12.44729,-13.55983 1.7e-4,-14.81455 c 1.5e-4,-14.0202 0.2746,-15.35951 5.11838,-24.97771 2.81502,-5.58973 5.12017,-11.66017 5.12254,-13.48986 0.003,-2.34977 3.69672,-6.54744 12.5777,-14.29395 10.86453,-9.47666 14.25705,-11.53513 24.96139,-15.1457 l 12.38802,-4.17846 9.0333,3.22767 c 21.08935,7.53538 29.2994,12.52586 39.66991,24.11336 8.9069,9.95211 10.1824,12.17398 12.83339,22.35534 2.75356,10.57525 2.82712,12.62632 1.13968,31.77734 l -1.80384,20.4724 -8.60835,15.48208 c -4.7346,8.51513 -8.60836,15.91806 -8.60837,16.45096 -8e-5,7.66224 57.08998,-25.22706 65.23851,-37.58358 2.19338,-3.32607 7.49729,-10.39978 11.78648,-15.71934 7.09997,-8.80557 8.19806,-11.19972 12.25888,-26.72789 l 4.46037,-17.05597 -3.36764,-4.26532 c -2.07931,-2.63358 -4.78756,-4.29628 -7.07933,-4.34625 -5.13736,-0.11208 -12.66244,-9.50788 -21.14978,-26.40764 -3.78142,-7.52946 -10.26306,-17.59167 -14.40365,-22.36046 -8.3675,-9.63703 -14.34841,-12.88524 -43.70669,-23.73696 -13.00066,-4.80545 -20.76838,-8.83995 -31.99836,-16.61973 -13.32991,-9.23456 -16.22496,-10.59614 -28.62044,-13.46062 -13.33742,-3.08216 -14.83224,-3.12982 -45.50419,-1.45094 -26.10824,1.42907 -78.19464,6.97124 -90.21413,9.59907 -1.61276,0.3526 -7.04165,3.69474 -12.0642,7.42697 -7.06203,5.24776 -9.13192,7.63569 -9.13195,10.53513 -3e-5,2.37008 -3.76554,8.7588 -10.23641,17.36751 -7.43797,9.89533 -10.23637,14.83255 -10.23641,18.06007 -3e-5,2.61097 -4.57604,13.5783 -11.10193,26.60797 -10.37554,20.71593 -11.29219,23.32181 -14.01046,39.82969 -1.96887,11.95675 -3.14816,27.82114 -3.65014,49.1033 l -0.74156,31.43979 5.2777,19.74133 c 7.10083,26.56078 11.71075,37.36767 19.3588,45.38224 3.48011,3.64689 6.32747,7.47386 6.32746,8.50437 -6e-5,4.99998 17.41132,23.82258 31.43942,33.98765 8.04267,5.82789 18.95698,14.43321 24.25402,19.12293 8.90517,7.88418 10.16249,8.52679 16.68357,8.52686 4.53307,5e-5 16.24224,2.93049 32.776,8.20281 24.41866,7.78665 26.17984,8.60256 34.72195,16.08586 4.9492,4.33572 10.22075,7.88315 11.71457,7.88317 1.56922,10e-6 12.99772,10.34237 27.06642,24.49409 23.33408,23.47176 24.6693,25.13491 31.99142,39.84847 4.20258,8.44492 9.7936,22.66219 12.4245,31.59393 2.6309,8.93174 6.5058,19.63851 8.61089,23.79282 3.38952,6.68907 4.15752,7.37667 6.71221,6.00948 1.60751,-0.86029 2.88478,-3.05619 2.8848,-4.9596 z" style="opacity:1;fill:#000000;fill-opacity:0;fill-rule:evenodd;stroke:none;stroke-width:2.2218;stroke-miterlimit:4;stroke-dasharray:none"></path>
    <path id="path2434" d="m 511.91849,956 h -1.53584 L 446.422,891.35095 382.46136,826.70189 290.57668,826.68521 198.692,826.66852 197.96269,734.88473 197.2334,643.10094 132.6167,578.49986 68,513.89881 l 9.658333,-9.95559 9.658304,-9.95584 54.991583,-54.68345 54.99159,-54.68348 v -92.57071 -92.57068 h 92.9663 92.9663 L 447.62035,133.73953 512.00826,68 l 64.30048,65.73953 64.30047,65.73953 h 92.98073 92.98075 v 92.45737 92.4574 L 891.28534,449.0814 956,513.76901 l -64.68152,64.66585 -64.68152,64.66585 -0.72924,91.78379 -0.72923,91.78379 -90.49254,-0.90537 -90.49248,-0.90535 -65.36957,65.5712 L 513.45433,956 Z m -3.29702,-50.42485 0.8628,-14.76742 -4.7535,-3.47202 -4.75348,-3.47201 -2.37418,1.4657 -2.37419,1.46571 v 10.08659 10.08656 l 6.26486,6.68715 6.26487,6.68717 z m 14.45129,7.31428 5.56877,-5.03414 v -13.90664 -13.90663 l -5.56877,5.03414 -5.56877,5.03415 v 13.90663 13.90664 z m -33.93786,-25.15805 0.86695,-13.28467 -5.73962,-5.73332 -5.73962,-5.73331 v 13.61036 13.61037 l 4.87267,5.40763 4.87268,5.40762 z m 53.80708,5.34655 5.19024,-4.69193 -0.19575,-7.21758 -0.19574,-7.21757 -1.99275,-5.04877 -1.99273,-5.04878 -4.59747,5.07456 -4.59746,5.07456 1.59567,11.88372 1.59571,11.88372 5.1902,-4.69193 z m -71.64195,-23.16136 2.52279,-11.63115 -5.70448,-5.69819 -5.70445,-5.69819 -1.96511,11.61866 -1.9651,11.61866 5.14679,5.71068 5.1468,5.71067 z m 86.02065,8.20627 h 3.6197 l 3.19043,-3.18692 3.19046,-3.18696 -1.48232,-8.63368 -1.48232,-8.63372 -1.1842,-3.78989 -1.1842,-3.78992 -4.14361,3.43514 -4.14364,3.43513 v 12.1754 12.17542 z m -103.4573,-18.5925 1.99276,-5.04878 0.19574,-7.3081 0.19574,-7.30807 -4.14364,-3.43514 -4.1436,-3.43513 -1.17758,3.78992 -1.17757,3.78989 -1.53428,6.85074 -1.53428,6.85077 4.66705,5.15133 4.66702,5.15135 1.99272,-5.04878 z m 119.29725,1.90454 h 2.13356 l 3.20797,-3.86115 3.208,-3.86112 -1.86698,-11.66255 -1.86696,-11.66257 -5.38063,5.37474 -5.38065,5.37472 1.90605,10.14898 1.90605,10.14895 z m -136.44794,-15.27004 2.10928,-1.30216 1.76193,-8.80004 1.76193,-8.80003 -3.13541,-3.77382 -3.13544,-3.77381 h -2.13356 -2.13359 l -1.86782,9.94547 -1.86785,9.94549 3.26564,3.93052 3.26563,3.93054 z m 155.10473,-2.14326 4.24053,-4.23588 -1.9866,-11.74563 -1.98657,-11.74562 -5.22799,5.22222 -5.22796,5.22224 2.97403,10.75926 2.97406,10.75926 z m -166.68496,-19.04077 3.81659,-9.34309 -2.55988,-4.05381 -2.55991,-4.05382 -2.94894,-0.98191 -2.94894,-0.9819 -1.89057,10.06652 -1.89057,10.06651 3.58283,4.31228 3.58284,4.31231 z m 180.74521,4.99596 4.22135,-4.21672 -1.87353,-9.97584 -1.87356,-9.97587 h -2.31727 -2.31728 l -3.37682,4.06436 -3.37681,4.06435 3.3463,10.1282 3.34627,10.12823 z m -195.08738,-16.49294 3.49416,-6.28482 0.0986,-4.52678 0.0986,-4.52675 -3.73957,-3.10015 -3.73954,-3.10015 -3.22142,7.06246 -3.22139,7.06245 v 3.48484 3.48486 l 3.36813,3.36443 3.36813,3.36444 3.49418,-6.28483 z m 208.25459,4.48979 4.26571,-1.63512 v -3.45938 -3.45936 l -3.08783,-8.84804 -3.08783,-8.84802 -3.87313,3.21091 -3.87313,3.21087 v 3.65038 3.65035 l 2.69525,7.08126 2.69523,7.08126 z m -219.13596,-19.87801 3.52567,-10.077 -4.01956,-4.01512 -4.01957,-4.01515 -4.39448,10.5059 -4.39448,10.50591 4.8884,3.58624 4.88838,3.58622 z m 234.38637,8.55853 5.7216,-1.49457 v -1.17709 -1.17708 l -5.73071,-11.22079 -5.73073,-11.22082 -3.84911,3.19099 -3.84913,3.19099 1.14408,3.27328 1.14407,3.27332 2.71416,7.42817 2.71417,7.42821 z m -323.53901,-0.96495 7.66424,-0.11904 20.44309,-30.81544 20.44309,-30.81543 -3.97262,-3.96826 -3.97262,-3.96826 -7.12112,10.56624 -7.12115,10.5662 -17.01359,24.33661 -17.01359,24.33662 7.66427,-0.11905 z m 21.07904,0.11904 h 7.09431 l 14.54648,-24.33661 14.54649,-24.33661 0.92386,-1.77084 0.92386,-1.77088 -3.82825,-3.17366 -3.82822,-3.17366 -14.70874,23.02316 -14.7087,23.02313 -4.0277,6.25799 -4.02769,6.25798 z m 22.0861,-0.0473 6.26486,-0.0473 10.60798,-19.63197 10.60797,-19.632 -3.26641,-3.93146 -3.26639,-3.93146 -2.31057,1.42643 -2.31053,1.42643 -11.29589,20.44064 -11.29588,20.44064 v 1.74359 1.74358 l 6.26486,-0.0473 z m 380.99878,0.0473 h 8.44437 l -13.38854,-17.03279 -13.38857,-17.03279 -16.17212,-21.21046 -16.17212,-21.21045 h -3.08655 -3.08652 l -1.01273,3.03484 -1.01274,3.03485 21.22074,27.55975 21.22074,27.55975 3.99481,7.64865 3.99484,7.64865 z M 235.26238,803.0269 h 8.34213 l 20.70875,-21.55528 20.70874,-21.55528 21.76793,-23.1204 21.76795,-23.12039 -3.29337,-3.96389 -3.29337,-3.96389 -22.70211,22.91229 -22.70212,22.91229 -24.82331,25.72728 -24.82331,25.72727 z m 29.01253,-0.13322 9.59547,-0.13323 27.84384,-33.42484 27.84384,-33.42485 4.86262,-6.43883 4.86265,-6.43883 -3.87144,-3.20945 -3.87141,-3.20946 -29.96356,34.16716 -29.96357,34.16715 -8.46695,9.03931 -8.46692,9.03932 9.59543,-0.13323 z m 26.02731,0.13322 h 7.15058 l 24.11385,-32.55337 24.11386,-32.55335 0.29191,-3.99988 0.29194,-3.99985 -2.95061,-1.05004 -2.95064,-1.05003 -27.67758,35.0888 -27.67762,35.08883 -0.92812,2.51444 -0.92814,2.51445 z m 83.21377,0 h 6.44352 l 6.22666,-12.80228 6.22666,-12.80228 -3.22838,-3.88568 -3.22838,-3.88568 h -1.99652 -1.99651 l -3.57774,7.64865 -3.57774,7.64865 -3.86751,9.03931 -3.86754,9.03931 z m 276.94234,-0.0654 6.26487,0.0656 v -1.48311 -1.48315 l -7.29592,-14.50948 -7.29593,-14.50952 -0.98993,-1.09167 -0.98996,-1.09167 -4.00275,3.31835 -4.00274,3.31834 6.02373,13.7004 6.02377,13.7004 6.26486,0.0656 z m 19.23745,0.0656 h 6.71404 l -3.23211,-6.25798 -3.23211,-6.25799 -9.6673,-16.10794 -9.6673,-16.10792 -3.88583,3.22142 -3.88583,3.22141 10.0712,19.14449 10.07123,19.14451 z m 19.69835,0 h 6.31045 v -1.61103 -1.61102 l -17.03612,-26.26939 -17.03614,-26.26935 -3.89636,3.23012 -3.89633,3.23012 5.90699,10.04832 5.90699,10.0483 8.71504,14.60197 8.71504,14.60196 z m 21.92884,0 h 6.65668 v -1.4669 -1.4669 l -21.29597,-29.82303 -21.29598,-29.82303 -1.93241,-2.20386 -1.93242,-2.20387 -3.1864,3.83514 -3.18639,3.83517 19.7581,29.65863 19.7581,29.65865 z m 49.00399,0 h 8.45417 l -17.78133,-20.16462 -17.78133,-20.16462 -13.00265,-15.2973 -13.00266,-15.2973 -7.22208,-8.16914 -7.22208,-8.16912 -4.15901,4.15444 -4.159,4.15444 14.75609,16.53068 14.75612,16.53065 18.95478,22.94594 18.95481,22.94595 z m 27.85208,0 h 8.4726 l -11.91633,-13.2113 -11.91641,-13.2113 -34.81402,-35.44318 -34.81401,-35.44314 -3.73684,3.09789 -3.73684,3.0979 8.71924,10.09463 8.71922,10.09466 33.27528,35.46192 33.27529,35.46192 z m 15.62318,-14.5662 0.89908,-8.39176 -2.29127,-1.99224 -2.29099,-1.99223 -42.59546,-39.56132 -42.59537,-39.56132 -3.17294,1.05649 -3.17292,1.05649 -0.95265,2.85481 -0.95265,2.8548 34.19124,32.29675 34.19123,32.29677 13.92198,13.73728 13.92192,13.73725 z m -582.13905,6.13848 2.08829,-0.0837 47.28472,-45.71893 47.28472,-45.71889 -3.41232,-3.40858 -3.41229,-3.40854 -7.67544,6.96072 -7.6754,6.96071 -38.28528,35.70373 -38.28529,35.70373 v 6.54671 6.54669 l 2.08829,-0.0837 z m 5.68382,-30.09766 7.77211,-5.52814 19.37564,-17.66476 19.37564,-17.66474 17.46772,-14.87615 17.46772,-14.87612 -3.21833,-3.87358 -3.21833,-3.87359 -12.8572,10.35878 -12.8572,10.35874 -28.53994,23.53131 -28.53994,23.53131 v 8.05255 8.05255 z m 576.50674,-2.94657 0.95031,-7.20135 -10.69565,-9.33124 -10.69571,-9.33122 -25.05946,-20.99434 -25.05946,-20.99435 -4.82044,-4.12955 -4.82043,-4.12952 -4.09374,3.39375 -4.09372,3.39378 22.83607,20.22953 22.8361,20.22957 20.88288,18.03315 20.88294,18.03315 z m -573.8374,-24.96925 10.44144,-8.57277 28.49179,-21.59626 28.4918,-21.59625 0.0482,-2.17327 0.0482,-2.1733 -3.84429,-1.47358 -3.84429,-1.47357 -35.13709,25.7864 -35.13715,25.78638 v 8.02952 8.0295 z m 573.58319,7.95173 0.69609,0.0815 -0.0418,-7.64865 -0.0418,-7.64864 -34.27259,-25.72728 -34.27254,-25.72727 h -3.11074 -3.11075 l -1.48931,2.40712 -1.48934,2.40713 29.64122,23.32015 29.64108,23.32015 8.57702,7.56712 8.57673,7.5671 0.6961,0.0815 z m -565.23004,-35.17469 18.79459,-13.28668 15.93651,-11.60636 15.93648,-11.60634 -4.12933,-3.42329 -4.12932,-3.42328 -30.60178,20.21179 -30.60175,20.21176 v 8.10451 8.10454 z m 565.46532,6.23523 0.93165,-4.67988 -1.55341,-4.04369 -1.5534,-4.04372 L 773.8227,684.78644 745.98568,666.742 h -2.56756 -2.5676 l -1.39302,3.62621 -1.39306,3.62618 10.1444,6.79359 10.14438,6.79358 22.27507,16.34822 22.27513,16.34825 z m -562.68094,-29.7696 18.7946,-11.44805 7.65705,-5.39933 7.65706,-5.39931 v -3.98258 -3.98261 h -3.09379 -3.09381 l -23.35784,14.09332 -23.35786,14.09331 v 6.73666 6.73665 z m 562.44566,11.44644 0.69609,0.0615 v -6.84571 -6.8457 l -24.02483,-14.17479 -24.02478,-14.17478 -3.81906,1.46392 -3.81907,1.4639 v 2.60168 2.60171 l 27.14775,16.89331 27.1478,16.8933 0.6961,0.0615 z m -565.23004,-29.49449 18.79459,-10.35903 4.93346,-3.29278 4.93345,-3.29279 -4.13163,-3.42518 -4.13164,-3.4252 -19.59641,10.57285 -19.59642,10.57286 v 6.50416 6.50413 z m 276.29767,8.50638 95.32581,-0.18969 2.69075,-4.80282 2.69074,-4.80282 6.72688,-19.75605 6.72685,-19.75607 8.08064,-12.79931 8.08065,-12.7993 1.92033,-6.39146 1.92034,-6.39146 -3.03211,-3.64944 -3.03211,-3.64946 -6.91085,1.31965 -6.91081,1.31963 -9.62417,13.38141 -9.62414,13.38141 -12.1104,7.08935 -12.1104,7.08938 -19.36756,2.73933 -19.36757,2.7393 -34.1087,1.92112 -34.10871,1.92112 v -5.62637 -5.62638 l 20.19481,-19.12755 20.19483,-19.12754 18.09045,-10.71679 18.09048,-10.71681 26.45165,-18.34725 26.45164,-18.34725 14.50695,-14.75257 14.50692,-14.75258 6.85329,-11.80993 6.85326,-11.8099 3.32486,-17.17745 3.32489,-17.17742 -3.28095,-18.97983 -3.28095,-18.9798 -7.48223,-15.06712 -7.48219,-15.06714 -12.68034,-12.74613 -12.68034,-12.74615 -15.48276,-7.55006 -15.48276,-7.55007 -12.21047,-2.81193 -12.21047,-2.81192 -20.04974,-0.0679 -20.04974,-0.0681 -14.38438,3.08151 -14.38441,3.08152 -11.94615,5.27854 -11.94615,5.27854 -14.00458,10.5113 -14.00459,10.5113 -5.81834,7.38868 -5.81833,7.38871 -4.53047,10.59252 -4.53047,10.59254 -0.051,20.85995 -0.051,20.85996 6.18086,13.90663 6.18089,13.90664 11.7004,12.14602 11.70042,12.14606 11.13754,5.17616 11.13754,5.17619 16.81242,0.0612 16.81241,0.0612 12.26062,-6.25799 12.26059,-6.25799 5.39837,-7.40653 5.39836,-7.40651 -1.80793,-7.19546 -1.8079,-7.19543 h -4.32381 -4.32382 l -11.63335,6.74614 -11.63335,6.74613 -9.74535,1.70749 -9.74534,1.70751 -9.74535,-5.18278 -9.74534,-5.18275 -6.26487,-12.20419 -6.26486,-12.20418 V 426.84803 410.6386 l 5.54541,-10.85794 5.54541,-10.85794 10.22398,-9.91852 10.22398,-9.91849 13.97201,-4.1447 13.97209,-4.1449 h 12.84364 12.84362 l 15.09762,9.03931 15.0976,9.03931 6.38395,9.48883 6.38398,9.48881 4.1508,13.96195 4.15082,13.96193 v 15.96682 15.96685 l -11.70057,22.79547 -11.70059,22.79548 -15.78017,16.00949 -15.78019,16.00948 -17.76548,11.91318 -17.76549,11.91317 -17.6445,15.30687 -17.6445,15.30689 -14.01888,19.71711 -14.0189,19.7171 -9.7092,20.15155 -9.70918,20.15155 1.34049,3.48973 1.34051,3.48973 95.32582,-0.18969 z m 288.93237,1.44067 0.69609,0.13962 v -6.69807 -6.69808 l -18.47411,-10.1435 -18.47414,-10.14347 -4.03251,1.54572 -4.03254,1.54573 0.92765,2.74444 0.92764,2.74448 20.88288,12.41164 20.88294,12.41164 0.6961,0.13963 z m -580.54416,-20.17697 3.48049,-1.44256 14.61801,-6.17917 14.61802,-6.17913 v -2.06995 -2.06995 l -3.77217,-3.12718 -3.77218,-3.12719 -14.26069,6.26328 -14.2607,6.26329 -0.0657,6.55556 -0.0657,6.55556 3.48048,-1.44256 z m 580.54416,0.71246 0.69609,0.1349 v -6.47788 -6.4779 l -13.81806,-6.46486 -13.81784,-6.46487 -4.51663,3.74437 -4.51664,3.74436 17.63846,9.06345 17.63852,9.06343 0.6961,0.13489 z m -580.21941,-19.45093 3.15574,-0.11654 9.25983,-4.93093 9.25983,-4.93096 -4.27941,-3.54766 -4.2794,-3.5477 -9.56116,3.152 -9.56115,3.15202 1.42499,5.4432 1.42499,5.44319 3.15574,-0.11653 z m 578.50228,0.0437 1.76363,0.0729 1.42504,-5.4432 1.42505,-5.44319 -9.56129,-3.15202 -9.56102,-3.152 -4.43143,3.67366 -4.43135,3.67366 10.80405,4.84861 10.80397,4.8486 1.76335,0.0729 z m -586.6233,-13.95915 2.9236,-0.12543 8.00717,-3.41572 8.00716,-3.41575 -4.31563,-3.57771 -4.3156,-3.57773 -9.95643,1.8658 -9.9564,1.86574 v 1.91553 1.91553 l 3.34126,3.33759 3.34127,3.33759 z m 599.47796,-3.44915 3.48048,-2.66918 v -2.22506 -2.22509 l -10.07613,-3.32177 -10.0764,-3.32179 -2.41072,3.8014 -2.411,3.80144 -0.0418,1.68364 -0.0418,1.68365 9.04925,2.73099 9.04924,2.73098 3.48048,-2.66921 z m -607.94433,-11.92613 8.60559,-1.84138 2.2235,-1.3112 2.22349,-1.31123 -3.36325,-4.04803 -3.36326,-4.04802 -8.60559,1.8414 -8.60558,1.84138 -2.2235,1.3112 -2.2235,1.31123 3.36326,4.04802 3.36326,4.04803 z m 615.74061,1.46865 2.9236,0.12544 3.34126,-3.3376 3.34127,-3.33759 v -2.09904 -2.09901 l -9.77598,-1.83195 -9.77569,-1.83195 -4.49623,3.72737 -4.49622,3.72739 8.00705,3.41575 8.00734,3.41572 2.9236,0.12544 z m -629.05149,-16.64332 9.82793,-2.21411 1.23888,-1.23755 1.23888,-1.23752 -3.93266,-3.26025 -3.93267,-3.26024 -11.54439,1.84399 -11.54436,1.84399 4.41021,4.86791 4.41025,4.86791 z m 643.09871,2.64254 3.0489,0.21944 4.70366,-5.1919 4.70394,-5.1919 -11.7192,-1.87192 -11.71919,-1.87192 -4.18493,4.18031 -4.18493,4.18028 3.97471,1.27251 3.97498,1.27249 4.17658,1.39144 4.17658,1.39147 3.0489,0.21944 z m -655.23437,-16.94696 11.61815,-2.60755 0.77136,-0.77051 0.77136,-0.77052 -6.73454,-3.60026 -6.73453,-3.60026 -10.23888,1.91873 -10.23888,1.9187 4.58391,5.05962 4.5839,5.0596 z m 667.85459,0.15603 7.31625,0.32263 3.19647,-3.84718 3.19619,-3.84716 -4.47534,-1.7155 -4.47534,-1.71547 h -7.78458 -7.7843 l -3.27332,3.93961 -3.27305,3.93962 5.02053,1.3004 5.02052,1.30041 z m -687.11779,-14.75336 8.06909,-1.61205 h 4.44727 4.44727 l -5.86756,-5.86112 -5.86756,-5.86112 -11.6397,1.96434 -11.63967,1.96437 4.9909,5.50881 4.99087,5.5088 z m 705.12579,0.72415 3.0489,0.44512 4.72845,-5.21899 4.72816,-5.21902 -4.52435,-1.7343 -4.52462,-1.73432 h -7.69381 -7.69381 l -4.86293,5.36746 -4.86293,5.36746 9.30402,1.14073 9.30402,1.14076 z m -580.06189,-11.78237 11.78295,-1.82102 45.80315,-1.74959 45.80318,-1.74962 6.40402,-6.397 6.40406,-6.39702 -0.11138,-3.6031 -0.11137,-3.60307 -4.154,7.64865 -4.15402,7.64865 -3.39157,0.10569 -3.39155,0.10569 -43.15796,2.5107 -43.15795,2.51071 -13.22582,1.93352 -13.22583,1.93352 0.0459,-5.24539 0.0457,-5.24536 6.32659,-11.1253 6.32657,-11.12531 41.65825,0.46456 41.65823,0.46457 -38.98137,-2.39464 -38.98138,-2.39464 -4.41684,1.27766 -4.41684,1.27766 -6.4027,13.65498 -6.40266,13.65501 1.82096,4.74013 1.82096,4.74013 11.78293,-1.82102 z m -139.10291,-7.2418 h 13.92192 l -5.03965,-5.56265 -5.03968,-5.56265 h -13.92192 -13.92192 l 5.03968,5.56265 5.03965,5.56265 z m 144.621,-1.03554 11.83363,-1.76798 43.59856,-1.79924 43.59852,-1.79927 3.03991,-6.6645 3.03988,-6.6645 v -1.25978 -1.2598 h -53.77979 -53.7798 l -4.69227,9.82901 -4.69227,9.82899 v 1.66254 1.66251 z m 583.16147,1.03554 h 13.92192 l 5.03974,-5.56265 5.03973,-5.56265 h -13.92192 -13.92192 l -5.03973,5.56265 -5.03974,5.56265 z M 128.55328,527.67573 h 13.92192 l -5.03965,-5.56266 -5.03968,-5.56265 h -13.92192 -13.92192 l 5.03968,5.56265 5.03965,5.56266 z m 276.52713,-0.80717 1.73618,-1.73424 -1.6488,-4.29195 -1.64878,-4.29195 -13.31322,0.50133 -13.3132,0.50134 13.22582,1.04171 13.22583,1.04172 v 4.48317 4.48314 z m 490.23672,0.80717 h 13.92192 l 5.03974,-5.56266 5.03973,-5.56265 H 905.3966 891.47468 l -5.03973,5.56265 -5.03974,5.56266 z m -777.10772,-19.55774 13.65737,-0.0885 4.87268,-3.69482 4.87267,-3.69483 v -1.77935 -1.77938 h -13.49037 -13.4904 l -5.03965,5.56265 -5.03968,5.56265 z m 787.18719,0.0884 h 13.92192 l -5.03973,-5.56266 -5.03974,-5.56265 h -13.92192 -13.92192 l 5.03974,5.56265 5.03973,5.56266 z m -760.30399,-17.01702 4.87267,0.32905 5.42042,-5.41446 5.42039,-5.41444 -12.04007,-1.80355 -12.04007,-1.80355 -6.02919,5.13202 -6.0292,5.13199 7.77618,1.75694 7.7762,1.75691 z m 741.34011,-2.01677 12.86358,-1.02197 -4.77383,-5.26942 -4.77411,-5.26942 h -12.09815 -12.09814 v 1.86699 1.867 l 4.00839,4.42439 4.0084,4.4244 z M 156.58529,472.0491 h 12.18881 l 3.26052,-3.92437 3.26054,-3.92437 -2.2235,-1.3629 -2.2235,-1.36288 -8.70114,-0.90454 -8.70115,-0.90452 -4.52468,3.75101 -4.52468,3.75104 v 2.44075 2.44078 z m 707.2193,-0.0426 8.70844,-0.0426 3.61218,-2.28889 3.61246,-2.28892 -4.65661,-3.86029 -4.6566,-3.86028 -8.70092,0.90451 -8.7012,0.90454 -2.22361,1.36288 -2.22333,1.36291 3.26051,3.92437 3.26051,3.92437 z m -676.66135,-19.28575 5.15754,-4.29949 -11.78373,-2.32777 -11.78377,-2.32781 -4.30956,4.30486 -4.30958,4.30485 3.97482,1.35648 3.97482,1.35648 6.96096,0.96596 6.96096,0.96593 z m 661.07631,3.4064 7.58717,-1.21719 3.97471,-1.26728 3.97499,-1.26729 -4.3701,-4.36507 -4.36981,-4.36507 -11.62063,1.96117 -11.6209,1.96117 4.42884,4.88838 4.42884,4.88835 z m -651.41695,-12.10511 0.89499,0.21388 3.97769,-3.97332 3.97768,-3.97332 v -1.45861 -1.45858 l -10.30074,-2.84107 -10.30075,-2.84105 -5.31767,4.79632 -5.31764,4.79631 10.74571,3.26292 10.74575,3.26291 z m 637.56297,-2.82522 10.30361,-2.39099 2.68499,-0.0662 2.6847,-0.0665 -4.52908,-4.52433 -4.52936,-4.52433 -13.01783,1.94996 -13.01755,1.94999 4.55859,5.0317 4.5586,5.03167 z m -622.78869,-11.08142 1.74737,0.21389 3.52211,-4.23922 3.52207,-4.23919 -1.09287,-0.91055 -1.09287,-0.91055 -9.50903,-3.20965 -9.50904,-3.20965 -5.41328,4.88273 -5.41326,4.88276 10.74571,3.26291 10.74575,3.26292 z m 612.30938,-3.55526 11.10608,-2.96116 -4.93004,-4.92484 -4.9303,-4.92484 -10.42502,3.19602 -10.42529,3.19602 4.24925,4.69001 4.24897,4.68999 z m -601.36307,-10.34923 1.5561,0.21166 5.40486,-3.96423 5.40485,-3.96419 -6.96096,-2.58975 -6.96096,-2.58978 -4.17658,-1.42707 -4.17658,-1.42707 -5.07442,4.4225 -5.07441,4.42251 9.25098,3.34693 9.25101,3.34694 1.55611,0.21166 z m 578.98804,-0.0845 1.39219,-0.12711 9.25084,-3.34694 9.25112,-3.34694 -5.10295,-4.61288 -5.10266,-4.61286 -11.076,4.88134 -11.076,4.88131 5.53563,3.20551 5.53564,3.20551 1.39219,-0.12711 z m -4.59256,-15.42808 8.76914,-4.45246 0.76152,-0.63887 0.76181,-0.63884 -1.72687,-4.4951 -1.72688,-4.4951 -10.02935,4.18593 -10.02932,4.18592 -1.23591,1.23452 -1.23587,1.23455 3.46132,4.16595 3.46127,4.16596 z m -560.28233,1.60602 1.74737,0.21166 3.19291,-3.84299 3.19288,-3.84298 -11.26147,-4.501 -11.26145,-4.50105 h -1.13168 -1.13169 l -0.99725,4.86733 -0.99726,4.86732 8.45017,3.26505 8.45013,3.26506 1.74734,0.21166 z m 11.18058,-11.03664 4.57477,0.12294 1.42923,-3.72039 1.42922,-3.72039 -15.11492,-7.40492 -15.11494,-7.40492 h -1.33049 -1.33052 v 5.49621 5.49621 l 10.44144,5.50616 10.44144,5.5062 4.57477,0.12293 z m 527.18655,0.12294 h 3.52473 l 12.88379,-5.69279 12.88362,-5.69283 v -6.7972 -6.7972 l -17.83231,8.78379 -17.83211,8.7838 1.42379,3.70623 1.42377,3.7062 z m -511.0051,-12.70777 4.04989,-3.92579 -5.08479,-3.71402 -5.08481,-3.71399 -19.35551,-10.41331 -19.35554,-10.41329 0.89975,7.46519 0.89972,7.46522 19.49069,10.58787 19.49069,10.58788 z m 502.708,1.46167 2.78439,-0.0356 16.70636,-8.96113 16.7063,-8.96111 0.88961,-6.25798 0.88989,-6.25799 h -1.28555 -1.28555 l -22.88549,12.85574 -22.88544,12.85571 3.79055,2.39898 3.79055,2.39898 z m -491.60953,-12.43295 4.01082,-4.00178 -1.22643,-1.09361 -1.22647,-1.09362 -22.27507,-13.82551 -22.27508,-13.8255 -6.26486,-3.32357 -6.26487,-3.32361 v 6.83361 6.83361 l 25.75556,15.41086 25.75555,15.41086 z m 479.51417,1.34054 1.82655,0.0879 23.929,-14.06834 23.92905,-14.06837 v -6.79158 -6.79161 h -1.22875 -1.22847 l -26.70104,17.0658 -26.70108,17.06581 -1.34405,-1.34258 -1.34405,-1.34257 29.27368,-18.9716 29.27376,-18.9716 v -8.20705 -8.20706 l -9.04924,6.74035 -9.04925,6.74035 -24.36342,17.42051 -24.36336,17.42051 v 1.33462 1.33459 l 7.65705,6.73201 7.65706,6.73203 z m -473.08358,-8.49548 2.08829,0.23947 v -1.16317 -1.16321 l 1.49808,-3.89962 1.49806,-3.89961 -28.05905,-19.27379 -28.05907,-19.27382 -5.69204,-3.97018 -5.69206,-3.9702 0.92871,7.92887 0.92873,7.92884 29.23603,20.13856 29.23603,20.13853 2.08829,0.23947 z m 11.46941,-11.69175 2.80056,-0.9325 0.95566,-2.86379 0.95563,-2.86377 -39.06692,-31.01329 -39.06689,-31.01327 v 8.15385 8.15387 l 35.3107,26.65568 35.3107,26.65571 z m 439.51727,0.80583 h 3.0683 l 21.13075,-15.75914 21.13075,-15.75911 13.22588,-10.92246 13.22582,-10.92249 v -6.72562 -6.72561 l -29.99851,22.97724 -29.99845,22.97724 -9.35419,7.31414 -9.35423,7.31417 1.9278,3.11581 1.9278,3.11583 z m -430.97392,-12.10358 2.61036,-0.76005 0.98128,-2.94062 0.98127,-2.94058 -23.08232,-20.68843 -23.08232,-20.6884 -19.49069,-16.3134 -19.49069,-16.3134 -0.89727,7.60345 -0.89724,7.60348 13.15964,11.57088 13.15964,11.57084 26.71901,21.52814 26.71897,21.52811 z m 421.06878,0.97827 h 1.51626 l 17.11399,-13.94343 17.114,-13.9434 22.81268,-18.73719 22.81257,-18.73716 0.15871,-7.64865 0.15871,-7.64865 h -1.35015 -1.35014 l -38.3273,32.88547 -38.32741,32.88546 -3.72019,4.5406 -3.72019,4.54063 1.79624,2.90318 1.7962,2.90314 z m -407.71153,-10.13807 2.13089,-1.31551 v -3.5885 -3.5885 l -47.06525,-44.9206 -47.06526,-44.9206 h -1.66147 -1.66147 v 6.74973 6.74969 l 34.10871,31.77964 34.10871,31.77964 12.48712,11.29525 12.48713,11.29524 z m 411.00668,-9.8916 12.58711,-11.95559 3.2075,-2.78132 3.2075,-2.78133 29.69465,-27.62133 29.69473,-27.62133 v -8.07239 -8.07235 l -2.38454,0.92713 -2.38455,0.92709 -46.80692,45.04755 -46.80697,45.04754 3.70217,4.45596 3.70217,4.45596 z m -401.37279,-2.67029 3.71414,-3.0791 -11.87345,-13.45033 -11.87342,-13.45033 -29.23603,-31.82475 -29.23604,-31.82475 -7.81493,-0.24337 -7.81496,-0.24336 3.63839,5.14153 3.63835,5.14156 41.57189,43.45587 41.57191,43.4559 z m 376.73864,3.23068 h 2.18525 l 46.68691,-47.9779 46.68688,-47.97789 -7.94719,-0.93241 -7.94747,-0.93244 -22.6873,23.18306 -22.6873,23.18303 -19.74621,21.79995 -19.74621,21.79996 1.50871,3.92732 1.50872,3.92732 z m -369.49067,-11.34031 2.22124,0.215 6.82801,-7.35945 6.82801,-7.35947 v -1.35938 -1.3594 L 321.9859,256.12142 296.31524,221.7297 h -8.1735 -8.17351 l 4.1773,4.86732 4.1773,4.86732 25.81052,32.82428 25.81049,32.82428 -1.35419,1.35269 -1.35418,1.3527 -32.84501,-39.04429 -32.84502,-39.0443 h -7.94766 -7.94763 l 36.95395,42.89557 36.95396,42.89555 2.22124,0.21499 z m 361.3591,0.215 h 1.88885 l 30.27079,-35.44398 30.2708,-35.44398 6.51236,-7.66659 6.5124,-7.66659 h -8.18512 -8.18508 l -33.6448,39.95615 -33.6448,39.95616 3.15788,3.15441 3.15788,3.15442 z m -11.34491,-11.67382 2.28486,-0.84215 29.84779,-36.15726 29.84777,-36.15725 -7.58291,-0.90459 -7.58291,-0.90463 -0.57954,0.90463 -0.57954,0.90459 -25.63346,34.31118 -25.63343,34.31117 1.66325,2.68824 1.66322,2.6882 z m -326.76834,-10.91473 3.69733,-3.06513 -2.05248,-3.45358 -2.05248,-3.45354 -18.00795,-26.83019 -18.00795,-26.83015 h -7.64071 -7.64074 l 24.00384,33.34886 24.00381,33.34886 z m 318.53942,1.15114 2.04171,-2.20387 21.18668,-29.90391 21.18669,-29.90394 v -1.38599 -1.38602 l -6.26487,0.008 -6.26486,0.008 -20.02128,29.80589 -20.02131,29.80593 3.05778,3.68033 3.05776,3.68031 2.0417,-2.20387 z m -309.41254,-9.15722 h 2.66657 l 1.69951,-2.74684 1.6995,-2.74683 -11.07486,-18.94193 -11.07483,-18.94192 -5.18422,-6.39521 -5.18421,-6.39522 -5.69975,0.96604 -5.69977,0.96604 17.59277,27.11793 17.59274,27.11794 z m 297.78476,-0.10013 1.74737,-0.10012 16.01021,-26.03303 16.01021,-26.03302 v -1.87345 -1.87348 l -6.07951,0.88878 -6.07954,0.88877 -14.42419,23.64128 -14.4242,23.64128 2.74615,3.47666 2.74616,3.47666 1.74734,-0.10013 z m -287.13249,-11.06423 3.48048,0.0389 0.0398,-4.86732 0.0398,-4.86732 -9.05956,-17.38329 -9.05955,-17.3833 h -6.41786 -6.41787 l 11.95726,22.21157 11.95726,22.21159 3.48048,0.0389 z m 278.19938,-3.53818 3.24141,-3.37608 10.23994,-18.77396 10.2399,-18.77396 h -6.53743 -6.53742 l -10.27499,20.09273 -10.27497,20.09272 3.33105,2.05732 3.33107,2.05729 z M 384.09265,255.1056 h 1.86342 l 2.87813,-3.47666 2.87811,-3.47666 -6.01767,-13.1517 -6.01767,-13.1517 -6.26486,-0.0595 -6.26486,-0.0595 v 1.32906 1.32903 l 7.541,15.35893 7.541,15.3589 z m 256.03417,0 h 1.78059 l 3.57773,-7.64865 3.57774,-7.64865 3.86751,-9.03931 3.86754,-9.03932 h -5.55922 -5.55924 l -6.8517,13.50635 -6.85171,13.50637 3.18509,3.18159 3.18511,3.18162 z m -240.8367,-14.22763 4.14779,-4.14321 -3.10362,-8.8932 -3.10358,-8.89321 -1.81592,0.0426 -1.8159,0.0425 -3.68677,2.3349 -3.68675,2.33492 4.45847,10.65894 4.45849,10.65893 4.14779,-4.14323 z m 229.23406,3.07403 1.74737,-0.0284 4.56191,-10.85379 4.56193,-10.85382 -5.34691,-1.3967 -5.34691,-1.39673 -3.69991,8.80215 -3.69989,8.80215 2.73752,3.47666 2.73755,3.47666 1.74734,-0.0284 z m -217.35936,-14.9357 4.20896,-4.20431 -2.53429,-8.70399 -2.53429,-8.704 -2.68328,-0.16549 -2.68326,-0.16548 -2.66357,4.21799 -2.6636,4.21802 3.67219,8.85569 3.67218,8.85569 4.20896,-4.20434 z m 208.36783,-2.23109 3.58061,-6.4462 0.0986,-4.52675 0.0986,-4.52678 -3.91874,-3.2487 -3.91874,-3.2487 -3.29373,9.96911 -3.29371,9.96908 3.53319,4.25257 3.53319,4.25254 3.58061,-6.44617 z m -194.61127,-8.72903 3.90457,-3.90028 -3.20664,-11.89552 -3.20663,-11.89551 -4.44859,4.4437 -4.44858,4.4437 3.75065,11.35209 3.75065,11.3521 z m 183.40747,-6.6217 3.11675,-10.56476 -2.76158,-3.47666 -2.76161,-3.47666 h -1.97627 -1.9763 l -2.91202,9.47782 -2.91202,9.47779 4.53315,4.56363 4.53314,4.56363 z m -169.75402,-7.87633 4.01745,-5.46976 -1.4875,-5.56265 -1.48751,-5.56265 -0.0381,-6.87606 -0.0382,-6.87605 -6.05055,6.04388 -6.05052,6.04391 3.55861,11.86455 3.55861,11.86459 4.01745,-5.46976 z m 152.8711,3.58661 0.65399,-0.71239 2.80071,-10.24741 2.8007,-10.24741 -5.09384,-4.60479 -5.09381,-4.60479 -2.91333,10.53967 -2.91335,10.53967 4.55249,5.02491 4.55247,5.02492 z m -139.19621,-17.92924 3.8207,-5.03376 0.0507,-5.56266 0.0504,-5.56265 -1.70803,-6.36918 -1.70802,-6.36916 -5.25358,4.74917 -5.25355,4.7492 1.79654,9.96397 1.79654,9.96396 1.2938,2.25243 1.29379,2.25243 z m 127.43903,-6.51921 2.33401,-11.78927 -5.41562,-5.40968 -5.41563,-5.40965 -1.87706,11.72563 -1.87707,11.72563 4.95868,5.47329 4.95871,5.47329 z m -111.96142,-8.43215 5.22651,-2.7941 -0.32942,-6.16011 -0.32945,-6.16013 -1.75884,-7.95557 -1.75886,-7.9556 -4.96545,5.49565 -4.96542,5.49565 1.8272,11.41415 1.82719,11.41412 z m 94.96262,-0.74946 2.06328,-3.23958 0.0426,-8.60823 0.0426,-8.60824 -5.19603,-4.69718 -5.19605,-4.69719 -1.48945,13.20001 -1.48948,13.20001 4.57959,3.34496 4.57956,3.34499 2.06329,-3.23955 z m -78.2447,-17.46609 5.2149,-4.71424 v -10.23069 -10.2307 l -1.86234,-1.86026 -1.86233,-1.86029 -5.09863,4.60913 -5.09862,4.60913 0.0381,5.82691 0.0382,5.82691 1.70802,6.36918 1.70803,6.36916 5.21493,-4.71424 z m 61.30281,-0.19386 1.99275,-5.04878 0.19575,-7.21757 0.19574,-7.2176 -5.19023,-4.6919 -5.19021,-4.69193 -1.5957,11.88372 -1.59567,11.88372 4.59746,5.07456 4.59746,5.07456 1.99273,-5.04878 z m -41.94964,-17.00448 5.35242,-4.57784 V 120.98392 107.6954 h -1.86905 -1.86904 l -5.09192,4.60307 -5.09191,4.60304 v 9.07611 9.07611 l 1.60854,4.18721 1.60856,4.18717 z m 24.31786,-7.63969 0.86695,-13.2847 -5.73962,-5.73332 -5.73962,-5.73332 v 13.61037 13.6104 l 4.87267,5.40762 4.87267,5.40762 z" style="fill:#3a4853;fill-opacity:1;stroke-width:2.78286"></path>
  </g>
</svg>
