<svg viewBox="0 0 1024 1024" height="1024" width="1024" id="svg833" version="1.1" xmlns:xlink="http://www.w3.org/1999/xlink" xmlns="http://www.w3.org/2000/svg">
  <metadata id="metadata839">
    
      
        image/svg+xml
        
        
      
    
  </metadata>
  <defs id="defs837">
    <linearGradient id="linearGradient862">
      <stop id="stop858" offset="0" style="stop-color:#fdfbef;stop-opacity:1"></stop>
      <stop id="stop860" offset="1" style="stop-color:#ded7c7;stop-opacity:1"></stop>
    </linearGradient>
    <radialGradient gradientTransform="translate(-4.4144922e-5,-5.695625e-5)" r="512" fy="512" fx="512" cy="512" cx="512" gradientUnits="userSpaceOnUse" id="radialGradient928" xlink:href="#linearGradient862"></radialGradient>
  </defs>
  
  <g style="display:inline" id="layer1">
    <circle r="512" cy="512" cx="512" id="path856" style="opacity:1;fill:url(#radialGradient928);fill-opacity:1;fill-rule:evenodd;stroke:none;stroke-width:1.51937;stroke-miterlimit:4;stroke-dasharray:none"></circle>
  </g>
  <g style="display:inline" id="g841">
    <path id="path1653" d="" style="opacity:1;fill:#e7ba59;fill-opacity:1;fill-rule:evenodd;stroke:none;stroke-width:0.392762;stroke-miterlimit:4;stroke-dasharray:none"></path>
    <path id="path1819" d="" style="opacity:1;fill:#e7ba59;fill-opacity:1;fill-rule:evenodd;stroke:none;stroke-width:0.785525;stroke-miterlimit:4;stroke-dasharray:none"></path>
    <path id="path1877" d="" style="opacity:1;fill:#e7ba59;fill-opacity:1;fill-rule:evenodd;stroke:none;stroke-width:0.55545;stroke-miterlimit:4;stroke-dasharray:none"></path>
    <path id="path2063" d="" style="opacity:1;fill:#e7ba59;fill-opacity:1;fill-rule:evenodd;stroke:none;stroke-width:0.55545;stroke-miterlimit:4;stroke-dasharray:none"></path>
    <path id="path2089" d="" style="opacity:1;fill:#e7ba59;fill-opacity:1;fill-rule:evenodd;stroke:none;stroke-width:0.277725;stroke-miterlimit:4;stroke-dasharray:none"></path>
    <path id="path2282" d="M 1.2029027,230.50639 1.0274038,0.55718956 203.1926,0.75746959 C 407.52443,0.95989622 462.51284,1.6720356 441.72132,3.8465877 435.98451,4.4465914 417.88831,7.9435997 401.50754,11.617717 311.49135,31.807861 228.72931,75.061662 163.87976,135.80878 86.263086,208.51536 35.019018,297.68416 11.879238,400.30194 8.2273978,416.49673 4.370775,436.65643 3.3089651,445.1013 1.6480583,458.31094 1.3538882,428.3368 1.2029027,230.50639 Z" style="opacity:1;fill:#000000;fill-opacity:0;fill-rule:evenodd;stroke:none;stroke-width:2.2218;stroke-miterlimit:4;stroke-dasharray:none"></path>
    <path id="path2284" d="M 1.2029027,230.50639 1.0274038,0.55718956 203.1926,0.75746959 C 407.52443,0.95989622 462.51284,1.6720356 441.72132,3.8465877 435.98451,4.4465914 417.88831,7.9435997 401.50754,11.617717 311.49135,31.807861 228.72931,75.061662 163.87976,135.80878 86.263086,208.51536 35.019018,297.68416 11.879238,400.30194 8.2273978,416.49673 4.370775,436.65643 3.3089651,445.1013 1.6480583,458.31094 1.3538882,428.3368 1.2029027,230.50639 Z" style="opacity:1;fill:#000000;fill-opacity:0;fill-rule:evenodd;stroke:none;stroke-width:2.2218;stroke-miterlimit:4;stroke-dasharray:none"></path>
    <path id="path2286" d="M 1.2029027,230.50639 1.0274038,0.55718956 203.1926,0.75746959 C 407.52443,0.95989622 462.51284,1.6720356 441.72132,3.8465877 435.98451,4.4465914 417.88831,7.9435997 401.50754,11.617717 311.49135,31.807861 228.72931,75.061662 163.87976,135.80878 86.263086,208.51536 35.019018,297.68416 11.879238,400.30194 8.2273978,416.49673 4.370775,436.65643 3.3089651,445.1013 1.6480583,458.31094 1.3538882,428.3368 1.2029027,230.50639 Z" style="opacity:1;fill:#000000;fill-opacity:0;fill-rule:evenodd;stroke:none;stroke-width:2.2218;stroke-miterlimit:4;stroke-dasharray:none"></path>
    <path id="path2288" d="M 1021.0892,453.52091 C 1019.6107,429.34068 1007.8399,377.65122 996.02651,343.4619 957.18614,231.05385 880.31581,136.28572 776.4619,72.775798 731.85923,45.499872 679.95263,24.846627 623.97392,12.101985 606.68207,8.1651603 587.92791,4.4520202 582.298,3.8505627 561.74238,1.6545533 615.79243,0.95261954 820.28998,0.75982375 L 1023.1863,0.56853743 V 235.27027 c 0,129.08595 -0.2469,234.70172 -0.5456,234.70172 -0.2987,-1e-5 -0.9957,-7.40299 -1.5489,-16.45108 z" style="opacity:1;fill:#000000;fill-opacity:0;fill-rule:evenodd;stroke:none;stroke-width:2.2218;stroke-miterlimit:4;stroke-dasharray:none"></path>
    <path id="path2290" d="m 580.8244,1020.4487 c 8.04275,-1.0697 27.78406,-4.9192 43.86958,-8.5546 173.57717,-39.22936 313.04426,-163.83302 371.32504,-331.75181 10.18718,-29.35131 21.76418,-77.22931 24.87608,-102.87723 1.661,-13.69022 1.9533,16.14062 2.1044,214.78204 l 0.1755,230.6804 -228.4869,-0.167 c -196.97909,-0.144 -226.47038,-0.4352 -213.8637,-2.1118 z" style="opacity:1;fill:#000000;fill-opacity:0;fill-rule:evenodd;stroke:none;stroke-width:2.2218;stroke-miterlimit:4;stroke-dasharray:none"></path>
    <path id="path2292" d="M 1.1966605,792.76692 C 1.3504794,596.92164 1.6583286,565.09493 3.2723657,578.17206 4.3146709,586.61695 8.1911198,607.01173 11.886697,623.49379 43.016,762.32876 127.91708,879.5779 250.34172,952.80226 c 29.39694,17.58284 58.20542,30.93364 92.85659,43.0328 28.46333,9.93854 74.03572,21.13604 100.16838,24.61214 12.60664,1.6769 -16.88465,1.9674 -213.86375,2.107 l -228.4868841,0.1619 z" style="opacity:1;fill:#000000;fill-opacity:0;fill-rule:evenodd;stroke:none;stroke-width:2.2218;stroke-miterlimit:4;stroke-dasharray:none"></path>
    <path id="path2294" d="m 449.118,837.15605 c -3.95642,-4.64452 -4.36842,-5.9588 -3.48483,-11.11651 2.28018,-13.30993 2.61694,-16.8166 1.61501,-16.81661 -2.07327,-3e-5 -6.07271,8.57533 -6.07276,13.02082 -7e-5,5.87191 -2.54591,5.6517 -7.80198,-0.67488 l -4.14614,-4.99059 2.43967,-7.34488 c 2.45582,-7.39352 3.1767,-7.69916 8.14906,-3.45514 3.03204,2.58791 5.40704,-0.003 25.30912,-27.60166 l 15.53353,-21.54127 10e-4,-20.13456 c 0.002,-22.09704 -4.61078,-51.57439 -8.06979,-51.57443 -0.99539,-10e-6 -4.02883,0.91791 -6.74096,2.03983 l -4.93113,2.03985 -22.86914,-14.78389 -22.86914,-14.78388 -5.28546,-11.75013 c -2.90701,-6.46256 -5.28305,-13.43064 -5.2801,-15.48463 0.007,-5.31493 -8.03737,-12.52361 -16.26748,-14.57643 -10.55753,-2.63332 -17.11319,-10.58431 -24.69073,-29.94595 -3.86553,-9.87696 -9.04077,-19.84109 -13.4083,-25.81564 l -7.11292,-9.73009 -12.02994,0.69715 c -6.61647,0.38344 -17.23347,1.61949 -23.59333,2.74679 -8.69369,1.54098 -13.09118,1.66491 -17.71964,0.4994 -5.89565,-1.48461 -6.26741,-1.91735 -8.78182,-10.22221 -1.97942,-6.53785 -3.19665,-8.5127 -4.94617,-8.02479 -1.27634,0.35594 -5.28181,1.07229 -8.90105,1.59189 -10.23911,1.47 -10.58209,1.6714 -17.40305,10.21924 l -6.43124,8.05945 -31.94344,-3.5e-4 -31.94343,-3.6e-4 -8.95712,18.64443 -8.95712,18.64443 -2.02632,21.56589 -2.02633,21.5659 7.39606,16.45438 c 6.54231,14.55502 8.69126,17.76259 18.61654,27.78746 6.17127,6.23319 12.01964,11.33308 12.99638,11.33309 3.81559,5e-5 3.28126,-3.24728 -2.39057,-14.52829 l -5.89684,-11.72858 2.9e-4,-26.0934 2.9e-4,-26.09341 7.69318,-11.05238 c 6.39896,-9.19304 13.73781,-16.37695 26.97944,-26.4099 0.97357,-0.73765 8.10741,-1.88408 15.85299,-2.54762 12.41513,-1.06356 15.78249,-0.79487 28.43476,2.26887 8.36277,2.02503 21.27462,6.74737 30.94103,11.31627 14.71377,6.95457 18.49584,9.58659 33.45543,23.28246 15.69536,14.36949 17.45422,16.54431 25.3355,31.32704 7.28533,13.66494 8.88157,18.13485 11.41906,31.97648 2.5832,14.09108 2.8264,19.49861 1.95677,43.50934 -0.54618,15.08013 -0.49495,27.41843 0.1139,27.41843 0.6088,10e-6 2.18031,-0.97139 3.49226,-2.15866 2.14492,-1.94108 3.33357,-1.20193 11.79259,7.33315 8.16612,8.23955 9.16762,9.8266 7.591,12.02942 -0.99893,1.39568 -2.18568,3.52465 -2.63723,4.73106 -0.45154,1.2064 -2.08395,4.99013 -3.62757,8.40828 -2.71594,6.01411 -3.02548,6.2148 -9.58505,6.21473 -5.52032,-6e-5 -6.47478,-0.366 -5.14226,-1.97156 1.24837,-1.50416 0.94419,-2.5978 -1.2832,-4.61361 -2.85915,-2.58751 -2.91949,-2.54676 -2.91954,1.97148 l -5e-5,4.61359 -8.08029,-9e-5 -8.08029,-9e-5 2.43421,-4.7525 c 1.33882,-2.61388 5.30404,-9.82947 8.81163,-16.03465 3.50758,-6.20518 6.37742,-12.01786 6.37743,-12.91707 5e-5,-4.23184 -4.09136,0.84737 -13.06217,16.21583 l -9.78142,16.75717 -7.5885,0.44192 c -7.06432,0.41139 -9.77706,-1.11037 -6.06689,-3.40332 1.57226,-0.97169 5.27625,-6.59127 12.2648,-18.60777 3.27347,-5.62861 3.59879,-6.94597 1.71527,-6.94599 -1.32021,-1e-5 -6.5305,6.31724 -12.06066,14.62303 l -9.73632,14.62305 -7.17487,-8e-5 c -5.33008,-6e-5 -6.90243,-0.47006 -6.11533,-1.82796 0.58273,-1.00534 7.2021,-10.82102 14.7097,-21.81261 7.50761,-10.99159 13.65018,-20.36862 13.65019,-20.83785 0,-0.46923 -0.82254,-0.83285 -1.82789,-0.80808 -1.00534,0.0249 -9.06647,10.19271 -17.91362,22.59541 l -16.08573,22.55035 -7.67716,0.0703 c -4.22244,0.0386 -7.65973,-0.42333 -7.63843,-1.02653 0.0213,-0.60321 11.57902,-15.90256 25.68385,-33.99856 14.10481,-18.09601 26.34188,-34.21791 27.19349,-35.82645 3.62117,-6.83973 -12.45026,10.84216 -34.69286,38.16931 -13.15939,16.16753 -25.43966,30.31987 -27.28952,31.4496 -2.20225,1.34496 -5.72573,1.79815 -10.20622,1.31274 l -6.84285,-0.7414 21.93279,-24.85913 c 12.06304,-13.67252 28.24926,-32.42654 35.96938,-41.6756 7.72012,-9.24907 14.4742,-17.33158 15.00906,-17.96114 2.2024,-2.59233 5.84221,1.17313 9.53648,9.86566 3.26991,7.69407 9.76015,15.40744 12.96426,15.40747 0.37703,10e-6 1.49254,-3.60604 2.47892,-8.01343 1.56279,-6.98287 1.36838,-10.60307 -1.51167,-28.1496 -3.09205,-18.83821 -3.8442,-21.14925 -11.66855,-35.85288 -7.98313,-15.00202 -9.11072,-16.35705 -24.79668,-29.79857 -19.35222,-16.58318 -34.8214,-25.38978 -53.57093,-30.49793 -28.58986,-7.78908 -44.02556,-4.25981 -59.38035,13.57693 -8.04052,9.34019 -8.27594,9.86662 -10.09867,22.58221 -2.98364,20.81423 -0.53858,38.00647 7.764,54.59203 l 6.52995,13.04448 -3.66357,5.48364 c -3.43969,5.14854 -4.12223,5.48364 -11.16901,5.48356 l -7.50544,-8e-5 -14.9003,-14.98891 C 163.49325,676.921 161.33283,673.97766 155.35656,661.05699 l -6.64241,-14.36085 2.4e-4,-21.40683 c 2.1e-4,-18.78717 0.48067,-23.11411 3.92614,-35.35793 3.24098,-11.51712 5.77035,-16.72294 14.49797,-29.83882 l 10.57206,-15.88774 18.03902,-11.53016 c 25.63078,-16.38266 40.51763,-21.80244 76.63405,-27.89973 10.80151,-1.82355 19.63911,-3.78473 19.63912,-4.35816 1e-5,-0.57343 -3.45469,-3.13643 -7.6771,-5.69554 -7.93325,-4.80819 -10.20421,-7.40896 -32.76709,-37.52602 -13.06477,-17.43893 -13.58625,-18.44516 -20.84177,-40.21534 l -7.44172,-22.32889 4.1e-4,-36.97216 c 3.3e-4,-30.06826 0.56921,-40.71741 3.04649,-57.02887 2.93053,-19.29595 3.45205,-20.89867 13.74932,-42.25446 5.88679,-12.20877 11.45198,-25.69858 12.36709,-29.97734 1.28049,-5.98717 3.136,-9.29569 8.05345,-14.35993 3.93509,-4.05256 8.02863,-10.51251 10.6563,-16.81652 3.73235,-8.95426 5.46449,-11.15181 13.83129,-17.54764 6.50459,-4.97231 11.70927,-10.64862 16.26812,-17.74231 5.85315,-9.10766 8.05733,-11.18452 17.37589,-16.37226 5.86982,-3.26778 15.60083,-9.90732 21.62449,-14.75453 6.02364,-4.84721 12.93313,-9.24296 15.35442,-9.76835 2.42128,-0.52538 16.4257,-4.16682 31.12094,-8.0921 25.13018,-6.71258 28.14447,-7.19309 50.70245,-8.0825 l 23.98382,-0.94563 4.48494,3.77391 c 3.19566,2.68902 6.90643,4.03941 12.90835,4.69747 10.52026,1.15346 13.80491,2.49965 21.51526,8.81784 3.57617,2.93048 10.35859,6.33728 16.22237,8.14849 8.02176,2.47777 11.17117,4.35584 15.44314,9.20916 2.95149,3.35315 8.57364,7.5989 12.49365,9.43498 5.97642,2.7993 8.14944,5.03615 13.45751,13.85285 3.48162,5.78297 10.82358,14.79182 16.31548,20.01967 9.95312,9.47457 10.01152,9.57673 18.14469,31.74506 l 8.15944,22.2399 -2.6e-4,22.78 c -2.1e-4,19.13103 -0.60726,25.52373 -3.78969,39.90859 -4.38888,19.83803 -8.2797,27.6746 -22.82222,45.96683 -12.5397,15.77297 -30.30293,28.66477 -55.30754,40.13983 l -17.22531,7.90502 -8.1898,-4.01677 c -7.76867,-3.81022 -8.1898,-4.29796 -8.18974,-9.48494 4e-5,-4.16102 2.09747,-8.79727 8.77411,-19.39479 l 8.77405,-13.9266 3.1e-4,-27.55444 3e-4,-27.55442 -8.54844,-10.14206 c -8.14821,-9.66725 -9.2766,-10.43667 -24.10133,-16.43419 l -15.55289,-6.29212 -9.37605,2.81278 c -10.87886,3.26359 -30.16011,17.60552 -30.16017,22.43394 -1e-5,1.55585 -2.63225,7.62473 -5.84941,13.4864 -5.68325,10.35489 -5.84939,11.05819 -5.84954,24.76104 -1.4e-4,13.0607 0.43762,15.2023 5.92089,28.96604 5.42927,13.62816 7.00815,16.02093 19.00979,28.80887 8.05105,8.57851 13.08873,15.15017 13.08871,17.07423 -4e-5,3.78569 22.45009,19.70035 27.94812,19.81215 8.56686,0.17418 22.63141,9.92496 49.73474,34.48046 27.20119,24.64416 27.24472,24.69354 36.92301,41.88569 8.30681,14.75585 9.68972,18.2413 9.68965,24.42134 -5e-5,4.57075 1.87289,12.38325 5.11787,21.34797 3.98335,11.00451 5.11793,16.36966 5.11784,24.20082 -6e-5,5.53397 0.44073,10.06178 0.97955,10.06178 0.53881,10e-6 5.30966,-4.14868 10.6019,-9.2193 13.21358,-12.66029 57.75121,-40.21204 86.51432,-53.51927 30.37404,-14.0525 35.73642,-18.7344 46.16086,-40.30292 l 7.79859,-16.13559 0.0133,-15.2847 c 0.0133,-14.95423 -0.0797,-15.38106 -4.30295,-19.74131 l -4.31655,-4.45662 -20.21384,1.28348 -20.21383,1.28347 -13.07774,8.95238 c -10.10762,6.91917 -14.08465,10.66945 -17.51134,16.51298 -3.17019,5.4061 -6.19402,8.41664 -10.61113,10.56451 l -6.1775,3.00388 -7.0132,-4.35975 -7.01322,-4.35977 1.83968,-24.65855 c 1.75856,-23.57156 2.12924,-25.42171 8.40856,-41.9708 6.37533,-16.80209 6.92527,-17.67106 18.66324,-29.48934 13.35832,-13.44946 27.88827,-23.7708 33.46376,-23.77073 1.98952,2e-5 10.98426,-2.96107 19.98829,-6.5802 l 16.37098,-6.58024 25.62548,2.8e-4 25.62547,2.8e-4 21.55078,10.81836 c 20.07545,10.07777 22.3521,11.65446 33.25644,23.03184 10.70651,11.17099 12.66661,14.21062 22.9634,35.61068 11.20721,23.2922 11.27108,23.49273 14.23527,44.69047 l 2.97752,21.29328 -5.98992,27.67279 c -4.22052,19.49832 -7.39248,30.48687 -10.73797,37.19926 -2.61143,5.23958 -5.95032,12.81669 -7.41974,16.83805 -1.53038,4.1881 -7.05988,12.62139 -12.9438,19.74112 -16.06766,19.44241 -58.07288,62.87895 -60.80693,62.87891 -1.35501,-10e-6 -7.34938,4.16596 -13.32082,9.25772 -5.97144,5.09176 -16.68212,12.80187 -23.80153,17.13356 l -12.94436,7.87582 5.63266,2.37187 c 3.09798,1.30453 11.88407,3.88654 19.52465,5.7378 7.64058,1.85128 23.10453,6.24999 34.36432,9.77493 11.2598,3.52495 33.96219,9.02207 50.44977,12.21584 35.55281,6.88685 47.88305,6.87342 72.23741,-0.0786 13.09869,-3.73912 15.18997,-4.8374 21.98084,-11.54376 8.40145,-8.2969 12.85882,-9.29983 21.98645,-4.94704 4.931,2.3515 5.16769,2.81056 5.16761,10.02267 -7e-5,5.88319 -1.44084,10.64133 -6.50097,21.4694 -7.72868,16.53843 -11.80118,20.53551 -37.51146,36.8168 -17.62612,11.16191 -17.97246,11.30304 -40.62319,16.55336 l -22.8455,5.29548 -55.56799,-1.73739 c -30.5624,-0.95556 -69.38688,-1.72464 -86.27663,-1.70906 -36.90573,0.0341 -52.39245,2.88287 -67.05206,12.33445 -8.56253,5.52057 -9.15514,7.48363 -2.53636,8.40195 2.65375,0.36821 4.0987,2.0611 5.83307,6.83398 2.19935,6.05247 2.17207,6.44207 -0.59246,8.4635 -5.0814,3.71551 -8.617,1.98216 -10.07119,-4.93749 -0.71836,-3.41817 -1.83181,-6.21486 -2.47433,-6.21487 -2.73255,-3e-5 -2.88604,3.51108 -0.44971,10.28655 l 2.60268,7.23806 -4.1643,4.34651 c -2.29037,2.39059 -4.67134,4.03314 -5.29103,3.65013 -0.61971,-0.383 -2.23658,-4.03794 -3.59309,-8.12211 -1.73408,-5.22105 -2.92559,-6.96647 -4.01321,-5.87887 -1.08761,1.08758 -0.74668,4.1898 1.14833,10.44886 l 2.69521,8.90201 -4.48793,4.48783 c -5.38292,5.38272 -7.72299,4.43792 -7.72291,-3.1182 4e-5,-3.85164 -0.75202,-5.89512 -2.4027,-6.52857 -3.67033,-1.40848 -3.79819,-0.43917 -1.24297,9.42219 l 2.36743,9.13662 -4.76596,4.91712 c -2.62129,2.7044 -5.29493,4.91711 -5.94143,4.9171 -0.64651,-10e-6 -1.17542,-2.93805 -1.17538,-6.52899 5e-5,-5.03236 -0.67033,-6.88777 -2.92455,-8.09422 -3.5045,-1.8756 -3.58782,-1.20017 -1.34723,10.92105 1.56277,8.45437 1.53585,8.57515 -2.9003,13.0112 -4.37467,4.37457 -4.52769,4.41151 -6.64912,1.60556 -1.48105,-1.9589 -2.18617,-6.52603 -2.21781,-14.36469 l -0.0464,-11.49262 10.14088,-16.29127 c 9.74338,-15.65267 10.8468,-16.83536 28.14992,-30.17234 25.56924,-19.70836 33.44911,-23.42042 61.87869,-29.14988 l 23.39711,-4.71526 54.83682,3.50345 c 54.29091,3.46858 55.16434,3.47862 87.73895,1.00957 19.05054,-1.44397 36.59665,-3.54567 41.67782,-4.99224 6.19278,-1.76303 14.58555,-6.4711 28.51534,-15.99615 18.90999,-12.93048 20.00026,-13.95412 25.94007,-24.35492 4.59928,-8.05346 6.20419,-12.46198 6.21504,-17.07196 0.0204,-8.69863 -3.01138,-8.1778 -13.83813,2.37727 -9.72683,9.48272 -13.70539,10.95818 -47.56482,17.63962 -14.84519,2.92938 -15.57845,2.94444 -22.11215,0.45394 -6.26018,-2.38624 -9.43667,-2.44886 -43.13832,-0.85054 -36.18651,1.71617 -36.57937,1.70263 -73.66952,-2.53582 -37.08189,-4.2375 -37.5002,-4.25191 -75.30925,-2.59589 l -38.02024,1.66527 -8.55358,7.31946 c -7.58871,6.49381 -10.64031,7.9528 -27.05299,12.93425 -14.39137,4.36795 -20.94348,5.61645 -29.50565,5.62225 l -11.00622,0.007 -35.90281,36.19192 c -44.25419,44.61055 -48.61868,50.8305 -51.14123,72.88251 -2.0315,17.75947 -3.41775,19.57702 -9.49244,12.44583 z m -72.33537,-65.85799 c 1.9358,-3.61697 1.90627,-4.48306 -0.15288,-4.48308 -1.70148,-2e-5 -5.51438,4.23264 -5.59846,6.21478 -0.0974,2.29538 4.30556,0.96969 5.75134,-1.7317 z m 4.43848,-7.40766 c 0,-0.80428 -0.98705,-1.46233 -2.19346,-1.46234 -1.20641,-2e-5 -2.19348,0.65801 -2.19349,1.46229 -10e-6,0.80427 0.98704,1.46232 2.19346,1.46234 1.20641,10e-6 2.19348,-0.65802 2.19349,-1.46229 z m -29.24619,-12.31041 c 0,-0.33636 0.39944,-1.65244 0.88764,-2.92463 1.30304,-3.39552 -2.74603,-2.89382 -4.9352,0.61151 -1.59885,2.5601 -1.46043,2.92461 1.11054,2.92464 1.61536,2e-5 2.93702,-0.27518 2.93702,-0.61152 z m 8.51229,-14.17769 c 2.67103,-4.08384 4.54477,-7.73682 4.16386,-8.11774 -1.42269,-1.42273 -6.70874,3.18299 -9.64107,8.40026 -3.53087,6.28215 -3.68617,7.20449 -1.20711,7.16888 1.00534,-0.0146 4.01329,-3.36756 6.68432,-7.4514 z m -15.82366,-4.22095 c 1.20197,-2.24585 1.1121,-2.92462 -0.38722,-2.92463 -2.14936,-3e-5 -5.46205,2.83794 -5.46207,4.67935 -2e-5,2.37543 4.33482,1.07502 5.84929,-1.75472 z m 183.27024,-18.73042 c 5.76782,-4.67287 12.79009,-9.37889 15.60506,-10.45783 2.81497,-1.07894 14.3308,-8.57346 25.59072,-16.6545 15.46099,-11.09607 23.0016,-15.52217 30.80371,-18.08079 5.68213,-1.86339 18.44159,-7.65439 28.35437,-12.86887 l 18.02322,-9.48089 25.76561,2.9e-4 25.76562,2.9e-4 35.81289,-24.86307 c 22.19209,-15.40685 39.01087,-28.21328 44.2213,-33.6717 l 8.40841,-8.80862 2e-4,-17.42786 c 1.8e-4,-16.63347 0.22213,-17.91487 4.86909,-28.11166 3.78247,-8.29984 6.00182,-11.29388 9.94612,-13.41797 3.57263,-1.92394 6.42913,-5.3903 9.63935,-11.69738 l 4.56215,-8.9632 -2.0466,-13.16087 c -1.12563,-7.23848 -2.06071,-21.7528 -2.07796,-32.25405 l -0.0314,-19.09319 -10.11208,-4.89204 c -9.45562,-4.57446 -10.78821,-5.85068 -20.52691,-19.65843 -7.806,-11.06753 -14.09204,-17.87993 -25.09485,-27.19622 -13.66886,-11.57365 -15.60409,-12.7058 -28.09471,-16.436 -12.66045,-3.7809 -55.12143,-11.34893 -63.67454,-11.34902 -2.86983,-3e-5 -6.15528,2.27955 -12.11828,8.40818 -7.55038,7.76008 -8.69294,9.88228 -14.82205,27.53061 -5.80811,16.72407 -6.77289,21.26326 -7.69239,36.19224 -1.02445,16.63281 -0.97376,17.06985 1.97967,17.06989 2.18151,2e-5 4.79887,-2.88305 9.33838,-10.28642 5.91659,-9.64921 7.22506,-10.81548 21.12171,-18.82635 l 14.81438,-8.53992 18.08784,-1.61119 c 17.08166,-1.52154 18.64518,-1.43172 28.10681,1.61474 9.77072,3.14599 10.12399,3.43395 14.25745,11.62253 3.67664,7.28358 4.23847,10.02972 4.23836,20.71618 -1.3e-4,11.6905 -0.36672,13.10457 -7.17917,27.69325 -4.84375,10.37273 -10.77843,19.89481 -18.24405,29.27225 l -11.06502,13.89855 -21.60448,8.33714 c -11.88247,4.58541 -22.64917,9.51808 -23.92603,10.96146 -1.27685,1.44338 -9.68961,6.31945 -18.69502,10.83572 -9.60851,4.8187 -22.24349,12.7995 -30.58081,19.31616 -21.05151,16.45435 -49.81227,45.00303 -61.12389,60.67316 -5.4359,7.5304 -11.79821,15.99477 -14.13846,18.8097 -2.46845,2.96912 -7.57126,14.02087 -12.1532,26.32155 l -7.89821,21.2035 -0.027,17.91337 c -0.0178,11.85425 0.50662,17.91338 1.55037,17.91339 0.86751,10e-6 6.2964,-3.82324 12.0642,-8.49611 z m -23.87707,-46.20375 c 8e-5,-7.29286 13.36815,-33.68217 24.90361,-49.16109 l 11.46982,-15.39086 -1.5476,-11.66188 c -1.04353,-7.86338 -3.39481,-15.77341 -7.21872,-24.28478 -5.14161,-11.44429 -5.6711,-13.77523 -5.67098,-24.96455 l 1.4e-4,-12.34167 -13.52629,-12.07328 c -14.36457,-12.82151 -37.39877,-25.98881 -51.77866,-29.59881 -4.22072,-1.0596 -12.43641,-5.48345 -20.34656,-10.95587 -7.29705,-5.04826 -19.55748,-11.88778 -27.24543,-15.19893 -11.79517,-5.08012 -14.6947,-7.01818 -18.56689,-12.41023 -2.52383,-3.51447 -7.94142,-10.05832 -12.03907,-14.5419 l -7.45028,-8.15197 1.04283,-9.73674 c 0.57357,-5.3552 1.33821,-10.50647 1.69924,-11.44726 0.36102,-0.94079 -2.30091,-5.26793 -5.91542,-9.61587 -6.29568,-7.57317 -6.47655,-8.05112 -4.30462,-11.37471 1.93144,-2.95556 2.0257,-5.09325 0.63643,-14.43473 l -1.63077,-10.96536 12.44731,-13.55981 12.44729,-13.55983 1.7e-4,-14.81455 c 1.5e-4,-14.0202 0.2746,-15.35951 5.11838,-24.97771 2.81502,-5.58973 5.12017,-11.66017 5.12254,-13.48986 0.003,-2.34977 3.69672,-6.54744 12.5777,-14.29395 10.86453,-9.47666 14.25705,-11.53513 24.96139,-15.1457 l 12.38802,-4.17846 9.0333,3.22767 c 21.08935,7.53538 29.2994,12.52586 39.66991,24.11336 8.9069,9.95211 10.1824,12.17398 12.83339,22.35534 2.75356,10.57525 2.82712,12.62632 1.13968,31.77734 l -1.80384,20.4724 -8.60835,15.48208 c -4.7346,8.51513 -8.60836,15.91806 -8.60837,16.45096 -8e-5,7.66224 57.08998,-25.22706 65.23851,-37.58358 2.19338,-3.32607 7.49729,-10.39978 11.78648,-15.71934 7.09997,-8.80557 8.19806,-11.19972 12.25888,-26.72789 l 4.46037,-17.05597 -3.36764,-4.26532 c -2.07931,-2.63358 -4.78756,-4.29628 -7.07933,-4.34625 -5.13736,-0.11208 -12.66244,-9.50788 -21.14978,-26.40764 -3.78142,-7.52946 -10.26306,-17.59167 -14.40365,-22.36046 -8.3675,-9.63703 -14.34841,-12.88524 -43.70669,-23.73696 -13.00066,-4.80545 -20.76838,-8.83995 -31.99836,-16.61973 -13.32991,-9.23456 -16.22496,-10.59614 -28.62044,-13.46062 -13.33742,-3.08216 -14.83224,-3.12982 -45.50419,-1.45094 -26.10824,1.42907 -78.19464,6.97124 -90.21413,9.59907 -1.61276,0.3526 -7.04165,3.69474 -12.0642,7.42697 -7.06203,5.24776 -9.13192,7.63569 -9.13195,10.53513 -3e-5,2.37008 -3.76554,8.7588 -10.23641,17.36751 -7.43797,9.89533 -10.23637,14.83255 -10.23641,18.06007 -3e-5,2.61097 -4.57604,13.5783 -11.10193,26.60797 -10.37554,20.71593 -11.29219,23.32181 -14.01046,39.82969 -1.96887,11.95675 -3.14816,27.82114 -3.65014,49.1033 l -0.74156,31.43979 5.2777,19.74133 c 7.10083,26.56078 11.71075,37.36767 19.3588,45.38224 3.48011,3.64689 6.32747,7.47386 6.32746,8.50437 -6e-5,4.99998 17.41132,23.82258 31.43942,33.98765 8.04267,5.82789 18.95698,14.43321 24.25402,19.12293 8.90517,7.88418 10.16249,8.52679 16.68357,8.52686 4.53307,5e-5 16.24224,2.93049 32.776,8.20281 24.41866,7.78665 26.17984,8.60256 34.72195,16.08586 4.9492,4.33572 10.22075,7.88315 11.71457,7.88317 1.56922,10e-6 12.99772,10.34237 27.06642,24.49409 23.33408,23.47176 24.6693,25.13491 31.99142,39.84847 4.20258,8.44492 9.7936,22.66219 12.4245,31.59393 2.6309,8.93174 6.5058,19.63851 8.61089,23.79282 3.38952,6.68907 4.15752,7.37667 6.71221,6.00948 1.60751,-0.86029 2.88478,-3.05619 2.8848,-4.9596 z" style="opacity:1;fill:#000000;fill-opacity:0;fill-rule:evenodd;stroke:none;stroke-width:2.2218;stroke-miterlimit:4;stroke-dasharray:none"></path>
    <path id="path2450" d="m 511.26763,955.99986 h -1.49665 l -64.04857,-64.25203 -64.04858,-64.25202 -92.70804,0.36281 -92.70804,0.36281 V 735.74052 643.25959 L 132.12887,579.37618 68,515.49277 v -1.52528 -1.52528 l 64.12887,-63.76337 64.12888,-63.76336 v -92.47125 -92.47124 h 93.12245 93.12246 L 447.02997,133.9865 511.55727,68 l 64.71013,66.09746 64.71014,66.09748 92.70804,-0.1109 92.70804,-0.11091 v 92.88199 92.88196 l 2.09116,1.01736 2.09116,1.01732 62.71202,63.14353 L 956,514.0588 l -64.76994,64.62314 -64.76994,64.62312 -0.73029,91.71054 -0.73031,91.71053 -90.61689,-0.87674 -90.61688,-0.87671 -65.50073,65.51365 L 512.76429,956 Z m -5.08622,-38.91315 h 2.35606 V 903.28694 889.4872 l -5.20983,-2.77951 -5.2098,-2.77951 -1.76073,1.75521 -1.7607,1.7552 v 9.74107 9.74105 l 4.61447,5.083 4.61446,5.083 z m 16.29712,-4.16926 5.57643,-5.03086 v -13.89755 -13.89756 l -5.57643,5.03086 -5.57642,5.03086 v 13.89755 13.89756 z m -33.98451,-25.14162 0.86814,-13.276 -5.74751,-5.72957 -5.74751,-5.72957 v 13.60148 13.60148 l 4.87937,5.40409 4.87937,5.40409 z m 53.88105,5.34305 5.19737,-4.68886 -0.19601,-7.21286 -0.19601,-7.21286 -1.9955,-5.04548 -1.99547,-5.04548 -4.60378,5.07125 -4.60378,5.07124 1.59786,11.87596 1.5979,11.87596 5.19734,-4.68887 z m -71.74044,-23.14623 2.52626,-11.62355 -5.71232,-5.69447 -5.71229,-5.69447 -1.96781,11.61107 -1.96781,11.61108 5.15387,5.70694 5.15387,5.70695 z m 84.25121,8.20092 h 1.12691 l 5.00606,-3.11659 5.00607,-3.11658 -1.06858,-8.69634 -1.06858,-8.69633 -1.39425,-4.16927 -1.39424,-4.16927 -4.84845,5.92061 -4.84845,5.92064 1.17832,10.06155 1.1783,10.06158 z m -101.71183,-18.58036 1.9955,-5.04548 0.19601,-7.08776 0.19601,-7.08775 -3.34585,-3.33541 -3.34586,-3.33541 h -1.92551 -1.92554 l -1.32077,10.42316 -1.32078,10.42317 4.40069,5.04548 4.40072,5.04547 1.99547,-5.04547 z m 119.46125,1.90329 h 2.13649 l 3.21238,-3.85862 3.21242,-3.8586 -1.86956,-11.65494 -1.86952,-11.65496 -5.38802,5.37124 -5.38806,5.37121 1.90867,10.14235 1.90867,10.14232 z m -136.44556,-15.86439 2.05497,-2.20243 1.79349,-8.50733 1.79349,-8.50733 -5.31037,-4.79082 -5.3104,-4.79082 -1.84856,11.52416 -1.84855,11.52418 3.31047,3.97643 3.31047,3.97639 z m 155.18767,-1.59702 4.306,-4.29257 -1.8761,-9.96932 -1.87614,-9.96936 h -2.32046 -2.32046 l -3.0462,3.65901 -3.04621,3.65897 2.9368,10.60292 2.93676,10.60291 z M 420.91914,833.7014 h 0.92165 l 2.83586,-10.23855 2.83586,-10.23858 -3.0462,-3.65897 -3.04621,-3.65901 h -2.13649 -2.13653 l -1.87039,9.93898 -1.87041,9.939 3.29561,3.95855 3.29561,3.95858 z m 184.47814,-3.64247 4.22715,-4.21396 -1.87611,-9.96932 -1.87613,-9.96936 h -2.32046 -2.32046 l -3.38146,4.0617 -3.38146,4.0617 3.3509,10.12159 3.35087,10.12161 z m -197.08969,-12.22192 2.05496,-2.20243 1.81184,-8.59052 1.81181,-8.59053 -4.0481,-3.34911 -4.04809,-3.34914 -3.29826,9.9626 -3.29823,9.96257 3.47952,4.17949 3.47955,4.1795 z m 211.16957,-1.81402 3.99866,-3.98618 -3.35723,-10.14077 -3.35723,-10.14076 -3.92413,3.24658 -3.92413,3.24657 v 3.69814 3.69814 l 3.2827,7.18226 3.28267,7.18222 z m -220.39624,-17.54336 3.59498,-10.35145 -4.02509,-4.0125 -4.02509,-4.01253 -4.51088,10.76232 -4.51085,10.76232 4.94096,3.60166 4.94099,3.60164 z m 234.77304,8.27191 5.72947,-1.4936 v -1.17631 -1.17632 l -5.73859,-11.21346 -5.73861,-11.21349 -3.8544,3.1889 -3.85442,3.18891 1.14565,3.27115 1.14565,3.27117 2.71789,7.42333 2.71789,7.42335 z m -324.03932,-0.91332 7.73032,-0.0681 20.37307,-30.72621 20.37305,-30.72621 -3.26976,-3.92753 -3.2698,-3.92756 -8.86843,11.79085 -8.86844,11.79088 -15.96516,22.93096 -15.96519,22.93096 7.73034,-0.0681 z m 21.30495,0.0681 h 6.9332 l 10.37597,-17.37194 10.37596,-17.37194 5.17194,-8.68411 5.17191,-8.68408 -3.8629,-3.19591 -3.86287,-3.19591 -16.60573,25.77754 -16.60569,25.77757 -2.01251,3.47439 -2.01247,3.47439 z m 21.97507,-0.0473 6.27348,-0.0472 10.70029,-19.76127 10.70032,-19.76123 -4.16324,-4.15026 -4.16325,-4.15028 -12.81055,21.81596 -12.81052,21.81594 v 2.14275 2.14275 l 6.27347,-0.0472 z m 381.89926,0.0473 h 8.42508 l -9.68153,-11.81292 -9.68156,-11.81292 -20.22159,-26.40535 -20.22157,-26.40535 h -2.96189 -2.96186 l -0.94133,2.81514 -0.94132,2.81518 19.9557,26.36968 19.95571,26.36972 5.42552,9.03341 5.42553,9.03341 z m -500.58524,-2.77951 h 8.38201 l 21.82478,-22.93096 21.82479,-22.93096 20.7594,-21.55769 20.75941,-21.55769 -3.64177,-4.37437 -3.64176,-4.37434 -15.50634,16.54932 -15.50636,16.54929 -31.81807,32.31367 -31.8181,32.3137 h 8.38201 z m 29.13877,-0.10368 9.38612,-0.10367 26.48801,-32.09623 26.48802,-32.09623 6.23399,-7.79525 6.23403,-7.79522 -3.72678,-3.08331 -3.72681,-3.08332 -28.99523,32.63196 -28.99523,32.63192 -9.38612,10.4466 -9.38613,10.4466 9.38613,-0.10368 z m 26.81245,0.032 7.66758,-0.0717 9.68499,-14.22646 9.68502,-14.22645 14.71373,-19.74525 14.71373,-19.74526 -0.87318,-2.6114 -0.87322,-2.61143 -2.88925,-0.96008 -2.88926,-0.96009 -28.30386,36.18239 -28.30387,36.18244 v 1.43251 1.43247 l 7.66759,-0.0717 z m 82.21483,0.0695 6.31089,-0.002 6.0993,-13.1249 6.09932,-13.12491 -2.95544,-3.54996 -2.95545,-3.54999 h -1.99926 -1.99926 l -3.58266,7.64365 -3.58266,7.64366 -3.87282,9.0334 -3.87286,9.03341 z m 278.20853,0.002 h 5.52944 v -1.48214 -1.48218 l -7.30595,-14.50001 -7.30595,-14.50004 -0.99129,-1.09096 -0.99133,-1.09096 -4.16096,3.44254 -4.16098,3.44251 6.92879,13.63063 6.92876,13.63061 z m 18.51986,0 h 6.72327 l -3.25535,-6.2539 -3.25535,-6.2539 -9.79111,-15.99041 -9.79111,-15.99044 -3.76186,3.11233 -3.76185,3.11233 10.08504,19.13198 10.08508,19.13201 z m 19.72543,0 h 6.31912 v -1.60997 -1.60998 l -17.05954,-26.25223 -17.05956,-26.2522 -3.90171,3.22802 -3.90169,3.22801 5.91511,10.04176 5.91511,10.04173 8.72702,14.59243 8.72702,14.59243 z m 23.53175,0 h 8.01095 l -10.52064,-13.62188 -10.52062,-13.62188 -13.76719,-19.63974 -13.76719,-19.63975 -3.72195,3.07931 -3.72196,3.07934 4.72864,7.25132 4.72867,7.25136 15.27017,22.93096 15.27017,22.93096 z m 47.28543,0 h 8.16926 l -36.81164,-42.38753 -36.81162,-42.38754 -0.84876,-1.09096 -0.84876,-1.09096 -4.21023,3.48329 -4.21023,3.48325 6.23403,7.62009 6.23399,7.62005 27.46735,32.37516 27.46737,32.37515 z m 28.12985,0 h 8.51079 l -13.38618,-14.59243 -13.38617,-14.59243 -33.42977,-34.03449 -33.42977,-34.03447 -3.7471,3.1001 -3.74708,3.1001 8.73123,10.08804 8.7312,10.08806 33.32103,35.43876 33.32102,35.43876 z m -540.83297,-32.29891 28.57917,-28.03034 20.91159,-19.70678 20.91159,-19.70679 -3.36275,-3.37307 -3.36275,-3.37305 -11.97241,10.6915 -11.97242,10.69152 -34.15559,31.92871 -34.1556,31.92872 v 8.48995 8.48996 z m 556.44645,22.24653 0.89524,-3.78035 -0.89524,-4.94828 -0.89524,-4.94825 -43.81379,-40.94609 -43.81377,-40.94605 h -2.72422 -2.72422 l -1.96023,3.16181 -1.96019,3.1618 48.49821,46.51289 48.49821,46.51288 z m -568.60325,-36.24345 16.4224,-13.46365 28.16064,-24.76488 28.16063,-24.76485 -3.12896,-3.75843 -3.12899,-3.7584 -12.87487,10.35201 -12.87488,10.35198 -28.57917,23.51594 -28.57917,23.51594 v 8.119 8.11898 z m 567.01096,10.02055 2.09116,0.14176 v -6.4552 -6.45519 l -17.42632,-15.1493 -17.42633,-15.14931 -23.06333,-18.98861 -23.06334,-18.98862 -3.97033,3.2848 -3.97036,3.28483 24.24546,21.65639 24.24548,21.65639 18.12337,15.51028 18.12338,15.51025 2.09116,0.14175 z m -544.56318,-52.0965 38.87013,-29.75742 0.16479,-2.17185 0.16478,-2.17188 -3.83706,-1.46783 -3.83708,-1.46784 -35.19791,25.86065 -35.1978,25.86065 v 7.53648 7.53645 z m 545.42479,30.00206 h 1.22955 l -0.0223,-7.64365 -0.0223,-7.64366 -34.81253,-26.01447 -34.8125,-26.01446 -4.89668,1.90783 -4.89666,1.9078 8.36464,6.94672 8.36463,6.94671 28.51546,22.18675 28.51549,22.18675 1.62235,2.61685 1.62235,2.61683 h 1.22957 z m -565.67219,-35.09257 19.01811,-13.41862 15.95841,-11.59878 15.95839,-11.59876 -4.08936,-3.38328 -4.08933,-3.38327 -29.99243,19.50168 -29.99243,19.50172 -0.89474,8.89896 -0.89474,8.89896 z m 566.44049,5.80298 0.93288,-4.38927 -1.53595,-3.99004 -1.53591,-3.99007 -28.04398,-18.08366 -28.04397,-18.08366 h -2.42204 -2.42203 l -1.39954,3.63573 -1.39952,3.63574 19.5179,13.7362 19.51788,13.73621 12.95071,9.09103 12.95071,9.09105 z m -296.48331,-9.85148 22.30569,0.16205 14.19515,-3.76821 14.19512,-3.76818 14.90606,-7.46355 14.90606,-7.46351 17.68546,-14.30422 17.68543,-14.3042 10.70582,-14.1355 10.70581,-14.13551 6.45549,-12.41141 6.45549,-12.41137 1.18708,-25.17542 1.18709,-25.17544 -3.18791,-15.3081 -3.1879,-15.30813 -8.11526,-17.10616 -8.11525,-17.10614 -12.0363,-11.99873 -12.03632,-11.99876 -18.7928,-8.16147 -18.79282,-8.16151 v -5.51318 -5.51316 l 31.93969,-31.34207 31.93966,-31.34204 3.12768,-5.82588 3.12768,-5.82585 -1.25358,-3.2572 -1.25356,-3.2572 -89.93435,0.28207 -89.93434,0.28209 -8.70538,15.26668 -8.70535,15.26671 -11.8499,15.28259 -11.8499,15.28258 v 7.38691 7.38691 h 5.69587 5.69587 l 13.43042,-12.52339 13.43043,-12.52336 13.39803,-4.01965 13.398,-4.01961 25.72192,-1.88223 25.72189,-1.8822 15.6414,1.94815 15.64139,1.94816 0.0438,3.27441 0.0438,3.27437 -38.56836,37.66707 -38.56838,37.66703 -1.64664,4.27767 -1.64663,4.27767 2.31109,3.72774 2.3111,3.72774 10.99843,-3.28491 10.99844,-3.28494 13.61757,0.0611 13.61757,0.0611 11.90516,5.38675 11.90517,5.38674 8.50655,9.14465 8.50653,9.14464 6.84793,11.48911 6.84793,11.48908 1.65009,17.69578 1.6501,17.69576 -3.0979,19.85482 -3.09787,19.85479 -7.46817,14.34967 -7.46817,14.34967 -14.45802,13.17257 -14.45803,13.17257 -14.55415,3.34901 -14.55416,3.34903 -8.84898,-0.0167 -8.84898,-0.0167 -9.94095,-2.75297 -9.94095,-2.75294 -12.04708,-10.27966 -12.04708,-10.27965 -6.5639,-14.05213 -6.5639,-14.05212 -0.0279,-13.14642 -0.0279,-13.14644 4.22447,-10.52503 4.22445,-10.52501 12.50483,-7.52961 12.50479,-7.52961 v -6.71983 -6.71983 l -4.41036,-1.68713 -4.41034,-1.68714 -10.22778,0.0611 -10.22774,0.0611 -11.15285,5.06822 -11.15285,5.06821 -9.18395,7.72818 -9.18395,7.72818 -5.6081,10.9585 -5.60813,10.9585 -1.59326,13.41074 -1.5933,13.41078 5.03783,15.96648 5.03779,15.96651 15.04268,16.19718 15.04269,16.19721 10.11451,6.23161 10.11455,6.23161 14.07244,4.7889 14.07244,4.78887 22.30569,0.16205 z m -264.18308,-21.4653 21.60865,-13.41516 5.99526,-3.78753 5.99527,-3.78756 -1.41421,-3.67384 -1.4142,-3.67388 h -2.84222 -2.84222 l -23.34749,14.2731 -23.34748,14.27306 v 6.60351 6.6035 z m 560.66639,8.9296 0.93288,-4.23817 -1.37233,-3.56503 -1.37231,-3.56503 -23.0947,-13.04377 -23.09467,-13.04377 -3.65094,1.39662 -3.65092,1.39662 v 2.7157 2.71569 l 27.18507,16.73465 27.18506,16.73466 z m -566.24281,-25.11168 18.82043,-10.35226 4.94024,-3.29064 4.94024,-3.29063 -4.13732,-3.42294 -4.13732,-3.42297 -19.62335,10.56595 -19.62335,10.56595 v 6.49991 6.49989 z m 566.24306,3.92578 0.93313,-5.60477 -2.32724,-2.05882 -2.32721,-2.05881 -17.37086,-9.34983 -17.37087,-9.34985 -3.54072,3.67857 -3.54073,3.67857 4.18232,2.55298 4.18232,2.55295 18.12338,10.78189 18.12337,10.78186 z m -581.57823,-14.14902 3.48527,-1.44162 14.63811,-6.17513 14.63811,-6.1751 v -2.06859 -2.0686 l -3.77735,-3.12514 -3.77736,-3.12514 -14.2803,6.25918 -14.2803,6.25921 -0.0658,6.55127 -0.0658,6.55128 3.48527,-1.44162 z m 581.34218,0.712 0.69705,0.13481 v -6.47365 -6.47367 l -13.83692,-6.46064 -13.83692,-6.46064 -4.52284,3.74192 -4.52284,3.74191 17.66271,9.05754 17.6627,9.0575 0.69706,0.13481 z m -581.01699,-19.43823 3.16008,-0.11646 9.27256,-4.92771 9.27256,-4.92774 -4.28528,-3.54535 -4.28529,-3.54537 -9.5743,3.14993 -9.5743,3.14997 1.42695,5.43964 1.42695,5.43964 3.16007,-0.11646 z m 579.29769,0.0436 1.76597,0.0728 1.42695,-5.43964 1.42695,-5.43964 -9.5743,-3.14996 -9.5743,-3.14994 -4.43747,3.67126 -4.43744,3.67126 10.81882,4.84544 10.81885,4.84544 1.76597,0.0728 z m -587.42987,-13.95003 2.92762,-0.12535 8.01818,-3.41349 8.01817,-3.41352 -4.32156,-3.57537 -4.32154,-3.57539 -9.97011,1.86457 -9.97009,1.86453 v 1.91428 1.91427 l 3.34586,3.33541 3.34585,3.33542 z m 600.99907,-4.56268 4.18231,-3.85154 -4.18231,-2.70354 -4.18232,-2.70358 -6.57274,-1.74139 -6.57276,-1.74136 -2.44624,3.85057 -2.44623,3.85059 -0.0427,1.68255 -0.0427,1.68255 9.06168,2.76336 9.06169,2.76333 z m -609.47707,-10.80256 8.61741,-1.84018 2.22656,-1.31034 2.22655,-1.31038 -3.36788,-4.04538 -3.36788,-4.04538 -8.61742,1.8402 -8.61741,1.84018 -2.22656,1.31034 -2.22655,1.31037 3.36788,4.04539 3.36788,4.04538 z m 616.58701,1.46769 2.92762,0.12535 3.34585,-3.33541 3.34586,-3.33541 v -2.09767 -2.09764 l -9.7893,-1.83075 -9.7893,-1.83076 -4.50235,3.72494 -4.50235,3.72496 8.01817,3.41352 8.01817,3.41348 2.92763,0.12536 z m -629.9162,-16.63245 9.84144,-2.21266 1.24059,-1.23674 1.24059,-1.23672 -3.93808,-3.25811 -3.93807,-3.25812 -11.56026,1.84279 -11.56023,1.84279 4.41628,4.86472 4.4163,4.86473 z m 643.98275,2.7349 3.05312,0.12535 4.71024,-5.18851 4.71024,-5.18851 -11.56023,-1.84279 -11.56026,-1.84279 -4.22127,3.49243 -4.2213,3.49243 8.01817,3.41351 8.01817,3.41349 3.05312,0.12536 z m -664.2944,-15.11726 3.22329,-0.97013 7.91364,-1.73645 7.91364,-1.73641 -3.37566,-4.05475 -3.37569,-4.05475 -5.93206,0.0381 -5.93209,0.0381 -6.38494,1.70504 -6.38493,1.70504 4.55575,5.01835 4.55574,5.01832 3.22331,-0.97016 z m 676.93211,-1.75687 7.32617,0.32242 3.20078,-3.84468 3.20079,-3.84464 -4.48152,-1.71438 -4.48152,-1.71434 h -7.7952 -7.7952 l -3.27769,3.93703 -3.27768,3.93704 5.02745,1.29956 5.02743,1.29956 z m -688.06248,-14.74364 8.08018,-1.611 h 4.45339 4.45339 l -5.87563,-5.8573 -5.87563,-5.85729 -11.6557,1.96306 -11.65567,1.96309 4.99776,5.50521 4.99773,5.50521 z m 705.8302,0.63528 2.78821,0.35642 5.56284,-4.19061 5.56285,-4.19061 -4.16874,-2.6272 -4.16874,-2.62719 -8.62954,-0.0425 -8.62955,-0.0425 -4.86953,5.36395 -4.8695,5.36396 9.31676,1.13998 9.31672,1.14002 2.78822,0.35642 z M 146.93422,547.41181 h 13.94106 l -5.04661,-5.55902 -5.04658,-5.55902 h -13.94106 -13.94105 l 5.04657,5.55902 5.04661,5.55902 z m 728.78293,0 h 13.94106 l 5.0466,-5.55902 5.04661,-5.55902 H 885.81036 871.8693 l -5.0466,5.55902 -5.04661,5.55902 z M 128.75472,527.95524 h 15.27904 l -7.08928,-5.55902 -7.08928,-5.55902 h -13.23637 -13.23634 l 5.04658,5.55902 5.04661,5.55902 z m 766.47991,0 h 13.94106 l 5.04661,-5.55902 5.04661,-5.55902 h -13.94106 -13.94106 l -5.04661,5.55902 -5.04661,5.55902 z m -585.44475,-8.75499 7.75508,-0.41645 -7.66758,-1.15792 -7.66758,-1.15791 v -2.68732 -2.68728 l 6.66421,-13.11026 6.66425,-13.11029 58.693,0.16205 58.693,0.16205 -1.05966,-1.70918 -1.05963,-1.70918 -58.02411,0.15732 -58.02411,0.15732 -7.9152,14.72407 -7.91524,14.7241 1.55424,4.0376 1.55423,4.03763 z m 21.69614,-3.15802 13.94106,0.0381 -6.23514,-1.19956 -6.23514,-1.19955 -7.70592,1.16161 -7.70592,1.16162 z m 51.58192,-2.47193 34.85265,0.40225 3.23112,-2.04205 3.23112,-2.04208 -29.71914,0.7697 -29.71913,0.7697 -8.36463,0.8701 -8.36464,0.87013 z m -60.89349,-3.30523 14.88799,-1.76824 41.35217,-1.80059 41.35216,-1.80057 2.56218,-6.718 2.56217,-6.71796 v -1.20881 -1.20881 h -52.91937 -52.91934 l -5.88299,11.49561 -5.88299,11.49561 z m -205.11583,-1.85479 13.67615,-0.0884 4.87937,-3.69242 4.87937,-3.69241 v -1.77819 -1.77822 h -13.50892 -13.50891 l -5.04661,5.55902 -5.04658,5.55902 z m 788.26923,0.0884 h 13.94106 l -5.04661,-5.55902 -5.04661,-5.55902 h -13.94106 -13.94106 l 5.04661,5.55902 5.04661,5.55902 z m -479.04263,-2.77951 h 1.39411 v -1.38975 -1.38976 h -1.39411 -1.3941 v 1.38976 1.38975 z m 2.78822,-5.55902 h 1.3941 v -1.38975 -1.38976 h -1.3941 -1.39411 v 1.38976 1.38975 z m 3.25292,-6.48551 1.85879,-1.85302 -1.85879,-1.85302 -1.85882,-1.85298 v 3.706 3.70601 z m -288.34759,-2.18186 4.87937,0.32884 5.42787,-5.41093 5.42784,-5.4109 -12.05662,-1.80237 -12.05662,-1.80238 -6.03748,5.12867 -6.03748,5.12865 7.78689,1.75578 7.78686,1.75577 z m 742.35912,-2.01545 12.88146,-1.02131 -4.78056,-5.26597 -4.78058,-5.26598 H 877.5434 865.42859 v 1.86577 1.86578 l 4.01394,4.4215 4.01394,4.42151 z m -730.85061,-17.1123 h 12.20554 l 3.265,-3.92181 3.26502,-3.9218 -2.22655,-1.36202 -2.22656,-1.36199 -8.7131,-0.90395 -8.71311,-0.90393 -4.5309,3.74856 -4.5309,3.74859 v 2.43916 2.43919 z m 708.19154,-0.0425 8.7203,-0.0425 3.61723,-2.28739 3.61726,-2.28743 -4.66287,-3.85777 -4.66289,-3.85776 -8.71311,0.90392 -8.7131,0.90396 -2.22656,1.36198 -2.22655,1.36202 3.26502,3.9218 3.265,3.92181 8.72027,-0.0425 z m -677.59161,-19.27315 5.16464,-4.29668 -11.79994,-2.32626 -11.79996,-2.32628 -4.31549,4.30204 -4.31551,4.30205 3.98029,1.35559 3.98028,1.3556 6.97053,0.96532 6.97053,0.9653 z m 664.73372,2.84388 10.42534,-1.6893 -0.32123,-2.63142 -0.32123,-2.63142 -4.10299,-2.58002 -4.10299,-2.58003 -10.48558,1.96097 -10.48554,1.96095 4.48442,4.9398 4.48445,4.93977 z m -653.96422,-11.61474 1.99304,0.29143 2.91067,-5.42166 2.91067,-5.42168 -10.33925,-2.84589 -10.33927,-2.84591 -5.19642,4.68803 -5.19645,4.68804 10.63199,3.28808 10.63195,3.2881 z m 637.34271,-2.74554 10.31758,-2.38944 2.68865,-0.0661 2.68861,-0.0664 -4.53553,-4.52138 -4.53552,-4.52137 -13.03559,1.94869 -13.03556,1.94871 4.56486,5.02841 4.56489,5.02839 10.31761,-2.38941 z m -10.60011,-14.59886 11.01533,-2.93099 -4.24374,-4.67464 -4.24374,-4.67463 -11.12143,2.81411 -11.12145,2.81412 4.34986,4.79151 4.34983,4.79152 z m -617.58282,0.63915 5.57642,0.23459 4.10157,-2.5858 4.10157,-2.58581 -1.31336,-1.12826 -1.31336,-1.12826 -9.5221,-3.20755 -9.52211,-3.20756 -5.38222,4.85564 -5.3822,4.85564 6.53967,1.83147 6.53969,1.83151 5.57643,0.23459 z m 15.4993,-11.00989 1.55825,0.21152 5.41228,-3.96163 5.41229,-3.96161 -6.97053,-2.58806 -6.97053,-2.58809 -4.18232,-1.42614 -4.18232,-1.42613 -5.0814,4.41961 -5.08138,4.41962 9.26369,3.34475 9.26373,3.34475 1.55824,0.21152 z m 576.92105,0.21152 h 2.03074 l 8.78072,-3.05143 8.78069,-3.0514 v -1.95172 -1.95169 l -3.12798,-3.11822 -3.12796,-3.11819 -3.14552,1.09007 -3.14549,1.09009 -7.97064,2.90804 -7.97063,2.90806 3.43265,4.12318 3.43268,4.12321 z m 0.0711,-16.2419 10.89889,-4.60443 -2.65945,-0.92649 -2.65948,-0.92652 v -3.97493 -3.97495 l -10.31259,4.29543 -10.31256,4.29543 -1.23761,1.23371 -1.23757,1.23374 3.31072,3.97673 3.31072,3.97673 z m -562.85959,2.13288 1.74974,0.21153 3.21885,-3.86636 3.21882,-3.86635 -7.7568,-2.79814 -7.75681,-2.7981 -4.63548,-1.87815 -4.63552,-1.87814 -1.03805,5.06822 -1.03805,5.06824 8.46178,3.26292 8.46175,3.26292 1.74977,0.21153 z m 11.19592,-11.02943 4.58106,0.12286 1.43119,-3.71796 1.43119,-3.71796 -15.1357,-7.40008 -15.13569,-7.40009 h -1.33232 -1.33235 v 5.49262 5.49262 l 10.4558,5.50257 10.45579,5.5026 4.58106,0.12285 z m 529.70413,0.0803 1.73672,0.0425 12.90139,-5.68908 12.90139,-5.6891 v -6.85872 -6.85872 l -17.42632,8.70796 -17.42633,8.70798 -1.31336,1.21145 -1.31336,1.21148 4.10158,2.5858 4.10157,2.58581 1.73672,0.0425 z m -514.0602,-13.10044 3.4957,-4.62505 -2.10159,-1.90466 -2.10161,-1.90466 -21.60865,-11.69863 -21.60864,-11.69863 v 6.98772 6.98775 l 20.21454,11.24059 20.21453,11.24059 z m 503.20901,1.9824 2.03835,0.0425 18.17618,-8.9351 18.17616,-8.9351 v -6.35221 -6.35221 h -1.0934 -1.09339 l -22.9169,12.84734 -22.9169,12.84732 3.79576,2.39741 3.79576,2.39741 2.03838,0.0425 z m -491.53552,-12.57326 4.01634,-3.92889 -1.22812,-0.94186 -1.22815,-0.9419 -22.3057,-14.00039 -22.30569,-14.00037 -6.27348,-3.28855 -6.27348,-3.28852 v 6.94466 6.94464 l 25.79096,15.21501 25.79096,15.21504 z m 480.17336,1.45522 1.82907,0.0425 23.96189,-14.05915 23.96189,-14.05918 v -6.78715 -6.78717 h -1.23024 -1.23024 l -26.73781,17.05465 -26.73778,17.05466 -1.1367,-1.13315 -1.1367,-1.13312 29.10475,-19.38322 29.10472,-19.38322 v -7.98623 -7.98626 l -9.06169,6.73595 -9.06169,6.73595 -24.55427,17.52242 -24.55425,17.5224 5.03677,5.95129 5.03679,5.95127 2.78821,2.04208 2.78821,2.04205 1.82907,0.0425 z m -473.03687,-9.50218 2.78821,-0.64682 v -4.53694 -4.53696 l -32.06444,-22.45481 -32.06443,-22.4548 -0.93313,6.00274 -0.93311,6.00277 2.63958,2.63134 2.63954,2.6313 27.56978,19.00449 27.56979,19.00449 z m 8.44583,-9.91187 h 0.63013 l 3.11142,-3.73733 3.11143,-3.73736 -16.01402,-12.63538 -16.01403,-12.63537 -20.91159,-16.9345 -20.91159,-16.93451 -2.09116,-0.047 -2.09116,-0.047 v 6.77911 6.77915 l 35.27523,26.57498 35.27523,26.57501 z m 442.72733,0 h 3.33604 l 33.44324,-25.7642 33.4432,-25.76417 0.90439,-7.81846 0.90435,-7.81843 -30.18058,22.86581 -30.18061,22.86578 -9.20249,7.97564 -9.20246,7.97564 1.69944,2.74121 1.69944,2.74118 z m -429.10031,-13.41934 2.55534,-4.41784 -17.8905,-16.32931 -17.89051,-16.32932 -24.17377,-20.61402 -24.17377,-20.61402 h -1.61719 -1.61719 v 6.77598 6.77594 l 17.42632,15.27377 17.42633,15.27378 23.6998,19.31142 23.6998,19.31146 z m 419.85876,2.25535 1.3941,0.0392 8.36464,-7.25141 8.36463,-7.25138 12.54696,-10.04879 12.54695,-10.04882 18.82043,-16.3368 18.82043,-16.33676 v -6.66252 -6.66257 h -1.72866 -1.72867 l -28.24461,24.30326 -28.24462,24.30327 -14.67706,13.72697 -14.67703,13.72697 3.52418,2.23012 3.52422,2.23008 z m -409.22084,-10.08053 2.14191,-1.31963 v -3.58818 -3.58818 l -46.35567,-44.19433 -46.35567,-44.19436 -2.43804,-0.92649 -2.43804,-0.92652 v 6.97329 6.97332 l 32.76149,30.43917 32.76149,30.43919 13.89031,12.61618 13.89034,12.61617 z m 411.47923,-9.89011 12.50393,-11.94778 4.58483,-4.16927 4.58482,-4.16927 28.46307,-26.25809 28.4631,-26.25806 v -8.02256 -8.02255 l -2.38777,0.92652 -2.38777,0.92649 -46.87132,45.01812 -46.87132,45.01812 3.70727,4.45306 3.70726,4.45305 z m -402.02987,-2.49825 3.91415,-3.23833 -3.4721,-4.49536 -3.47211,-4.49535 -19.72629,-20.84633 -19.72627,-20.84633 -17.94562,-19.45658 -17.94563,-19.45657 -0.45864,-0.90401 -0.45863,-0.90403 -7.72452,0.90403 -7.72451,0.90401 45.413,48.03659 45.41302,48.03658 z m 377.46241,3.05826 h 2.18824 l 46.75109,-47.94655 46.75112,-47.94656 -7.66106,-0.90323 -7.66103,-0.9032 -5.71789,5.07247 -5.7179,5.07249 -37.17512,39.58251 -37.17514,39.58248 1.61473,4.19481 1.61474,4.19478 z m -368.90221,-11.34921 3.32074,0.23125 1.72473,-2.78198 1.72473,-2.78198 -31.11834,-36.63632 -31.11834,-36.63622 -1.41047,-3.6642 -1.4105,-3.66421 h -9.4787 -9.47869 l 36.96207,42.85125 36.96207,42.85121 3.3207,0.23126 z m 360.33283,-0.23265 2.5772,-0.92602 36.45841,-41.69266 36.45844,-41.69265 -7.63209,-0.94295 -7.63212,-0.94292 -9.22067,10.6712 -9.22067,10.67124 -23.83177,28.60672 -23.83177,28.60673 1.64892,4.28367 1.64895,4.28367 z m -347.15186,-10.70536 2.87618,-2.86721 -3.87129,-6.18452 -3.8713,-6.18444 -22.28991,-29.87974 -22.28994,-29.87974 h -7.93849 -7.93851 l 24.15051,31.2695 24.15052,31.26949 7.07302,7.66197 7.073,7.662 2.87621,-2.86723 z m 335.67464,0.0311 1.92659,-0.0195 13.94106,-17.05333 13.94106,-17.05332 16.42714,-19.75526 16.42714,-19.75529 -6.3477,-0.93736 -6.34772,-0.93736 -4.81332,5.10662 -4.81335,5.10663 -22.7126,30.11261 -22.71261,30.1126 1.57885,2.54665 1.57883,2.54664 1.92663,-0.0195 z m -326.62781,-11.47424 3.65601,-3.02472 -2.0553,-3.3564 -2.0553,-3.35634 -17.77926,-26.90752 -17.77926,-26.90756 h -8.12144 -8.12148 l 15.98716,21.54121 15.98713,21.54121 8.31286,11.74749 8.31289,11.74746 3.65599,-3.02475 z m 317.50703,3.15572 h 0.81678 l 22.54164,-32.13462 22.5416,-32.13461 v -1.21952 -1.21951 h -6.33735 -6.33736 l -20.08067,29.67901 -20.08065,29.67903 3.05962,3.67509 3.05962,3.67513 z m -309.0645,-11.24804 3.32074,0.13008 1.70002,-2.74213 1.70003,-2.74212 -14.6586,-25.05298 -14.65861,-25.05307 h -7.61561 -7.61558 l 17.25345,27.66511 17.25346,27.66511 3.3207,0.13008 z m 298.84462,0.0297 1.74977,-0.10006 16.03222,-26.01603 16.03222,-26.01602 v -1.87222 -1.87226 l -5.99285,0.8882 -5.99287,0.88819 -14.68213,23.62526 -14.68212,23.62522 2.893,3.475 2.89302,3.47498 1.74974,-0.10007 z m -287.52721,-11.05681 3.48527,0.0389 0.0786,-4.86414 0.0786,-4.86414 -9.1404,-17.34849 -9.1404,-17.34851 -6.39727,-0.0222 -6.39728,-0.0222 11.9737,22.19709 11.9737,22.19706 3.48526,0.0389 z m 274.63887,0.0195 3.48526,-0.0195 11.15285,-20.11612 11.15285,-20.11616 0.92939,-2.10133 0.92943,-2.1012 -6.50585,0.0111 -6.50582,0.0111 -9.06169,17.47156 -9.06169,17.47153 v 4.75427 4.75424 l 3.48527,-0.0195 z M 384.87833,255.56243 h 3.43694 l 1.66007,-2.67767 1.66008,-2.6777 -6.37491,-13.94286 -6.37489,-13.94288 -6.27347,-0.0564 -6.27348,-0.0564 v 1.32819 1.32816 l 7.55137,15.3489 7.55137,15.34887 z m 254.6819,0 h 1.64973 l 7.55137,-15.34888 7.55137,-15.3489 v -1.32816 -1.32819 h -5.52944 -5.52947 l -6.86112,13.49753 -6.86112,13.49752 3.18946,3.17954 3.18949,3.17954 z m -241.0345,-14.21834 4.15349,-4.14052 -3.10788,-8.88738 -3.10785,-8.8874 -1.81842,0.0425 -1.81839,0.0425 -3.69184,2.33337 -3.69182,2.33338 4.4646,10.652 4.46462,10.65197 4.15349,-4.14052 z m 229.54919,3.07203 1.74977,-0.0284 4.56818,-10.84671 4.5682,-10.84673 -5.35426,-1.39579 -5.35425,-1.39582 -3.70501,8.79641 -3.70497,8.7964 2.74128,3.47438 2.74132,3.47439 1.74974,-0.0283 z m -218.08136,-14.23135 3.74471,-3.09812 v -3.69814 -3.69814 l -3.22582,-7.05784 -3.22585,-7.05785 -3.74468,3.09813 -3.74471,3.09812 v 3.69814 3.69814 l 3.22582,7.05784 3.22585,7.05785 z m 209.1849,-4.15259 3.42417,-7.99314 0.12575,-3.13407 0.12575,-3.13404 -3.92413,-3.24658 -3.92413,-3.24658 -3.29826,9.9626 -3.29823,9.96258 3.67241,4.41119 3.67244,4.41119 z m -195.24615,-7.23584 4.16985,-4.15687 -3.21104,-11.88774 -3.21105,-11.88775 -4.44823,4.43435 -4.44823,4.43435 3.4894,11.61026 3.48941,11.61027 z m 184.59869,-7.9531 3.84999,-11.51395 -3.82512,-2.41548 -3.82509,-2.41548 -1.62335,-0.0425 -1.62335,-0.0425 -2.91603,9.47163 -2.91602,9.47159 4.51448,4.50039 4.51447,4.50039 z m -170.66656,-6.79459 4.02298,-5.46619 -1.48955,-5.55902 -1.48955,-5.55902 -0.0382,-6.87156 -0.0382,-6.87156 -6.05887,6.03993 -6.05884,6.03996 3.5635,11.85681 3.5635,11.8568 4.02297,-5.46615 z m 153.08126,3.58426 0.65489,-0.71192 2.80455,-10.24071 2.80455,-10.24075 -5.10084,-4.60176 -5.10081,-4.60178 -2.91733,10.53279 -2.91736,10.53278 4.55875,5.02163 4.55873,5.02163 z m -139.38757,-17.91753 3.82596,-5.03047 0.0507,-5.55902 0.0505,-5.55902 -1.71037,-6.36503 -1.71037,-6.36499 -5.2608,4.74607 -5.26077,4.74609 1.79901,9.95746 1.79901,9.95746 1.29557,2.25096 1.29557,2.25096 z m 127.61423,-6.51498 2.33722,-11.78154 -5.42307,-5.40615 -5.42308,-5.40615 -1.87964,11.718 -1.87965,11.71798 4.9655,5.46971 4.96553,5.46969 z m -17.15779,-7.82502 1.8952,-4.58802 0.19601,-8.60262 0.19601,-8.60261 -5.26888,-4.75341 -5.26891,-4.75341 -1.20786,11.96627 -1.20788,11.96627 4.38561,5.97778 4.38561,5.97778 1.89517,-4.58803 z m -94.95755,-0.60159 5.2337,-2.79227 -0.32987,-6.15609 -0.32991,-6.15612 -1.76125,-7.95037 -1.76129,-7.9504 -4.97227,5.49206 -4.97225,5.49207 1.82971,11.40669 1.82971,11.40667 z m 16.7409,-18.20366 5.22207,-4.71116 v -10.22401 -10.22401 l -1.8649,-1.85905 -1.86489,-1.85908 -5.10564,4.60613 -5.10563,4.60612 0.0382,5.8231 0.0382,5.8231 1.71037,6.36503 1.71037,6.36499 5.2221,-4.71116 z m 61.38708,-0.19373 1.9955,-5.04548 0.19601,-8.47751 0.19601,-8.4775 -3.34585,-3.33542 -3.34586,-3.33541 h -1.86344 -1.86345 l -1.58593,11.78716 -1.58594,11.78715 4.60379,5.07124 4.60378,5.07125 1.99547,-5.04548 z m -42.00731,-16.99337 5.35978,-4.57485 v -13.27984 -13.27983 h -1.87161 -1.87162 l -5.09891,4.60006 -5.09892,4.60003 v 9.07019 9.07015 l 1.61075,4.18447 1.61078,4.18447 z m 24.3513,-7.63471 0.86814,-13.27599 -5.74751,-5.72958 -5.74751,-5.72957 v 13.60148 13.60148 l 4.87937,5.40409 4.87937,5.40409 z" style="fill:#3a4853;fill-opacity:1;stroke-width:2.78385"></path>
  </g>
</svg>
