<svg viewBox="0 0 1024 1024" height="1024" width="1024" id="svg833" version="1.1" xmlns:xlink="http://www.w3.org/1999/xlink" xmlns="http://www.w3.org/2000/svg">
  <metadata id="metadata839">
    
      
        image/svg+xml
        
        
      
    
  </metadata>
  <defs id="defs837">
    <linearGradient id="linearGradient862">
      <stop id="stop858" offset="0" style="stop-color:#fdfbef;stop-opacity:1"></stop>
      <stop id="stop860" offset="1" style="stop-color:#ded7c7;stop-opacity:1"></stop>
    </linearGradient>
    <radialGradient gradientTransform="translate(-4.4144922e-5,-5.695625e-5)" r="512" fy="512" fx="512" cy="512" cx="512" gradientUnits="userSpaceOnUse" id="radialGradient928" xlink:href="#linearGradient862"></radialGradient>
  </defs>
  
  <g style="display:inline" id="layer1">
    <circle r="512" cy="512" cx="512" id="path856" style="opacity:1;fill:url(#radialGradient928);fill-opacity:1;fill-rule:evenodd;stroke:none;stroke-width:1.51937;stroke-miterlimit:4;stroke-dasharray:none"></circle>
  </g>
  <g style="display:inline" id="g841">
    <path id="path1653" d="" style="opacity:1;fill:#e7ba59;fill-opacity:1;fill-rule:evenodd;stroke:none;stroke-width:0.392762;stroke-miterlimit:4;stroke-dasharray:none"></path>
    <path id="path1819" d="" style="opacity:1;fill:#e7ba59;fill-opacity:1;fill-rule:evenodd;stroke:none;stroke-width:0.785525;stroke-miterlimit:4;stroke-dasharray:none"></path>
    <path id="path1877" d="" style="opacity:1;fill:#e7ba59;fill-opacity:1;fill-rule:evenodd;stroke:none;stroke-width:0.55545;stroke-miterlimit:4;stroke-dasharray:none"></path>
    <path id="path2063" d="" style="opacity:1;fill:#e7ba59;fill-opacity:1;fill-rule:evenodd;stroke:none;stroke-width:0.55545;stroke-miterlimit:4;stroke-dasharray:none"></path>
    <path id="path2089" d="" style="opacity:1;fill:#e7ba59;fill-opacity:1;fill-rule:evenodd;stroke:none;stroke-width:0.277725;stroke-miterlimit:4;stroke-dasharray:none"></path>
    <path id="path2282" d="M 1.2029027,230.50639 1.0274038,0.55718956 203.1926,0.75746959 C 407.52443,0.95989622 462.51284,1.6720356 441.72132,3.8465877 435.98451,4.4465914 417.88831,7.9435997 401.50754,11.617717 311.49135,31.807861 228.72931,75.061662 163.87976,135.80878 86.263086,208.51536 35.019018,297.68416 11.879238,400.30194 8.2273978,416.49673 4.370775,436.65643 3.3089651,445.1013 1.6480583,458.31094 1.3538882,428.3368 1.2029027,230.50639 Z" style="opacity:1;fill:#000000;fill-opacity:0;fill-rule:evenodd;stroke:none;stroke-width:2.2218;stroke-miterlimit:4;stroke-dasharray:none"></path>
    <path id="path2284" d="M 1.2029027,230.50639 1.0274038,0.55718956 203.1926,0.75746959 C 407.52443,0.95989622 462.51284,1.6720356 441.72132,3.8465877 435.98451,4.4465914 417.88831,7.9435997 401.50754,11.617717 311.49135,31.807861 228.72931,75.061662 163.87976,135.80878 86.263086,208.51536 35.019018,297.68416 11.879238,400.30194 8.2273978,416.49673 4.370775,436.65643 3.3089651,445.1013 1.6480583,458.31094 1.3538882,428.3368 1.2029027,230.50639 Z" style="opacity:1;fill:#000000;fill-opacity:0;fill-rule:evenodd;stroke:none;stroke-width:2.2218;stroke-miterlimit:4;stroke-dasharray:none"></path>
    <path id="path2286" d="M 1.2029027,230.50639 1.0274038,0.55718956 203.1926,0.75746959 C 407.52443,0.95989622 462.51284,1.6720356 441.72132,3.8465877 435.98451,4.4465914 417.88831,7.9435997 401.50754,11.617717 311.49135,31.807861 228.72931,75.061662 163.87976,135.80878 86.263086,208.51536 35.019018,297.68416 11.879238,400.30194 8.2273978,416.49673 4.370775,436.65643 3.3089651,445.1013 1.6480583,458.31094 1.3538882,428.3368 1.2029027,230.50639 Z" style="opacity:1;fill:#000000;fill-opacity:0;fill-rule:evenodd;stroke:none;stroke-width:2.2218;stroke-miterlimit:4;stroke-dasharray:none"></path>
    <path id="path2288" d="M 1021.0892,453.52091 C 1019.6107,429.34068 1007.8399,377.65122 996.02651,343.4619 957.18614,231.05385 880.31581,136.28572 776.4619,72.775798 731.85923,45.499872 679.95263,24.846627 623.97392,12.101985 606.68207,8.1651603 587.92791,4.4520202 582.298,3.8505627 561.74238,1.6545533 615.79243,0.95261954 820.28998,0.75982375 L 1023.1863,0.56853743 V 235.27027 c 0,129.08595 -0.2469,234.70172 -0.5456,234.70172 -0.2987,-1e-5 -0.9957,-7.40299 -1.5489,-16.45108 z" style="opacity:1;fill:#000000;fill-opacity:0;fill-rule:evenodd;stroke:none;stroke-width:2.2218;stroke-miterlimit:4;stroke-dasharray:none"></path>
    <path id="path2290" d="m 580.8244,1020.4487 c 8.04275,-1.0697 27.78406,-4.9192 43.86958,-8.5546 173.57717,-39.22936 313.04426,-163.83302 371.32504,-331.75181 10.18718,-29.35131 21.76418,-77.22931 24.87608,-102.87723 1.661,-13.69022 1.9533,16.14062 2.1044,214.78204 l 0.1755,230.6804 -228.4869,-0.167 c -196.97909,-0.144 -226.47038,-0.4352 -213.8637,-2.1118 z" style="opacity:1;fill:#000000;fill-opacity:0;fill-rule:evenodd;stroke:none;stroke-width:2.2218;stroke-miterlimit:4;stroke-dasharray:none"></path>
    <path id="path2292" d="M 1.1966605,792.76692 C 1.3504794,596.92164 1.6583286,565.09493 3.2723657,578.17206 4.3146709,586.61695 8.1911198,607.01173 11.886697,623.49379 43.016,762.32876 127.91708,879.5779 250.34172,952.80226 c 29.39694,17.58284 58.20542,30.93364 92.85659,43.0328 28.46333,9.93854 74.03572,21.13604 100.16838,24.61214 12.60664,1.6769 -16.88465,1.9674 -213.86375,2.107 l -228.4868841,0.1619 z" style="opacity:1;fill:#000000;fill-opacity:0;fill-rule:evenodd;stroke:none;stroke-width:2.2218;stroke-miterlimit:4;stroke-dasharray:none"></path>
    <path id="path2294" d="m 449.118,837.15605 c -3.95642,-4.64452 -4.36842,-5.9588 -3.48483,-11.11651 2.28018,-13.30993 2.61694,-16.8166 1.61501,-16.81661 -2.07327,-3e-5 -6.07271,8.57533 -6.07276,13.02082 -7e-5,5.87191 -2.54591,5.6517 -7.80198,-0.67488 l -4.14614,-4.99059 2.43967,-7.34488 c 2.45582,-7.39352 3.1767,-7.69916 8.14906,-3.45514 3.03204,2.58791 5.40704,-0.003 25.30912,-27.60166 l 15.53353,-21.54127 10e-4,-20.13456 c 0.002,-22.09704 -4.61078,-51.57439 -8.06979,-51.57443 -0.99539,-10e-6 -4.02883,0.91791 -6.74096,2.03983 l -4.93113,2.03985 -22.86914,-14.78389 -22.86914,-14.78388 -5.28546,-11.75013 c -2.90701,-6.46256 -5.28305,-13.43064 -5.2801,-15.48463 0.007,-5.31493 -8.03737,-12.52361 -16.26748,-14.57643 -10.55753,-2.63332 -17.11319,-10.58431 -24.69073,-29.94595 -3.86553,-9.87696 -9.04077,-19.84109 -13.4083,-25.81564 l -7.11292,-9.73009 -12.02994,0.69715 c -6.61647,0.38344 -17.23347,1.61949 -23.59333,2.74679 -8.69369,1.54098 -13.09118,1.66491 -17.71964,0.4994 -5.89565,-1.48461 -6.26741,-1.91735 -8.78182,-10.22221 -1.97942,-6.53785 -3.19665,-8.5127 -4.94617,-8.02479 -1.27634,0.35594 -5.28181,1.07229 -8.90105,1.59189 -10.23911,1.47 -10.58209,1.6714 -17.40305,10.21924 l -6.43124,8.05945 -31.94344,-3.5e-4 -31.94343,-3.6e-4 -8.95712,18.64443 -8.95712,18.64443 -2.02632,21.56589 -2.02633,21.5659 7.39606,16.45438 c 6.54231,14.55502 8.69126,17.76259 18.61654,27.78746 6.17127,6.23319 12.01964,11.33308 12.99638,11.33309 3.81559,5e-5 3.28126,-3.24728 -2.39057,-14.52829 l -5.89684,-11.72858 2.9e-4,-26.0934 2.9e-4,-26.09341 7.69318,-11.05238 c 6.39896,-9.19304 13.73781,-16.37695 26.97944,-26.4099 0.97357,-0.73765 8.10741,-1.88408 15.85299,-2.54762 12.41513,-1.06356 15.78249,-0.79487 28.43476,2.26887 8.36277,2.02503 21.27462,6.74737 30.94103,11.31627 14.71377,6.95457 18.49584,9.58659 33.45543,23.28246 15.69536,14.36949 17.45422,16.54431 25.3355,31.32704 7.28533,13.66494 8.88157,18.13485 11.41906,31.97648 2.5832,14.09108 2.8264,19.49861 1.95677,43.50934 -0.54618,15.08013 -0.49495,27.41843 0.1139,27.41843 0.6088,10e-6 2.18031,-0.97139 3.49226,-2.15866 2.14492,-1.94108 3.33357,-1.20193 11.79259,7.33315 8.16612,8.23955 9.16762,9.8266 7.591,12.02942 -0.99893,1.39568 -2.18568,3.52465 -2.63723,4.73106 -0.45154,1.2064 -2.08395,4.99013 -3.62757,8.40828 -2.71594,6.01411 -3.02548,6.2148 -9.58505,6.21473 -5.52032,-6e-5 -6.47478,-0.366 -5.14226,-1.97156 1.24837,-1.50416 0.94419,-2.5978 -1.2832,-4.61361 -2.85915,-2.58751 -2.91949,-2.54676 -2.91954,1.97148 l -5e-5,4.61359 -8.08029,-9e-5 -8.08029,-9e-5 2.43421,-4.7525 c 1.33882,-2.61388 5.30404,-9.82947 8.81163,-16.03465 3.50758,-6.20518 6.37742,-12.01786 6.37743,-12.91707 5e-5,-4.23184 -4.09136,0.84737 -13.06217,16.21583 l -9.78142,16.75717 -7.5885,0.44192 c -7.06432,0.41139 -9.77706,-1.11037 -6.06689,-3.40332 1.57226,-0.97169 5.27625,-6.59127 12.2648,-18.60777 3.27347,-5.62861 3.59879,-6.94597 1.71527,-6.94599 -1.32021,-1e-5 -6.5305,6.31724 -12.06066,14.62303 l -9.73632,14.62305 -7.17487,-8e-5 c -5.33008,-6e-5 -6.90243,-0.47006 -6.11533,-1.82796 0.58273,-1.00534 7.2021,-10.82102 14.7097,-21.81261 7.50761,-10.99159 13.65018,-20.36862 13.65019,-20.83785 0,-0.46923 -0.82254,-0.83285 -1.82789,-0.80808 -1.00534,0.0249 -9.06647,10.19271 -17.91362,22.59541 l -16.08573,22.55035 -7.67716,0.0703 c -4.22244,0.0386 -7.65973,-0.42333 -7.63843,-1.02653 0.0213,-0.60321 11.57902,-15.90256 25.68385,-33.99856 14.10481,-18.09601 26.34188,-34.21791 27.19349,-35.82645 3.62117,-6.83973 -12.45026,10.84216 -34.69286,38.16931 -13.15939,16.16753 -25.43966,30.31987 -27.28952,31.4496 -2.20225,1.34496 -5.72573,1.79815 -10.20622,1.31274 l -6.84285,-0.7414 21.93279,-24.85913 c 12.06304,-13.67252 28.24926,-32.42654 35.96938,-41.6756 7.72012,-9.24907 14.4742,-17.33158 15.00906,-17.96114 2.2024,-2.59233 5.84221,1.17313 9.53648,9.86566 3.26991,7.69407 9.76015,15.40744 12.96426,15.40747 0.37703,10e-6 1.49254,-3.60604 2.47892,-8.01343 1.56279,-6.98287 1.36838,-10.60307 -1.51167,-28.1496 -3.09205,-18.83821 -3.8442,-21.14925 -11.66855,-35.85288 -7.98313,-15.00202 -9.11072,-16.35705 -24.79668,-29.79857 -19.35222,-16.58318 -34.8214,-25.38978 -53.57093,-30.49793 -28.58986,-7.78908 -44.02556,-4.25981 -59.38035,13.57693 -8.04052,9.34019 -8.27594,9.86662 -10.09867,22.58221 -2.98364,20.81423 -0.53858,38.00647 7.764,54.59203 l 6.52995,13.04448 -3.66357,5.48364 c -3.43969,5.14854 -4.12223,5.48364 -11.16901,5.48356 l -7.50544,-8e-5 -14.9003,-14.98891 C 163.49325,676.921 161.33283,673.97766 155.35656,661.05699 l -6.64241,-14.36085 2.4e-4,-21.40683 c 2.1e-4,-18.78717 0.48067,-23.11411 3.92614,-35.35793 3.24098,-11.51712 5.77035,-16.72294 14.49797,-29.83882 l 10.57206,-15.88774 18.03902,-11.53016 c 25.63078,-16.38266 40.51763,-21.80244 76.63405,-27.89973 10.80151,-1.82355 19.63911,-3.78473 19.63912,-4.35816 1e-5,-0.57343 -3.45469,-3.13643 -7.6771,-5.69554 -7.93325,-4.80819 -10.20421,-7.40896 -32.76709,-37.52602 -13.06477,-17.43893 -13.58625,-18.44516 -20.84177,-40.21534 l -7.44172,-22.32889 4.1e-4,-36.97216 c 3.3e-4,-30.06826 0.56921,-40.71741 3.04649,-57.02887 2.93053,-19.29595 3.45205,-20.89867 13.74932,-42.25446 5.88679,-12.20877 11.45198,-25.69858 12.36709,-29.97734 1.28049,-5.98717 3.136,-9.29569 8.05345,-14.35993 3.93509,-4.05256 8.02863,-10.51251 10.6563,-16.81652 3.73235,-8.95426 5.46449,-11.15181 13.83129,-17.54764 6.50459,-4.97231 11.70927,-10.64862 16.26812,-17.74231 5.85315,-9.10766 8.05733,-11.18452 17.37589,-16.37226 5.86982,-3.26778 15.60083,-9.90732 21.62449,-14.75453 6.02364,-4.84721 12.93313,-9.24296 15.35442,-9.76835 2.42128,-0.52538 16.4257,-4.16682 31.12094,-8.0921 25.13018,-6.71258 28.14447,-7.19309 50.70245,-8.0825 l 23.98382,-0.94563 4.48494,3.77391 c 3.19566,2.68902 6.90643,4.03941 12.90835,4.69747 10.52026,1.15346 13.80491,2.49965 21.51526,8.81784 3.57617,2.93048 10.35859,6.33728 16.22237,8.14849 8.02176,2.47777 11.17117,4.35584 15.44314,9.20916 2.95149,3.35315 8.57364,7.5989 12.49365,9.43498 5.97642,2.7993 8.14944,5.03615 13.45751,13.85285 3.48162,5.78297 10.82358,14.79182 16.31548,20.01967 9.95312,9.47457 10.01152,9.57673 18.14469,31.74506 l 8.15944,22.2399 -2.6e-4,22.78 c -2.1e-4,19.13103 -0.60726,25.52373 -3.78969,39.90859 -4.38888,19.83803 -8.2797,27.6746 -22.82222,45.96683 -12.5397,15.77297 -30.30293,28.66477 -55.30754,40.13983 l -17.22531,7.90502 -8.1898,-4.01677 c -7.76867,-3.81022 -8.1898,-4.29796 -8.18974,-9.48494 4e-5,-4.16102 2.09747,-8.79727 8.77411,-19.39479 l 8.77405,-13.9266 3.1e-4,-27.55444 3e-4,-27.55442 -8.54844,-10.14206 c -8.14821,-9.66725 -9.2766,-10.43667 -24.10133,-16.43419 l -15.55289,-6.29212 -9.37605,2.81278 c -10.87886,3.26359 -30.16011,17.60552 -30.16017,22.43394 -1e-5,1.55585 -2.63225,7.62473 -5.84941,13.4864 -5.68325,10.35489 -5.84939,11.05819 -5.84954,24.76104 -1.4e-4,13.0607 0.43762,15.2023 5.92089,28.96604 5.42927,13.62816 7.00815,16.02093 19.00979,28.80887 8.05105,8.57851 13.08873,15.15017 13.08871,17.07423 -4e-5,3.78569 22.45009,19.70035 27.94812,19.81215 8.56686,0.17418 22.63141,9.92496 49.73474,34.48046 27.20119,24.64416 27.24472,24.69354 36.92301,41.88569 8.30681,14.75585 9.68972,18.2413 9.68965,24.42134 -5e-5,4.57075 1.87289,12.38325 5.11787,21.34797 3.98335,11.00451 5.11793,16.36966 5.11784,24.20082 -6e-5,5.53397 0.44073,10.06178 0.97955,10.06178 0.53881,10e-6 5.30966,-4.14868 10.6019,-9.2193 13.21358,-12.66029 57.75121,-40.21204 86.51432,-53.51927 30.37404,-14.0525 35.73642,-18.7344 46.16086,-40.30292 l 7.79859,-16.13559 0.0133,-15.2847 c 0.0133,-14.95423 -0.0797,-15.38106 -4.30295,-19.74131 l -4.31655,-4.45662 -20.21384,1.28348 -20.21383,1.28347 -13.07774,8.95238 c -10.10762,6.91917 -14.08465,10.66945 -17.51134,16.51298 -3.17019,5.4061 -6.19402,8.41664 -10.61113,10.56451 l -6.1775,3.00388 -7.0132,-4.35975 -7.01322,-4.35977 1.83968,-24.65855 c 1.75856,-23.57156 2.12924,-25.42171 8.40856,-41.9708 6.37533,-16.80209 6.92527,-17.67106 18.66324,-29.48934 13.35832,-13.44946 27.88827,-23.7708 33.46376,-23.77073 1.98952,2e-5 10.98426,-2.96107 19.98829,-6.5802 l 16.37098,-6.58024 25.62548,2.8e-4 25.62547,2.8e-4 21.55078,10.81836 c 20.07545,10.07777 22.3521,11.65446 33.25644,23.03184 10.70651,11.17099 12.66661,14.21062 22.9634,35.61068 11.20721,23.2922 11.27108,23.49273 14.23527,44.69047 l 2.97752,21.29328 -5.98992,27.67279 c -4.22052,19.49832 -7.39248,30.48687 -10.73797,37.19926 -2.61143,5.23958 -5.95032,12.81669 -7.41974,16.83805 -1.53038,4.1881 -7.05988,12.62139 -12.9438,19.74112 -16.06766,19.44241 -58.07288,62.87895 -60.80693,62.87891 -1.35501,-10e-6 -7.34938,4.16596 -13.32082,9.25772 -5.97144,5.09176 -16.68212,12.80187 -23.80153,17.13356 l -12.94436,7.87582 5.63266,2.37187 c 3.09798,1.30453 11.88407,3.88654 19.52465,5.7378 7.64058,1.85128 23.10453,6.24999 34.36432,9.77493 11.2598,3.52495 33.96219,9.02207 50.44977,12.21584 35.55281,6.88685 47.88305,6.87342 72.23741,-0.0786 13.09869,-3.73912 15.18997,-4.8374 21.98084,-11.54376 8.40145,-8.2969 12.85882,-9.29983 21.98645,-4.94704 4.931,2.3515 5.16769,2.81056 5.16761,10.02267 -7e-5,5.88319 -1.44084,10.64133 -6.50097,21.4694 -7.72868,16.53843 -11.80118,20.53551 -37.51146,36.8168 -17.62612,11.16191 -17.97246,11.30304 -40.62319,16.55336 l -22.8455,5.29548 -55.56799,-1.73739 c -30.5624,-0.95556 -69.38688,-1.72464 -86.27663,-1.70906 -36.90573,0.0341 -52.39245,2.88287 -67.05206,12.33445 -8.56253,5.52057 -9.15514,7.48363 -2.53636,8.40195 2.65375,0.36821 4.0987,2.0611 5.83307,6.83398 2.19935,6.05247 2.17207,6.44207 -0.59246,8.4635 -5.0814,3.71551 -8.617,1.98216 -10.07119,-4.93749 -0.71836,-3.41817 -1.83181,-6.21486 -2.47433,-6.21487 -2.73255,-3e-5 -2.88604,3.51108 -0.44971,10.28655 l 2.60268,7.23806 -4.1643,4.34651 c -2.29037,2.39059 -4.67134,4.03314 -5.29103,3.65013 -0.61971,-0.383 -2.23658,-4.03794 -3.59309,-8.12211 -1.73408,-5.22105 -2.92559,-6.96647 -4.01321,-5.87887 -1.08761,1.08758 -0.74668,4.1898 1.14833,10.44886 l 2.69521,8.90201 -4.48793,4.48783 c -5.38292,5.38272 -7.72299,4.43792 -7.72291,-3.1182 4e-5,-3.85164 -0.75202,-5.89512 -2.4027,-6.52857 -3.67033,-1.40848 -3.79819,-0.43917 -1.24297,9.42219 l 2.36743,9.13662 -4.76596,4.91712 c -2.62129,2.7044 -5.29493,4.91711 -5.94143,4.9171 -0.64651,-10e-6 -1.17542,-2.93805 -1.17538,-6.52899 5e-5,-5.03236 -0.67033,-6.88777 -2.92455,-8.09422 -3.5045,-1.8756 -3.58782,-1.20017 -1.34723,10.92105 1.56277,8.45437 1.53585,8.57515 -2.9003,13.0112 -4.37467,4.37457 -4.52769,4.41151 -6.64912,1.60556 -1.48105,-1.9589 -2.18617,-6.52603 -2.21781,-14.36469 l -0.0464,-11.49262 10.14088,-16.29127 c 9.74338,-15.65267 10.8468,-16.83536 28.14992,-30.17234 25.56924,-19.70836 33.44911,-23.42042 61.87869,-29.14988 l 23.39711,-4.71526 54.83682,3.50345 c 54.29091,3.46858 55.16434,3.47862 87.73895,1.00957 19.05054,-1.44397 36.59665,-3.54567 41.67782,-4.99224 6.19278,-1.76303 14.58555,-6.4711 28.51534,-15.99615 18.90999,-12.93048 20.00026,-13.95412 25.94007,-24.35492 4.59928,-8.05346 6.20419,-12.46198 6.21504,-17.07196 0.0204,-8.69863 -3.01138,-8.1778 -13.83813,2.37727 -9.72683,9.48272 -13.70539,10.95818 -47.56482,17.63962 -14.84519,2.92938 -15.57845,2.94444 -22.11215,0.45394 -6.26018,-2.38624 -9.43667,-2.44886 -43.13832,-0.85054 -36.18651,1.71617 -36.57937,1.70263 -73.66952,-2.53582 -37.08189,-4.2375 -37.5002,-4.25191 -75.30925,-2.59589 l -38.02024,1.66527 -8.55358,7.31946 c -7.58871,6.49381 -10.64031,7.9528 -27.05299,12.93425 -14.39137,4.36795 -20.94348,5.61645 -29.50565,5.62225 l -11.00622,0.007 -35.90281,36.19192 c -44.25419,44.61055 -48.61868,50.8305 -51.14123,72.88251 -2.0315,17.75947 -3.41775,19.57702 -9.49244,12.44583 z m -72.33537,-65.85799 c 1.9358,-3.61697 1.90627,-4.48306 -0.15288,-4.48308 -1.70148,-2e-5 -5.51438,4.23264 -5.59846,6.21478 -0.0974,2.29538 4.30556,0.96969 5.75134,-1.7317 z m 4.43848,-7.40766 c 0,-0.80428 -0.98705,-1.46233 -2.19346,-1.46234 -1.20641,-2e-5 -2.19348,0.65801 -2.19349,1.46229 -10e-6,0.80427 0.98704,1.46232 2.19346,1.46234 1.20641,10e-6 2.19348,-0.65802 2.19349,-1.46229 z m -29.24619,-12.31041 c 0,-0.33636 0.39944,-1.65244 0.88764,-2.92463 1.30304,-3.39552 -2.74603,-2.89382 -4.9352,0.61151 -1.59885,2.5601 -1.46043,2.92461 1.11054,2.92464 1.61536,2e-5 2.93702,-0.27518 2.93702,-0.61152 z m 8.51229,-14.17769 c 2.67103,-4.08384 4.54477,-7.73682 4.16386,-8.11774 -1.42269,-1.42273 -6.70874,3.18299 -9.64107,8.40026 -3.53087,6.28215 -3.68617,7.20449 -1.20711,7.16888 1.00534,-0.0146 4.01329,-3.36756 6.68432,-7.4514 z m -15.82366,-4.22095 c 1.20197,-2.24585 1.1121,-2.92462 -0.38722,-2.92463 -2.14936,-3e-5 -5.46205,2.83794 -5.46207,4.67935 -2e-5,2.37543 4.33482,1.07502 5.84929,-1.75472 z m 183.27024,-18.73042 c 5.76782,-4.67287 12.79009,-9.37889 15.60506,-10.45783 2.81497,-1.07894 14.3308,-8.57346 25.59072,-16.6545 15.46099,-11.09607 23.0016,-15.52217 30.80371,-18.08079 5.68213,-1.86339 18.44159,-7.65439 28.35437,-12.86887 l 18.02322,-9.48089 25.76561,2.9e-4 25.76562,2.9e-4 35.81289,-24.86307 c 22.19209,-15.40685 39.01087,-28.21328 44.2213,-33.6717 l 8.40841,-8.80862 2e-4,-17.42786 c 1.8e-4,-16.63347 0.22213,-17.91487 4.86909,-28.11166 3.78247,-8.29984 6.00182,-11.29388 9.94612,-13.41797 3.57263,-1.92394 6.42913,-5.3903 9.63935,-11.69738 l 4.56215,-8.9632 -2.0466,-13.16087 c -1.12563,-7.23848 -2.06071,-21.7528 -2.07796,-32.25405 l -0.0314,-19.09319 -10.11208,-4.89204 c -9.45562,-4.57446 -10.78821,-5.85068 -20.52691,-19.65843 -7.806,-11.06753 -14.09204,-17.87993 -25.09485,-27.19622 -13.66886,-11.57365 -15.60409,-12.7058 -28.09471,-16.436 -12.66045,-3.7809 -55.12143,-11.34893 -63.67454,-11.34902 -2.86983,-3e-5 -6.15528,2.27955 -12.11828,8.40818 -7.55038,7.76008 -8.69294,9.88228 -14.82205,27.53061 -5.80811,16.72407 -6.77289,21.26326 -7.69239,36.19224 -1.02445,16.63281 -0.97376,17.06985 1.97967,17.06989 2.18151,2e-5 4.79887,-2.88305 9.33838,-10.28642 5.91659,-9.64921 7.22506,-10.81548 21.12171,-18.82635 l 14.81438,-8.53992 18.08784,-1.61119 c 17.08166,-1.52154 18.64518,-1.43172 28.10681,1.61474 9.77072,3.14599 10.12399,3.43395 14.25745,11.62253 3.67664,7.28358 4.23847,10.02972 4.23836,20.71618 -1.3e-4,11.6905 -0.36672,13.10457 -7.17917,27.69325 -4.84375,10.37273 -10.77843,19.89481 -18.24405,29.27225 l -11.06502,13.89855 -21.60448,8.33714 c -11.88247,4.58541 -22.64917,9.51808 -23.92603,10.96146 -1.27685,1.44338 -9.68961,6.31945 -18.69502,10.83572 -9.60851,4.8187 -22.24349,12.7995 -30.58081,19.31616 -21.05151,16.45435 -49.81227,45.00303 -61.12389,60.67316 -5.4359,7.5304 -11.79821,15.99477 -14.13846,18.8097 -2.46845,2.96912 -7.57126,14.02087 -12.1532,26.32155 l -7.89821,21.2035 -0.027,17.91337 c -0.0178,11.85425 0.50662,17.91338 1.55037,17.91339 0.86751,10e-6 6.2964,-3.82324 12.0642,-8.49611 z m -23.87707,-46.20375 c 8e-5,-7.29286 13.36815,-33.68217 24.90361,-49.16109 l 11.46982,-15.39086 -1.5476,-11.66188 c -1.04353,-7.86338 -3.39481,-15.77341 -7.21872,-24.28478 -5.14161,-11.44429 -5.6711,-13.77523 -5.67098,-24.96455 l 1.4e-4,-12.34167 -13.52629,-12.07328 c -14.36457,-12.82151 -37.39877,-25.98881 -51.77866,-29.59881 -4.22072,-1.0596 -12.43641,-5.48345 -20.34656,-10.95587 -7.29705,-5.04826 -19.55748,-11.88778 -27.24543,-15.19893 -11.79517,-5.08012 -14.6947,-7.01818 -18.56689,-12.41023 -2.52383,-3.51447 -7.94142,-10.05832 -12.03907,-14.5419 l -7.45028,-8.15197 1.04283,-9.73674 c 0.57357,-5.3552 1.33821,-10.50647 1.69924,-11.44726 0.36102,-0.94079 -2.30091,-5.26793 -5.91542,-9.61587 -6.29568,-7.57317 -6.47655,-8.05112 -4.30462,-11.37471 1.93144,-2.95556 2.0257,-5.09325 0.63643,-14.43473 l -1.63077,-10.96536 12.44731,-13.55981 12.44729,-13.55983 1.7e-4,-14.81455 c 1.5e-4,-14.0202 0.2746,-15.35951 5.11838,-24.97771 2.81502,-5.58973 5.12017,-11.66017 5.12254,-13.48986 0.003,-2.34977 3.69672,-6.54744 12.5777,-14.29395 10.86453,-9.47666 14.25705,-11.53513 24.96139,-15.1457 l 12.38802,-4.17846 9.0333,3.22767 c 21.08935,7.53538 29.2994,12.52586 39.66991,24.11336 8.9069,9.95211 10.1824,12.17398 12.83339,22.35534 2.75356,10.57525 2.82712,12.62632 1.13968,31.77734 l -1.80384,20.4724 -8.60835,15.48208 c -4.7346,8.51513 -8.60836,15.91806 -8.60837,16.45096 -8e-5,7.66224 57.08998,-25.22706 65.23851,-37.58358 2.19338,-3.32607 7.49729,-10.39978 11.78648,-15.71934 7.09997,-8.80557 8.19806,-11.19972 12.25888,-26.72789 l 4.46037,-17.05597 -3.36764,-4.26532 c -2.07931,-2.63358 -4.78756,-4.29628 -7.07933,-4.34625 -5.13736,-0.11208 -12.66244,-9.50788 -21.14978,-26.40764 -3.78142,-7.52946 -10.26306,-17.59167 -14.40365,-22.36046 -8.3675,-9.63703 -14.34841,-12.88524 -43.70669,-23.73696 -13.00066,-4.80545 -20.76838,-8.83995 -31.99836,-16.61973 -13.32991,-9.23456 -16.22496,-10.59614 -28.62044,-13.46062 -13.33742,-3.08216 -14.83224,-3.12982 -45.50419,-1.45094 -26.10824,1.42907 -78.19464,6.97124 -90.21413,9.59907 -1.61276,0.3526 -7.04165,3.69474 -12.0642,7.42697 -7.06203,5.24776 -9.13192,7.63569 -9.13195,10.53513 -3e-5,2.37008 -3.76554,8.7588 -10.23641,17.36751 -7.43797,9.89533 -10.23637,14.83255 -10.23641,18.06007 -3e-5,2.61097 -4.57604,13.5783 -11.10193,26.60797 -10.37554,20.71593 -11.29219,23.32181 -14.01046,39.82969 -1.96887,11.95675 -3.14816,27.82114 -3.65014,49.1033 l -0.74156,31.43979 5.2777,19.74133 c 7.10083,26.56078 11.71075,37.36767 19.3588,45.38224 3.48011,3.64689 6.32747,7.47386 6.32746,8.50437 -6e-5,4.99998 17.41132,23.82258 31.43942,33.98765 8.04267,5.82789 18.95698,14.43321 24.25402,19.12293 8.90517,7.88418 10.16249,8.52679 16.68357,8.52686 4.53307,5e-5 16.24224,2.93049 32.776,8.20281 24.41866,7.78665 26.17984,8.60256 34.72195,16.08586 4.9492,4.33572 10.22075,7.88315 11.71457,7.88317 1.56922,10e-6 12.99772,10.34237 27.06642,24.49409 23.33408,23.47176 24.6693,25.13491 31.99142,39.84847 4.20258,8.44492 9.7936,22.66219 12.4245,31.59393 2.6309,8.93174 6.5058,19.63851 8.61089,23.79282 3.38952,6.68907 4.15752,7.37667 6.71221,6.00948 1.60751,-0.86029 2.88478,-3.05619 2.8848,-4.9596 z" style="opacity:1;fill:#000000;fill-opacity:0;fill-rule:evenodd;stroke:none;stroke-width:2.2218;stroke-miterlimit:4;stroke-dasharray:none"></path>
    <path id="path2466" d="m 511.98783,956 h -1.45935 l -64.7429,-64.63991 -64.74292,-64.6399 H 289.86738 198.69213 L 197.96282,734.97323 197.23353,643.22626 132.61676,578.65111 68,514.07598 l 9.658342,-9.95159 9.658314,-9.95163 54.991644,-54.66151 54.99164,-54.66153 v -92.53357 -92.53354 h 93.00308 93.00309 L 447.73627,133.89131 512.16642,68 l 64.62161,65.96634 64.62161,65.96632 92.58087,-0.0751 92.58089,-0.0751 v 92.90539 92.90537 l 2.08829,1.01761 2.08829,1.01758 62.62587,63.15945 L 956,513.94734 891.28556,578.60849 826.5714,643.26964 v 92.654 92.65401 l -91.1887,-1.92063 -91.18867,-1.92065 -65.37342,65.63177 -65.37342,65.63178 z m -5.1894,-38.92295 h 2.35284 V 903.2738 889.47058 l -5.20269,-2.78021 -5.20265,-2.78021 -1.75831,1.75565 -1.75829,1.75564 v 9.74353 9.7435 l 4.60813,5.08428 4.60814,5.08429 z m 16.27477,-4.17032 5.56877,-5.03213 v -13.90105 -13.90106 l -5.56877,5.03213 -5.56877,5.03213 v 13.90105 13.90106 z m -33.93789,-25.14795 0.86695,-13.27935 -5.73963,-5.73101 -5.73962,-5.73102 -0.32989,9.6535 -0.32993,9.65351 0.58122,4.17032 0.58121,4.17031 4.62136,5.18654 4.62138,5.18654 z m 53.80714,5.3444 5.19023,-4.69005 -0.19574,-7.21468 -0.19574,-7.21467 -1.99276,-5.04675 -1.99273,-5.04675 -4.59747,5.07252 -4.59747,5.07252 1.59568,11.87895 1.5957,11.87895 5.19021,-4.69004 z m -71.64203,-23.15207 2.5228,-11.62648 -5.70449,-5.6959 -5.70446,-5.69591 -1.9651,11.614 -1.96511,11.614 5.1468,5.70838 5.1468,5.70839 z m 84.48933,8.16042 2.08829,-0.0425 4.11861,-2.60044 4.11858,-2.60044 -0.9083,-10.563 -0.90829,-10.56297 -1.36989,-2.22016 -1.36992,-2.22017 -3.92869,3.25566 -3.92868,3.25563 v 12.17051 12.17054 l 2.08829,-0.0425 z m -101.92599,-18.54248 1.99275,-5.04675 0.19575,-7.08954 0.19574,-7.08954 -3.34127,-3.33625 -3.34126,-3.33625 h -1.8632 -1.8632 l -1.67367,10.29826 -1.67369,10.29823 4.68969,5.17431 4.68971,5.17428 1.99273,-5.04675 z m 122.61857,-0.14568 5.29034,-5.2824 -1.89798,-11.8516 -1.89797,-11.85148 -5.29034,5.2824 -5.29034,5.2824 1.89798,11.85148 1.89798,11.85149 5.29033,-5.28241 z m -139.57958,-13.81882 2.05215,-2.20298 1.79103,-8.50948 1.79102,-8.50947 -5.30308,-4.79203 -5.30312,-4.79203 -1.84602,11.52706 -1.84602,11.52709 3.30593,3.97743 3.30593,3.97739 z m 154.97477,-1.59743 4.30009,-4.29364 -1.87353,-9.97184 -1.87356,-9.97187 h -2.31728 -2.31727 l -3.04203,3.65993 -3.04203,3.6599 2.93277,10.60558 2.93274,10.60559 z m -170.22439,-10.3364 h 0.92038 l 2.83197,-10.24113 2.83198,-10.24116 -3.04203,-3.6599 -3.04203,-3.65992 h -2.13356 -2.13359 l -1.86782,9.94148 -1.86785,9.9415 3.29109,3.95955 3.29108,3.95958 z m 184.22506,-3.64339 4.22136,-4.21502 -1.87353,-9.97184 -1.87356,-9.97186 h -2.31728 -2.31728 l -3.37682,4.06272 -3.37682,4.06272 3.3463,10.12414 3.34628,10.12417 z m -196.81931,-12.225 2.05215,-2.20298 1.80935,-8.59269 1.80932,-8.59269 -4.04254,-3.34996 -4.04254,-3.34999 -3.29373,9.96511 -3.29371,9.96509 3.47475,4.18054 3.47477,4.18055 z m 211.64617,-0.90818 4.95671,-2.64877 -4.37923,-11.13168 -4.37922,-11.13169 -3.75706,3.11339 -3.75706,3.11342 v 3.69907 3.69907 l 3.17961,6.96799 3.17957,6.96796 z m -220.86018,-18.45407 3.59005,-10.35406 -4.01957,-4.01352 -4.01957,-4.01354 -4.50469,10.76504 -4.50467,10.76503 4.93419,3.60257 4.93421,3.60254 z m 234.45097,8.27399 5.72161,-1.49398 v -1.17661 -1.17661 l -5.73072,-11.21629 -5.73074,-11.21632 -3.84911,3.18971 -3.84913,3.18971 1.14408,3.27197 1.14407,3.27201 2.71417,7.42519 2.71416,7.42522 z m -323.53932,-0.91355 7.66425,-0.0681 20.43236,-30.86479 20.43236,-30.86481 -3.96188,-3.95594 -3.96188,-3.95593 -7.12112,10.56199 -7.12116,10.56197 -17.0136,24.32684 -17.01361,24.32685 7.66428,-0.0681 z m 21.23496,0.0681 h 6.93841 l 14.5465,-24.32684 14.5465,-24.32685 0.92386,-1.77013 0.92386,-1.77016 -3.81611,-3.16232 -3.81609,-3.16233 -16.58294,25.78404 -16.58292,25.78407 -2.00974,3.47526 -2.00972,3.47526 z m 21.93022,-0.0473 6.26487,-0.0473 10.68561,-19.76625 10.68564,-19.76621 -4.15753,-4.1513 -4.15754,-4.15133 -12.79297,21.82146 -12.79295,21.82143 v 2.14329 2.1433 l 6.26487,-0.0473 z m 381.17181,0.0473 h 8.61707 l -9.66826,-11.81589 -9.66828,-11.8159 -20.19385,-26.412 -20.19382,-26.41201 h -2.95783 -2.9578 l -1.01273,3.03363 -1.01274,3.03363 21.22076,27.54869 21.22076,27.54869 3.99481,7.64558 3.99485,7.64558 z m 26.78541,-1.80218 6.3094,-1.64981 -10.48598,-11.54952 -10.486,-11.54956 -12.52974,-15.15212 -12.52974,-15.15209 -11.13755,-12.5283 -11.13754,-12.5283 -3.67938,-3.92463 -3.67937,-3.9246 -3.89243,3.8866 -3.89246,3.88662 22.36636,26.39783 22.3664,26.39782 13.04931,14.51993 13.0493,14.51993 6.30942,-1.64983 z M 235.231,803.0884 h 8.58504 l 42.38709,-44.63843 42.38711,-44.63843 -3.43424,-4.13181 -3.43426,-4.13181 -22.3518,23.05329 -22.35181,23.05328 -25.18606,25.71695 -25.18609,25.71696 z m 29.26633,-0.12956 9.37325,-0.12956 29.23606,-35.0586 29.23606,-35.0586 3.42931,-4.82697 3.42933,-4.82701 -3.70994,-3.07435 -3.70992,-3.07436 -28.95545,32.64018 -28.95545,32.64015 -9.37325,10.44923 -9.37325,10.44922 9.37325,-0.12955 z m 26.77566,0.0578 7.65707,-0.0717 9.6717,-14.23004 9.67174,-14.23004 14.69354,-19.75023 14.69355,-19.75023 -0.87199,-2.61206 -0.87201,-2.61209 -2.7999,-0.9319 -2.79992,-0.9319 -28.35041,36.02848 -28.35043,36.02858 v 1.56743 1.56746 z m 82.13143,-0.006 6.27286,-0.0765 6.40606,-12.67493 6.40607,-12.67489 -3.2665,-3.93 -3.26653,-3.93002 h -2.17107 -2.17107 l -3.10042,7.64558 -3.10041,7.64558 -4.14092,9.03568 -4.14094,9.03569 6.27287,-0.0765 z m 277.79749,0.0773 h 5.52186 v -1.48252 -1.48255 l -7.29593,-14.50367 -7.29593,-14.50369 -0.98993,-1.09123 -0.98996,-1.09124 -4.15525,3.44341 -4.15528,3.44337 6.91928,13.63407 6.91926,13.63405 z m 18.49446,0 h 6.71405 l -3.23212,-6.25548 -3.23212,-6.25547 -9.66731,-16.10148 -9.6673,-16.10146 -3.88584,3.22013 -3.88583,3.22012 10.07121,19.1368 10.07124,19.13684 z m 19.69837,0 h 6.31045 v -1.61039 -1.61038 l -17.03614,-26.25884 -17.03616,-26.25881 -3.89636,3.22882 -3.89633,3.22883 5.907,10.04429 5.90699,10.04426 8.71505,14.59611 8.71504,14.59611 z m 23.41766,0 h 7.83424 l -23.86342,-32.66748 -23.86345,-32.66748 -0.74026,-0.76225 -0.74026,-0.76223 -3.15908,3.80075 -3.15908,3.80077 19.92853,29.62896 19.92852,29.62896 z m 75.57781,0 h 8.68311 l -11.00668,-11.77906 -11.00643,-11.77903 -33.16826,-33.96509 -33.16822,-33.96506 -2.12048,-3.42586 -2.12048,-3.42586 -4.38249,3.63171 -4.38248,3.63168 8.71925,10.09058 8.71922,10.09061 33.27532,35.44769 33.27532,35.44769 z m -566.72689,-8.38504 2.08829,-0.0445 47.33458,-45.67383 47.33458,-45.67387 -3.47506,-3.48605 -3.47508,-3.48608 -9.05466,8.3363 -9.05469,8.33632 -36.89312,34.23341 -36.89313,34.23343 v 6.63461 6.63464 l 2.08829,-0.0445 z m 580.54469,-0.0792 2.08829,0.12372 v -7.72276 -7.72276 l -6.26487,-5.28632 -6.26487,-5.28632 -38.14496,-35.6447 -38.14496,-35.64461 h -2.76044 -2.76044 l -1.98009,3.19908 -1.98011,3.19907 47.06206,45.33101 47.0621,45.33101 2.08829,0.12372 z m -567.74219,-36.48891 14.89079,-12.04115 29.69087,-26.08928 29.69086,-26.08927 -3.18448,-3.8313 -3.18447,-3.8313 -12.85721,10.35462 -12.85722,10.35459 -28.53996,23.52186 -28.53997,23.52187 v 8.08524 8.08524 z m 567.74219,8.69628 2.08829,0.11426 v -6.53357 -6.53361 l -16.01022,-13.83147 -16.01026,-13.83149 -19.4907,-16.21355 -19.49071,-16.21355 -4.82044,-4.11814 -4.82045,-4.11813 -4.09374,3.39239 -4.09372,3.39241 22.8361,20.29279 22.83612,20.29281 19.49073,16.8974 19.49071,16.8974 2.08829,0.11427 z M 249.34514,721.649 l 29.77008,-22.81895 9.90743,-8.8431 9.90741,-8.8431 -4.52789,-1.74803 -4.52791,-1.74805 -35.1496,25.86716 -35.14963,25.86717 v 7.54293 7.54291 z m 554.25506,22.97305 0.6961,0.0815 -0.0947,-7.64558 -0.0947,-7.64558 -34.17228,-25.71695 -34.17227,-25.71696 h -3.15778 -3.15777 l -1.48931,2.40617 -1.48934,2.40616 29.64124,23.31079 29.64116,23.31079 8.57703,7.56409 8.57675,7.56406 0.69609,0.0815 z m -565.42797,-34.99785 18.99202,-13.3999 16.05161,-11.52842 16.0516,-11.52842 -4.19883,-3.47949 -4.19883,-3.47949 -29.95129,19.5066 -29.95128,19.50662 -0.89351,8.90121 -0.89351,8.90121 z m 565.66353,6.07 0.93138,-4.67801 -1.54311,-4.01562 -1.54338,-4.0156 L 774.07,684.92173 746.45927,666.85806 h -2.80405 -2.80404 l -1.39303,3.62475 -1.39306,3.62473 10.14442,6.79086 10.14438,6.79086 22.27512,16.34166 22.2751,16.3417 z m -559.61111,-31.78957 21.29277,-13.24128 5.98704,-3.78849 5.98704,-3.78851 -1.41226,-3.67477 -1.41227,-3.6748 h -2.79589 -2.79591 l -24.05396,14.35548 -24.05398,14.35551 -0.58567,0.36201 -0.58564,0.36204 1.568,5.98705 1.568,5.98704 z m 559.61111,9.10911 0.93138,-4.23924 -1.3702,-3.56592 -1.37047,-3.56593 -23.06311,-13.04706 -23.06299,-13.04705 -3.64593,1.39697 -3.6459,1.39697 v 2.71638 2.71638 l 27.14777,16.73887 27.1478,16.73887 z m -222.00891,-8.15027 50.8524,-0.19462 1.13227,-3.39171 1.13227,-3.39172 -8.44883,-9.60824 -8.44883,-9.60825 -2.92074,-10.5018 -2.92076,-10.50177 -0.0167,-8.69528 -0.0167,-8.69525 3.53512,-2.92948 3.53511,-2.92948 12.47511,-0.88622 12.47748,-0.88614 v -15.29116 -15.29116 l -15.31413,-1.41935 -15.31413,-1.41935 -3.92239,-2.49271 -3.92242,-2.49268 1.89472,-114.60189 1.89469,-114.60185 -2.77606,-7.29063 -2.77606,-7.29063 h -7.20744 -7.20747 l -7.07544,7.64558 -7.07546,7.64558 -25.5326,38.92295 -25.53261,38.92296 -31.83754,41.70316 -31.83757,41.70317 -29.47112,37.53284 -29.47115,37.53285 -4.75142,7.54778 -4.75141,7.54774 v 6.88427 6.88428 l 3.48048,2.24922 3.48048,2.24924 79.35503,1.39011 79.35503,1.39011 -0.24781,19.27951 -0.24781,19.27951 -6.37436,4.35228 -6.37432,4.35228 -8.17928,7.61481 -8.17925,7.61483 1.3496,2.18043 1.34962,2.18044 50.8524,-0.19462 z m -83.12038,-103.64743 -53.60278,0.84515 0.003,-4.17968 0.003,-4.17966 16.44832,-23.02173 16.44832,-23.02171 10.69946,-12.98275 10.69945,-12.98275 22.80683,-32.10134 22.80683,-32.10135 5.27736,-6.7345 5.27736,-6.73451 1.76438,74.83386 1.76438,74.83382 -3.3969,3.34098 -3.39689,3.34098 -53.60279,0.84519 z m -260.33683,86.67969 18.79461,-10.35487 4.93346,-3.29146 4.93347,-3.29147 -4.13165,-3.4238 -4.13164,-3.42383 -19.59643,10.56861 -19.59643,10.56861 v 6.50156 6.50152 z m 565.23056,9.94306 0.6961,0.13957 v -6.76456 -6.76456 l -18.7754,-9.95482 -18.77537,-9.9548 -3.73127,1.42967 -3.73128,1.42967 0.92765,2.74334 0.92765,2.74338 20.88293,12.40666 20.8829,12.40666 0.69609,0.13957 z m -580.54468,-20.16887 3.48048,-1.44198 14.61803,-6.17669 14.61803,-6.17665 v -2.06912 -2.06912 l -3.77217,-3.12593 -3.77218,-3.12593 -14.26071,6.26076 -14.26071,6.26079 -0.0657,6.55292 -0.0657,6.55293 3.48048,-1.44198 z m 580.54468,0.71218 0.6961,0.13484 v -6.47528 -6.47531 l -13.81808,-6.46226 -13.81782,-6.46227 -4.51664,3.74286 -4.51664,3.74286 17.63845,9.05982 17.63854,9.05979 0.69609,0.13484 z m -580.21994,-19.44313 3.15574,-0.11649 9.25984,-4.92895 9.25984,-4.92898 -4.27941,-3.54625 -4.27941,-3.54627 -9.56116,3.15073 -9.56117,3.15076 1.42499,5.44101 1.425,5.44102 3.15574,-0.1165 z m 578.50309,-0.0278 1.76335,0.14318 1.37967,-5.26764 1.37966,-5.26764 -6.75464,-3.07299 -6.75465,-3.073 h -3.70462 -3.70463 l -3.19592,3.8449 -3.1957,3.84492 10.51196,4.35245 10.51189,4.35247 1.76363,0.14318 z m -586.62412,-13.88209 2.92361,-0.12539 8.00717,-3.41435 8.00717,-3.41438 -4.31563,-3.57627 -4.3156,-3.57629 -9.95644,1.86504 -9.95641,1.865 v 1.91476 1.91476 l 3.34126,3.33625 3.34127,3.33625 z m 599.47852,-3.44777 3.48049,-2.66811 v -2.22417 -2.2242 l -10.07614,-3.32043 -10.07642,-3.32047 -2.41072,3.79989 -2.411,3.7999 -0.0418,1.68298 -0.0418,1.68297 9.04926,2.72989 9.04926,2.72989 3.48048,-2.66814 z m -607.94489,-11.92135 8.60559,-1.84064 2.2235,-1.31068 2.2235,-1.3107 -3.36326,-4.0464 -3.36326,-4.0464 -8.60559,1.84066 -8.6056,1.84064 -2.2235,1.31068 -2.2235,1.3107 3.36326,4.0464 3.36327,4.0464 z m 615.74118,1.46806 2.9236,0.12539 3.34127,-3.33626 3.34126,-3.33625 v -2.0982 -2.09817 l -9.77598,-1.83121 -9.77571,-1.83121 -4.49622,3.72587 -4.49623,3.7259 8.00734,3.41438 8.00706,3.41435 2.92361,0.12538 z m -629.05208,-16.63664 9.82794,-2.21322 1.23888,-1.23705 1.23889,-1.23703 -3.93267,-3.25894 -3.93267,-3.25893 -11.5444,1.84325 -11.54438,1.84325 4.41022,4.86596 4.41025,4.86595 z m 643.09931,2.73559 3.0489,0.12538 4.70394,-5.18982 4.70367,-5.18982 -11.54435,-1.84325 -11.54434,-1.84325 -4.21557,3.49331 -4.21556,3.4933 8.00734,3.41438 8.00706,3.41435 3.04891,0.12539 z m -655.23498,-17.03427 11.61816,-2.60651 0.77136,-0.7702 0.77136,-0.7702 -6.73454,-3.59882 -6.73454,-3.59881 -10.23889,1.91795 -10.23889,1.91793 4.58391,5.05759 4.58391,5.05757 z m 667.85549,0.15597 7.31598,0.3225 3.19647,-3.84564 3.1962,-3.84562 -4.47535,-1.7148 -4.47534,-1.71478 h -7.78431 -7.78459 l -3.27333,3.93803 -3.27304,3.93803 5.02053,1.29988 5.02052,1.29989 z m -687.11871,-14.74744 8.0691,-1.61141 h 4.44727 4.44728 l -5.86756,-5.85877 -5.86757,-5.85876 -11.63971,1.96355 -11.63969,1.96358 4.99091,5.5066 4.99087,5.50659 z m 705.02594,0.72386 2.94811,0.44494 5.40505,-4.11749 5.40477,-4.11746 -4.17658,-2.79047 -4.17658,-2.79047 -8.61768,-0.0425 -8.61768,-0.0425 -4.86293,5.36531 -4.86293,5.3653 9.30403,1.14028 9.30403,1.1403 2.94839,0.44492 z m -719.06493,-19.0161 h 13.92193 l -5.03968,-5.56043 -5.03969,-5.56042 h -13.92193 -13.92194 l 5.03969,5.56042 5.03968,5.56043 z m 132.00399,-0.50114 13.31321,-0.50113 -13.22583,-1.0413 -13.22584,-1.0413 0.0459,-3.32294 0.0457,-3.32293 6.30376,-11.12085 6.30374,-11.12084 59.77965,-1.47376 59.77961,-1.47379 -60.51349,-0.61137 -60.51353,-0.6114 -7.19761,14.1825 -7.19761,14.18249 1.49455,3.88888 1.49454,3.88888 z m 595.77913,0.50114 h 13.92193 l 5.03974,-5.56043 5.03974,-5.56042 h -13.92193 -13.92193 l -5.03974,5.56042 -5.03974,5.56043 z m -565.75959,-3.57538 13.92193,0.0381 -6.22659,-1.19986 -6.22658,-1.19986 -7.69535,1.16191 -7.69535,1.16191 z m -29.93216,-3.09897 7.65706,-1.55572 28.83497,-2.83548 28.835,-2.83551 h 19.12417 19.1242 l 3.95976,-7.64558 3.95973,-7.64558 -54.34947,0.14985 -54.34945,0.14986 -5.10983,9.58083 -5.10979,9.58083 -0.11667,2.30607 -0.11666,2.30605 7.65706,-1.55573 z m 76.61157,0.52346 29.97308,0.59046 5.51743,-9.03568 5.51743,-9.03569 -0.0507,-4.17031 -0.0507,-4.17032 -5.32851,11.72003 -5.32851,11.72001 -30.11127,0.89551 -30.11128,0.89553 29.97309,0.59046 z M 128.55337,527.84751 h 13.92193 l -5.03968,-5.56042 -5.03968,-5.56043 H 118.474 104.55207 l 5.03968,5.56043 5.03969,5.56042 z m 766.76454,0 h 13.92193 l 5.03974,-5.56042 5.03974,-5.56043 h -13.92193 -13.92194 l -5.03974,5.56043 -5.03974,5.56042 z m -777.10845,-19.54989 13.65739,-0.0884 4.87267,-3.69334 4.87268,-3.69335 v -1.77864 -1.77866 h -13.49038 -13.49038 l -5.03969,5.56042 -5.03968,5.56042 z m 787.18793,0.0884 h 13.92193 l -5.03974,-5.56042 -5.03974,-5.56042 h -13.92193 -13.92194 l 5.03974,5.56042 5.03974,5.56042 z m -760.30471,-17.01019 4.87268,0.32893 5.42042,-5.4123 5.4204,-5.41226 -12.04008,-1.80283 -12.04008,-1.80283 -6.0292,5.12997 -6.0292,5.12993 7.77621,1.75623 7.77618,1.7562 z m 741.34081,-2.01596 12.86359,-1.02156 -4.77384,-5.2673 -4.77411,-5.26731 h -12.09816 -12.09816 v 1.86625 1.86624 l 4.00841,4.42262 4.0084,4.42262 z M 156.58541,472.24329 h 12.18879 l 3.52211,-4.23752 3.52208,-4.23748 -1.09287,-1.06382 -1.09287,-1.06385 -10.12996,-0.85764 -10.12996,-0.85761 -4.48807,3.71917 -4.48807,3.71917 v 2.43978 2.4398 z m 707.21992,-0.0425 8.70845,-0.0425 3.61218,-2.28797 3.61247,-2.288 -4.65661,-3.85874 -4.65661,-3.85874 -8.70093,0.90415 -8.70121,0.90418 -2.22361,1.36233 -2.22333,1.36236 3.26051,3.9228 3.26052,3.92279 8.70817,-0.0425 z m -676.66197,-19.27801 5.15754,-4.29776 -11.78374,-2.32684 -11.78378,-2.32687 -4.30956,4.30312 -4.30959,4.30313 3.97482,1.35594 3.97483,1.35594 6.96096,0.96556 6.96097,0.96554 z m 661.07692,3.40504 7.58718,-1.21671 3.97471,-1.26677 3.97499,-1.26678 -4.36982,-4.36332 -4.37009,-4.36332 -11.62064,1.96039 -11.62092,1.96038 4.42885,4.88641 4.42885,4.88639 z m -650.3222,-12.17811 1.99031,0.29151 2.90667,-5.42303 2.90668,-5.42305 -10.32506,-2.8466 -10.32509,-2.84663 -5.18929,4.68922 -5.18932,4.68921 10.6174,3.28891 10.61736,3.28893 z m 636.46849,-2.74623 10.30334,-2.39004 2.68499,-0.0662 2.68498,-0.0664 -4.52936,-4.52251 -4.52936,-4.52251 -13.01785,1.94918 -13.01756,1.9492 4.55859,5.02968 4.5586,5.02965 10.30363,-2.39001 z m -622.78952,-11.07698 1.74734,0.21352 3.52211,-4.23751 3.52208,-4.23749 -1.09287,-0.91018 -1.09287,-0.91019 -9.50904,-3.20836 -9.50905,-3.20836 -5.41329,4.88077 -5.41327,4.8808 10.74573,3.2616 10.74576,3.26161 1.74737,0.21352 z m 612.30992,-3.55383 11.10636,-2.95998 -4.93031,-4.92286 -4.93032,-4.92287 -10.42502,3.19475 -10.42502,3.19474 4.24897,4.68813 4.24898,4.6881 z m -601.36363,-10.34508 1.55611,0.21157 5.40485,-3.96263 5.40486,-3.96261 -6.96097,-2.58871 -6.96096,-2.58873 -4.17658,-1.4265 -4.17659,-1.4265 -5.07443,4.42073 -5.0744,4.42073 9.25098,3.34559 9.25102,3.3456 1.55611,0.21157 z m 577.87705,0.12706 0.28039,0.0845 8.76886,-3.05219 8.7686,-3.05218 v -2.16781 -2.16781 l -3.54063,-2.9341 -3.54063,-2.93412 -11.04427,4.86534 -11.04399,4.86534 5.53536,3.20422 5.53564,3.20422 0.28067,0.0845 z m -3.48104,-15.63341 8.76914,-4.45067 0.76153,-0.63862 0.76181,-0.63858 -1.72687,-4.4933 -1.72688,-4.49329 -10.02936,4.18425 -10.02936,4.18424 -1.23571,1.23403 -1.23599,1.23405 3.46127,4.16428 3.46127,4.16428 z m -560.28282,1.60538 1.74734,0.21157 3.19291,-3.84144 3.19289,-3.84145 -11.26148,-4.49919 -11.26146,-4.49932 h -1.13168 -1.13169 l -0.99725,4.86537 -0.99726,4.86537 8.45017,3.26374 8.45014,3.26375 1.74737,0.21157 z m 9.39018,-11.07486 2.78438,0.0803 4.09595,-2.58646 4.09594,-2.58646 -1.31155,-1.20689 -1.31156,-1.2068 -14.52548,-7.28499 -14.52545,-7.28499 h -1.48477 -1.48475 v 5.49401 5.494 l 10.44145,5.50395 10.44145,5.50399 2.78439,0.0804 z m 530.76784,0.12289 1.73434,0.0425 12.88377,-5.69051 12.88364,-5.69053 v -6.86045 -6.86045 l -17.40242,8.71015 -17.40244,8.71018 -1.31156,1.21176 -1.31156,1.21178 4.09595,2.58646 4.09594,2.58645 1.73434,0.0425 z m -512.7963,-12.5402 4.0502,-4.04412 -5.44208,-4.10715 -5.44212,-4.10715 -19.00486,-10.08302 -19.00488,-10.08302 0.90637,7.72064 0.90635,7.72062 19.49043,10.51365 19.49042,10.51364 z m 502.7088,1.34117 2.78439,-0.0356 16.70635,-8.95754 16.70632,-8.95751 0.88961,-6.25547 0.88989,-6.25547 h -1.28555 -1.28555 l -22.88549,12.85058 -22.88546,12.85055 3.79055,2.39801 3.79055,2.39802 z m -491.61001,-12.49824 4.01083,-3.92989 -1.22644,-0.9421 -1.22647,-0.94213 -22.27509,-14.00392 -22.2751,-14.0039 -6.26487,-3.28937 -6.26487,-3.28936 v 6.94642 6.94638 l 25.75558,15.21885 25.75558,15.21887 z m 479.42484,1.49814 h 2.01517 L 780.41656,355.12527 804.2963,340.875 v -6.60131 -6.60133 h -1.14717 -1.14744 l -27.92487,17.67894 -27.92495,17.67895 3.1774,3.17263 3.17741,3.17264 z m -472.29814,-9.53662 2.78438,-0.65488 0.80366,-4.1342 0.80369,-4.13418 -28.06078,-19.26722 -28.0608,-19.26722 -5.69203,-3.96859 -5.69207,-3.96861 0.92873,7.835 0.92871,7.83499 29.23606,20.18989 29.23606,20.18992 z m 460.4411,1.19599 h 1.48135 l 30.05601,-20.15653 30.05596,-20.15653 0.0278,-7.97556 0.0278,-7.97557 -9.04925,6.73765 -9.04926,6.73765 -24.36336,17.41351 -24.36338,17.41352 v 2.12745 2.12747 l 1.85626,1.85346 1.85624,1.85348 h 1.48135 z m -449.10038,-12.97352 3.9734,-1.52245 v -1.83549 -1.8355 l -38.98141,-31.28685 -38.98142,-31.28683 v 8.22821 8.2282 l 35.00801,26.41659 35.00804,26.41659 z m 439.34707,1.85268 h 3.19787 l 33.39735,-25.7707 33.39736,-25.77066 0.88961,-7.68125 0.88961,-7.68123 -30.12564,22.85095 -30.12573,22.85094 -8.77778,6.90966 -8.77778,6.90966 1.41861,3.69131 1.41862,3.69132 z m -432.58928,-11.26792 1.39219,0.062 3.69107,-2.3366 3.69104,-2.3366 -23.18175,-20.97322 -23.18177,-20.97333 -20.8829,-17.35847 -20.8829,-17.35847 -0.86687,7.20155 -0.86683,7.20156 10.61219,9.53092 10.61221,9.53095 29.23607,23.87387 29.23606,23.8739 1.39219,0.062 z m 421.30285,0.14374 3.31615,-0.003 7.30993,-6.25209 7.30996,-6.25208 27.54809,-22.70354 27.54808,-22.70353 5.04336,-5.56435 5.04308,-5.56437 -0.91968,-6.06425 -0.91996,-6.06425 -10.71683,8.52994 -10.71683,8.52991 -33.20297,29.4369 -33.20287,29.43693 1.62216,2.62077 1.62215,2.62079 3.31618,-0.003 z m -406.72742,-10.13068 2.13089,-1.31498 v -3.58706 -3.58705 l -47.0653,-44.90255 -47.06529,-44.90258 h -1.66148 -1.66147 v 6.72038 6.72036 l 34.10874,31.80611 34.10874,31.80612 12.48714,11.27812 12.48714,11.27812 z m 410.8428,-9.88762 12.42287,-11.95079 5.97655,-5.56043 5.97658,-5.56042 27.08988,-24.83412 27.08994,-24.83415 v -8.06503 -8.06501 l -2.38455,0.92673 -2.38455,0.92673 -46.80693,45.02946 -46.80702,45.02947 3.70218,4.45417 3.70217,4.45418 z m -401.11811,-2.74446 3.72925,-3.09037 -6.33641,-7.2283 -6.3364,-7.2283 -19.51192,-20.8835 -19.51193,-20.88347 -16.35231,-17.49612 -16.35232,-17.49611 -7.22164,0.84676 -7.22167,0.84675 45.69304,47.85151 45.69307,47.85149 z m 376.51465,3.30461 h 2.31881 l 46.68696,-47.95863 46.6869,-47.95864 -8.0828,-0.94508 -8.08252,-0.94511 -25.07724,26.18687 -25.07711,26.18683 -13.92344,15.0713 -13.92343,15.0713 -3.71869,4.7436 -3.71869,4.74357 1.79624,2.90201 1.7962,2.90198 z M 333.73356,308.21084 h 2.45708 l 1.70307,-2.75149 1.70307,-2.75149 -34.06166,-40.34178 -34.06162,-40.34178 h -8.41581 -8.41581 l 9.84954,10.42579 9.84952,10.42579 28.46777,32.66748 28.46776,32.66748 z m 359.29594,0 h 2.21122 l 5.1049,-6.66052 5.10492,-6.66055 26.18989,-30.17725 26.18986,-30.17727 5.61984,-6.25548 5.61984,-6.25547 h -8.63918 -8.63914 l -33.25761,39.61801 -33.25761,39.618 2.77094,3.47527 2.77091,3.47526 z M 344.16977,297.09 h 3.89539 l -0.90028,-4.12984 -0.90025,-4.12984 -24.87362,-33.40301 -24.87365,-33.40301 h -7.81427 -7.8143 l 23.99103,31.27737 23.991,31.27738 5.70178,6.25547 5.70179,6.25548 z m 337.31388,0 h 2.15612 l 26.21951,-32.22067 26.21952,-32.22068 3.82009,-5.31217 3.8201,-5.31218 h -7.24877 -7.24878 l -26.44589,35.11117 -26.44591,35.11115 1.49895,2.4217 1.49892,2.42168 z m -326.52919,-11.39984 3.96538,-3.28604 -4.72215,-7.25316 -4.72218,-7.25318 -15.24923,-22.93674 -15.24922,-22.93674 h -8.04482 -8.04482 l 15.97353,21.54664 15.97353,21.54663 8.07731,11.92933 8.07728,11.9293 z m 317.12946,3.0592 h 0.75635 l 22.57002,-31.89143 22.56999,-31.89147 v -1.47107 -1.47109 h -6.55871 -6.55867 l -19.76751,29.75337 -19.7675,29.75338 2.99984,3.60916 2.99984,3.60915 z M 364.14265,277.62852 h 2.67624 l 1.6977,-2.74282 1.6977,-2.74281 -14.6385,-25.0593 -14.6385,-25.05929 h -7.86113 -7.86113 l 5.35118,7.64558 5.35117,7.64558 12.77452,20.15653 12.77454,20.15653 z m 297.79472,-0.10009 1.74737,-0.10009 16.01022,-26.02255 16.01023,-26.02258 v -1.87272 -1.87272 l -6.07952,0.88841 -6.07954,0.88842 -14.42421,23.63179 -14.42421,23.6318 2.74616,3.47526 2.74616,3.47526 1.74734,-0.10008 z m -11.02102,-9.86071 2.36316,-2.55007 11.71915,-21.54663 11.71915,-21.54664 h -6.6747 -6.67474 l -9.29514,19.18524 -9.29515,19.18521 1.88754,4.91146 1.88756,4.91149 z m -277.41657,-1.19905 2.17569,0.0389 1.79802,-4.67854 1.79802,-4.67854 -9.39792,-17.56314 -9.39795,-17.56315 h -6.53303 -6.53304 l 11.95728,22.20265 11.95727,22.20268 2.17566,0.0389 z m 14.72389,-12.26771 4.1831,-4.17682 -6.36475,-13.9434 -6.36474,-13.94337 -6.26487,-0.0564 -6.26487,-0.0564 v 1.46937 1.4694 l 8.44652,16.70737 8.44652,16.70735 z m 251.77061,1.18587 h 1.64747 l 7.54101,-15.35274 7.54101,-15.35274 v -1.32853 -1.32852 h -5.52186 -5.52188 l -6.85171,13.50095 -6.85171,13.50093 3.18509,3.18034 3.18512,3.18031 z m -240.57893,-14.34661 4.01957,-4.01354 -3.52568,-10.07295 -3.52564,-10.07296 -4.88838,3.5848 -4.88841,3.58478 4.39448,10.50169 4.39449,10.50172 z m 229.10937,3.19749 1.74737,-0.0283 4.66591,-11.09257 4.66591,-11.09257 h -3.96981 -3.96981 l -0.2066,-3.47527 -0.20661,-3.47526 -5.0002,11.12084 -5.0002,11.12085 2.76325,3.47526 2.76326,3.47526 1.74734,-0.0283 z m -217.35956,-14.92967 4.20896,-4.20265 -2.53429,-8.70051 -2.5343,-8.7005 -2.68328,-0.16542 -2.68326,-0.16543 -2.66357,4.21633 -2.6636,4.2163 3.67218,8.85214 3.67219,8.85214 4.20897,-4.20265 z m 208.36803,-2.23023 3.58061,-6.44362 0.0986,-4.52493 0.0986,-4.52496 -3.91874,-3.2474 -3.91875,-3.24737 -3.29373,9.96509 -3.29371,9.96511 3.53319,4.25083 3.53319,4.25086 3.58061,-6.44361 z m -194.87102,-8.46633 4.16413,-4.15792 -3.20664,-11.89074 -3.20664,-11.89071 -4.44213,4.43547 -4.44212,4.43546 3.4846,11.61317 3.48463,11.61319 z m 183.97374,-6.68641 3.53269,-10.18861 -3.12283,-3.75712 -3.12283,-3.75715 h -1.97628 -1.9763 l -2.91202,9.47401 -2.91202,9.47402 4.47846,4.47172 4.47843,4.47174 z m -170.06072,-8.065 4.01745,-5.46756 -1.4875,-5.56043 -1.4875,-5.56042 -0.0381,-6.87329 -0.0382,-6.87329 -6.05055,6.04148 -6.05053,6.04145 3.55861,11.85983 3.55862,11.85979 4.01745,-5.46756 z m 152.87125,3.58517 0.65399,-0.7121 2.80071,-10.2433 2.8007,-10.2433 -5.09384,-4.60294 -5.09381,-4.60292 -2.91334,10.53544 -2.91335,10.53542 4.5525,5.02289 4.55247,5.02293 z M 448.32107,194.22219 h 2.47747 l 3.07454,-6.73776 3.07452,-6.73776 -1.946,-10.35764 -1.94604,-10.35765 -5.22499,5.27951 -5.22498,5.27951 1.61901,11.81589 1.61901,11.8159 z m 131.36818,-11.21559 2.33401,-11.78451 -5.41563,-5.40751 -5.41563,-5.40751 -1.87707,11.72092 -1.87706,11.72093 4.95868,5.47109 4.95872,5.47109 z m -17.3783,-6.95979 2.13665,-5.45641 0.19574,-8.60478 0.19575,-8.60478 -5.26166,-4.75461 -5.26168,-4.75461 -1.31707,11.96929 -1.3171,11.96928 4.24638,6.84652 4.24642,6.84649 2.13665,-5.45639 z m -97.69495,1.49411 h 2.08759 l 3.322,-3.99674 3.322,-3.99675 -1.94448,-12.94728 -1.94448,-12.94725 -5.32683,5.31885 -5.32684,5.31885 1.86172,11.62518 1.86175,11.62514 z m 19.82965,-21.17133 5.21491,-4.71235 V 139.5772 127.49713 h -1.86905 -1.86905 l -5.09192,4.60122 -5.09192,4.60122 0.0381,5.82457 0.0381,5.82457 1.70802,6.36663 1.70803,6.36662 5.21493,-4.71237 z m 61.19915,0.1012 2.09648,-5.34198 0.19574,-8.69525 0.19575,-8.69528 -4.24388,-3.51682 -4.24385,-3.5168 -0.9308,1.09123 -0.93082,1.09123 -1.56254,10.12614 -1.56254,10.12617 4.44505,6.33668 4.44505,6.33666 2.09645,-5.34198 z m -41.71827,-16.77368 5.22474,-4.72124 v -13.47015 -13.47018 h -1.86905 -1.86905 l -5.09192,4.60122 -5.09192,4.60122 v 9.07244 9.07247 l 1.73623,4.51773 1.73621,4.51773 z m 24.1902,-8.15583 0.86694,-13.27935 -5.73962,-5.73101 -5.73962,-5.73102 v 13.60491 13.60491 l 4.87267,5.40545 4.87268,5.40545 z" style="fill:#3a4853;fill-opacity:1;stroke-width:2.7823"></path>
  </g>
</svg>
