<svg viewBox="0 0 1024 1024" height="1024" width="1024" id="svg833" version="1.1" xmlns:xlink="http://www.w3.org/1999/xlink" xmlns="http://www.w3.org/2000/svg">
  <metadata id="metadata839">
    
      
        image/svg+xml
        
        
      
    
  </metadata>
  <defs id="defs837">
    <linearGradient id="linearGradient862">
      <stop id="stop858" offset="0" style="stop-color:#fdfbef;stop-opacity:1"></stop>
      <stop id="stop860" offset="1" style="stop-color:#ded7c7;stop-opacity:1"></stop>
    </linearGradient>
    <radialGradient gradientTransform="translate(-4.4144922e-5,-5.695625e-5)" r="512" fy="512" fx="512" cy="512" cx="512" gradientUnits="userSpaceOnUse" id="radialGradient928" xlink:href="#linearGradient862"></radialGradient>
  </defs>
  
  <g style="display:inline" id="layer1">
    <circle r="512" cy="512" cx="512" id="path856" style="opacity:1;fill:url(#radialGradient928);fill-opacity:1;fill-rule:evenodd;stroke:none;stroke-width:1.51937;stroke-miterlimit:4;stroke-dasharray:none"></circle>
  </g>
  <g style="display:inline" id="g841">
    <path id="path1653" d="" style="opacity:1;fill:#e7ba59;fill-opacity:1;fill-rule:evenodd;stroke:none;stroke-width:0.392762;stroke-miterlimit:4;stroke-dasharray:none"></path>
    <path id="path1819" d="" style="opacity:1;fill:#e7ba59;fill-opacity:1;fill-rule:evenodd;stroke:none;stroke-width:0.785525;stroke-miterlimit:4;stroke-dasharray:none"></path>
    <path id="path1877" d="" style="opacity:1;fill:#e7ba59;fill-opacity:1;fill-rule:evenodd;stroke:none;stroke-width:0.55545;stroke-miterlimit:4;stroke-dasharray:none"></path>
    <path id="path2063" d="" style="opacity:1;fill:#e7ba59;fill-opacity:1;fill-rule:evenodd;stroke:none;stroke-width:0.55545;stroke-miterlimit:4;stroke-dasharray:none"></path>
    <path id="path2089" d="" style="opacity:1;fill:#e7ba59;fill-opacity:1;fill-rule:evenodd;stroke:none;stroke-width:0.277725;stroke-miterlimit:4;stroke-dasharray:none"></path>
    <path id="path2282" d="M 1.2029027,230.50639 1.0274038,0.55718956 203.1926,0.75746959 C 407.52443,0.95989622 462.51284,1.6720356 441.72132,3.8465877 435.98451,4.4465914 417.88831,7.9435997 401.50754,11.617717 311.49135,31.807861 228.72931,75.061662 163.87976,135.80878 86.263086,208.51536 35.019018,297.68416 11.879238,400.30194 8.2273978,416.49673 4.370775,436.65643 3.3089651,445.1013 1.6480583,458.31094 1.3538882,428.3368 1.2029027,230.50639 Z" style="opacity:1;fill:#000000;fill-opacity:0;fill-rule:evenodd;stroke:none;stroke-width:2.2218;stroke-miterlimit:4;stroke-dasharray:none"></path>
    <path id="path2284" d="M 1.2029027,230.50639 1.0274038,0.55718956 203.1926,0.75746959 C 407.52443,0.95989622 462.51284,1.6720356 441.72132,3.8465877 435.98451,4.4465914 417.88831,7.9435997 401.50754,11.617717 311.49135,31.807861 228.72931,75.061662 163.87976,135.80878 86.263086,208.51536 35.019018,297.68416 11.879238,400.30194 8.2273978,416.49673 4.370775,436.65643 3.3089651,445.1013 1.6480583,458.31094 1.3538882,428.3368 1.2029027,230.50639 Z" style="opacity:1;fill:#000000;fill-opacity:0;fill-rule:evenodd;stroke:none;stroke-width:2.2218;stroke-miterlimit:4;stroke-dasharray:none"></path>
    <path id="path2286" d="M 1.2029027,230.50639 1.0274038,0.55718956 203.1926,0.75746959 C 407.52443,0.95989622 462.51284,1.6720356 441.72132,3.8465877 435.98451,4.4465914 417.88831,7.9435997 401.50754,11.617717 311.49135,31.807861 228.72931,75.061662 163.87976,135.80878 86.263086,208.51536 35.019018,297.68416 11.879238,400.30194 8.2273978,416.49673 4.370775,436.65643 3.3089651,445.1013 1.6480583,458.31094 1.3538882,428.3368 1.2029027,230.50639 Z" style="opacity:1;fill:#000000;fill-opacity:0;fill-rule:evenodd;stroke:none;stroke-width:2.2218;stroke-miterlimit:4;stroke-dasharray:none"></path>
    <path id="path2288" d="M 1021.0892,453.52091 C 1019.6107,429.34068 1007.8399,377.65122 996.02651,343.4619 957.18614,231.05385 880.31581,136.28572 776.4619,72.775798 731.85923,45.499872 679.95263,24.846627 623.97392,12.101985 606.68207,8.1651603 587.92791,4.4520202 582.298,3.8505627 561.74238,1.6545533 615.79243,0.95261954 820.28998,0.75982375 L 1023.1863,0.56853743 V 235.27027 c 0,129.08595 -0.2469,234.70172 -0.5456,234.70172 -0.2987,-1e-5 -0.9957,-7.40299 -1.5489,-16.45108 z" style="opacity:1;fill:#000000;fill-opacity:0;fill-rule:evenodd;stroke:none;stroke-width:2.2218;stroke-miterlimit:4;stroke-dasharray:none"></path>
    <path id="path2290" d="m 580.8244,1020.4487 c 8.04275,-1.0697 27.78406,-4.9192 43.86958,-8.5546 173.57717,-39.22936 313.04426,-163.83302 371.32504,-331.75181 10.18718,-29.35131 21.76418,-77.22931 24.87608,-102.87723 1.661,-13.69022 1.9533,16.14062 2.1044,214.78204 l 0.1755,230.6804 -228.4869,-0.167 c -196.97909,-0.144 -226.47038,-0.4352 -213.8637,-2.1118 z" style="opacity:1;fill:#000000;fill-opacity:0;fill-rule:evenodd;stroke:none;stroke-width:2.2218;stroke-miterlimit:4;stroke-dasharray:none"></path>
    <path id="path2292" d="M 1.1966605,792.76692 C 1.3504794,596.92164 1.6583286,565.09493 3.2723657,578.17206 4.3146709,586.61695 8.1911198,607.01173 11.886697,623.49379 43.016,762.32876 127.91708,879.5779 250.34172,952.80226 c 29.39694,17.58284 58.20542,30.93364 92.85659,43.0328 28.46333,9.93854 74.03572,21.13604 100.16838,24.61214 12.60664,1.6769 -16.88465,1.9674 -213.86375,2.107 l -228.4868841,0.1619 z" style="opacity:1;fill:#000000;fill-opacity:0;fill-rule:evenodd;stroke:none;stroke-width:2.2218;stroke-miterlimit:4;stroke-dasharray:none"></path>
    <path id="path2294" d="m 449.118,837.15605 c -3.95642,-4.64452 -4.36842,-5.9588 -3.48483,-11.11651 2.28018,-13.30993 2.61694,-16.8166 1.61501,-16.81661 -2.07327,-3e-5 -6.07271,8.57533 -6.07276,13.02082 -7e-5,5.87191 -2.54591,5.6517 -7.80198,-0.67488 l -4.14614,-4.99059 2.43967,-7.34488 c 2.45582,-7.39352 3.1767,-7.69916 8.14906,-3.45514 3.03204,2.58791 5.40704,-0.003 25.30912,-27.60166 l 15.53353,-21.54127 10e-4,-20.13456 c 0.002,-22.09704 -4.61078,-51.57439 -8.06979,-51.57443 -0.99539,-10e-6 -4.02883,0.91791 -6.74096,2.03983 l -4.93113,2.03985 -22.86914,-14.78389 -22.86914,-14.78388 -5.28546,-11.75013 c -2.90701,-6.46256 -5.28305,-13.43064 -5.2801,-15.48463 0.007,-5.31493 -8.03737,-12.52361 -16.26748,-14.57643 -10.55753,-2.63332 -17.11319,-10.58431 -24.69073,-29.94595 -3.86553,-9.87696 -9.04077,-19.84109 -13.4083,-25.81564 l -7.11292,-9.73009 -12.02994,0.69715 c -6.61647,0.38344 -17.23347,1.61949 -23.59333,2.74679 -8.69369,1.54098 -13.09118,1.66491 -17.71964,0.4994 -5.89565,-1.48461 -6.26741,-1.91735 -8.78182,-10.22221 -1.97942,-6.53785 -3.19665,-8.5127 -4.94617,-8.02479 -1.27634,0.35594 -5.28181,1.07229 -8.90105,1.59189 -10.23911,1.47 -10.58209,1.6714 -17.40305,10.21924 l -6.43124,8.05945 -31.94344,-3.5e-4 -31.94343,-3.6e-4 -8.95712,18.64443 -8.95712,18.64443 -2.02632,21.56589 -2.02633,21.5659 7.39606,16.45438 c 6.54231,14.55502 8.69126,17.76259 18.61654,27.78746 6.17127,6.23319 12.01964,11.33308 12.99638,11.33309 3.81559,5e-5 3.28126,-3.24728 -2.39057,-14.52829 l -5.89684,-11.72858 2.9e-4,-26.0934 2.9e-4,-26.09341 7.69318,-11.05238 c 6.39896,-9.19304 13.73781,-16.37695 26.97944,-26.4099 0.97357,-0.73765 8.10741,-1.88408 15.85299,-2.54762 12.41513,-1.06356 15.78249,-0.79487 28.43476,2.26887 8.36277,2.02503 21.27462,6.74737 30.94103,11.31627 14.71377,6.95457 18.49584,9.58659 33.45543,23.28246 15.69536,14.36949 17.45422,16.54431 25.3355,31.32704 7.28533,13.66494 8.88157,18.13485 11.41906,31.97648 2.5832,14.09108 2.8264,19.49861 1.95677,43.50934 -0.54618,15.08013 -0.49495,27.41843 0.1139,27.41843 0.6088,10e-6 2.18031,-0.97139 3.49226,-2.15866 2.14492,-1.94108 3.33357,-1.20193 11.79259,7.33315 8.16612,8.23955 9.16762,9.8266 7.591,12.02942 -0.99893,1.39568 -2.18568,3.52465 -2.63723,4.73106 -0.45154,1.2064 -2.08395,4.99013 -3.62757,8.40828 -2.71594,6.01411 -3.02548,6.2148 -9.58505,6.21473 -5.52032,-6e-5 -6.47478,-0.366 -5.14226,-1.97156 1.24837,-1.50416 0.94419,-2.5978 -1.2832,-4.61361 -2.85915,-2.58751 -2.91949,-2.54676 -2.91954,1.97148 l -5e-5,4.61359 -8.08029,-9e-5 -8.08029,-9e-5 2.43421,-4.7525 c 1.33882,-2.61388 5.30404,-9.82947 8.81163,-16.03465 3.50758,-6.20518 6.37742,-12.01786 6.37743,-12.91707 5e-5,-4.23184 -4.09136,0.84737 -13.06217,16.21583 l -9.78142,16.75717 -7.5885,0.44192 c -7.06432,0.41139 -9.77706,-1.11037 -6.06689,-3.40332 1.57226,-0.97169 5.27625,-6.59127 12.2648,-18.60777 3.27347,-5.62861 3.59879,-6.94597 1.71527,-6.94599 -1.32021,-1e-5 -6.5305,6.31724 -12.06066,14.62303 l -9.73632,14.62305 -7.17487,-8e-5 c -5.33008,-6e-5 -6.90243,-0.47006 -6.11533,-1.82796 0.58273,-1.00534 7.2021,-10.82102 14.7097,-21.81261 7.50761,-10.99159 13.65018,-20.36862 13.65019,-20.83785 0,-0.46923 -0.82254,-0.83285 -1.82789,-0.80808 -1.00534,0.0249 -9.06647,10.19271 -17.91362,22.59541 l -16.08573,22.55035 -7.67716,0.0703 c -4.22244,0.0386 -7.65973,-0.42333 -7.63843,-1.02653 0.0213,-0.60321 11.57902,-15.90256 25.68385,-33.99856 14.10481,-18.09601 26.34188,-34.21791 27.19349,-35.82645 3.62117,-6.83973 -12.45026,10.84216 -34.69286,38.16931 -13.15939,16.16753 -25.43966,30.31987 -27.28952,31.4496 -2.20225,1.34496 -5.72573,1.79815 -10.20622,1.31274 l -6.84285,-0.7414 21.93279,-24.85913 c 12.06304,-13.67252 28.24926,-32.42654 35.96938,-41.6756 7.72012,-9.24907 14.4742,-17.33158 15.00906,-17.96114 2.2024,-2.59233 5.84221,1.17313 9.53648,9.86566 3.26991,7.69407 9.76015,15.40744 12.96426,15.40747 0.37703,10e-6 1.49254,-3.60604 2.47892,-8.01343 1.56279,-6.98287 1.36838,-10.60307 -1.51167,-28.1496 -3.09205,-18.83821 -3.8442,-21.14925 -11.66855,-35.85288 -7.98313,-15.00202 -9.11072,-16.35705 -24.79668,-29.79857 -19.35222,-16.58318 -34.8214,-25.38978 -53.57093,-30.49793 -28.58986,-7.78908 -44.02556,-4.25981 -59.38035,13.57693 -8.04052,9.34019 -8.27594,9.86662 -10.09867,22.58221 -2.98364,20.81423 -0.53858,38.00647 7.764,54.59203 l 6.52995,13.04448 -3.66357,5.48364 c -3.43969,5.14854 -4.12223,5.48364 -11.16901,5.48356 l -7.50544,-8e-5 -14.9003,-14.98891 C 163.49325,676.921 161.33283,673.97766 155.35656,661.05699 l -6.64241,-14.36085 2.4e-4,-21.40683 c 2.1e-4,-18.78717 0.48067,-23.11411 3.92614,-35.35793 3.24098,-11.51712 5.77035,-16.72294 14.49797,-29.83882 l 10.57206,-15.88774 18.03902,-11.53016 c 25.63078,-16.38266 40.51763,-21.80244 76.63405,-27.89973 10.80151,-1.82355 19.63911,-3.78473 19.63912,-4.35816 1e-5,-0.57343 -3.45469,-3.13643 -7.6771,-5.69554 -7.93325,-4.80819 -10.20421,-7.40896 -32.76709,-37.52602 -13.06477,-17.43893 -13.58625,-18.44516 -20.84177,-40.21534 l -7.44172,-22.32889 4.1e-4,-36.97216 c 3.3e-4,-30.06826 0.56921,-40.71741 3.04649,-57.02887 2.93053,-19.29595 3.45205,-20.89867 13.74932,-42.25446 5.88679,-12.20877 11.45198,-25.69858 12.36709,-29.97734 1.28049,-5.98717 3.136,-9.29569 8.05345,-14.35993 3.93509,-4.05256 8.02863,-10.51251 10.6563,-16.81652 3.73235,-8.95426 5.46449,-11.15181 13.83129,-17.54764 6.50459,-4.97231 11.70927,-10.64862 16.26812,-17.74231 5.85315,-9.10766 8.05733,-11.18452 17.37589,-16.37226 5.86982,-3.26778 15.60083,-9.90732 21.62449,-14.75453 6.02364,-4.84721 12.93313,-9.24296 15.35442,-9.76835 2.42128,-0.52538 16.4257,-4.16682 31.12094,-8.0921 25.13018,-6.71258 28.14447,-7.19309 50.70245,-8.0825 l 23.98382,-0.94563 4.48494,3.77391 c 3.19566,2.68902 6.90643,4.03941 12.90835,4.69747 10.52026,1.15346 13.80491,2.49965 21.51526,8.81784 3.57617,2.93048 10.35859,6.33728 16.22237,8.14849 8.02176,2.47777 11.17117,4.35584 15.44314,9.20916 2.95149,3.35315 8.57364,7.5989 12.49365,9.43498 5.97642,2.7993 8.14944,5.03615 13.45751,13.85285 3.48162,5.78297 10.82358,14.79182 16.31548,20.01967 9.95312,9.47457 10.01152,9.57673 18.14469,31.74506 l 8.15944,22.2399 -2.6e-4,22.78 c -2.1e-4,19.13103 -0.60726,25.52373 -3.78969,39.90859 -4.38888,19.83803 -8.2797,27.6746 -22.82222,45.96683 -12.5397,15.77297 -30.30293,28.66477 -55.30754,40.13983 l -17.22531,7.90502 -8.1898,-4.01677 c -7.76867,-3.81022 -8.1898,-4.29796 -8.18974,-9.48494 4e-5,-4.16102 2.09747,-8.79727 8.77411,-19.39479 l 8.77405,-13.9266 3.1e-4,-27.55444 3e-4,-27.55442 -8.54844,-10.14206 c -8.14821,-9.66725 -9.2766,-10.43667 -24.10133,-16.43419 l -15.55289,-6.29212 -9.37605,2.81278 c -10.87886,3.26359 -30.16011,17.60552 -30.16017,22.43394 -1e-5,1.55585 -2.63225,7.62473 -5.84941,13.4864 -5.68325,10.35489 -5.84939,11.05819 -5.84954,24.76104 -1.4e-4,13.0607 0.43762,15.2023 5.92089,28.96604 5.42927,13.62816 7.00815,16.02093 19.00979,28.80887 8.05105,8.57851 13.08873,15.15017 13.08871,17.07423 -4e-5,3.78569 22.45009,19.70035 27.94812,19.81215 8.56686,0.17418 22.63141,9.92496 49.73474,34.48046 27.20119,24.64416 27.24472,24.69354 36.92301,41.88569 8.30681,14.75585 9.68972,18.2413 9.68965,24.42134 -5e-5,4.57075 1.87289,12.38325 5.11787,21.34797 3.98335,11.00451 5.11793,16.36966 5.11784,24.20082 -6e-5,5.53397 0.44073,10.06178 0.97955,10.06178 0.53881,10e-6 5.30966,-4.14868 10.6019,-9.2193 13.21358,-12.66029 57.75121,-40.21204 86.51432,-53.51927 30.37404,-14.0525 35.73642,-18.7344 46.16086,-40.30292 l 7.79859,-16.13559 0.0133,-15.2847 c 0.0133,-14.95423 -0.0797,-15.38106 -4.30295,-19.74131 l -4.31655,-4.45662 -20.21384,1.28348 -20.21383,1.28347 -13.07774,8.95238 c -10.10762,6.91917 -14.08465,10.66945 -17.51134,16.51298 -3.17019,5.4061 -6.19402,8.41664 -10.61113,10.56451 l -6.1775,3.00388 -7.0132,-4.35975 -7.01322,-4.35977 1.83968,-24.65855 c 1.75856,-23.57156 2.12924,-25.42171 8.40856,-41.9708 6.37533,-16.80209 6.92527,-17.67106 18.66324,-29.48934 13.35832,-13.44946 27.88827,-23.7708 33.46376,-23.77073 1.98952,2e-5 10.98426,-2.96107 19.98829,-6.5802 l 16.37098,-6.58024 25.62548,2.8e-4 25.62547,2.8e-4 21.55078,10.81836 c 20.07545,10.07777 22.3521,11.65446 33.25644,23.03184 10.70651,11.17099 12.66661,14.21062 22.9634,35.61068 11.20721,23.2922 11.27108,23.49273 14.23527,44.69047 l 2.97752,21.29328 -5.98992,27.67279 c -4.22052,19.49832 -7.39248,30.48687 -10.73797,37.19926 -2.61143,5.23958 -5.95032,12.81669 -7.41974,16.83805 -1.53038,4.1881 -7.05988,12.62139 -12.9438,19.74112 -16.06766,19.44241 -58.07288,62.87895 -60.80693,62.87891 -1.35501,-10e-6 -7.34938,4.16596 -13.32082,9.25772 -5.97144,5.09176 -16.68212,12.80187 -23.80153,17.13356 l -12.94436,7.87582 5.63266,2.37187 c 3.09798,1.30453 11.88407,3.88654 19.52465,5.7378 7.64058,1.85128 23.10453,6.24999 34.36432,9.77493 11.2598,3.52495 33.96219,9.02207 50.44977,12.21584 35.55281,6.88685 47.88305,6.87342 72.23741,-0.0786 13.09869,-3.73912 15.18997,-4.8374 21.98084,-11.54376 8.40145,-8.2969 12.85882,-9.29983 21.98645,-4.94704 4.931,2.3515 5.16769,2.81056 5.16761,10.02267 -7e-5,5.88319 -1.44084,10.64133 -6.50097,21.4694 -7.72868,16.53843 -11.80118,20.53551 -37.51146,36.8168 -17.62612,11.16191 -17.97246,11.30304 -40.62319,16.55336 l -22.8455,5.29548 -55.56799,-1.73739 c -30.5624,-0.95556 -69.38688,-1.72464 -86.27663,-1.70906 -36.90573,0.0341 -52.39245,2.88287 -67.05206,12.33445 -8.56253,5.52057 -9.15514,7.48363 -2.53636,8.40195 2.65375,0.36821 4.0987,2.0611 5.83307,6.83398 2.19935,6.05247 2.17207,6.44207 -0.59246,8.4635 -5.0814,3.71551 -8.617,1.98216 -10.07119,-4.93749 -0.71836,-3.41817 -1.83181,-6.21486 -2.47433,-6.21487 -2.73255,-3e-5 -2.88604,3.51108 -0.44971,10.28655 l 2.60268,7.23806 -4.1643,4.34651 c -2.29037,2.39059 -4.67134,4.03314 -5.29103,3.65013 -0.61971,-0.383 -2.23658,-4.03794 -3.59309,-8.12211 -1.73408,-5.22105 -2.92559,-6.96647 -4.01321,-5.87887 -1.08761,1.08758 -0.74668,4.1898 1.14833,10.44886 l 2.69521,8.90201 -4.48793,4.48783 c -5.38292,5.38272 -7.72299,4.43792 -7.72291,-3.1182 4e-5,-3.85164 -0.75202,-5.89512 -2.4027,-6.52857 -3.67033,-1.40848 -3.79819,-0.43917 -1.24297,9.42219 l 2.36743,9.13662 -4.76596,4.91712 c -2.62129,2.7044 -5.29493,4.91711 -5.94143,4.9171 -0.64651,-10e-6 -1.17542,-2.93805 -1.17538,-6.52899 5e-5,-5.03236 -0.67033,-6.88777 -2.92455,-8.09422 -3.5045,-1.8756 -3.58782,-1.20017 -1.34723,10.92105 1.56277,8.45437 1.53585,8.57515 -2.9003,13.0112 -4.37467,4.37457 -4.52769,4.41151 -6.64912,1.60556 -1.48105,-1.9589 -2.18617,-6.52603 -2.21781,-14.36469 l -0.0464,-11.49262 10.14088,-16.29127 c 9.74338,-15.65267 10.8468,-16.83536 28.14992,-30.17234 25.56924,-19.70836 33.44911,-23.42042 61.87869,-29.14988 l 23.39711,-4.71526 54.83682,3.50345 c 54.29091,3.46858 55.16434,3.47862 87.73895,1.00957 19.05054,-1.44397 36.59665,-3.54567 41.67782,-4.99224 6.19278,-1.76303 14.58555,-6.4711 28.51534,-15.99615 18.90999,-12.93048 20.00026,-13.95412 25.94007,-24.35492 4.59928,-8.05346 6.20419,-12.46198 6.21504,-17.07196 0.0204,-8.69863 -3.01138,-8.1778 -13.83813,2.37727 -9.72683,9.48272 -13.70539,10.95818 -47.56482,17.63962 -14.84519,2.92938 -15.57845,2.94444 -22.11215,0.45394 -6.26018,-2.38624 -9.43667,-2.44886 -43.13832,-0.85054 -36.18651,1.71617 -36.57937,1.70263 -73.66952,-2.53582 -37.08189,-4.2375 -37.5002,-4.25191 -75.30925,-2.59589 l -38.02024,1.66527 -8.55358,7.31946 c -7.58871,6.49381 -10.64031,7.9528 -27.05299,12.93425 -14.39137,4.36795 -20.94348,5.61645 -29.50565,5.62225 l -11.00622,0.007 -35.90281,36.19192 c -44.25419,44.61055 -48.61868,50.8305 -51.14123,72.88251 -2.0315,17.75947 -3.41775,19.57702 -9.49244,12.44583 z m -72.33537,-65.85799 c 1.9358,-3.61697 1.90627,-4.48306 -0.15288,-4.48308 -1.70148,-2e-5 -5.51438,4.23264 -5.59846,6.21478 -0.0974,2.29538 4.30556,0.96969 5.75134,-1.7317 z m 4.43848,-7.40766 c 0,-0.80428 -0.98705,-1.46233 -2.19346,-1.46234 -1.20641,-2e-5 -2.19348,0.65801 -2.19349,1.46229 -10e-6,0.80427 0.98704,1.46232 2.19346,1.46234 1.20641,10e-6 2.19348,-0.65802 2.19349,-1.46229 z m -29.24619,-12.31041 c 0,-0.33636 0.39944,-1.65244 0.88764,-2.92463 1.30304,-3.39552 -2.74603,-2.89382 -4.9352,0.61151 -1.59885,2.5601 -1.46043,2.92461 1.11054,2.92464 1.61536,2e-5 2.93702,-0.27518 2.93702,-0.61152 z m 8.51229,-14.17769 c 2.67103,-4.08384 4.54477,-7.73682 4.16386,-8.11774 -1.42269,-1.42273 -6.70874,3.18299 -9.64107,8.40026 -3.53087,6.28215 -3.68617,7.20449 -1.20711,7.16888 1.00534,-0.0146 4.01329,-3.36756 6.68432,-7.4514 z m -15.82366,-4.22095 c 1.20197,-2.24585 1.1121,-2.92462 -0.38722,-2.92463 -2.14936,-3e-5 -5.46205,2.83794 -5.46207,4.67935 -2e-5,2.37543 4.33482,1.07502 5.84929,-1.75472 z m 183.27024,-18.73042 c 5.76782,-4.67287 12.79009,-9.37889 15.60506,-10.45783 2.81497,-1.07894 14.3308,-8.57346 25.59072,-16.6545 15.46099,-11.09607 23.0016,-15.52217 30.80371,-18.08079 5.68213,-1.86339 18.44159,-7.65439 28.35437,-12.86887 l 18.02322,-9.48089 25.76561,2.9e-4 25.76562,2.9e-4 35.81289,-24.86307 c 22.19209,-15.40685 39.01087,-28.21328 44.2213,-33.6717 l 8.40841,-8.80862 2e-4,-17.42786 c 1.8e-4,-16.63347 0.22213,-17.91487 4.86909,-28.11166 3.78247,-8.29984 6.00182,-11.29388 9.94612,-13.41797 3.57263,-1.92394 6.42913,-5.3903 9.63935,-11.69738 l 4.56215,-8.9632 -2.0466,-13.16087 c -1.12563,-7.23848 -2.06071,-21.7528 -2.07796,-32.25405 l -0.0314,-19.09319 -10.11208,-4.89204 c -9.45562,-4.57446 -10.78821,-5.85068 -20.52691,-19.65843 -7.806,-11.06753 -14.09204,-17.87993 -25.09485,-27.19622 -13.66886,-11.57365 -15.60409,-12.7058 -28.09471,-16.436 -12.66045,-3.7809 -55.12143,-11.34893 -63.67454,-11.34902 -2.86983,-3e-5 -6.15528,2.27955 -12.11828,8.40818 -7.55038,7.76008 -8.69294,9.88228 -14.82205,27.53061 -5.80811,16.72407 -6.77289,21.26326 -7.69239,36.19224 -1.02445,16.63281 -0.97376,17.06985 1.97967,17.06989 2.18151,2e-5 4.79887,-2.88305 9.33838,-10.28642 5.91659,-9.64921 7.22506,-10.81548 21.12171,-18.82635 l 14.81438,-8.53992 18.08784,-1.61119 c 17.08166,-1.52154 18.64518,-1.43172 28.10681,1.61474 9.77072,3.14599 10.12399,3.43395 14.25745,11.62253 3.67664,7.28358 4.23847,10.02972 4.23836,20.71618 -1.3e-4,11.6905 -0.36672,13.10457 -7.17917,27.69325 -4.84375,10.37273 -10.77843,19.89481 -18.24405,29.27225 l -11.06502,13.89855 -21.60448,8.33714 c -11.88247,4.58541 -22.64917,9.51808 -23.92603,10.96146 -1.27685,1.44338 -9.68961,6.31945 -18.69502,10.83572 -9.60851,4.8187 -22.24349,12.7995 -30.58081,19.31616 -21.05151,16.45435 -49.81227,45.00303 -61.12389,60.67316 -5.4359,7.5304 -11.79821,15.99477 -14.13846,18.8097 -2.46845,2.96912 -7.57126,14.02087 -12.1532,26.32155 l -7.89821,21.2035 -0.027,17.91337 c -0.0178,11.85425 0.50662,17.91338 1.55037,17.91339 0.86751,10e-6 6.2964,-3.82324 12.0642,-8.49611 z m -23.87707,-46.20375 c 8e-5,-7.29286 13.36815,-33.68217 24.90361,-49.16109 l 11.46982,-15.39086 -1.5476,-11.66188 c -1.04353,-7.86338 -3.39481,-15.77341 -7.21872,-24.28478 -5.14161,-11.44429 -5.6711,-13.77523 -5.67098,-24.96455 l 1.4e-4,-12.34167 -13.52629,-12.07328 c -14.36457,-12.82151 -37.39877,-25.98881 -51.77866,-29.59881 -4.22072,-1.0596 -12.43641,-5.48345 -20.34656,-10.95587 -7.29705,-5.04826 -19.55748,-11.88778 -27.24543,-15.19893 -11.79517,-5.08012 -14.6947,-7.01818 -18.56689,-12.41023 -2.52383,-3.51447 -7.94142,-10.05832 -12.03907,-14.5419 l -7.45028,-8.15197 1.04283,-9.73674 c 0.57357,-5.3552 1.33821,-10.50647 1.69924,-11.44726 0.36102,-0.94079 -2.30091,-5.26793 -5.91542,-9.61587 -6.29568,-7.57317 -6.47655,-8.05112 -4.30462,-11.37471 1.93144,-2.95556 2.0257,-5.09325 0.63643,-14.43473 l -1.63077,-10.96536 12.44731,-13.55981 12.44729,-13.55983 1.7e-4,-14.81455 c 1.5e-4,-14.0202 0.2746,-15.35951 5.11838,-24.97771 2.81502,-5.58973 5.12017,-11.66017 5.12254,-13.48986 0.003,-2.34977 3.69672,-6.54744 12.5777,-14.29395 10.86453,-9.47666 14.25705,-11.53513 24.96139,-15.1457 l 12.38802,-4.17846 9.0333,3.22767 c 21.08935,7.53538 29.2994,12.52586 39.66991,24.11336 8.9069,9.95211 10.1824,12.17398 12.83339,22.35534 2.75356,10.57525 2.82712,12.62632 1.13968,31.77734 l -1.80384,20.4724 -8.60835,15.48208 c -4.7346,8.51513 -8.60836,15.91806 -8.60837,16.45096 -8e-5,7.66224 57.08998,-25.22706 65.23851,-37.58358 2.19338,-3.32607 7.49729,-10.39978 11.78648,-15.71934 7.09997,-8.80557 8.19806,-11.19972 12.25888,-26.72789 l 4.46037,-17.05597 -3.36764,-4.26532 c -2.07931,-2.63358 -4.78756,-4.29628 -7.07933,-4.34625 -5.13736,-0.11208 -12.66244,-9.50788 -21.14978,-26.40764 -3.78142,-7.52946 -10.26306,-17.59167 -14.40365,-22.36046 -8.3675,-9.63703 -14.34841,-12.88524 -43.70669,-23.73696 -13.00066,-4.80545 -20.76838,-8.83995 -31.99836,-16.61973 -13.32991,-9.23456 -16.22496,-10.59614 -28.62044,-13.46062 -13.33742,-3.08216 -14.83224,-3.12982 -45.50419,-1.45094 -26.10824,1.42907 -78.19464,6.97124 -90.21413,9.59907 -1.61276,0.3526 -7.04165,3.69474 -12.0642,7.42697 -7.06203,5.24776 -9.13192,7.63569 -9.13195,10.53513 -3e-5,2.37008 -3.76554,8.7588 -10.23641,17.36751 -7.43797,9.89533 -10.23637,14.83255 -10.23641,18.06007 -3e-5,2.61097 -4.57604,13.5783 -11.10193,26.60797 -10.37554,20.71593 -11.29219,23.32181 -14.01046,39.82969 -1.96887,11.95675 -3.14816,27.82114 -3.65014,49.1033 l -0.74156,31.43979 5.2777,19.74133 c 7.10083,26.56078 11.71075,37.36767 19.3588,45.38224 3.48011,3.64689 6.32747,7.47386 6.32746,8.50437 -6e-5,4.99998 17.41132,23.82258 31.43942,33.98765 8.04267,5.82789 18.95698,14.43321 24.25402,19.12293 8.90517,7.88418 10.16249,8.52679 16.68357,8.52686 4.53307,5e-5 16.24224,2.93049 32.776,8.20281 24.41866,7.78665 26.17984,8.60256 34.72195,16.08586 4.9492,4.33572 10.22075,7.88315 11.71457,7.88317 1.56922,10e-6 12.99772,10.34237 27.06642,24.49409 23.33408,23.47176 24.6693,25.13491 31.99142,39.84847 4.20258,8.44492 9.7936,22.66219 12.4245,31.59393 2.6309,8.93174 6.5058,19.63851 8.61089,23.79282 3.38952,6.68907 4.15752,7.37667 6.71221,6.00948 1.60751,-0.86029 2.88478,-3.05619 2.8848,-4.9596 z" style="opacity:1;fill:#000000;fill-opacity:0;fill-rule:evenodd;stroke:none;stroke-width:2.2218;stroke-miterlimit:4;stroke-dasharray:none"></path>
    <path id="path2482" d="m 511.3321,956 h -1.54388 l -65.43194,-65.49391 -65.43192,-65.49391 -91.33238,1.75588 -91.33238,1.75588 V 735.75224 642.9805 L 132.1298,579.04006 68,515.09961 v -1.52664 -1.52665 l 64.1298,-63.82029 64.1298,-63.82029 v -92.55382 -92.5538 h 93.07401 93.07398 L 446.94113,133.64906 511.47467,68 l 64.36579,65.64906 64.3658,65.64906 h 93.09916 93.09918 v 92.69329 92.6933 l 24.39721,23.96562 24.39721,23.96563 40.40049,40.53054 40.40049,40.53054 -64.76444,64.67442 -64.76446,64.67442 -0.7303,91.80574 -0.73032,91.80574 -90.6182,-1.00304 -90.6182,-1.00305 -65.44906,65.68436 L 512.87599,956 Z m -5.14435,-38.94789 h 2.3561 v -13.81209 -13.81206 l -5.20991,-2.782 -5.20987,-2.78199 -1.76076,1.75677 -1.76072,1.75678 v 9.74977 9.74974 l 4.61453,5.08754 4.61453,5.08754 z m 16.29736,-4.17299 5.57651,-5.03535 v -13.90996 -13.90996 l -5.57651,5.03535 -5.5765,5.03535 v 13.90996 13.90996 z m -33.985,-25.16406 0.86815,-13.28786 -5.74759,-5.73468 -5.74759,-5.73469 v 13.61362 13.61363 l 4.87944,5.40891 4.87944,5.40892 z m 53.88183,5.34782 5.19744,-4.69305 -0.19601,-7.2193 -0.19602,-7.2193 -1.99552,-5.04998 -1.9955,-5.04999 -4.60385,5.07578 -4.60385,5.07577 1.59789,11.88656 1.59792,11.88656 5.19742,-4.69305 z m -72.4785,-18.17053 1.83727,-6.5251 0.27798,-6.98127 0.27799,-6.9813 -5.29165,-3.29728 -5.29163,-3.29724 -1.64092,6.10555 -1.64091,6.10556 -0.0382,5.34493 -0.0382,5.34493 4.85544,5.35317 4.85546,5.35313 1.83723,-6.52508 z m 86.23986,3.21187 h 2.98742 l 3.69056,-3.6823 3.69058,-3.68227 -1.32762,-8.1412 -1.32763,-8.14116 -1.20098,-3.7908 -1.20099,-3.79083 -4.14936,3.43596 -4.14939,3.43595 v 12.17831 12.17834 z m -102.96371,-18.59695 1.99552,-5.04998 0.19602,-7.09409 0.19601,-7.09408 -3.3459,-3.33839 -3.3459,-3.33839 h -1.86579 -1.86579 l -1.67599,10.30486 -1.67602,10.30484 4.6962,5.17762 4.69623,5.17759 1.99549,-5.04998 z m 119.46297,1.905 h 2.13653 l 3.21243,-3.86208 3.21245,-3.86204 -1.86958,-11.66534 -1.86955,-11.66537 -5.3881,5.37604 -5.38813,5.376 1.9087,10.15141 1.9087,10.15138 z m -136.44753,-15.87856 2.055,-2.20439 1.79352,-8.51493 1.79351,-8.51493 -5.31045,-4.79509 -5.31047,-4.7951 -1.84859,11.53444 -1.84858,11.53448 3.31052,3.97997 3.31052,3.97995 z m 155.035,-1.44388 4.15117,-4.14186 -1.90521,-10.13279 -1.90518,-10.1328 h -2.13656 -2.13652 l -3.04625,3.66227 -3.04625,3.66225 2.93684,10.61238 2.93681,10.61238 z M 420.92425,833.59234 h 0.92166 l 2.8359,-10.24769 2.8359,-10.24772 -3.04624,-3.66224 -3.04625,-3.66227 h -2.13653 -2.13655 l -1.87042,9.94785 -1.87044,9.94787 3.29566,3.96209 3.29565,3.96211 z m 184.32592,-3.49115 4.0723,-4.06318 -1.90522,-10.13279 -1.90518,-10.1328 h -2.13656 -2.13652 l -3.38151,4.06533 -3.38151,4.06532 3.35095,10.13063 3.35092,10.13065 z m -195.2035,-16.65144 3.499,-6.28633 0.0987,-4.52786 0.0987,-4.52783 -3.74476,-3.10089 -3.74474,-3.1009 -3.22589,7.06415 -3.22587,7.06415 v 3.48566 3.4857 l 3.37281,3.36524 3.37281,3.36524 3.49903,-6.28633 z m 209.05857,2.82745 4.37862,-4.36879 -3.35728,-10.14982 -3.35728,-10.14982 -3.92418,3.24948 -3.92419,3.24948 v 3.65125 3.65123 l 2.90285,7.6179 2.90282,7.6179 z m -219.95506,-18.21935 3.53056,-10.07941 -4.02514,-4.01609 -4.02515,-4.01611 -4.40059,10.50842 -4.40059,10.50842 4.8952,3.5871 4.89517,3.58707 z m 234.71197,8.56058 5.72955,-1.49494 v -1.17736 -1.17737 l -5.73867,-11.22347 -5.73869,-11.22351 -3.85445,3.19176 -3.85448,3.19175 1.14566,3.27407 1.14567,3.2741 2.71793,7.42995 2.71793,7.42997 z m -324.0539,-0.96519 7.74032,-0.11907 20.47149,-30.8228 20.47149,-30.82281 -3.96339,-3.95449 -3.96339,-3.95449 -9.92389,14.72703 -9.92389,14.72701 -14.32454,20.16944 -14.3245,20.16945 7.7403,-0.11907 z m 21.31515,0.11907 h 6.9333 l 10.37612,-17.38745 10.37611,-17.38745 5.17202,-8.69186 5.17198,-8.69184 -3.86295,-3.19876 -3.86293,-3.19876 -16.60597,25.80055 -16.60594,25.80059 -2.01253,3.47749 -2.0125,3.47749 z m 21.97539,-0.0476 6.27357,-0.0476 10.50736,-19.7749 10.50733,-19.77493 -3.15558,-3.7937 -3.15557,-3.79371 -2.31378,1.42677 -2.31375,1.42677 -11.31157,20.44553 -11.31158,20.44553 v 1.744 1.744 l 6.27357,-0.0476 z m 20.91468,-1.80137 4.87665,-1.32668 6.41496,-12.56255 6.41496,-12.56256 -3.27104,-3.93252 -3.27106,-3.93254 h -2.04613 -2.04613 l -7.19088,15.85797 -7.19085,15.858 1.21641,1.96378 1.21643,1.9638 z m 319.55816,-1.16234 2.39728,-2.05058 -17.36588,-26.74708 -17.36587,-26.74707 -3.89575,3.22591 -3.89572,3.22592 7.37331,12.83767 7.37328,12.8377 7.27425,11.74679 7.27424,11.74682 4.21681,0.98725 4.21679,0.98725 z m 41.24959,3.01139 h 8.6505 l -7.29978,-9.04147 -7.29979,-9.04148 -22.59825,-29.21092 -22.59826,-29.21091 h -2.98892 -2.98889 l -0.9414,2.81785 -0.9414,2.81785 21.13242,27.78406 21.13241,27.78406 4.04545,7.65048 4.04542,7.65048 z M 234.50469,802.9904 h 8.5835 l 36.39042,-38.39172 36.39043,-38.39168 5.58696,-7.08674 5.58696,-7.08671 -3.1133,-3.10631 -3.11331,-3.10632 -22.54578,22.91886 -22.54578,22.91886 -24.9018,25.66588 -24.90177,25.66588 z m 29.21687,-0.17749 9.21498,-0.17749 27.88252,-33.38274 27.88252,-33.38277 4.86938,-6.44643 4.8694,-6.44646 -3.78157,-3.13138 -3.78159,-3.13136 -38.18528,43.13794 -38.18531,43.13818 z m 26.50301,0.0167 7.80624,-0.16163 23.70014,-33.07558 23.70015,-33.07555 v -3.39231 -3.39228 l -3.12145,-1.03815 -3.12145,-1.03816 -26.1552,33.72064 -26.1552,33.72064 -2.22974,3.94706 -2.22974,3.94709 7.80625,-0.16163 z m 359.82308,0.0951 6.27357,0.0657 v -1.48347 -1.4835 l -7.30606,-14.51296 -7.30606,-14.51298 -0.9913,-1.09193 -0.99134,-1.09193 -4.00831,3.31913 -4.00831,3.31914 6.03211,13.70368 6.03213,13.70368 6.27357,0.0657 z m 19.26417,0.0657 h 6.72337 l -3.2366,-6.25948 -3.2366,-6.25949 -9.68073,-16.11179 -9.68073,-16.11177 -3.89123,3.22219 -3.89123,3.22218 10.08519,19.14907 10.08522,19.14909 z m 41.87991,0 h 6.93575 l -0.92943,-2.32903 -0.92941,-2.329 -22.09503,-30.99303 -22.095,-30.99307 -3.66561,3.03538 -3.66563,3.03535 1.89462,3.16229 1.89464,3.16226 17.85968,27.12443 17.85967,27.12442 z m 48.50865,0 h 8.50735 l -28.48997,-32.68841 -28.48997,-32.68841 -9.60944,-10.74948 -9.6094,-10.74945 -3.90643,3.89766 -3.90639,3.89762 16.03624,18.16191 16.03627,18.1619 17.46221,21.37833 17.46221,21.37833 z m 28.28562,0 h 8.51092 l -13.38637,-14.60546 -13.38638,-14.60546 -33.43025,-34.06488 -33.43025,-34.06486 -3.74716,3.10287 -3.74713,3.10287 8.73136,10.09705 8.73132,10.09707 33.32151,35.4704 33.32151,35.4704 z m 15.61371,-10.06135 0.89525,-3.78374 -0.89525,-4.95269 -0.89525,-4.95276 -43.81443,-40.98264 -43.8144,-40.98261 h -2.72426 -2.72426 l -1.96026,3.16463 -1.96022,3.16463 48.49891,46.55441 48.49892,46.55442 0.89525,-3.78374 z m -582.9429,1.60554 2.09119,-0.10989 47.40029,-45.62367 47.40028,-45.6237 -3.3628,-3.38557 -3.3628,-3.38557 -11.97258,10.6054 -11.97259,10.60551 -34.15609,31.80585 -34.15609,31.80587 v 6.70775 6.70777 l 2.09119,-0.10961 z m 4.06159,-28.91258 6.15278,-4.2999 29.39744,-26.06721 29.39743,-26.06721 9.35782,-8.15277 9.35782,-8.15279 -3.82749,-3.16942 -3.82749,-3.16938 -41.08054,33.57987 -41.08055,33.57987 v 8.10942 8.10943 z m 578.94123,-4.04974 0.95514,-7.26682 -12.10815,-10.79185 -12.10818,-10.79182 -28.65172,-23.56848 -28.65174,-23.56845 -4.0696,3.36985 -4.06956,3.36989 13.20354,11.82956 13.20355,11.82956 30.67077,26.42767 30.67078,26.42767 z m -576.03219,-23.89871 9.06182,-7.29819 25.31694,-19.2858 25.31697,-19.2858 4.83839,-5.33436 4.8384,-5.33439 -2.9699,-1.83135 -2.96988,-1.83136 -3.48532,2.03194 -3.48531,2.03197 -32.76197,23.79148 -32.76196,23.79149 v 7.92628 7.92629 z m 575.24158,6.89492 h 1.22956 l -0.0951,-7.65048 -0.0951,-7.65048 -34.66138,-26.06813 -34.66141,-26.0681 -4.45587,1.70603 -4.45585,1.70603 1.52545,2.4627 1.52545,2.46271 34.87861,27.00134 34.87861,27.00133 1.57863,2.54852 1.57859,2.54853 h 1.22959 z m -565.68039,-35.1239 19.01839,-13.4306 15.95865,-11.60914 15.95862,-11.60912 -4.08942,-3.38629 -4.08939,-3.3863 -29.99287,19.5191 -29.99286,19.51912 -0.89475,8.90691 -0.89475,8.90691 z m 566.44869,5.79884 0.9329,-4.38387 -1.49576,-3.88905 -1.49573,-3.88909 -27.759,-18.20436 -27.75903,-18.20435 h -2.8136 -2.8136 l -1.16078,3.47451 -1.16077,3.47452 18.35498,13.2859 18.35501,13.28593 13.94126,9.71686 13.94126,9.71686 z m -560.38786,-31.5128 21.32232,-13.24976 5.99536,-3.79091 5.99535,-3.79094 -1.41423,-3.67713 -1.41423,-3.67715 h -2.84226 -2.84226 l -24.04488,14.4798 -24.04488,14.47977 -0.58649,0.24731 -0.58645,0.24705 1.57018,5.99088 1.57017,5.99088 21.3223,-13.24977 z m 560.15206,13.4824 0.69706,0.0615 v -6.76825 -6.76825 l -23.81267,-14.35125 -23.81268,-14.35124 -4.06985,1.55823 -4.06984,1.55825 v 2.6023 2.60233 l 27.18546,16.89735 27.18546,16.89735 0.69706,0.0615 z m -261.39864,-6.13477 18.12364,-2.05194 19.51776,-9.65916 19.51777,-9.65916 16.31964,-16.12312 16.31961,-16.12309 6.53848,-11.12797 6.53845,-11.12797 4.32737,-16.58095 4.32736,-16.58095 V 563.53424 545.0245 l -2.60166,-13.68773 -2.60166,-13.68777 -5.95994,-15.89357 -5.95995,-15.89361 -13.77857,-15.04212 -13.77859,-15.04212 -13.91229,-8.90744 -13.91226,-8.90744 -16.97277,-5.27065 -16.97273,-5.27065 -18.57227,0.1213 -18.57229,0.12101 -12.54714,2.71893 -12.54713,2.71895 -9.75889,1.60852 -9.75888,1.60855 0.55921,-24.24871 0.55921,-24.24871 1.77601,-1.76036 1.776,-1.76036 65.96896,-0.006 65.96894,-0.006 6.97866,-12.79171 6.97863,-12.79174 7.91365,-10.29022 7.91364,-10.29026 -1.55255,-4.03687 -1.55259,-4.03686 h -4.36799 -4.36799 l -7.13096,4.6619 -7.13095,4.66189 -36.6859,1.15728 -36.68593,1.15731 -45.86635,-4.24874 -45.86636,-4.24877 -1.53393,0.94838 -1.53393,0.94838 v 84.37972 84.37968 l 5.17393,0.99482 5.17397,0.99481 11.55555,-8.23367 11.55557,-8.23367 11.73899,-5.93688 11.73899,-5.93685 h 14.9404 14.94041 l 14.0401,4.1601 14.04008,4.16008 13.08635,11.49322 13.08636,11.49319 6.43977,12.86212 6.43978,12.86213 1.76457,7.32626 1.76458,7.32627 0.3287,22.45081 0.32871,22.45079 -4.90674,15.56477 -4.90674,15.56478 -12.8201,13.62436 -12.82013,13.62433 -13.94127,6.21269 -13.94126,6.21269 -18.12364,0.10794 -18.12364,0.10794 -11.49933,-6.04757 -11.49934,-6.04758 -7.7439,-9.16347 -7.74389,-9.16346 -3.75985,-8.95212 -3.75985,-8.95212 v -12.01884 -12.01885 l 6.27357,-12.41294 6.27357,-12.41295 14.60149,-6.95498 14.60149,-6.95498 1.34344,-3.47749 1.34346,-3.47749 -1.60492,-4.17298 -1.60494,-4.17299 -15.73414,0.0167 -15.73413,0.0167 -11.15301,3.04428 -11.15301,3.04428 -12.79298,13.15587 -12.793,13.15585 -3.23945,12.83619 -3.23947,12.8362 v 15.11025 15.11028 l 4.30096,12.16287 4.30096,12.16287 8.94324,9.30025 8.94323,9.30023 12.59384,6.42462 12.59381,6.4246 12.50046,3.40702 12.50043,3.40699 20.9119,1.75772 20.91189,1.75772 18.12364,-2.05191 z m -307.40481,-21.95345 16.03245,-9.0842 7.74225,-4.62757 7.74223,-4.62754 -4.11722,-3.40933 -4.11719,-3.4093 -19.65749,10.30653 -19.65748,10.30653 v 6.81454 6.81455 z m 569.0395,2.51595 0.93315,-5.60977 -2.32727,-2.06065 -2.32724,-2.06065 -17.37112,-9.35818 -17.37112,-9.3582 -3.54077,3.68185 -3.54078,3.68186 4.18238,2.55526 4.18238,2.55523 18.12364,10.79151 18.12364,10.79149 z m -581.58664,-14.16165 3.48532,-1.4429 14.63832,-6.18064 14.63833,-6.18062 v -2.07044 -2.07044 l -3.77741,-3.12793 -3.77742,-3.12794 -14.2805,6.26477 -14.28051,6.2648 -0.0658,6.55713 -0.0658,6.55712 3.48532,-1.44291 z m 581.35059,0.71264 0.69706,0.13493 v -6.47943 -6.47945 l -13.83712,-6.46641 -13.83712,-6.46641 -4.5229,3.74526 -4.52291,3.74526 17.66296,9.06562 17.66297,9.06559 0.69706,0.13493 z m -581.02539,-19.45558 3.16012,-0.11657 9.2727,-4.93211 9.27269,-4.93214 -4.28535,-3.54851 -4.28535,-3.54855 -9.57444,3.15275 -9.57444,3.15278 1.42698,5.4445 1.42697,5.44449 3.16012,-0.11656 z m 579.30607,0.0437 1.766,0.0729 1.42697,-5.4445 1.42697,-5.44449 -9.57444,-3.15278 -9.57444,-3.15275 -4.43753,3.67454 -4.4375,3.67454 10.81897,4.84976 10.81901,4.84977 1.76599,0.0729 z m -587.43837,-13.96248 2.92766,-0.12547 8.01829,-3.41654 8.01829,-3.41656 -4.32162,-3.57856 -4.3216,-3.57859 -9.97026,1.86624 -9.97023,1.86619 v 1.91599 1.91598 l 3.3459,3.3384 3.3459,3.33839 z m 601.00776,-4.56675 4.18238,-3.85498 -4.18238,-2.70596 -4.18237,-2.70599 -6.57284,-1.74295 -6.57285,-1.74291 -2.44628,3.854 -2.44627,3.85403 -0.0427,1.68405 -0.0427,1.68406 9.06182,2.76582 9.06182,2.76581 4.18238,-3.85498 z m -609.48589,-10.81222 8.61754,-1.84181 1.96943,-1.15294 1.9694,-1.15295 -1.57065,-4.0839 -1.57068,-4.08389 h -5.09668 -5.09667 l -7.4552,2.82809 -7.4552,2.82812 3.53558,4.25055 3.53559,4.25058 z m 616.59594,1.46901 2.92766,0.12547 3.3459,-3.3384 3.34591,-3.33839 v -2.09954 -2.09951 l -9.78945,-1.83239 -9.78944,-1.83239 -4.50241,3.72826 -4.50242,3.72829 8.01829,3.41656 8.01829,3.41654 2.92767,0.12547 z m -629.92532,-16.6473 9.84158,-2.21464 1.24061,-1.23785 1.2406,-1.23781 -3.93812,-3.26103 -3.93813,-3.26102 -11.56043,1.84443 -11.5604,1.84443 4.41634,4.86907 4.41637,4.86908 z m 643.99208,2.73734 3.05316,0.12546 4.71031,-5.19314 4.7103,-5.19315 -11.5604,-1.84443 -11.56043,-1.84443 -4.22133,3.49554 -4.22135,3.49555 8.01828,3.41656 8.01829,3.41654 3.05317,0.12547 z m -656.14459,-17.04519 11.63429,-2.60817 0.77243,-0.7707 0.77243,-0.77069 -6.74389,-3.60112 -6.74389,-3.60112 -10.2531,1.91918 -10.2531,1.91916 4.59027,5.06083 4.59027,5.06081 z m 667.38835,0.25901 8.7204,0.2195 3.20083,-3.84811 3.20083,-3.84808 -4.48158,-1.71591 -4.48159,-1.71587 h -7.79531 -7.79531 l -3.24603,3.90244 -3.24606,3.90246 3.6017,1.44191 3.6017,1.44191 8.72042,0.2195 z m -686.67832,-14.85982 8.0803,-1.61244 h 4.45345 4.45346 l -5.87571,-5.86252 -5.87572,-5.86252 -11.65587,1.96481 -11.65584,1.96484 4.99783,5.51012 4.9978,5.51013 z m 706.00456,0.72432 2.9524,0.44523 5.41236,-4.12013 5.41236,-4.1201 -4.18238,-2.79226 -4.18238,-2.79226 -8.62966,-0.0426 -8.62967,-0.0426 -4.8696,5.36875 -4.86957,5.36874 9.31689,1.14101 9.31686,1.14103 2.95239,0.4452 z m -718.49768,-18.51777 11.81926,-1.12462 -4.76836,-5.25716 -4.76836,-5.25713 -14.20617,0.0879 -14.20617,0.0879 7.15527,6.29384 7.15527,6.29384 z m 739.47474,-1.00564 4.41171,-1.98353 3.5974,-4.32486 3.5974,-4.32488 h -13.85053 -13.8505 l -4.88003,5.38026 -4.88002,5.38026 10.72144,0.92813 10.72144,0.92813 z m -608.85285,-0.006 13.33169,-0.50146 -13.24419,-1.04196 -13.2442,-1.04197 0.046,-3.32507 0.0457,-3.32506 6.31252,-11.12797 6.31249,-11.12797 59.86263,-1.47471 59.86261,-1.47473 -60.59751,-0.61176 -60.59753,-0.61298 -7.2076,14.19158 -7.20761,14.19158 1.49663,3.89137 1.49662,3.89136 13.33172,-0.50145 z m 28.66708,-3.11539 h 15.33539 l -7.6677,-1.15895 -7.66769,-1.15895 -7.66769,1.15895 -7.6677,1.15895 z m -28.57958,-3.06297 7.66769,-1.55672 28.875,-2.8373 28.87503,-2.83733 h 19.15072 19.15075 l 3.96525,-7.65047 3.96523,-7.65048 -54.42492,0.14995 -54.4249,0.14995 -5.11692,9.58696 -5.11689,9.58697 -0.11683,2.30755 -0.11682,2.30753 7.66769,-1.55672 z m 76.71792,0.52379 30.0147,0.59084 5.52509,-9.04147 5.52509,-9.04148 -0.0507,-4.17299 -0.0507,-4.17299 -5.3359,11.72755 -5.33591,11.72751 -30.15308,0.89608 -30.15308,0.89611 30.0147,0.59084 z M 127.41757,527.57312 h 13.94126 l -5.04665,-5.56399 -5.04668,-5.56398 h -13.94126 -13.94126 l 5.04668,5.56398 5.04665,5.56399 z m 767.82904,0 h 13.94126 l 5.04668,-5.56399 5.04668,-5.56398 h -13.94126 -13.94126 l -5.04669,5.56398 -5.04668,5.56399 z m -778.18728,-19.56241 13.67634,-0.0885 4.87945,-3.69571 4.87944,-3.69571 v -1.77978 -1.77981 h -13.50911 -13.50914 l -5.04665,5.56399 -5.04668,5.56398 z m 788.28064,0.0885 h 13.94126 l -5.04668,-5.56398 -5.04668,-5.56398 h -13.94126 -13.94127 l 5.04668,5.56398 5.04669,5.56398 z M 146.67003,491.041 l 4.78133,0.36622 2.81973,-5.25691 2.81976,-5.25688 -6.20696,-1.6601 -6.20695,-1.66009 -4.84758,-0.0381 -4.84757,-0.0378 -5.73605,4.86848 -5.73604,4.86849 9.18949,1.72027 9.18949,1.72028 z m 739.67971,-1.98017 12.88164,-1.02221 -4.78063,-5.27068 -4.78065,-5.27068 h -12.11498 -12.11499 v 1.86744 1.86744 l 4.014,4.42545 4.01399,4.42546 z M 155.48852,471.93336 h 12.20574 l 3.26505,-3.92531 3.26507,-3.92531 -2.22659,-1.36323 -2.22658,-1.3632 -8.71324,-0.90476 -8.71323,-0.90473 -4.53096,3.7519 -4.53097,3.75194 v 2.44133 2.44137 z m 708.20182,-0.0426 8.72042,-0.0426 3.61729,-2.28944 3.61731,-2.28947 -4.66294,-3.86121 -4.66296,-3.86121 -8.71323,0.90473 -8.71323,0.90476 -2.22659,1.36321 -2.22659,1.36323 3.26508,3.9253 3.26504,3.92531 8.7204,-0.0426 z m -677.60142,-19.29036 5.16471,-4.30051 -11.80011,-2.32833 -11.80013,-2.32837 -4.31555,4.30589 -4.31557,4.30588 3.98034,1.35681 3.98034,1.3568 6.97063,0.96619 6.97063,0.96616 z m 661.99473,3.40722 7.5976,-1.21748 3.98034,-1.26759 3.98034,-1.26759 -4.37594,-4.36611 -4.37593,-4.36612 -11.63694,1.96164 -11.63691,1.96164 4.43494,4.88955 4.43491,4.88952 z m -651.7977,-12.1859 1.4205,0.29169 3.40928,-5.44689 3.40931,-5.44692 -10.2654,-2.82804 -10.26539,-2.82806 -5.19652,4.69222 -5.1965,4.69222 10.63214,3.29101 10.63211,3.29105 z m 638.48341,-2.95838 9.75888,-2.18119 2.68869,-0.0662 2.68865,-0.0665 -4.53559,-4.52541 -4.5356,-4.52541 -12.64282,1.89164 -12.64283,1.89167 4.73085,4.88129 4.73089,4.88131 9.75888,-2.18117 z m -619.68906,-14.24875 3.48532,-2.65641 v -1.97457 -1.97461 l -10.43269,-3.19467 -10.43267,-3.1947 -5.28304,5.27115 -5.28301,5.27115 12.23039,2.55454 12.23039,2.55456 z m 608.63615,-0.1811 11.1217,-2.96188 -4.93711,-4.92602 -4.9371,-4.92602 -10.43955,3.19679 -10.43955,3.19679 4.25496,4.69113 4.25495,4.69111 z m -602.19843,-10.35166 1.55827,0.21171 5.41236,-3.96517 5.41236,-3.96515 -6.97063,-2.59037 -6.97063,-2.59039 -4.18238,-1.42742 -4.18238,-1.42741 -5.08148,4.42356 -5.08145,4.42357 9.26383,3.34773 9.26386,3.34774 1.55827,0.21171 z m 579.79231,-0.0846 1.39413,-0.12714 9.26385,-3.34774 9.26383,-3.34773 -5.10986,-4.61399 -5.10983,-4.61397 -11.09136,4.88251 -11.09134,4.88248 5.54324,3.20627 5.54322,3.20628 1.39412,-0.12714 z m -4.59897,-15.43177 8.78135,-4.45352 0.7627,-0.63903 0.7627,-0.63899 -1.72922,-4.49617 -1.72925,-4.49618 -10.04325,4.18693 -10.04326,4.18693 -1.23762,1.23481 -1.2376,1.23484 3.46605,4.16696 3.46605,4.16695 z m -561.06059,1.60641 1.7498,0.21171 3.21887,-3.86981 3.2189,-3.86981 -7.75692,-2.80063 -7.75692,-2.8006 -4.63558,-1.87982 -4.63555,-1.87982 -1.03807,5.07274 -1.03806,5.07277 8.4619,3.26583 8.46187,3.26584 1.74976,0.21171 z m 11.19612,-11.03928 4.58113,0.12296 1.43121,-3.72127 1.43121,-3.72128 -15.13592,-7.40669 -15.13594,-7.40669 h -1.33234 -1.33237 v 5.49752 5.49752 l 10.45595,5.50748 10.45594,5.50751 4.58113,0.12297 z m 527.78517,0.12296 h 3.66337 l 12.90158,-5.69415 12.90157,-5.69418 v -6.86485 -6.86484 l -17.42657,8.71573 -17.42658,8.71576 -0.97628,0.87619 -0.97625,0.87619 1.83788,2.96708 1.83788,2.96707 z m -511.57391,-12.71812 4.0629,-3.93408 -2.66877,-2.47221 -2.66875,-2.47222 -21.60896,-11.70907 -21.60895,-11.70907 v 6.94847 6.9485 l 20.21483,11.16689 20.21483,11.16688 z m 503.39903,1.46933 2.78825,-0.0356 16.72952,-8.96327 16.72951,-8.96324 0.89098,-6.25949 0.89099,-6.25948 h -1.28734 -1.28733 l -22.91723,12.85881 -22.91723,12.85879 3.79581,2.39955 3.79582,2.39955 z m -492.33901,-12.38484 4.06293,-4.05381 -1.22814,-1.09388 -1.22817,-1.09388 -22.30602,-13.82881 -22.30602,-13.82881 -6.27356,-3.32437 -6.27357,-3.3244 v 6.90163 6.90159 l 25.7448,15.39927 25.74482,15.3993 z m 480.05143,1.3777 h 2.00451 l 23.96224,-14.07171 23.96223,-14.07173 v -6.79321 -6.79324 h -1.23026 -1.23026 l -26.73819,17.06989 -26.73817,17.06989 -1.10273,-1.10025 -1.10272,-1.10023 29.05543,-19.44715 29.0554,-19.44713 0.0167,-7.88742 0.0167,-7.88742 -14.63833,10.51295 -14.63832,10.51296 -18.91085,13.82032 -18.91085,13.8203 7.58243,7.8966 7.58243,7.89658 h 2.0045 z m -470.63871,-12.71635 2.46395,-4.39293 -1.54056,-1.53708 -1.54057,-1.53711 -31.47697,-21.86476 -31.47699,-21.86473 -0.93775,5.88355 -0.93774,5.88355 3.72599,3.6014 3.726,3.6014 27.76536,18.30982 27.76536,18.30982 z m 9.67482,-10.16181 4.10035,-3.39534 -9.17291,-7.03271 -9.1729,-7.03268 -28.08077,-22.95144 -28.08074,-22.95143 h -2.11656 -2.11656 v 6.78517 6.78519 l 35.26986,26.59429 35.26988,26.59431 z m 439.0117,3.40421 h 3.07257 l 21.16011,-15.76291 21.1601,-15.76288 13.2442,-10.92507 13.24419,-10.92511 v -6.74313 -6.74313 l -33.6694,25.78064 -33.6694,25.78063 -5.76713,4.48677 -5.76714,4.48674 1.95969,3.16374 1.95967,3.16371 z m -428.14769,-12.36824 3.25068,-2.93272 -7.43306,-7.93591 -7.43304,-7.93591 -35.28603,-30.31648 -35.28605,-30.31648 h -1.65829 -1.65831 v 6.39037 6.39038 l 10.45595,10.138 10.45594,10.13796 30.67078,24.65675 30.67077,24.65676 z m 441.06319,-15.87299 24.11252,-19.75887 17.26215,-14.25234 17.26213,-14.25234 0.16451,-7.65048 0.16423,-7.65048 h -1.78198 -1.78197 l -18.40071,15.99645 -18.40073,15.99646 -24.54306,21.83419 -24.54306,21.83416 3.18663,3.83105 3.18667,3.83105 z m -431.1204,6.97774 2.14194,-1.32081 v -3.46463 -3.46464 l -47.17093,-45.05603 -47.1709,-45.05606 h -1.62351 -1.62349 v 6.71965 6.71968 l 33.97137,31.53274 33.97139,31.53271 12.68111,11.58909 12.68111,11.58911 z m 413.08255,-11.32816 14.26785,-13.18762 3.0042,-2.84378 3.00418,-2.84381 28.36366,-26.13932 28.36363,-26.13929 v -8.17196 -8.17194 l -2.3878,0.92733 -2.3878,0.92734 -46.872,45.05832 -46.872,45.05831 3.62412,4.35699 3.62411,4.35699 z m -403.40773,-1.25782 3.68888,-3.05466 -3.47215,-4.49937 -3.47216,-4.49937 -19.79115,-20.86494 -19.79115,-20.86494 -17.89779,-19.89256 -17.89779,-19.89252 -7.82579,-0.27681 -7.82582,-0.27681 3.64344,5.11517 3.64341,5.11517 41.65459,43.47324 41.65459,43.47322 z m 425.67954,-44.33878 47.0803,-48.39239 -7.9609,-0.94129 -7.96091,-0.94129 -23.7636,24.59896 -23.76361,24.59899 -18.76346,20.63798 -18.76343,20.63796 3.40764,4.09674 3.40766,4.09673 z m -417.34454,36.22699 3.32079,0.23146 1.72475,-2.78447 1.72476,-2.78447 -31.11879,-36.66904 -31.11879,-36.66894 -1.4105,-3.66748 -1.41052,-3.66747 h -9.47883 -9.47883 l 36.96261,42.88947 36.9626,42.88951 3.32075,0.23146 z m 360.28644,-0.23285 2.52563,-0.92685 14.8995,-16.8759 14.8995,-16.8759 16.41714,-18.70731 16.41718,-18.70731 5.39415,-6.84217 5.39418,-6.84209 h -8.1862 -8.18617 l -32.73915,38.96091 -32.73916,38.96091 1.6889,4.39132 1.6889,4.39132 2.5256,-0.92685 z m -347.24913,-10.57141 3.02007,-3.01328 -3.86689,-6.19005 -3.86688,-6.19004 -22.43372,-29.90642 -22.43375,-29.90641 h -7.81681 -7.81681 l 20.00195,25.73342 20.00191,25.73343 11.09544,13.37629 11.09545,13.37632 z m 335.9489,-0.0924 h 2.05221 l 26.36281,-32.49019 26.36285,-32.49019 3.6434,-5.0667 3.64344,-5.06671 h -7.07686 -7.07686 l -26.4826,35.13364 -26.48263,35.13367 1.50103,2.42325 1.501,2.42323 z m -326.86299,-11.41755 3.76097,-3.1143 -2.05534,-3.35939 -2.05533,-3.35942 -17.77951,-26.93158 -17.77951,-26.93155 h -7.92611 -7.92611 l 23.99999,33.40527 23.99996,33.4053 z m 317.81188,3.07157 h 1.01211 l 6.31416,-9.44519 6.31417,-9.44523 16.03245,-22.76949 16.03245,-22.76952 v -1.16922 -1.16916 h -6.3759 -6.37587 l -19.95011,29.81662 -19.95011,29.81661 2.96726,3.56729 2.96725,3.56729 z m -309.26432,-11.25808 3.32078,0.1302 1.66874,-2.69405 1.66877,-2.69406 -14.7193,-25.12595 -14.71926,-25.12587 h -7.52396 -7.52393 l 17.2537,27.68978 17.25371,27.68984 3.32075,0.1302 z m 298.84894,0.0298 1.7498,-0.10015 16.03245,-26.03925 16.03245,-26.03926 v -1.87392 -1.87392 l -6.08796,0.88901 -6.08798,0.88899 -14.44423,23.64693 -14.44423,23.64694 2.74996,3.47749 2.74997,3.47749 1.74977,-0.10016 z m -285.34346,-13.88982 3.53922,-2.93069 -10.18273,-19.33983 -10.18272,-19.33979 -6.51356,-0.0195 -6.51352,-0.0195 10.39865,18.77845 10.39867,18.77844 2.75839,3.51182 2.75839,3.5118 3.53921,-2.93069 z m 273.76156,2.85944 2.17869,-0.003 12.03987,-22.25321 12.03989,-22.25319 -6.46339,0.0111 -6.46336,0.0111 -9.36267,18.06606 -9.36265,18.06609 1.60746,4.17958 1.60745,4.17956 2.17871,-0.003 z M 383.31193,254.93797 h 1.86601 l 2.88213,-3.47749 2.8821,-3.47749 -6.02602,-13.15485 -6.02603,-13.15484 -6.27357,-0.0595 -6.27356,-0.0595 v 1.32937 1.32935 l 7.55148,15.36261 7.55148,15.36258 z m 256.25658,0 h 1.64975 l 7.55148,-15.36261 7.55148,-15.36258 v -1.32937 -1.32935 h -5.52953 -5.52955 l -6.86121,13.50958 -6.86122,13.50958 3.18951,3.18237 3.18953,3.18238 z m -240.85425,-13.50215 3.7874,-5.39515 -3.0167,-8.6343 -3.01672,-8.6343 -1.81844,0.0426 -1.81842,0.0426 -3.63802,2.30224 -3.63806,2.30226 4.68577,11.68459 4.68577,11.68459 3.78742,-5.39514 z m 229.36877,2.34589 1.74979,-0.0284 4.67239,-11.09968 4.67238,-11.09967 h -3.97532 -3.97532 l -0.20689,-3.47749 -0.20689,-3.47749 -5.00714,11.12797 -5.00715,11.12797 2.76709,3.47749 2.76709,3.47749 1.74977,-0.0284 z m -218.26394,-14.0955 3.92418,-3.24945 -0.0987,-4.52785 -0.0987,-4.52784 -3.58558,-6.44774 -3.58559,-6.44774 -3.53809,4.25359 -3.5381,4.25355 3.29828,9.9715 3.29831,9.97146 z m 209.25992,-3.07543 3.58558,-6.44771 0.0987,-4.52786 0.0987,-4.52783 -3.92419,-3.24948 -3.92419,-3.24948 -3.2983,9.97147 -3.29828,9.97149 3.53809,4.25356 3.5381,4.25358 3.58558,-6.44774 z m -194.61571,-8.99641 4.17591,-4.16656 -3.48945,-11.6206 -3.48947,-11.62064 -4.4423,4.43236 -4.44232,4.43235 3.75586,11.35481 3.75586,11.35482 z m 183.66381,-7.19189 3.39696,-11.70649 -4.08496,-4.07578 -4.08495,-4.07579 -2.3928,6.45333 -2.39276,6.45336 -1.43063,4.17299 -1.43062,4.17299 4.51139,5.15592 4.51139,5.15592 z m -170.27396,-7.02158 4.03968,-5.49377 -1.48957,-5.56399 -1.48957,-5.56398 -0.0382,-6.87772 -0.0382,-6.8777 -5.79262,5.77961 -5.79262,5.77962 3.2806,12.15586 3.28058,12.15583 4.03967,-5.49376 z m 153.10011,3.56476 0.65491,-0.71256 2.80459,-10.24988 2.80459,-10.24986 -5.10091,-4.60587 -5.10088,-4.60589 -2.91738,10.54219 -2.9174,10.54219 4.55882,5.02611 4.55879,5.02612 z m -139.32034,-16.21907 3.93414,-3.25772 -0.19602,-8.70084 -0.19601,-8.70082 -1.99552,-5.04999 -1.9955,-5.04998 -5.04183,5.55861 -5.0418,5.55865 1.98468,9.22831 1.98467,9.22834 1.31447,2.22156 1.31449,2.22159 z m 127.54684,-8.23526 2.33725,-11.79205 -5.42315,-5.41098 -5.42315,-5.41097 -1.87967,11.72843 -1.87967,11.72846 4.96557,5.47457 4.96559,5.4746 z m -17.31304,-7.21854 2.05023,-5.20558 0.19601,-8.61033 0.19602,-8.61029 -5.26896,-4.75765 -5.26899,-4.75762 -1.21281,11.97694 -1.2128,11.97695 4.23558,6.59658 4.2356,6.5966 2.0502,-5.2056 z m -94.80392,-1.21562 5.23377,-2.79474 -0.32988,-6.16161 -0.3299,-6.16158 -1.76129,-7.9575 -1.76131,-7.95747 -4.97234,5.49696 -4.97232,5.49697 1.82973,11.41685 1.82974,11.41688 z m 16.74114,-18.21991 5.22214,-4.71536 v -10.23315 -10.23311 l -1.86492,-1.86073 -1.86492,-1.86074 -5.10571,4.61023 -5.10571,4.61024 0.0382,5.8283 0.0382,5.82833 1.7104,6.37068 1.7104,6.3707 5.22217,-4.71539 z m 61.38797,-0.1939 1.99553,-5.04996 0.10734,-6.95498 0.10735,-6.95498 -3.70402,-4.86849 -3.70403,-4.86848 h -1.41666 -1.41668 l -1.58596,11.79765 -1.58595,11.79767 4.60385,5.07578 4.60385,5.0758 1.99549,-5.05001 z m -17.65627,-24.65007 0.86815,-13.28785 -5.74759,-5.73469 -5.74759,-5.73469 v 13.61363 13.61362 l 4.87944,5.40892 4.87944,5.40891 z m -24.2017,6.88538 5.20991,-2.782 v -13.81211 -13.81207 h -1.87164 -1.87164 l -5.09899,4.60414 -5.09899,4.60417 v 10.23315 10.23311 l 1.76072,1.7568 1.76076,1.75677 z" style="fill:#3a4853;fill-opacity:1;stroke-width:2.78513"></path>
  </g>
</svg>
